<?xml version="1.0" encoding="UTF-8"?>
<!DOCTYPE svg PUBLIC "-//W3C//DTD SVG 1.1//EN" "http://www.w3.org/Graphics/SVG/1.1/DTD/svg11.dtd">
<!-- Creator: CorelDRAW X7 -->
<svg xmlns="http://www.w3.org/2000/svg" xml:space="preserve" width="27.0932mm" height="27.0932mm" version="1.1" style="shape-rendering:geometricPrecision; text-rendering:geometricPrecision; image-rendering:optimizeQuality; fill-rule:evenodd; clip-rule:evenodd"
viewBox="0 0 2709 2709"
 xmlns:xlink="http://www.w3.org/1999/xlink">
 <defs>
  <style type="text/css">
   <![CDATA[
    .fil0 {fill:black}
    .fil1 {fill:black}
   ]]>
  </style>
 </defs>
 <g id="Camada_x0020_1">
  <metadata id="CorelCorpID_0Corel-Layer"/>
  <path class="fil0" d="M2540 1355c0,654 -531,1185 -1185,1185 -655,0 -1186,-531 -1186,-1185 0,-655 531,-1186 1186,-1186 654,0 1185,531 1185,1186zm-1185 -1136c-628,0 -1136,508 -1136,1136 0,627 508,1136 1136,1136 627,0 1136,-509 1136,-1136 0,-628 -509,-1136 -1136,-1136z"/>
  <path class="fil1" d="M1355 367c545,0 987,442 987,988 0,545 -442,987 -987,987 -546,0 -988,-442 -988,-987 0,-546 442,-988 988,-988zm-207 547l207 13 206 -13 -8 -83 0 -51 5 -5 10 10 0 51 10 132 61 153 132 122 0 10 -10 0 -132 -122 -61 -153 -6 -56 -38 9 -153 8 -33 1 -153 -8 -38 -9 -6 55 -61 153 -132 122 -10 0 0 -10 132 -122 61 -153 10 -132 0 -51 10 -20 6 15 0 51 -9 83zm969 233l-79 -214 -114 -142 -180 -65 -156 -2 -10 -40 -30 0 -41 61 -152 54 -153 -54 -40 -61 -31 0 -10 40 -156 2 -180 65 -114 142 -78 214 206 182 119 -76 20 20 47 141 33 229 -44 375 44 11 337 -65 337 65 44 -11 -44 -375 33 -229 46 -141 21 -20 118 76 207 -182zm-762 55l141 65 65 76 -76 -65 -130 -32 0 0 -1 0 -130 32 -76 65 65 -76 142 -65zm0 152l9 194 133 10 -133 9 -9 194 -10 -194 -133 -9 133 -10 10 -194z"/>
 </g>
</svg>
