<?xml version="1.0" encoding="UTF-8"?>
<!DOCTYPE svg PUBLIC "-//W3C//DTD SVG 1.1//EN" "http://www.w3.org/Graphics/SVG/1.1/DTD/svg11.dtd">
<!-- Creator: CorelDRAW X7 -->
<svg xmlns="http://www.w3.org/2000/svg" xml:space="preserve" width="32px" height="32px" version="1.1" style="shape-rendering:geometricPrecision; text-rendering:geometricPrecision; image-rendering:optimizeQuality; fill-rule:evenodd; clip-rule:evenodd"
viewBox="0 0 32 32"
 xmlns:xlink="http://www.w3.org/1999/xlink">
 <defs>
  <style type="text/css">
   <![CDATA[
    .fil0 {fill:black}
   ]]>
  </style>
 </defs>
 <g id="Camada_x0020_1">
  <metadata id="CorelCorpID_0Corel-Layer"/>
  <path class="fil0" d="M32 16c0,-9 -7,-16 -16,-16 -9,0 -16,7 -16,16 0,9 7,16 16,16 9,0 16,-7 16,-16zm-7 -9l0 2 2 0 0 -2 -2 0zm-20 0l0 2 2 0 0 -2 -2 0zm19 4l0 16 -8 -4 -8 4 0 -21 16 0 0 4 -14 0 14 1zm-4 4l-3 0 0 -3 -2 0 0 3 -3 0 0 2 3 0 0 3 2 0 0 -3 3 0 0 -2z"/>
 </g>
</svg>
