<?xml version="1.0" encoding="UTF-8"?>
<!DOCTYPE svg PUBLIC "-//W3C//DTD SVG 1.1//EN" "http://www.w3.org/Graphics/SVG/1.1/DTD/svg11.dtd">
<!-- Creator: CorelDRAW X7 -->
<svg xmlns="http://www.w3.org/2000/svg" xml:space="preserve" width="27.0932mm" height="27.0932mm" version="1.1" style="shape-rendering:geometricPrecision; text-rendering:geometricPrecision; image-rendering:optimizeQuality; fill-rule:evenodd; clip-rule:evenodd"
viewBox="0 0 2709 2709"
 xmlns:xlink="http://www.w3.org/1999/xlink">
 <defs>
  <style type="text/css">
   <![CDATA[
    .fil0 {fill:black}
   ]]>
  </style>
 </defs>
 <g id="Camada_x0020_1">
  <metadata id="CorelCorpID_0Corel-Layer"/>
  <path class="fil0" d="M201 1050c-170,634 207,1285 841,1454 386,105 780,4 1066,-233l-171 -171 154 -154 171 171c106,-129 188,-280 233,-452 170,-634 -205,-1284 -839,-1455 -634,-170 -1285,207 -1455,840zm1465 403l-212 0 0 212c0,54 -43,99 -97,99 -55,0 -99,-45 -99,-99l0 -212 -212 0c-54,0 -98,-43 -98,-97 0,-54 44,-99 98,-99l212 0 0 -211c0,-54 44,-99 99,-99 54,0 97,45 97,99l0 211 212 0c54,0 98,45 98,99 0,54 -44,97 -98,97zm222 -633c-298,-297 -780,-297 -1077,0 -297,298 -297,780 0,1077 259,259 659,292 954,100l88 88 223 -223 -89 -88c193,-295 160,-695 -99,-954l0 0zm-77 77c-255,-255 -668,-255 -923,0 -255,255 -255,668 0,923 255,255 668,255 923,0 255,-255 255,-668 0,-923z"/>
 </g>
</svg>
