<?xml version="1.0" encoding="UTF-8"?>
<!DOCTYPE svg PUBLIC "-//W3C//DTD SVG 1.1//EN" "http://www.w3.org/Graphics/SVG/1.1/DTD/svg11.dtd">
<!-- Creator: CorelDRAW X7 -->
<svg xmlns="http://www.w3.org/2000/svg" xml:space="preserve" width="27.0932mm" height="27.0932mm" version="1.1" style="shape-rendering:geometricPrecision; text-rendering:geometricPrecision; image-rendering:optimizeQuality; fill-rule:evenodd; clip-rule:evenodd"
viewBox="0 0 2709 2709"
 xmlns:xlink="http://www.w3.org/1999/xlink">
 <defs>
  <style type="text/css">
   <![CDATA[
    .fil0 {fill:black}
   ]]>
  </style>
 </defs>
 <g id="Camada_x0020_1">
  <metadata id="CorelCorpID_0Corel-Layer"/>
  <path class="fil0" d="M1355 169c-655,0 -1186,531 -1186,1186 0,654 531,1185 1186,1185 654,0 1185,-531 1185,-1185 0,-655 -531,-1186 -1185,-1186zm563 1363l-386 0 0 386c0,98 -79,177 -177,177 -99,0 -178,-79 -178,-177l0 -386 -385 0c-99,0 -178,-79 -178,-177 0,-99 79,-178 178,-178l385 0 0 -385c0,-99 79,-178 178,-178 98,0 177,79 177,178l0 385 386 0c98,0 177,79 177,178 0,98 -79,177 -177,177z"/>
 </g>
</svg>
