<?xml version="1.0" encoding="UTF-8"?>
<!DOCTYPE svg PUBLIC "-//W3C//DTD SVG 1.1//EN" "http://www.w3.org/Graphics/SVG/1.1/DTD/svg11.dtd">
<!-- Creator: CorelDRAW X7 -->
<svg xmlns="http://www.w3.org/2000/svg" xml:space="preserve" width="27.0932mm" height="27.0932mm" version="1.1" style="shape-rendering:geometricPrecision; text-rendering:geometricPrecision; image-rendering:optimizeQuality; fill-rule:evenodd; clip-rule:evenodd"
viewBox="0 0 2709 2709"
 xmlns:xlink="http://www.w3.org/1999/xlink">
 <defs>
  <style type="text/css">
   <![CDATA[
    .fil0 {fill:black}
   ]]>
  </style>
 </defs>
 <g id="Camada_x0020_1">
  <metadata id="CorelCorpID_0Corel-Layer"/>
  <path class="fil0" d="M2540 1355c0,-654 -530,-1186 -1185,-1186 -654,0 -1186,532 -1186,1186 0,655 532,1185 1186,1185 655,0 1185,-530 1185,-1185zm-546 0c0,352 -287,639 -639,639 -353,0 -639,-287 -639,-639 0,-353 286,-639 639,-639 352,0 639,286 639,639zm-639 -370c-204,0 -370,166 -370,370 0,204 166,369 370,369 204,0 369,-165 369,-369 0,-204 -165,-370 -369,-370z"/>
 </g>
</svg>
