<?xml version="1.0" encoding="UTF-8"?>
<!DOCTYPE svg PUBLIC "-//W3C//DTD SVG 1.1//EN" "http://www.w3.org/Graphics/SVG/1.1/DTD/svg11.dtd">
<!-- Creator: CorelDRAW X7 -->
<svg xmlns="http://www.w3.org/2000/svg" xml:space="preserve" width="27.0932mm" height="27.0932mm" version="1.1" style="shape-rendering:geometricPrecision; text-rendering:geometricPrecision; image-rendering:optimizeQuality; fill-rule:evenodd; clip-rule:evenodd"
viewBox="0 0 2709 2709"
 xmlns:xlink="http://www.w3.org/1999/xlink">
 <defs>
  <style type="text/css">
   <![CDATA[
    .fil0 {fill:black}
   ]]>
  </style>
 </defs>
 <g id="Camada_x0020_1">
  <metadata id="CorelCorpID_0Corel-Layer"/>
  <path class="fil0" d="M169 1355c0,-655 531,-1186 1185,-1186 655,0 1186,531 1186,1186 0,654 -531,1185 -1186,1185 -654,0 -1185,-531 -1185,-1185zm1282 -498c0,-25 -12,-49 -29,-61 -18,-13 -40,-13 -57,0l-697 497c-17,13 -28,36 -28,62 0,25 11,48 28,61l697 499c17,12 39,12 57,0 17,-14 29,-36 29,-63l0 -166 319 229c17,12 39,12 57,0 17,-14 29,-36 29,-63l0 -995 0 0c0,-25 -12,-49 -29,-61 -18,-13 -40,-13 -57,0l-319 228 0 -167 0 0z"/>
 </g>
</svg>
