<?xml version="1.0" encoding="UTF-8"?>
<!DOCTYPE svg PUBLIC "-//W3C//DTD SVG 1.1//EN" "http://www.w3.org/Graphics/SVG/1.1/DTD/svg11.dtd">
<!-- Creator: CorelDRAW X7 -->
<svg xmlns="http://www.w3.org/2000/svg" xml:space="preserve" width="27.0932mm" height="27.0932mm" version="1.1" style="shape-rendering:geometricPrecision; text-rendering:geometricPrecision; image-rendering:optimizeQuality; fill-rule:evenodd; clip-rule:evenodd"
viewBox="0 0 2709 2709"
 xmlns:xlink="http://www.w3.org/1999/xlink">
 <defs>
  <style type="text/css">
   <![CDATA[
    .fil1 {fill:black}
    .fil0 {fill:black}
   ]]>
  </style>
 </defs>
 <g id="Camada_x0020_1">
  <metadata id="CorelCorpID_0Corel-Layer"/>
  <path class="fil0" d="M1355 367c544,0 986,435 986,971 0,100 -16,197 -44,288l-942 -928 -942 928c-29,-91 -44,-188 -44,-288 0,-536 441,-971 986,-971zm926 1306c-49,131 -126,248 -224,346l-468 -462 -5 59 441 434c-45,41 -94,78 -146,110l-41 -218 -365 -84 -12 -53 79 -72 12 -150 4 -58 9 -113 -122 -135 -177 0 -121 135 8 113 5 58 11 150 79 72 -12 53 -365 84 -41 218c-52,-32 -101,-69 -146,-110l441 -434 -4 -59 -469 462c-98,-98 -174,-215 -223,-346l926 -912 926 912z"/>
  <path class="fil1" d="M2540 1355c0,654 -531,1185 -1185,1185 -655,0 -1186,-531 -1186,-1185 0,-655 531,-1186 1186,-1186 654,0 1185,531 1185,1186zm-1185 -1136c-628,0 -1136,508 -1136,1136 0,627 508,1136 1136,1136 627,0 1136,-509 1136,-1136 0,-628 -509,-1136 -1136,-1136z"/>
 </g>
</svg>
