<?xml version="1.0" encoding="UTF-8"?>
<!DOCTYPE svg PUBLIC "-//W3C//DTD SVG 1.1//EN" "http://www.w3.org/Graphics/SVG/1.1/DTD/svg11.dtd">
<!-- Creator: CorelDRAW X7 -->
<svg xmlns="http://www.w3.org/2000/svg" xml:space="preserve" width="27.0932mm" height="27.0932mm" version="1.1" style="shape-rendering:geometricPrecision; text-rendering:geometricPrecision; image-rendering:optimizeQuality; fill-rule:evenodd; clip-rule:evenodd"
viewBox="0 0 2709 2709"
 xmlns:xlink="http://www.w3.org/1999/xlink">
 <defs>
  <style type="text/css">
   <![CDATA[
    .fil0 {fill:black}
   ]]>
  </style>
 </defs>
 <g id="Camada_x0020_1">
  <metadata id="CorelCorpID_0Corel-Layer"/>
  <path class="fil0" d="M2540 1355c0,654 -531,1185 -1185,1185 -655,0 -1186,-531 -1186,-1185 0,-655 531,-1186 1186,-1186 654,0 1185,531 1185,1186zm-1185 -1136c-628,0 -1136,508 -1136,1136 0,627 508,1136 1136,1136 627,0 1136,-509 1136,-1136 0,-628 -509,-1136 -1136,-1136z"/>
  <path class="fil0" d="M2342 1355c0,-546 -442,-988 -987,-988 -546,0 -988,442 -988,988 0,545 442,987 988,987 545,0 987,-442 987,-987zm-444 -149l0 460c0,33 -27,59 -59,59l-40 0 0 153 -127 -153 -475 0c-33,0 -60,-26 -60,-59l0 -119 366 0c49,0 89,-40 89,-89l0 -311 247 0c32,0 59,27 59,60l0 -1zm-395 -266l-642 0c-33,0 -60,26 -60,59l0 459c0,33 27,60 60,60l39 0 0 153 128 -153 475 0c33,0 59,-27 59,-60l0 -459c0,-33 -26,-59 -59,-59l0 0z"/>
 </g>
</svg>
