<?xml version="1.0" encoding="UTF-8"?>
<!DOCTYPE svg PUBLIC "-//W3C//DTD SVG 1.1//EN" "http://www.w3.org/Graphics/SVG/1.1/DTD/svg11.dtd">
<!-- Creator: CorelDRAW X7 -->
<svg xmlns="http://www.w3.org/2000/svg" xml:space="preserve" width="27.0932mm" height="27.0932mm" version="1.1" style="shape-rendering:geometricPrecision; text-rendering:geometricPrecision; image-rendering:optimizeQuality; fill-rule:evenodd; clip-rule:evenodd"
viewBox="0 0 2709 2709"
 xmlns:xlink="http://www.w3.org/1999/xlink">
 <defs>
  <style type="text/css">
   <![CDATA[
    .fil0 {fill:black}
    .fil1 {fill:black}
   ]]>
  </style>
 </defs>
 <g id="Camada_x0020_1">
  <metadata id="CorelCorpID_0Corel-Layer"/>
  <path class="fil0" d="M2540 1355c0,654 -531,1185 -1185,1185 -655,0 -1186,-531 -1186,-1185 0,-655 531,-1186 1186,-1186 654,0 1185,531 1185,1186zm-1185 -1136c-628,0 -1136,508 -1136,1136 0,627 508,1136 1136,1136 627,0 1136,-509 1136,-1136 0,-628 -509,-1136 -1136,-1136z"/>
  <path class="fil1" d="M2342 1355c0,-546 -442,-988 -987,-988 -546,0 -988,442 -988,988 0,545 442,987 988,987 545,0 987,-442 987,-987zm-829 -97c6,0 11,-2 16,-6l201 -208 127 748c5,29 -3,58 -22,81 -19,22 -46,35 -75,35l-810 0c-29,0 -57,-13 -76,-35 -18,-23 -26,-52 -22,-81l128 -748 201 208c4,4 10,6 16,6l316 0 0 0zm-425 -358c-49,0 -90,35 -98,83l-1 6 217 225 297 0 217 -225 -1 -6c-8,-48 -49,-83 -97,-83l-534 0zm247 452c-11,0 -20,9 -20,20l0 5c0,11 9,20 20,20l39 0c11,0 20,-9 20,-20l0 -5c0,-11 -9,-20 -20,-20l-39 0zm128 -649c33,0 60,26 60,59l0 94 -70 0 0 -84 -197 0 0 84 -69 0 0 -94c0,-33 26,-59 59,-59l217 0z"/>
 </g>
</svg>
