<?xml version="1.0" encoding="UTF-8"?>
<!DOCTYPE svg PUBLIC "-//W3C//DTD SVG 1.1//EN" "http://www.w3.org/Graphics/SVG/1.1/DTD/svg11.dtd">
<!-- Creator: CorelDRAW X7 -->
<svg xmlns="http://www.w3.org/2000/svg" xml:space="preserve" width="27.0932mm" height="27.0932mm" version="1.1" style="shape-rendering:geometricPrecision; text-rendering:geometricPrecision; image-rendering:optimizeQuality; fill-rule:evenodd; clip-rule:evenodd"
viewBox="0 0 2709 2709"
 xmlns:xlink="http://www.w3.org/1999/xlink">
 <defs>
  <style type="text/css">
   <![CDATA[
    .fil0 {fill:black}
   ]]>
  </style>
 </defs>
 <g id="Camada_x0020_1">
  <metadata id="CorelCorpID_0Corel-Layer"/>
  <path class="fil0" d="M1355 169c655,0 1185,531 1185,1185 0,123 -18,241 -53,352l-1132 -1132 -1132 1132c-35,-111 -53,-229 -53,-352 0,-654 531,-1185 1185,-1185zm1113 1594c-59,160 -151,304 -268,423l-563 -564 -6 71 530 530c-54,51 -113,96 -176,135l-48 -266 -439 -102 -15 -66 95 -88 14 -182 5 -71 11 -138 -147 -165 -212 0 -146 165 10 138 5 71 14 182 95 88 -14 66 -439 102 -49 266c-63,-39 -122,-84 -176,-135l530 -530 -5 -71 -564 564c-117,-119 -209,-263 -268,-423l1113 -1113 1113 1113z"/>
 </g>
</svg>
