<?xml version="1.0" encoding="UTF-8"?>
<!DOCTYPE svg PUBLIC "-//W3C//DTD SVG 1.1//EN" "http://www.w3.org/Graphics/SVG/1.1/DTD/svg11.dtd">
<!-- Creator: CorelDRAW X7 -->
<svg xmlns="http://www.w3.org/2000/svg" xml:space="preserve" width="27.0932mm" height="27.0932mm" version="1.1" style="shape-rendering:geometricPrecision; text-rendering:geometricPrecision; image-rendering:optimizeQuality; fill-rule:evenodd; clip-rule:evenodd"
viewBox="0 0 2709 2709"
 xmlns:xlink="http://www.w3.org/1999/xlink">
 <defs>
  <style type="text/css">
   <![CDATA[
    .fil0 {fill:black}
   ]]>
  </style>
 </defs>
 <g id="Camada_x0020_1">
  <metadata id="CorelCorpID_0Corel-Layer"/>
  <path class="fil0" d="M1355 169c654,0 1185,531 1185,1186 0,654 -531,1185 -1185,1185 -655,0 -1186,-531 -1186,-1185 0,-655 531,-1186 1186,-1186zm-570 620c27,0 54,0 81,0 54,0 108,0 162,0 -3,17 -6,35 -9,53 -55,0 -110,0 -165,0 -11,47 -23,96 -35,147 -12,53 -25,109 -39,168 -32,0 -63,0 -95,0 16,-59 31,-115 46,-168 14,-51 27,-100 40,-147 5,-18 10,-36 14,-53zm120 795c-38,0 -75,0 -112,0 -7,34 -14,68 -21,104 -7,36 -14,73 -21,112 121,0 241,0 362,0 3,-39 6,-76 9,-112 116,0 233,0 349,0 4,73 7,151 11,232 42,0 83,0 125,0 -7,-81 -13,-159 -19,-232 39,0 77,0 116,0 117,0 233,0 350,0 -9,-36 -17,-71 -25,-104 -113,0 -225,0 -337,0 -38,0 -75,0 -113,0 -5,-66 -10,-128 -16,-188 -34,0 -69,0 -104,0 2,60 5,122 8,188 -75,0 -150,0 -225,0 -75,0 -150,0 -225,0 -4,34 -8,68 -12,104 -39,0 -77,0 -116,0 5,-36 11,-70 16,-104l0 0zm-181 -188c35,0 70,0 105,0 -6,30 -12,60 -18,91 -36,0 -72,0 -108,0 -23,97 -47,201 -73,313 -41,0 -81,0 -121,0 21,-76 40,-148 59,-216 18,-66 35,-128 51,-188 18,0 35,0 53,0 17,0 35,0 52,0l0 0zm420 0c-70,0 -140,0 -210,0 -5,30 -9,60 -14,91 72,0 145,0 217,0 2,-31 5,-61 7,-91zm658 -375c30,0 60,0 90,0 -5,-22 -10,-42 -15,-63 -29,0 -58,0 -88,0 -4,-20 -8,-40 -11,-59 28,0 56,0 85,0 -5,-19 -9,-38 -14,-57 -28,0 -55,0 -83,0 -4,-18 -7,-36 -11,-53 27,0 54,0 81,0 0,0 0,0 0,0 27,0 54,0 81,0 0,0 0,0 0,0 0,0 0,0 0,0 5,18 10,35 15,53 0,0 0,0 0,0 16,57 33,116 50,179 19,66 39,136 60,211 -33,0 -66,0 -99,0 -6,-26 -12,-50 -18,-75 -31,0 -63,0 -95,0 -10,-47 -19,-93 -28,-136l0 0zm-119 -179c3,19 6,38 9,57 -28,0 -56,0 -85,0 -2,-19 -5,-38 -7,-57 -55,0 -111,0 -166,0 -55,0 -110,0 -166,0 1,-18 2,-36 2,-53 68,0 135,0 202,0 68,0 135,0 202,0 1,4 2,8 3,12 2,14 4,28 6,41l0 0zm-246 57c28,0 57,0 85,0 2,19 3,39 5,59 58,0 117,0 175,0 3,20 7,41 10,63 -90,0 -180,0 -270,0 -1,-22 -2,-43 -3,-63 -1,-20 -1,-40 -2,-59l0 0zm8 188c93,0 185,0 278,0 4,23 8,46 12,70 -96,0 -191,0 -287,0 -1,-24 -2,-47 -3,-70zm433 309c35,0 70,0 105,0 -7,-29 -14,-57 -20,-85 34,0 68,0 102,0 19,71 40,145 62,223 24,83 49,172 75,266 -40,0 -81,0 -121,0 -27,-112 -52,-216 -76,-313 -36,0 -72,0 -108,0 -7,-31 -13,-61 -19,-91l0 0zm-118 -85c9,56 18,115 28,176 -36,0 -72,0 -108,0 -8,-61 -15,-120 -22,-176 -3,-27 -7,-53 -10,-79 66,0 131,0 197,0 5,26 11,52 16,79 -34,0 -67,0 -101,0l0 0zm-604 -79c33,0 66,0 99,0 0,-26 1,-50 2,-75 -95,0 -191,0 -286,0 -4,24 -8,49 -12,75 33,0 66,0 99,0 -3,26 -6,52 -9,79 -68,0 -136,0 -203,0 -68,0 -136,0 -203,0 7,-27 14,-53 21,-79 66,0 131,0 197,0 14,-75 28,-145 41,-212 30,0 60,0 90,0 -3,22 -7,44 -10,67 92,0 185,0 278,0 1,-23 1,-45 2,-67 30,0 60,0 90,1 0,21 1,43 1,66 0,23 0,46 0,70 0,25 0,49 0,75 66,0 131,0 197,0 2,26 4,52 7,79 -68,0 -136,0 -204,0 1,56 1,115 1,176 -36,0 -72,0 -109,0 3,-61 5,-120 7,-176 -34,0 -68,0 -102,0 2,-27 4,-53 6,-79l0 0zm-47 -443c27,0 53,0 80,0 -2,35 -5,72 -8,109 57,0 114,1 171,1 0,19 0,39 0,59 -58,0 -117,0 -175,0 -2,20 -3,41 -5,62 -30,0 -60,0 -90,0 2,-21 5,-42 7,-62 -58,0 -117,0 -175,0 4,-21 8,-40 12,-60 56,0 113,0 170,0 4,-37 9,-74 13,-109z"/>
 </g>
</svg>
