<?xml version="1.0" encoding="UTF-8"?>
<!DOCTYPE svg PUBLIC "-//W3C//DTD SVG 1.1//EN" "http://www.w3.org/Graphics/SVG/1.1/DTD/svg11.dtd">
<!-- Creator: CorelDRAW X7 -->
<svg xmlns="http://www.w3.org/2000/svg" xml:space="preserve" width="27.0932mm" height="27.0932mm" version="1.1" style="shape-rendering:geometricPrecision; text-rendering:geometricPrecision; image-rendering:optimizeQuality; fill-rule:evenodd; clip-rule:evenodd"
viewBox="0 0 2709 2709"
 xmlns:xlink="http://www.w3.org/1999/xlink">
 <defs>
  <style type="text/css">
   <![CDATA[
    .fil0 {fill:black}
   ]]>
  </style>
 </defs>
 <g id="Camada_x0020_1">
  <metadata id="CorelCorpID_0Corel-Layer"/>
  <path class="fil0" d="M1355 169c654,0 1185,531 1185,1186 0,654 -531,1185 -1185,1185 -655,0 -1186,-531 -1186,-1185 0,-655 531,-1186 1186,-1186zm-671 630l0 -54c22,-25 46,-48 71,-70l0 48c-25,24 -49,49 -71,76zm-20 -31l0 57c-7,8 -14,17 -20,26l-31 -18c16,-22 33,-44 51,-65l0 0zm691 1197c-337,0 -611,-274 -611,-610 0,-94 21,-182 59,-261l31 17c-35,74 -54,157 -54,244 0,317 258,575 575,575 317,0 575,-258 575,-575 0,-52 -7,-101 -20,-149l34 -12c14,51 21,105 21,161 0,336 -274,610 -610,610zm-485 -981c20,-27 43,-52 68,-75l0 50c-13,14 -26,28 -37,43l-31 -18 0 0zm88 -93c23,-19 46,-37 71,-53l0 43c-25,17 -49,37 -71,58l0 -48zm92 -65c23,-13 46,-25 71,-35l0 38c-25,11 -49,24 -71,38l0 -41zm91 -43c23,-9 47,-16 71,-22l0 37c-24,6 -48,14 -71,23l0 -38zm92 -27c23,-4 47,-8 71,-10l0 36c-24,2 -48,6 -71,11l0 -37zm91 -11c10,-1 20,-1 31,-1 13,0 27,1 40,2l0 35c-13,-1 -27,-1 -40,-1 -11,0 -21,0 -31,1l0 -36zm92 2c24,3 48,6 71,12l0 36c-23,-5 -47,-9 -71,-12l0 -36zm91 17c24,6 48,14 71,23l0 38c-23,-10 -47,-18 -71,-25l0 -36zm92 31c24,11 48,23 71,37l0 42c-23,-15 -47,-28 -71,-40l0 -39zm91 50c25,16 49,35 71,55l0 49c-22,-22 -46,-43 -71,-61l0 -43zm91 74c27,25 50,53 72,83l0 66c-21,-35 -45,-68 -72,-98l0 -51zm92 113c8,13 15,26 22,40l-22 8 0 -48 0 0zm385 241c39,7 69,41 69,82 0,41 -30,75 -69,81 -42,462 -431,825 -903,825 -249,0 -475,-100 -639,-263 -13,7 -27,11 -42,11l0 0c-25,0 -48,-11 -64,-30 -14,-17 -21,-38 -19,-60 1,-18 8,-34 20,-47 -103,-147 -163,-325 -163,-517 0,-148 35,-287 98,-410l31 17c-60,118 -94,252 -94,393 0,184 58,355 156,496 11,-5 23,-8 35,-8 24,0 47,11 63,30 14,17 21,38 19,60 -1,15 -6,29 -14,40 157,156 374,253 613,253 453,0 827,-348 867,-791 -35,-10 -61,-42 -61,-80 0,-39 26,-71 61,-80 -5,-59 -16,-116 -33,-171l34 -12c17,58 29,119 35,181l0 0zm-1483 -615c23,-19 47,-37 72,-54l0 43c-25,18 -49,37 -72,57l0 -46zm92 -67c23,-15 47,-29 71,-42l0 41c-24,13 -48,28 -71,43l0 -42 0 0zm91 -52c24,-11 47,-21 71,-31l0 38c-24,10 -48,21 -71,33l0 -40zm92 -38c23,-9 47,-16 71,-23l0 37c-24,7 -48,15 -71,24l0 -38zm91 -28c24,-5 47,-10 71,-14l0 36c-24,4 -47,9 -71,15l0 -37zm92 -17c23,-3 47,-5 71,-7l0 36c-24,1 -48,4 -71,7l0 -36zm91 -8c10,0 20,0 31,0 13,0 27,0 40,1l0 35c-13,0 -27,-1 -40,-1 -11,0 -21,1 -31,1l0 -36zm92 2c24,2 47,4 71,8l0 35c-24,-3 -47,-6 -71,-7l0 -36zm91 11c24,4 48,9 71,15l0 37c-23,-7 -47,-12 -71,-16l0 -36zm92 20c24,7 47,15 71,23l0 38c-24,-9 -47,-17 -71,-24l0 -37zm91 31c24,10 48,21 71,32l0 40c-23,-12 -47,-23 -71,-33l0 -39zm91 43c25,13 49,27 72,42l0 43c-23,-16 -47,-31 -72,-45l0 -40zm92 56c25,17 48,36 71,55l0 48c-23,-21 -46,-41 -71,-59l0 -44zm91 73c25,23 49,47 71,72l0 56c-22,-28 -45,-54 -71,-79l0 -49zm92 96c26,32 49,65 71,100l0 72c-21,-40 -45,-78 -71,-114l0 -58zm91 135c10,17 19,35 28,53l-28 10 0 -63zm-792 754c-174,0 -314,-141 -314,-314 0,-40 7,-77 20,-112l31 18c-10,29 -16,61 -16,94 0,153 125,278 279,278 153,0 278,-125 278,-278 0,-16 -1,-32 -4,-47l34 -12c4,19 6,39 6,59 0,173 -141,314 -314,314l0 0zm-214 -545c21,-19 45,-36 71,-49l0 40c-18,11 -36,25 -51,40l-20 -11 0 -20 0 0zm92 -59c22,-9 46,-16 71,-20l0 36c-25,4 -49,12 -71,23l0 -39zm91 -23c10,-1 20,-1 31,-1 13,0 27,0 40,2l0 36c-13,-2 -27,-3 -40,-3 -11,0 -21,1 -31,2l0 -36zm92 5c25,4 48,12 71,23l0 39c-22,-11 -46,-21 -71,-26l0 -36zm91 33c26,15 50,33 71,54l0 55c-19,-27 -43,-49 -71,-67l0 -42 0 0zm92 77c5,6 10,13 15,20l-15 6 0 -26zm-763 -618c-20,0 -40,-7 -55,-20 -113,80 -209,185 -280,307l835 491c6,-3 12,-4 19,-4 8,0 16,2 22,6l913 -340c-139,-380 -508,-640 -935,-640l0 -1c-158,0 -306,36 -438,100 8,35 -7,72 -39,90 -13,8 -27,11 -42,11l0 0zm-69 -37c-1,-1 -2,-3 -3,-4 -23,-40 -9,-91 31,-113 12,-8 26,-12 41,-12 30,0 57,16 72,42l2 3c134,-64 285,-101 445,-101l0 1c448,0 830,283 975,681l-936 341c2,5 3,10 3,15 0,23 -19,42 -42,42 -24,0 -42,-19 -42,-42 0,-8 2,-15 5,-21l-858 -498c77,-132 182,-247 307,-334l0 0z"/>
 </g>
</svg>
