<?xml version="1.0" encoding="UTF-8"?>
<!DOCTYPE svg PUBLIC "-//W3C//DTD SVG 1.1//EN" "http://www.w3.org/Graphics/SVG/1.1/DTD/svg11.dtd">
<!-- Creator: CorelDRAW X7 -->
<svg xmlns="http://www.w3.org/2000/svg" xml:space="preserve" width="27.0932mm" height="27.0932mm" version="1.1" style="shape-rendering:geometricPrecision; text-rendering:geometricPrecision; image-rendering:optimizeQuality; fill-rule:evenodd; clip-rule:evenodd"
viewBox="0 0 2709 2709"
 xmlns:xlink="http://www.w3.org/1999/xlink">
 <defs>
  <style type="text/css">
   <![CDATA[
    .fil0 {fill:black}
   ]]>
  </style>
 </defs>
 <g id="Camada_x0020_1">
  <metadata id="CorelCorpID_0Corel-Layer"/>
  <path class="fil0" d="M2342 1355c0,-546 -442,-988 -987,-988 -546,0 -988,442 -988,988 0,545 442,987 988,987 545,0 987,-442 987,-987zm-454 -322l0 -203 -436 444 97 98 339 -339zm-1126 -9l0 -194 758 757 -98 98 -660 -661zm1126 796l-118 119 -221 -220 -76 76 -68 -68 271 -271 68 68 -76 76 220 220zm-1109 -999l195 0 660 652 -102 102 -753 -754zm436 682l-85 84 98 98 84 -85 -97 -97zm-436 309l118 118 204 -203 76 76 72 -72 -267 -266 -68 67 76 68 -211 212zm1092 -991l-195 0 -338 339 101 102 432 -441zm-762 576l-85 85 94 93 84 -85 -93 -93z"/>
  <path class="fil0" d="M2540 1355c0,654 -531,1185 -1185,1185 -655,0 -1186,-531 -1186,-1185 0,-655 531,-1186 1186,-1186 654,0 1185,531 1185,1186zm-1185 -1085c-599,0 -1085,486 -1085,1085 0,599 486,1084 1085,1084 599,0 1084,-485 1084,-1084 0,-599 -485,-1085 -1084,-1085z"/>
 </g>
</svg>
