<?xml version="1.0" encoding="UTF-8"?>
<!DOCTYPE svg PUBLIC "-//W3C//DTD SVG 1.1//EN" "http://www.w3.org/Graphics/SVG/1.1/DTD/svg11.dtd">
<!-- Creator: CorelDRAW X7 -->
<svg xmlns="http://www.w3.org/2000/svg" xml:space="preserve" width="27.0932mm" height="27.0932mm" version="1.1" style="shape-rendering:geometricPrecision; text-rendering:geometricPrecision; image-rendering:optimizeQuality; fill-rule:evenodd; clip-rule:evenodd"
viewBox="0 0 2709 2709"
 xmlns:xlink="http://www.w3.org/1999/xlink">
 <defs>
  <style type="text/css">
   <![CDATA[
    .fil0 {fill:black}
   ]]>
  </style>
 </defs>
 <g id="Camada_x0020_1">
  <metadata id="CorelCorpID_0Corel-Layer"/>
  <path class="fil0" d="M2540 1355c0,-655 -531,-1186 -1185,-1186 -655,0 -1186,531 -1186,1186 0,654 531,1185 1186,1185 654,0 1185,-531 1185,-1185zm-838 161l-8 -8 0 -72 8 -16 40 -39 32 -45 19 -68 9 -160 -12 -74 -48 -79 -65 -56 -17 -11 -22 -5 -56 -7 -57 7 -22 5 -18 11 -64 56 -48 79 -12 74 9 160 19 68 32 45 41 39 7 16 0 72 -7 8 -24 6 -185 51 -16 7 -145 22 -23 11 -8 16 -41 213 1123 0 -40 -213 -8 -16 -16 -8 -152 -25 -17 -7 -208 -57 0 0zm-539 12l0 -68 9 -16 37 -36 30 -43 18 -64 8 -151 -10 -70 -46 -74 -61 -52 -16 -11 -21 -5 -53 -7 -53 7 -21 5 -17 11 -61 52 -44 74 -12 70 8 151 18 64 30 43 39 36 7 16 0 68 -7 7 -197 53 -15 7 -136 21 -23 10 -7 15 -38 201 407 0 59 -243 19 -29 128 -39 21 -3z"/>
 </g>
</svg>
