<?xml version="1.0" encoding="UTF-8"?>
<!DOCTYPE svg PUBLIC "-//W3C//DTD SVG 1.1//EN" "http://www.w3.org/Graphics/SVG/1.1/DTD/svg11.dtd">
<!-- Creator: CorelDRAW X7 -->
<svg xmlns="http://www.w3.org/2000/svg" xml:space="preserve" width="27.0932mm" height="27.0932mm" version="1.1" style="shape-rendering:geometricPrecision; text-rendering:geometricPrecision; image-rendering:optimizeQuality; fill-rule:evenodd; clip-rule:evenodd"
viewBox="0 0 2709 2709"
 xmlns:xlink="http://www.w3.org/1999/xlink">
 <defs>
  <style type="text/css">
   <![CDATA[
    .fil0 {fill:black}
   ]]>
  </style>
 </defs>
 <g id="Camada_x0020_1">
  <metadata id="CorelCorpID_0Corel-Layer"/>
  <path class="fil0" d="M2540 1355c0,-655 -531,-1186 -1185,-1186 -655,0 -1186,531 -1186,1186 0,654 531,1185 1186,1185 654,0 1185,-531 1185,-1185zm-1978 -469l234 0 792 783 -122 122 -904 -905zm718 -11l208 -156 -28 259 258 -31 -154 210 240 103 -239 104 156 209 -224 -25 -99 -99 131 14 -101 -135 155 -67 -155 -67 100 -136 -168 20 19 -167 -135 101 -68 -154 -66 154 -136 -99 15 127 -101 -101 -26 -217 210 154 103 -239 105 238zm-738 255l0 -233 910 909 -118 117 -792 -793zm1351 956l-141 142 -266 -264 -91 92 -81 -82 325 -325 81 81 -91 91 264 265z"/>
 </g>
</svg>
