<?xml version="1.0" encoding="UTF-8"?>
<!DOCTYPE svg PUBLIC "-//W3C//DTD SVG 1.1//EN" "http://www.w3.org/Graphics/SVG/1.1/DTD/svg11.dtd">
<!-- Creator: CorelDRAW X7 -->
<svg xmlns="http://www.w3.org/2000/svg" xml:space="preserve" width="27.0932mm" height="27.0932mm" version="1.1" style="shape-rendering:geometricPrecision; text-rendering:geometricPrecision; image-rendering:optimizeQuality; fill-rule:evenodd; clip-rule:evenodd"
viewBox="0 0 2709 2709"
 xmlns:xlink="http://www.w3.org/1999/xlink">
 <defs>
  <style type="text/css">
   <![CDATA[
    .fil0 {fill:black}
    .fil1 {fill:black}
   ]]>
  </style>
 </defs>
 <g id="Camada_x0020_1">
  <metadata id="CorelCorpID_0Corel-Layer"/>
  <path class="fil0" d="M2540 1355c0,654 -531,1185 -1185,1185 -655,0 -1186,-531 -1186,-1185 0,-655 531,-1186 1186,-1186 654,0 1185,531 1185,1186zm-1185 -1136c-628,0 -1136,508 -1136,1136 0,627 508,1136 1136,1136 627,0 1136,-509 1136,-1136 0,-628 -509,-1136 -1136,-1136z"/>
  <path class="fil1" d="M2342 1355c0,-546 -442,-988 -987,-988 -546,0 -988,442 -988,988 0,545 442,987 988,987 545,0 987,-442 987,-987zm-384 326c0,-126 -102,-228 -227,-228 -125,0 -227,102 -227,228 0,125 102,227 227,227 125,0 227,-102 227,-227zm-753 0c0,-126 -101,-228 -227,-228 -125,0 -227,102 -227,228 0,125 102,227 227,227 126,0 227,-102 227,-227zm377 -652c0,-126 -102,-227 -227,-227 -126,0 -227,101 -227,227 0,125 101,227 227,227 125,0 227,-102 227,-227z"/>
 </g>
</svg>
