<?xml version="1.0" encoding="UTF-8"?>
<!DOCTYPE svg PUBLIC "-//W3C//DTD SVG 1.1//EN" "http://www.w3.org/Graphics/SVG/1.1/DTD/svg11.dtd">
<!-- Creator: CorelDRAW X7 -->
<svg xmlns="http://www.w3.org/2000/svg" xml:space="preserve" width="27.0932mm" height="27.0932mm" version="1.1" style="shape-rendering:geometricPrecision; text-rendering:geometricPrecision; image-rendering:optimizeQuality; fill-rule:evenodd; clip-rule:evenodd"
viewBox="0 0 2709 2709"
 xmlns:xlink="http://www.w3.org/1999/xlink">
 <defs>
  <style type="text/css">
   <![CDATA[
    .fil0 {fill:black}
    .fil1 {fill:black}
   ]]>
  </style>
 </defs>
 <g id="Camada_x0020_1">
  <metadata id="CorelCorpID_0Corel-Layer"/>
  <path class="fil0" d="M2540 1355c0,654 -531,1185 -1185,1185 -655,0 -1186,-531 -1186,-1185 0,-655 531,-1186 1186,-1186 654,0 1185,531 1185,1186zm-1185 -1136c-628,0 -1136,508 -1136,1136 0,627 508,1136 1136,1136 627,0 1136,-509 1136,-1136 0,-628 -509,-1136 -1136,-1136z"/>
  <path class="fil1" d="M2342 1355c0,-546 -442,-988 -987,-988 -546,0 -988,442 -988,988 0,545 442,987 988,987 545,0 987,-442 987,-987zm-661 740l69 0 -359 -798c31,-14 53,-45 53,-81 0,-49 -40,-88 -89,-88 -49,0 -89,39 -89,88 0,36 21,67 52,81l-358 798 69 0 80 -177 492 0 80 177zm-62 -879c0,61 -21,116 -55,161l-27 -21c29,-39 47,-87 47,-140 0,-52 -18,-100 -47,-139l27 -21c34,44 55,100 55,160l0 0zm-446 -139l-28 -21c-34,44 -54,100 -54,160 0,61 20,116 54,161l28 -21c-30,-39 -48,-87 -48,-140 0,-52 18,-100 48,-139l0 0zm569 139c0,89 -30,171 -80,236l-28 -21c46,-60 74,-134 74,-215 0,-80 -28,-155 -74,-214l28 -21c50,65 80,147 80,235zm-667 -214l-27 -21c-51,65 -81,147 -81,235 0,89 30,171 81,236l27 -21c-46,-60 -73,-134 -73,-215 0,-80 27,-155 73,-214zm791 214c0,117 -40,225 -106,311l-28 -21c62,-80 99,-181 99,-290 0,-109 -37,-209 -99,-290l28 -21c66,87 106,194 106,311zm-889 -290l-28 -21c-66,87 -105,194 -105,311 0,117 39,225 105,311l28 -21c-62,-80 -99,-181 -99,-290 0,-109 37,-209 99,-290zm163 922l44 -98 341 0 45 98 -430 0zm849 -632c0,146 -49,279 -131,386l-28 -21c78,-101 125,-227 125,-365 0,-137 -47,-263 -125,-365l28 -21c82,107 131,241 131,386l0 0zm-1110 -365l-27 -21c-83,107 -132,241 -132,386 0,146 49,279 132,386l27 -21c-78,-101 -124,-227 -124,-365 0,-137 46,-263 124,-365l0 0z"/>
 </g>
</svg>
