<?xml version="1.0" encoding="UTF-8"?>
<!DOCTYPE svg PUBLIC "-//W3C//DTD SVG 1.1//EN" "http://www.w3.org/Graphics/SVG/1.1/DTD/svg11.dtd">
<!-- Creator: CorelDRAW X7 -->
<svg xmlns="http://www.w3.org/2000/svg" xml:space="preserve" width="27.0932mm" height="27.0932mm" version="1.1" style="shape-rendering:geometricPrecision; text-rendering:geometricPrecision; image-rendering:optimizeQuality; fill-rule:evenodd; clip-rule:evenodd"
viewBox="0 0 2709 2709"
 xmlns:xlink="http://www.w3.org/1999/xlink">
 <defs>
  <style type="text/css">
   <![CDATA[
    .fil1 {fill:black}
    .fil0 {fill:black}
   ]]>
  </style>
 </defs>
 <g id="Camada_x0020_1">
  <metadata id="CorelCorpID_0Corel-Layer"/>
  <path class="fil0" d="M394 1102c-141,527 172,1068 699,1209 321,87 649,3 887,-194l-142 -142 128 -128 142 142c88,-107 156,-233 194,-376 141,-527 -171,-1068 -698,-1210 -527,-141 -1069,172 -1210,699zm1218 335l-176 0 0 176c0,45 -36,82 -81,82 -45,0 -82,-37 -82,-82l0 -176 -176 0c-45,0 -82,-36 -82,-81 0,-45 37,-82 82,-82l176 0 0 -176c0,-45 37,-82 82,-82 45,0 81,37 81,82l0 176 176 0c45,0 82,37 82,82 0,45 -37,81 -82,81zm185 -527c-248,-247 -649,-247 -896,0 -247,248 -247,649 0,896 216,215 548,243 794,83l73 73 185 -185 -74 -73c161,-246 133,-578 -82,-794zm-64 64c-212,-212 -556,-212 -768,0 -212,212 -212,556 0,768 212,212 556,212 768,0 212,-212 212,-556 0,-768z"/>
  <path class="fil1" d="M2540 1355c0,654 -531,1185 -1185,1185 -655,0 -1186,-531 -1186,-1185 0,-655 531,-1186 1186,-1186 654,0 1185,531 1185,1186zm-1185 -1136c-628,0 -1136,508 -1136,1136 0,627 508,1136 1136,1136 627,0 1136,-509 1136,-1136 0,-628 -509,-1136 -1136,-1136z"/>
 </g>
</svg>
