<?xml version="1.0" encoding="UTF-8"?>
<!DOCTYPE svg PUBLIC "-//W3C//DTD SVG 1.1//EN" "http://www.w3.org/Graphics/SVG/1.1/DTD/svg11.dtd">
<!-- Creator: CorelDRAW X7 -->
<svg xmlns="http://www.w3.org/2000/svg" xml:space="preserve" width="27.0932mm" height="27.0932mm" version="1.1" style="shape-rendering:geometricPrecision; text-rendering:geometricPrecision; image-rendering:optimizeQuality; fill-rule:evenodd; clip-rule:evenodd"
viewBox="0 0 2709 2709"
 xmlns:xlink="http://www.w3.org/1999/xlink">
 <defs>
  <style type="text/css">
   <![CDATA[
    .fil0 {fill:black}
   ]]>
  </style>
 </defs>
 <g id="Camada_x0020_1">
  <metadata id="CorelCorpID_0Corel-Layer"/>
  <path class="fil0" d="M1355 169c654,0 1185,531 1185,1186 0,654 -531,1185 -1185,1185 -655,0 -1186,-531 -1186,-1185 0,-655 531,-1186 1186,-1186zm-249 657l249 15 248 -15 -11 -100 0 -61 7 -6 12 12 0 61 12 159 73 183 159 146 0 12 -12 0 -159 -146 -73 -183 -8 -67 -45 11 -183 9 -41 1 -183 -10 -46 -11 -6 67 -74 183 -158 146 -12 0 0 -12 158 -146 73 -183 13 -159 0 -61 12 -24 6 18 0 61 -11 100zm1163 280l-94 -257 -137 -170 -216 -79 -187 -2 -12 -49 -37 0 -48 74 -183 65 -183 -65 -49 -74 -37 0 -12 49 -187 2 -216 79 -137 170 -94 257 248 218 142 -92 25 25 55 169 40 274 -53 451 53 13 405 -78 404 78 53 -13 -53 -451 40 -274 56 -169 24 -25 142 92 248 -218zm-914 65l170 79 78 91 -92 -78 -156 -39 0 0 -1 0 -156 39 -92 78 79 -91 170 -79zm0 183l11 233 159 11 -159 12 -11 232 -12 -232 -159 -12 159 -11 12 -233z"/>
 </g>
</svg>
