<?xml version="1.0" encoding="UTF-8"?>
<!DOCTYPE svg PUBLIC "-//W3C//DTD SVG 1.1//EN" "http://www.w3.org/Graphics/SVG/1.1/DTD/svg11.dtd">
<!-- Creator: CorelDRAW X7 -->
<svg xmlns="http://www.w3.org/2000/svg" xml:space="preserve" width="27.0932mm" height="27.0932mm" version="1.1" style="shape-rendering:geometricPrecision; text-rendering:geometricPrecision; image-rendering:optimizeQuality; fill-rule:evenodd; clip-rule:evenodd"
viewBox="0 0 2709 2709"
 xmlns:xlink="http://www.w3.org/1999/xlink">
 <defs>
  <style type="text/css">
   <![CDATA[
    .fil0 {fill:black}
   ]]>
  </style>
 </defs>
 <g id="Camada_x0020_1">
  <metadata id="CorelCorpID_0Corel-Layer"/>
  <path class="fil0" d="M1355 367c545,0 987,442 987,988 0,545 -442,987 -987,987 -546,0 -988,-442 -988,-987 0,-546 442,-988 988,-988zm-559 525l0 -45c19,-21 38,-40 59,-59l0 40c-21,20 -41,42 -59,64l0 0zm-17 -26l0 47c-6,7 -11,15 -17,22l-25 -15c13,-18 27,-37 42,-54zm576 997c-281,0 -509,-228 -509,-508 0,-78 18,-152 49,-218l26 15c-29,62 -45,130 -45,203 0,264 215,479 479,479 264,0 479,-215 479,-479 0,-43 -6,-85 -17,-124l28 -10c12,42 18,87 18,134 0,280 -228,508 -508,508zm-404 -817c17,-22 36,-43 57,-63l0 42c-11,11 -22,24 -32,36l-25 -15 0 0zm73 -78c19,-16 39,-30 60,-44l0 36c-21,14 -41,30 -60,48l0 -40zm77 -54c19,-11 38,-21 59,-29l0 32c-21,9 -40,20 -59,32l0 -35zm76 -36c19,-7 39,-13 59,-18l0 31c-20,5 -40,11 -59,19l0 -32zm76 -22c19,-4 39,-7 59,-8l0 30c-20,1 -40,4 -59,9l0 -31zm76 -9c9,-1 17,-1 26,-1 11,0 22,0 34,1l0 30c-12,-1 -23,-1 -34,-1 -9,0 -17,0 -26,0l0 -29zm76 2c21,2 40,5 60,9l0 30c-20,-4 -39,-8 -60,-10l0 -29zm77 13c20,5 40,12 59,19l0 32c-19,-8 -39,-15 -59,-20l0 -31zm76 26c20,9 40,20 59,31l0 35c-19,-12 -39,-23 -59,-33l0 -33zm76 42c21,14 41,29 59,46l0 40c-18,-18 -38,-35 -59,-50l0 -36zm76 61c22,22 42,45 60,70l0 55c-17,-30 -37,-57 -60,-82l0 -43zm76 95c7,11 13,22 19,33l-19 7 0 -40zm321 201c33,5 58,34 58,68 0,34 -25,62 -58,68 -34,385 -359,687 -752,687 -208,0 -396,-84 -533,-220 -10,7 -22,10 -35,10l0 0c-20,0 -40,-9 -53,-25 -12,-14 -17,-32 -16,-50 2,-15 7,-28 17,-39 -86,-122 -136,-271 -136,-431 0,-123 30,-239 82,-342l26 15c-50,98 -78,209 -78,327 0,153 48,296 129,413 9,-4 19,-6 29,-6 21,0 40,9 53,24 12,14 18,32 16,51 -1,12 -5,23 -12,33 131,130 312,211 511,211 377,0 689,-290 722,-660 -29,-7 -51,-34 -51,-66 0,-32 22,-59 51,-67 -4,-49 -13,-96 -27,-142l28 -10c14,48 24,99 29,151l0 0zm-1235 -513c19,-16 39,-31 59,-45l0 36c-20,15 -40,31 -59,48l0 -39zm76 -56c19,-12 39,-24 60,-34l0 33c-21,11 -41,24 -60,37l0 -36zm76 -43c20,-9 40,-18 60,-26l0 32c-20,8 -40,17 -60,27l0 -33zm77 -32c19,-7 39,-13 59,-18l0 30c-20,6 -40,12 -59,20l0 -32zm76 -23c19,-4 39,-8 59,-12l0 30c-20,4 -40,8 -59,13l0 -31zm76 -14c20,-3 39,-5 59,-6l0 30c-20,1 -39,3 -59,6l0 -30zm76 -6c9,-1 17,-1 26,-1 11,0 22,0 34,1l0 30c-12,-1 -23,-1 -34,-1 -9,0 -17,0 -26,0l0 -29zm76 1c20,1 40,3 60,6l0 30c-20,-3 -40,-5 -60,-6l0 -30zm77 9c20,3 39,7 59,12l0 31c-20,-5 -39,-10 -59,-13l0 -30zm76 17c20,6 40,12 59,19l0 32c-19,-8 -39,-14 -59,-20l0 -31zm76 26c20,8 40,17 59,26l0 34c-19,-10 -39,-20 -59,-28l0 -32zm76 35c21,11 40,23 60,36l0 35c-20,-13 -39,-25 -60,-37l0 -34zm76 47c21,14 41,30 60,46l0 40c-19,-18 -39,-34 -60,-49l0 -37zm77 61c20,19 40,39 59,60l0 46c-19,-23 -38,-45 -59,-65l0 -41 0 0zm76 80c21,26 41,54 59,83l0 60c-17,-33 -37,-65 -59,-95l0 -48zm76 112c8,14 16,29 23,44l-23 9 0 -53zm-660 628c-145,0 -262,-117 -262,-261 0,-33 6,-64 17,-93l26 15c-9,24 -13,50 -13,78 0,128 104,232 232,232 128,0 232,-104 232,-232 0,-13 -1,-26 -3,-39l28 -10c3,16 4,32 4,49 0,144 -117,261 -261,261l0 0zm-178 -453c18,-17 37,-31 59,-42l0 34c-16,10 -30,21 -43,33l-16 -9 0 -16zm76 -49c19,-8 39,-14 59,-18l0 30c-21,4 -40,11 -59,20l0 -32zm76 -20c9,-1 17,-1 26,-1 11,0 22,1 34,2l0 30c-12,-2 -23,-2 -34,-2 -9,0 -17,0 -26,1l0 -30zm76 4c21,4 41,11 60,19l0 33c-19,-10 -39,-17 -60,-22l0 -30zm77 28c22,12 41,27 59,45l0 45c-16,-22 -36,-41 -59,-56l0 -34 0 0zm76 64c4,5 8,11 12,17l-12 4 0 -21zm-635 -515c-17,0 -34,-6 -46,-17 -95,67 -175,154 -234,256l696 409c5,-2 10,-3 16,-3 7,0 13,2 19,5l760 -284c-116,-316 -423,-533 -779,-533l0 0c-132,0 -255,30 -365,83 6,29 -6,60 -33,75 -10,6 -22,9 -34,9l0 0zm-58 -31c-1,-1 -2,-2 -2,-3 -19,-33 -8,-76 25,-95 11,-6 22,-9 35,-9 24,0 47,13 59,35l2 3c112,-54 237,-84 371,-84l0 0c373,0 692,236 812,567l-779 285c1,3 2,7 2,12 0,19 -16,35 -35,35 -20,0 -35,-16 -35,-35 0,-7 1,-13 4,-18l-714 -414c64,-111 151,-206 255,-279l0 0z"/>
  <path class="fil0" d="M2540 1355c0,654 -531,1185 -1185,1185 -655,0 -1186,-531 -1186,-1185 0,-655 531,-1186 1186,-1186 654,0 1185,531 1185,1186zm-1185 -1136c-628,0 -1136,508 -1136,1136 0,627 508,1136 1136,1136 627,0 1136,-509 1136,-1136 0,-628 -509,-1136 -1136,-1136z"/>
 </g>
</svg>
