<?xml version="1.0" encoding="UTF-8"?>
<!DOCTYPE svg PUBLIC "-//W3C//DTD SVG 1.1//EN" "http://www.w3.org/Graphics/SVG/1.1/DTD/svg11.dtd">
<!-- Creator: CorelDRAW X7 -->
<svg xmlns="http://www.w3.org/2000/svg" xml:space="preserve" width="27.0932mm" height="27.0932mm" version="1.1" style="shape-rendering:geometricPrecision; text-rendering:geometricPrecision; image-rendering:optimizeQuality; fill-rule:evenodd; clip-rule:evenodd"
viewBox="0 0 2709 2709"
 xmlns:xlink="http://www.w3.org/1999/xlink">
 <defs>
  <style type="text/css">
   <![CDATA[
    .fil0 {fill:black}
   ]]>
  </style>
 </defs>
 <g id="Camada_x0020_1">
  <metadata id="CorelCorpID_0Corel-Layer"/>
  <path class="fil0" d="M2006 1358c0,-359 -292,-651 -651,-651 -360,0 -652,292 -652,651 0,360 292,652 652,652 359,0 651,-292 651,-652zm-651 -1186c-655,0 -1186,530 -1186,1185 0,618 473,1126 1077,1180l0 -239 217 0 0 239c604,-54 1077,-562 1077,-1180 0,-655 -531,-1185 -1185,-1185l0 0zm760 1186c0,-419 -341,-760 -760,-760 -420,0 -760,341 -760,760 0,366 258,672 603,744l0 125 313 0 0 -125c345,-72 604,-378 604,-744zm-181 0c0,-320 -260,-579 -579,-579 -320,0 -580,259 -579,579 -1,320 259,579 579,579 319,0 579,-259 579,-579z"/>
 </g>
</svg>
