<?xml version="1.0" encoding="UTF-8"?>
<!DOCTYPE svg PUBLIC "-//W3C//DTD SVG 1.1//EN" "http://www.w3.org/Graphics/SVG/1.1/DTD/svg11.dtd">
<!-- Creator: CorelDRAW X7 -->
<svg xmlns="http://www.w3.org/2000/svg" xml:space="preserve" width="27.0932mm" height="27.0932mm" version="1.1" style="shape-rendering:geometricPrecision; text-rendering:geometricPrecision; image-rendering:optimizeQuality; fill-rule:evenodd; clip-rule:evenodd"
viewBox="0 0 2709 2709"
 xmlns:xlink="http://www.w3.org/1999/xlink">
 <defs>
  <style type="text/css">
   <![CDATA[
    .fil0 {fill:black}
   ]]>
  </style>
 </defs>
 <g id="Camada_x0020_1">
  <metadata id="CorelCorpID_0Corel-Layer"/>
  <path class="fil0" d="M1355 169c654,0 1185,531 1185,1186 0,654 -531,1185 -1185,1185 -655,0 -1186,-531 -1186,-1185 0,-655 531,-1186 1186,-1186zm315 972l0 0 0 0 4 -49 -683 0 -3 49 661 0 0 10 0 0c-35,20 -66,46 -92,76l-566 0 0 47 529 0c-34,56 -54,121 -54,190l0 0c0,189 145,343 329,359l0 141 -926 0 0 -1219 926 0 0 361c-44,4 -87,16 -125,35zm-679 -183l683 0 0 49 -683 0 0 -49zm244 884l-244 0 0 -48 244 0 0 48zm73 0l-25 0 0 -48 25 0 0 48zm0 -132l-317 0 0 -50 317 0 0 50zm24 -303l-341 0 0 -46 341 0 0 46zm73 0l-24 0 0 -46 24 0 0 46zm421 -266c-178,0 -323,145 -323,323 0,179 145,324 323,324 178,0 323,-145 323,-324 0,-178 -145,-323 -323,-323zm-95 477l-109 -191 74 -42 67 116 216 -125 43 74 -291 168z"/>
 </g>
</svg>
