<?xml version="1.0" encoding="UTF-8"?>
<!DOCTYPE svg PUBLIC "-//W3C//DTD SVG 1.1//EN" "http://www.w3.org/Graphics/SVG/1.1/DTD/svg11.dtd">
<!-- Creator: CorelDRAW X7 -->
<svg xmlns="http://www.w3.org/2000/svg" xml:space="preserve" width="27.0932mm" height="27.0932mm" version="1.1" style="shape-rendering:geometricPrecision; text-rendering:geometricPrecision; image-rendering:optimizeQuality; fill-rule:evenodd; clip-rule:evenodd"
viewBox="0 0 2709 2709"
 xmlns:xlink="http://www.w3.org/1999/xlink">
 <defs>
  <style type="text/css">
   <![CDATA[
    .fil0 {fill:black}
   ]]>
  </style>
 </defs>
 <g id="Camada_x0020_1">
  <metadata id="CorelCorpID_0Corel-Layer"/>
  <path class="fil0" d="M2540 1355c0,654 -531,1185 -1185,1185 -655,0 -1186,-531 -1186,-1185 0,-655 531,-1186 1186,-1186 654,0 1185,531 1185,1186zm-1185 -1085c-599,0 -1085,486 -1085,1085 0,599 486,1084 1085,1084 599,0 1084,-485 1084,-1084 0,-599 -485,-1085 -1084,-1085z"/>
  <path class="fil0" d="M2267 1355c0,-504 -408,-913 -912,-913 -504,0 -913,409 -913,913 0,504 409,912 913,912 504,0 912,-408 912,-912zm-420 0c0,271 -221,492 -492,492 -272,0 -492,-221 -492,-492 0,-272 220,-492 492,-492 271,0 492,220 492,492zm-492 -285c-157,0 -285,128 -285,285 0,157 128,284 285,284 157,0 284,-127 284,-284 0,-157 -127,-285 -284,-285z"/>
 </g>
</svg>
