<?xml version="1.0" encoding="UTF-8"?>
<!DOCTYPE svg PUBLIC "-//W3C//DTD SVG 1.1//EN" "http://www.w3.org/Graphics/SVG/1.1/DTD/svg11.dtd">
<!-- Creator: CorelDRAW X7 -->
<svg xmlns="http://www.w3.org/2000/svg" xml:space="preserve" width="27.0932mm" height="27.0932mm" version="1.1" style="shape-rendering:geometricPrecision; text-rendering:geometricPrecision; image-rendering:optimizeQuality; fill-rule:evenodd; clip-rule:evenodd"
viewBox="0 0 2709 2709"
 xmlns:xlink="http://www.w3.org/1999/xlink">
 <defs>
  <style type="text/css">
   <![CDATA[
    .fil0 {fill:black}
    .fil1 {fill:black}
   ]]>
  </style>
 </defs>
 <g id="Camada_x0020_1">
  <metadata id="CorelCorpID_0Corel-Layer"/>
  <path class="fil0" d="M2540 1355c0,654 -531,1185 -1185,1185 -655,0 -1186,-531 -1186,-1185 0,-655 531,-1186 1186,-1186 654,0 1185,531 1185,1186zm-1185 -1136c-628,0 -1136,508 -1136,1136 0,627 508,1136 1136,1136 627,0 1136,-509 1136,-1136 0,-628 -509,-1136 -1136,-1136z"/>
  <path class="fil1" d="M2342 1355c0,-546 -442,-988 -987,-988 -546,0 -988,442 -988,988 0,545 442,987 988,987 545,0 987,-442 987,-987zm-1455 -91l-154 -154 14 -125 84 83 126 -28 28 -125 -84 -84 125 -14 154 154 -40 148 179 179c-51,-11 -106,3 -146,43l-10 10 -128 -128 -148 41 0 0zm963 670c-79,79 -205,81 -282,4 -59,-59 -72,-147 -39,-221l-143 -142 11 -11c39,-39 53,-95 42,-146l194 194c74,-32 162,-20 221,39 77,78 76,204 -4,283l0 0zm-66 -213c-40,-40 -106,-40 -147,0 -40,41 -40,106 0,147 41,40 107,40 147,0 41,-41 41,-106 0,-147zm39 -736l83 -112 -42 -42 -111 84 14 14 -408 407c-53,-34 -125,-28 -172,19l-405 405c-54,54 -54,141 0,195 54,54 142,54 196,0l405 -405c46,-47 53,-119 18,-172l408 -407 14 14 0 0z"/>
 </g>
</svg>
