<?xml version="1.0" encoding="UTF-8"?>
<!DOCTYPE svg PUBLIC "-//W3C//DTD SVG 1.1//EN" "http://www.w3.org/Graphics/SVG/1.1/DTD/svg11.dtd">
<!-- Creator: CorelDRAW X7 -->
<svg xmlns="http://www.w3.org/2000/svg" xml:space="preserve" width="27.0932mm" height="27.0932mm" version="1.1" style="shape-rendering:geometricPrecision; text-rendering:geometricPrecision; image-rendering:optimizeQuality; fill-rule:evenodd; clip-rule:evenodd"
viewBox="0 0 2709 2709"
 xmlns:xlink="http://www.w3.org/1999/xlink">
 <defs>
  <style type="text/css">
   <![CDATA[
    .fil0 {fill:black}
    .fil1 {fill:black}
   ]]>
  </style>
 </defs>
 <g id="Camada_x0020_1">
  <metadata id="CorelCorpID_0Corel-Layer"/>
  <path class="fil0" d="M2540 1355c0,654 -531,1185 -1185,1185 -655,0 -1186,-531 -1186,-1185 0,-655 531,-1186 1186,-1186 654,0 1185,531 1185,1186zm-1185 -1085c-599,0 -1085,486 -1085,1085 0,599 486,1084 1085,1084 599,0 1084,-485 1084,-1084 0,-599 -485,-1085 -1084,-1085z"/>
  <path class="fil1" d="M1355 367c545,0 987,442 987,988 0,468 -326,861 -764,962l18 -237 19 80 7 32 0 0 21 88c33,-10 65,-21 97,-34l-92 -502 -221 -51 -8 -34 48 -44 15 -197 -74 -83 -107 0 -74 83 15 197 48 44 -7 34 -107 25 -246 -575 932 -395 -45 -108 -1039 441 45 108 25 -11 283 755 0 286 4 99c-439,-100 -768,-493 -768,-963 0,-546 442,-988 988,-988zm729 1146c0,-279 -156,-521 -385,-644l-25 11c232,116 390,356 390,633 0,241 -120,454 -303,582l4 22c193,-132 319,-353 319,-604zm-727 -730l-2 0c-207,0 -394,87 -527,225l51 -22c115,-103 263,-170 427,-181l51 -22zm-616 335c-73,114 -116,249 -116,395 0,307 189,570 458,678l0 -38c-174,-96 -292,-281 -292,-494 0,-105 28,-203 78,-288l-8 -23c-57,90 -90,197 -90,311 0,202 102,380 258,485 -228,-118 -384,-356 -384,-631 0,-137 39,-264 106,-373l-10 -22zm1198 541c0,-322 -262,-584 -584,-584 -132,0 -254,44 -352,118l8 19c95,-74 214,-117 344,-117 311,0 564,253 564,564 0,156 -63,296 -165,398l4 24c111,-106 181,-256 181,-422z"/>
 </g>
</svg>
