<?xml version="1.0" encoding="UTF-8"?>
<!DOCTYPE svg PUBLIC "-//W3C//DTD SVG 1.1//EN" "http://www.w3.org/Graphics/SVG/1.1/DTD/svg11.dtd">
<!-- Creator: CorelDRAW X7 -->
<svg xmlns="http://www.w3.org/2000/svg" xml:space="preserve" width="27.0932mm" height="27.0932mm" version="1.1" style="shape-rendering:geometricPrecision; text-rendering:geometricPrecision; image-rendering:optimizeQuality; fill-rule:evenodd; clip-rule:evenodd"
viewBox="0 0 2709 2709"
 xmlns:xlink="http://www.w3.org/1999/xlink">
 <defs>
  <style type="text/css">
   <![CDATA[
    .fil0 {fill:black}
   ]]>
  </style>
 </defs>
 <g id="Camada_x0020_1">
  <metadata id="CorelCorpID_0Corel-Layer"/>
  <path class="fil0" d="M2540 1355c0,-655 -531,-1186 -1185,-1186 -655,0 -1186,531 -1186,1186 0,654 531,1185 1186,1185 654,0 1185,-531 1185,-1185zm-461 391c0,-151 -122,-273 -273,-273 -150,0 -272,122 -272,273 0,150 122,272 272,272 151,0 273,-122 273,-272zm-903 0c0,-151 -122,-273 -273,-273 -151,0 -273,122 -273,273 0,150 122,272 273,272 151,0 273,-122 273,-272zm451 -783c0,-150 -122,-272 -272,-272 -151,0 -273,122 -273,272 0,151 122,273 273,273 150,0 272,-122 272,-273z"/>
 </g>
</svg>
