<?xml version="1.0" encoding="UTF-8"?>
<!DOCTYPE svg PUBLIC "-//W3C//DTD SVG 1.1//EN" "http://www.w3.org/Graphics/SVG/1.1/DTD/svg11.dtd">
<!-- Creator: CorelDRAW X7 -->
<svg xmlns="http://www.w3.org/2000/svg" xml:space="preserve" width="27.0932mm" height="27.0932mm" version="1.1" style="shape-rendering:geometricPrecision; text-rendering:geometricPrecision; image-rendering:optimizeQuality; fill-rule:evenodd; clip-rule:evenodd"
viewBox="0 0 2709 2709"
 xmlns:xlink="http://www.w3.org/1999/xlink">
 <defs>
  <style type="text/css">
   <![CDATA[
    .fil0 {fill:black}
   ]]>
  </style>
 </defs>
 <g id="Camada_x0020_1">
  <metadata id="CorelCorpID_0Corel-Layer"/>
  <path class="fil0" d="M2540 1355c0,-655 -531,-1186 -1185,-1186 -655,0 -1186,531 -1186,1186 0,654 531,1185 1186,1185 654,0 1185,-531 1185,-1185zm-794 889l83 0 -431 -958c37,-17 63,-54 63,-97 0,-59 -47,-107 -106,-107 -59,0 -107,48 -107,107 0,43 26,80 63,97l-430 958 82 0 96 -214 591 0 96 214zm-74 -1055c0,72 -25,139 -66,192l-33 -25c36,-46 57,-104 57,-167 0,-63 -21,-121 -57,-168l33 -25c41,53 66,120 66,193l0 0zm-536 -168l-33 -25c-41,53 -65,120 -65,193 0,72 24,139 65,192l33 -25c-35,-46 -57,-104 -57,-167 0,-63 22,-121 57,-168l0 0zm684 168c0,106 -36,204 -97,283l-33 -26c55,-71 88,-160 88,-257 0,-97 -33,-186 -88,-258l33 -25c61,78 97,176 97,283zm-801 -258l-33 -25c-60,78 -97,176 -97,283 0,106 37,204 97,283l33 -26c-55,-71 -88,-160 -88,-257 0,-97 33,-186 88,-258zm949 258c0,140 -47,269 -127,373l-33 -25c74,-97 119,-217 119,-348 0,-131 -45,-252 -119,-348l33 -25c80,103 127,232 127,373zm-1067 -348l-33 -25c-79,103 -127,232 -127,373 0,140 48,269 127,373l33 -25c-74,-97 -118,-217 -118,-348 0,-131 44,-252 118,-348zm196 1106l53 -118 409 0 54 118 -516 0zm1019 -758c0,174 -59,335 -158,463l-32 -25c93,-122 149,-274 149,-438 0,-165 -56,-317 -149,-438l32 -26c99,129 158,289 158,464l0 0zm-1332 -438l-33 -26c-99,129 -158,289 -158,464 0,174 59,335 158,463l33 -25c-94,-122 -149,-274 -149,-438 0,-165 55,-317 149,-438l0 0z"/>
 </g>
</svg>
