<?xml version="1.0" encoding="UTF-8"?>
<!DOCTYPE svg PUBLIC "-//W3C//DTD SVG 1.1//EN" "http://www.w3.org/Graphics/SVG/1.1/DTD/svg11.dtd">
<!-- Creator: CorelDRAW X7 -->
<svg xmlns="http://www.w3.org/2000/svg" xml:space="preserve" width="27.0932mm" height="27.0932mm" version="1.1" style="shape-rendering:geometricPrecision; text-rendering:geometricPrecision; image-rendering:optimizeQuality; fill-rule:evenodd; clip-rule:evenodd"
viewBox="0 0 2709 2709"
 xmlns:xlink="http://www.w3.org/1999/xlink">
 <defs>
  <style type="text/css">
   <![CDATA[
    .fil0 {fill:black}
   ]]>
  </style>
 </defs>
 <g id="Camada_x0020_1">
  <metadata id="CorelCorpID_0Corel-Layer"/>
  <path class="fil0" d="M2540 1355c0,-655 -531,-1185 -1185,-1185 -655,0 -1185,530 -1185,1185 0,654 530,1185 1185,1185 654,0 1185,-531 1185,-1185zm-1772 -628l-95 0 0 -119 95 0 0 119zm1173 -119l0 119 95 0 0 -119 -95 0zm-23 167l0 1291 -563 -296 -563 296 0 -1482 1126 0 0 166 -682 0 0 25 682 0zm-326 443l-160 0 0 -160 -154 0 0 160 -160 0 0 155 160 0 0 160 154 0 0 -160 160 0 0 -155z"/>
 </g>
</svg>
