<?xml version="1.0" encoding="UTF-8"?>
<!DOCTYPE svg PUBLIC "-//W3C//DTD SVG 1.1//EN" "http://www.w3.org/Graphics/SVG/1.1/DTD/svg11.dtd">
<!-- Creator: CorelDRAW X7 -->
<svg xmlns="http://www.w3.org/2000/svg" xml:space="preserve" width="27.0932mm" height="27.0932mm" version="1.1" style="shape-rendering:geometricPrecision; text-rendering:geometricPrecision; image-rendering:optimizeQuality; fill-rule:evenodd; clip-rule:evenodd"
viewBox="0 0 2709 2709"
 xmlns:xlink="http://www.w3.org/1999/xlink">
 <defs>
  <style type="text/css">
   <![CDATA[
    .fil0 {fill:black}
   ]]>
  </style>
 </defs>
 <g id="Camada_x0020_1">
  <metadata id="CorelCorpID_0Corel-Layer"/>
  <path class="fil0" d="M2540 1355c0,-655 -531,-1186 -1185,-1186 -655,0 -1186,531 -1186,1186 0,654 531,1185 1186,1185 654,0 1185,-531 1185,-1185zm-533 -398l0 -237 -534 533 118 119 416 -415zm-1364 0l0 -237 915 914 -119 119 -796 -796zm1347 965l-136 135 -262 -262 -93 93 -85 -85 330 -330 85 85 -102 101 263 263zm-1330 -1211l237 0 796 788 -122 122 -911 -910zm530 817l-105 106 126 127 106 -106 -127 -127zm-521 377l135 135 246 -245 93 93 85 -85 -322 -321 -85 84 93 93 -245 246zm1321 -1194l-246 0 -407 407 123 122 530 -529zm-932 686l-106 106 119 118 106 -105 -119 -119z"/>
 </g>
</svg>
