<?xml version="1.0" encoding="UTF-8"?>
<!DOCTYPE svg PUBLIC "-//W3C//DTD SVG 1.1//EN" "http://www.w3.org/Graphics/SVG/1.1/DTD/svg11.dtd">
<!-- Creator: CorelDRAW X7 -->
<svg xmlns="http://www.w3.org/2000/svg" xml:space="preserve" width="27.0932mm" height="27.0932mm" version="1.1" style="shape-rendering:geometricPrecision; text-rendering:geometricPrecision; image-rendering:optimizeQuality; fill-rule:evenodd; clip-rule:evenodd"
viewBox="0 0 2709 2709"
 xmlns:xlink="http://www.w3.org/1999/xlink">
 <defs>
  <style type="text/css">
   <![CDATA[
    .fil0 {fill:black}
   ]]>
  </style>
 </defs>
 <g id="Camada_x0020_1">
  <metadata id="CorelCorpID_0Corel-Layer"/>
  <path class="fil0" d="M2540 1355c0,-279 -97,-536 -258,-739l-826 477 0 -69 787 -454c-217,-246 -534,-401 -888,-401 -354,0 -671,155 -888,401l786 454 0 69 -825 -477c-162,203 -259,460 -259,739 0,654 531,1185 1186,1185 654,0 1185,-531 1185,-1185zm-1236 -356l101 0 0 305 -101 0 0 -305zm152 285l102 71 0 406 -203 203 -204 -203 0 -406 102 -71 0 20 0 50 51 0 101 0 51 0 0 -50 0 -20z"/>
 </g>
</svg>
