<?xml version="1.0" encoding="UTF-8"?>
<!DOCTYPE svg PUBLIC "-//W3C//DTD SVG 1.1//EN" "http://www.w3.org/Graphics/SVG/1.1/DTD/svg11.dtd">
<!-- Creator: CorelDRAW X7 -->
<svg xmlns="http://www.w3.org/2000/svg" xml:space="preserve" width="27.0932mm" height="27.0932mm" version="1.1" style="shape-rendering:geometricPrecision; text-rendering:geometricPrecision; image-rendering:optimizeQuality; fill-rule:evenodd; clip-rule:evenodd"
viewBox="0 0 2709 2709"
 xmlns:xlink="http://www.w3.org/1999/xlink">
 <defs>
  <style type="text/css">
   <![CDATA[
    .fil1 {fill:black}
    .fil0 {fill:black}
   ]]>
  </style>
 </defs>
 <g id="Camada_x0020_1">
  <metadata id="CorelCorpID_0Corel-Layer"/>
  <path class="fil0" d="M1355 367c545,0 987,442 987,988 0,545 -442,987 -987,987 -546,0 -988,-442 -988,-987 0,-546 442,-988 988,-988zm262 809l0 1 1 0 2 -41 -569 0 -2 41 551 0 0 8 0 0c-29,17 -55,38 -77,63l-472 0 0 40 442 0c-29,46 -45,100 -45,158l0 0c0,157 120,286 274,299l0 118 -772 0 0 -1016 772 0 0 301c-37,3 -73,13 -105,28zm-566 -152l569 0 0 41 -569 0 0 -41zm204 737l-204 0 0 -41 204 0 0 41zm61 0l-21 0 0 -41 21 0 0 41zm0 -110l-265 0 0 -42 265 0 0 42zm20 -252l-285 0 0 -39 285 0 0 39zm61 0l-20 0 0 -39 20 0 0 39zm350 -222c-148,0 -269,120 -269,269 0,149 121,269 269,269 149,0 270,-120 270,-269 0,-149 -121,-269 -270,-269zm-78 397l-92 -159 62 -35 56 97 180 -105 35 62 -241 140z"/>
  <path class="fil1" d="M2540 1355c0,654 -531,1185 -1185,1185 -655,0 -1186,-531 -1186,-1185 0,-655 531,-1186 1186,-1186 654,0 1185,531 1185,1186zm-1185 -1136c-628,0 -1136,508 -1136,1136 0,627 508,1136 1136,1136 627,0 1136,-509 1136,-1136 0,-628 -509,-1136 -1136,-1136z"/>
 </g>
</svg>
