<?xml version="1.0" encoding="UTF-8"?>
<!DOCTYPE svg PUBLIC "-//W3C//DTD SVG 1.1//EN" "http://www.w3.org/Graphics/SVG/1.1/DTD/svg11.dtd">
<!-- Creator: CorelDRAW X7 -->
<svg xmlns="http://www.w3.org/2000/svg" xml:space="preserve" width="27.0932mm" height="27.0932mm" version="1.1" style="shape-rendering:geometricPrecision; text-rendering:geometricPrecision; image-rendering:optimizeQuality; fill-rule:evenodd; clip-rule:evenodd"
viewBox="0 0 2709 2709"
 xmlns:xlink="http://www.w3.org/1999/xlink">
 <defs>
  <style type="text/css">
   <![CDATA[
    .fil0 {fill:black}
   ]]>
  </style>
 </defs>
 <g id="Camada_x0020_1">
  <metadata id="CorelCorpID_0Corel-Layer"/>
  <path class="fil0" d="M2541 1355c0,654 -531,1185 -1186,1185 -655,0 -1186,-531 -1186,-1185 0,-655 531,-1186 1186,-1186 655,0 1186,531 1186,1186zm-644 3c0,-299 -243,-543 -542,-543 -300,0 -543,244 -543,543 0,299 243,543 543,543 299,0 542,-244 542,-543zm-542 -988c-546,0 -988,441 -988,987 0,515 394,938 897,983l0 -199 181 0 0 199c503,-45 897,-468 897,-983 0,-546 -442,-987 -987,-987l0 0zm633 988c0,-349 -284,-634 -633,-634 -350,0 -633,285 -633,634 0,304 215,559 502,619l0 105 261 0 0 -105c287,-60 503,-315 503,-619zm-151 0c0,-267 -216,-483 -482,-483 -267,0 -483,216 -482,483 -1,266 215,482 482,482 266,0 482,-216 482,-482zm-482 -1139c-628,0 -1136,508 -1136,1136 0,627 508,1136 1136,1136 628,0 1137,-509 1137,-1136 0,-628 -509,-1136 -1137,-1136z"/>
 </g>
</svg>
