<?xml version="1.0" encoding="UTF-8"?>
<!DOCTYPE svg PUBLIC "-//W3C//DTD SVG 1.1//EN" "http://www.w3.org/Graphics/SVG/1.1/DTD/svg11.dtd">
<!-- Creator: CorelDRAW X7 -->
<svg xmlns="http://www.w3.org/2000/svg" xml:space="preserve" width="27.0932mm" height="27.0932mm" version="1.1" style="shape-rendering:geometricPrecision; text-rendering:geometricPrecision; image-rendering:optimizeQuality; fill-rule:evenodd; clip-rule:evenodd"
viewBox="0 0 2709 2709"
 xmlns:xlink="http://www.w3.org/1999/xlink">
 <defs>
  <style type="text/css">
   <![CDATA[
    .fil0 {fill:black}
   ]]>
  </style>
 </defs>
 <g id="Camada_x0020_1">
  <metadata id="CorelCorpID_0Corel-Layer"/>
  <path class="fil0" d="M1355 172c654,0 1185,530 1185,1185 0,563 -392,1034 -918,1155l23 -284 22 95 9 39 0 0 24 106c40,-12 79,-25 117,-41l-110 -602 -266 -62 -9 -40 58 -53 17 -237 -88 -100 -129 0 -88 100 18 237 57 53 -9 40 -128 30 -295 -689 1119 -475 -55 -129 -1247 529 55 129 30 -13 339 907 0 343 6 118c-528,-120 -923,-592 -923,-1156 0,-655 531,-1185 1186,-1185zm876 1375c0,-334 -188,-625 -464,-772l-29 12c278,140 468,428 468,760 0,289 -144,545 -364,699l5 26c232,-158 384,-423 384,-725zm-873 -876l-3 0c-249,0 -473,104 -633,270l62 -26c138,-124 316,-204 512,-217l62 -27zm-740 402c-88,136 -139,299 -139,474 0,369 227,684 550,813l0 -44c-210,-115 -351,-338 -351,-594 0,-126 34,-244 94,-345l-10 -28c-69,108 -108,236 -108,373 0,243 123,456 310,582 -274,-141 -461,-427 -461,-757 0,-164 46,-317 127,-447l-12 -27zm1437 649c0,-387 -313,-700 -700,-700 -159,0 -305,52 -422,141l10 22c114,-87 257,-140 412,-140 374,0 677,304 677,677 0,187 -76,356 -198,479l5 28c133,-128 216,-307 216,-507z"/>
 </g>
</svg>
