<?xml version="1.0" encoding="UTF-8"?>
<!DOCTYPE svg PUBLIC "-//W3C//DTD SVG 1.1//EN" "http://www.w3.org/Graphics/SVG/1.1/DTD/svg11.dtd">
<!-- Creator: CorelDRAW X7 -->
<svg xmlns="http://www.w3.org/2000/svg" xml:space="preserve" width="27.0932mm" height="27.0932mm" version="1.1" style="shape-rendering:geometricPrecision; text-rendering:geometricPrecision; image-rendering:optimizeQuality; fill-rule:evenodd; clip-rule:evenodd"
viewBox="0 0 2709 2709"
 xmlns:xlink="http://www.w3.org/1999/xlink">
 <defs>
  <style type="text/css">
   <![CDATA[
    .fil0 {fill:black}
   ]]>
  </style>
 </defs>
 <g id="Camada_x0020_1">
  <metadata id="CorelCorpID_0Corel-Layer"/>
  <path class="fil0" d="M2540 1355c0,-655 -531,-1186 -1185,-1186 -655,0 -1186,531 -1186,1186 0,654 531,1185 1186,1185 654,0 1185,-531 1185,-1185zm-1747 -109l-184 -185 16 -151 101 101 151 -33 33 -151 -100 -101 151 -17 184 185 -48 177 215 216c-61,-13 -128,3 -175,51l-13 12 -153 -153 -178 49 0 0zm1157 804c-95,95 -247,97 -340,5 -71,-71 -86,-177 -47,-265l-171 -171 13 -13c47,-47 64,-114 51,-175l233 233c88,-39 194,-24 265,47 92,92 91,244 -4,339l0 0zm-80 -255c-48,-49 -127,-49 -176,0 -48,48 -48,127 0,176 49,48 128,48 176,0 49,-49 49,-128 0,-176zm46 -885l101 -134 -50 -50 -135 101 17 16 -489 489c-64,-41 -150,-34 -206,23l-487 486c-64,65 -64,170 0,234 65,65 170,65 235,0l486 -486c56,-56 64,-142 23,-206l488 -489 17 16 0 0z"/>
 </g>
</svg>
