<?xml version="1.0" encoding="UTF-8"?>
<!DOCTYPE svg PUBLIC "-//W3C//DTD SVG 1.1//EN" "http://www.w3.org/Graphics/SVG/1.1/DTD/svg11.dtd">
<!-- Creator: CorelDRAW X7 -->
<svg xmlns="http://www.w3.org/2000/svg" xml:space="preserve" width="27.0932mm" height="27.0932mm" version="1.1" style="shape-rendering:geometricPrecision; text-rendering:geometricPrecision; image-rendering:optimizeQuality; fill-rule:evenodd; clip-rule:evenodd"
viewBox="0 0 2709 2709"
 xmlns:xlink="http://www.w3.org/1999/xlink">
 <defs>
  <style type="text/css">
   <![CDATA[
    .fil0 {fill:black}
   ]]>
  </style>
 </defs>
 <g id="Camada_x0020_1">
  <metadata id="CorelCorpID_0Corel-Layer"/>
  <path class="fil0" d="M2540 1355c0,-655 -531,-1186 -1185,-1186 -655,0 -1186,531 -1186,1186 0,654 531,1185 1186,1185 654,0 1185,-531 1185,-1185zm-1583 576c-46,0 -91,-18 -126,-52 -70,-70 -70,-182 0,-252l272 -272 -272 -273c-70,-69 -70,-182 0,-251 69,-70 182,-70 251,0l273 272 272 -272c70,-70 182,-70 252,0 69,69 69,182 0,251l-273 273 273 272c69,70 69,182 0,252 -35,34 -81,52 -126,52l0 0c-46,0 -91,-18 -126,-52l-272 -273 -273 273c-34,34 -80,52 -125,52l0 0z"/>
 </g>
</svg>
