<?xml version="1.0" encoding="UTF-8"?>
<!DOCTYPE svg PUBLIC "-//W3C//DTD SVG 1.1//EN" "http://www.w3.org/Graphics/SVG/1.1/DTD/svg11.dtd">
<!-- Creator: CorelDRAW X7 -->
<svg xmlns="http://www.w3.org/2000/svg" xml:space="preserve" width="27.0932mm" height="27.0932mm" version="1.1" style="shape-rendering:geometricPrecision; text-rendering:geometricPrecision; image-rendering:optimizeQuality; fill-rule:evenodd; clip-rule:evenodd"
viewBox="0 0 2709 2709"
 xmlns:xlink="http://www.w3.org/1999/xlink">
 <defs>
  <style type="text/css">
   <![CDATA[
    .fil0 {fill:black}
   ]]>
  </style>
 </defs>
 <g id="Camada_x0020_1">
  <metadata id="CorelCorpID_0Corel-Layer"/>
  <path class="fil0" d="M2342 1355c0,-546 -442,-988 -987,-988 -546,0 -988,442 -988,988 0,545 442,987 988,987 545,0 987,-442 987,-987zm-893 85l-7 -6 0 -56 7 -12 30 -31 26 -35 14 -53 7 -124 -9 -58 -38 -61 -50 -43 -13 -9 -18 -4 -43 -6 -44 6 -17 4 -14 9 -50 43 -37 61 -10 58 7 124 15 53 25 35 31 31 6 12 0 56 -6 6 -18 5 -144 39 -12 6 -113 17 -18 8 -6 13 -32 165 873 0 -31 -165 -6 -13 -12 -6 -119 -19 -12 -6 -162 -44 0 0zm-414 9l0 -53 7 -12 29 -28 23 -33 14 -50 6 -118 -8 -54 -35 -57 -48 -41 -12 -9 -17 -3 -41 -6 -41 6 -16 3 -13 9 -48 41 -34 57 -9 54 6 118 14 50 23 33 30 28 6 12 0 53 -6 6 -153 41 -11 6 -107 16 -17 7 -5 12 -30 156 317 0 45 -188 15 -23 99 -31 17 -2zm639 0l0 -53 -6 -12 -29 -28 -24 -33 -14 -50 -6 -118 8 -54 36 -57 47 -41 12 -9 17 -3 41 -6 42 6 16 3 13 9 47 41 35 57 9 54 -7 118 -13 50 -24 33 -30 28 -5 12 0 53 5 6 153 41 12 6 106 16 17 7 6 12 30 156 -317 0 -46 -188 -15 -23 -99 -31 -17 -2z"/>
  <path class="fil0" d="M2540 1355c0,654 -531,1185 -1185,1185 -655,0 -1186,-531 -1186,-1185 0,-655 531,-1186 1186,-1186 654,0 1185,531 1185,1186zm-1185 -1136c-628,0 -1136,508 -1136,1136 0,627 508,1136 1136,1136 627,0 1136,-509 1136,-1136 0,-628 -509,-1136 -1136,-1136z"/>
 </g>
</svg>
