<?xml version="1.0" encoding="UTF-8"?>
<!DOCTYPE svg PUBLIC "-//W3C//DTD SVG 1.1//EN" "http://www.w3.org/Graphics/SVG/1.1/DTD/svg11.dtd">
<!-- Creator: CorelDRAW X7 -->
<svg xmlns="http://www.w3.org/2000/svg" xml:space="preserve" width="27.0932mm" height="27.0932mm" version="1.1" style="shape-rendering:geometricPrecision; text-rendering:geometricPrecision; image-rendering:optimizeQuality; fill-rule:evenodd; clip-rule:evenodd"
viewBox="0 0 2709 2709"
 xmlns:xlink="http://www.w3.org/1999/xlink">
 <defs>
  <style type="text/css">
   <![CDATA[
    .fil0 {fill:black}
   ]]>
  </style>
 </defs>
 <g id="Camada_x0020_1">
  <metadata id="CorelCorpID_0Corel-Layer"/>
  <path class="fil0" d="M2342 1355c0,-546 -442,-988 -987,-988 -546,0 -988,442 -988,988 0,545 442,987 988,987 545,0 987,-442 987,-987zm-690 139l-7 -6 0 -62 7 -14 34 -34 28 -39 16 -59 8 -138 -10 -64 -42 -67 -55 -49 -15 -9 -20 -5 -48 -6 -49 6 -19 5 -15 9 -56 49 -41 67 -10 64 7 138 16 59 28 39 35 34 7 14 0 62 -7 6 -20 6 -160 43 -13 7 -125 19 -21 9 -6 14 -36 184 969 0 -34 -184 -7 -14 -14 -7 -131 -21 -14 -7 -180 -49 0 0zm-465 10l0 -58 7 -13 32 -32 27 -37 15 -55 7 -130 -9 -61 -40 -64 -52 -45 -14 -9 -18 -4 -46 -6 -46 6 -18 4 -14 9 -53 45 -38 64 -10 61 7 130 15 55 26 37 33 32 6 13 0 58 -6 7 -169 46 -13 6 -118 18 -19 8 -7 13 -33 174 352 0 50 -210 17 -25 110 -34 19 -3z"/>
  <path class="fil0" d="M2540 1355c0,654 -531,1185 -1185,1185 -655,0 -1186,-531 -1186,-1185 0,-655 531,-1186 1186,-1186 654,0 1185,531 1185,1186zm-1185 -1136c-628,0 -1136,508 -1136,1136 0,627 508,1136 1136,1136 627,0 1136,-509 1136,-1136 0,-628 -509,-1136 -1136,-1136z"/>
 </g>
</svg>
