<?xml version="1.0" encoding="UTF-8"?>
<!DOCTYPE svg PUBLIC "-//W3C//DTD SVG 1.1//EN" "http://www.w3.org/Graphics/SVG/1.1/DTD/svg11.dtd">
<!-- Creator: CorelDRAW X7 -->
<svg xmlns="http://www.w3.org/2000/svg" xml:space="preserve" width="27.0932mm" height="27.0932mm" version="1.1" style="shape-rendering:geometricPrecision; text-rendering:geometricPrecision; image-rendering:optimizeQuality; fill-rule:evenodd; clip-rule:evenodd"
viewBox="0 0 2709 2709"
 xmlns:xlink="http://www.w3.org/1999/xlink">
 <defs>
  <style type="text/css">
   <![CDATA[
    .fil0 {fill:black}
   ]]>
  </style>
 </defs>
 <g id="Camada_x0020_1">
  <metadata id="CorelCorpID_0Corel-Layer"/>
  <path class="fil0" d="M1355 169c654,0 1185,531 1185,1186 0,654 -531,1185 -1185,1185 -655,0 -1186,-531 -1186,-1185 0,-655 531,-1186 1186,-1186zm0 1393c-115,0 -208,-93 -208,-207 0,-115 93,-208 208,-208 114,0 207,93 207,208 0,114 -93,207 -207,207zm498 -207c0,-30 -4,-60 -9,-88l117 -74 -63 -153 -135 30c-34,-48 -76,-90 -124,-124l30 -135 -153 -63 -74 117c-28,-5 -57,-8 -87,-8 -30,0 -60,3 -88,8l-74 -117 -153 63 30 135c-48,34 -90,76 -124,124l-135 -30 -63 153 117 74c-5,28 -8,58 -8,88 0,30 3,59 8,87l-117 74 63 153 135 -30c34,48 76,90 124,124l-30 135 153 63 74 -117c28,5 58,9 88,9 30,0 59,-4 87,-9l74 117 153 -63 -30 -135c48,-34 90,-76 124,-124l135 30 63 -153 -117 -74c5,-28 9,-57 9,-87z"/>
 </g>
</svg>
