<?xml version="1.0" encoding="UTF-8"?>
<!DOCTYPE svg PUBLIC "-//W3C//DTD SVG 1.1//EN" "http://www.w3.org/Graphics/SVG/1.1/DTD/svg11.dtd">
<!-- Creator: CorelDRAW X7 -->
<svg xmlns="http://www.w3.org/2000/svg" xml:space="preserve" width="27.0932mm" height="27.0932mm" version="1.1" style="shape-rendering:geometricPrecision; text-rendering:geometricPrecision; image-rendering:optimizeQuality; fill-rule:evenodd; clip-rule:evenodd"
viewBox="0 0 2709 2709"
 xmlns:xlink="http://www.w3.org/1999/xlink">
 <defs>
  <style type="text/css">
   <![CDATA[
    .fil0 {fill:black}
   ]]>
  </style>
 </defs>
 <g id="Camada_x0020_1">
  <metadata id="CorelCorpID_0Corel-Layer"/>
  <path class="fil0" d="M2540 1355c0,-655 -531,-1186 -1185,-1186 -527,0 -973,343 -1128,818l559 0 0 119 -590 0c-18,80 -27,163 -27,249 0,85 9,168 27,249l210 0 0 118 -179 0c155,475 601,818 1128,818 654,0 1185,-531 1185,-1185zm-1239 -89l107 0 0 -439 -107 0 0 119 -255 0 0 201 255 0 0 119zm694 -57l162 -152 -731 0 0 152 569 0zm162 -173l-162 -152 -569 0 0 152 731 0zm-1324 70l95 0 0 -119 -95 0 0 119zm89 776l107 0 0 -438 -107 0 0 118 -255 0 0 202 255 0 0 118zm693 -57l163 -152 -731 0 0 152 568 0zm163 -172l-162 -153 -569 0 0 153 731 0zm-1324 69l95 0 0 -118 -95 0 0 118z"/>
 </g>
</svg>
