<?xml version="1.0" encoding="UTF-8"?>
<!DOCTYPE svg PUBLIC "-//W3C//DTD SVG 1.1//EN" "http://www.w3.org/Graphics/SVG/1.1/DTD/svg11.dtd">
<!-- Creator: CorelDRAW X7 -->
<svg xmlns="http://www.w3.org/2000/svg" xml:space="preserve" width="27.0932mm" height="27.0932mm" version="1.1" style="shape-rendering:geometricPrecision; text-rendering:geometricPrecision; image-rendering:optimizeQuality; fill-rule:evenodd; clip-rule:evenodd"
viewBox="0 0 2709 2709"
 xmlns:xlink="http://www.w3.org/1999/xlink">
 <defs>
  <style type="text/css">
   <![CDATA[
    .fil0 {fill:black}
   ]]>
  </style>
 </defs>
 <g id="Camada_x0020_1">
  <metadata id="CorelCorpID_0Corel-Layer"/>
  <path class="fil0" d="M2540 1355c0,-655 -531,-1186 -1185,-1186 -655,0 -1186,531 -1186,1186 0,654 531,1185 1186,1185 654,0 1185,-531 1185,-1185zm-1033 460l294 81c0,0 -51,334 -233,283 -183,-50 -61,-364 -61,-364zm-287 -563l-293 81c0,0 50,334 232,283 183,-50 61,-364 61,-364zm-304 40l304 -81c0,0 -20,-253 -71,-405 -50,-152 -121,-314 -253,-283 -131,30 -162,253 -142,374 21,124 162,395 162,395l0 0zm895 563l-304 -81c0,0 20,-253 71,-405 50,-152 121,-314 253,-283 132,30 162,253 142,374 -21,124 -162,395 -162,395l0 0z"/>
 </g>
</svg>
