<?xml version="1.0" encoding="UTF-8"?>
<!DOCTYPE svg PUBLIC "-//W3C//DTD SVG 1.1//EN" "http://www.w3.org/Graphics/SVG/1.1/DTD/svg11.dtd">
<!-- Creator: CorelDRAW X7 -->
<svg xmlns="http://www.w3.org/2000/svg" xml:space="preserve" width="27.0932mm" height="27.0932mm" version="1.1" style="shape-rendering:geometricPrecision; text-rendering:geometricPrecision; image-rendering:optimizeQuality; fill-rule:evenodd; clip-rule:evenodd"
viewBox="0 0 2709 2709"
 xmlns:xlink="http://www.w3.org/1999/xlink">
 <defs>
  <style type="text/css">
   <![CDATA[
    .fil0 {fill:black}
   ]]>
  </style>
 </defs>
 <g id="Camada_x0020_1">
  <metadata id="CorelCorpID_0Corel-Layer"/>
  <g id="_597526800">
   <path class="fil0" d="M2342 1355c0,-546 -442,-988 -987,-988 -546,0 -988,442 -988,988 0,545 442,987 988,987 545,0 987,-442 987,-987zm-1197 -481c23,0 46,0 69,0 -3,30 -5,61 -8,93 49,0 97,0 145,0 1,16 1,33 1,50 -50,0 -100,0 -149,0 -2,18 -3,36 -4,54 -26,0 -51,0 -77,0 2,-18 4,-36 6,-54 -49,0 -99,0 -149,0 4,-17 7,-34 10,-50 48,0 97,0 145,0 4,-32 7,-63 11,-93zm-275 0c23,0 46,0 69,0 45,0 91,0 137,0 -2,15 -5,30 -7,45 -47,0 -94,0 -141,0 -9,40 -19,81 -29,125 -11,45 -22,93 -34,143 -27,0 -53,0 -80,0 13,-50 26,-98 39,-143 12,-44 23,-85 34,-125 4,-15 8,-30 12,-45zm102 675c-32,0 -64,0 -96,0 -5,29 -11,59 -17,89 -6,31 -12,62 -19,95 103,0 206,0 309,0 2,-33 5,-64 7,-95 99,0 198,0 297,0 3,62 6,128 9,198 36,0 71,0 107,0 -6,-70 -12,-136 -17,-198 33,0 66,0 99,0l297 0 23 95c35,0 69,0 103,0 -22,-80 -43,-155 -63,-226 -19,-66 -37,-129 -54,-189 -29,0 -58,0 -86,0 5,23 11,47 17,72 -29,0 -59,0 -89,0l0 0c5,25 10,51 16,77 30,0 61,0 92,0 9,37 18,76 28,116l-8 -34c-96,0 -191,0 -287,0 -32,0 -63,0 -95,0 -5,-55 -9,-108 -14,-159 -29,0 -59,0 -89,0 3,51 5,104 7,159 -64,0 -127,0 -191,0 -64,0 -127,0 -191,0 -3,29 -6,59 -10,89 -33,0 -66,0 -99,0 5,-30 9,-60 14,-89l0 0zm-154 -159c30,0 59,0 89,0 -5,25 -10,51 -15,77 -31,0 -61,0 -92,0 -19,82 -40,171 -62,266 -35,0 -69,0 -103,0 18,-64 34,-125 50,-184 16,-55 30,-108 44,-159 15,0 29,0 44,0 15,0 30,0 45,0l0 0zm357 0c-60,0 -119,0 -179,0 -4,25 -8,51 -12,77 62,0 123,0 185,0 2,-26 4,-52 6,-77zm559 -319c26,0 51,0 77,0 -5,-18 -9,-36 -13,-54 -25,0 -50,0 -75,0 -3,-17 -6,-33 -10,-50 24,0 49,0 73,0 -4,-16 -8,-32 -12,-48 -23,0 -47,0 -70,0 -3,-15 -7,-30 -10,-45 23,0 46,0 69,0 0,0 0,0 0,0 23,0 46,0 69,0 0,0 0,0 0,0 0,0 0,0 0,0 4,15 9,30 13,45 0,0 0,0 0,0 13,48 27,98 42,152 16,56 33,116 51,179 -28,0 -56,0 -84,0 -5,-21 -10,-42 -15,-63 -27,0 -54,0 -81,0 -8,-40 -16,-79 -24,-116l0 0zm-101 -152c3,16 5,32 8,48 -24,0 -48,0 -73,0 -1,-16 -4,-32 -5,-48 -48,0 -95,0 -141,0 -47,0 -94,0 -141,0 0,-15 1,-30 1,-45 57,0 115,0 172,0 57,0 114,0 172,0 0,3 1,7 2,10 1,12 3,24 5,35l0 0zm-209 48c24,0 48,0 72,0 1,17 3,33 4,50 50,0 100,0 149,0 3,18 6,36 9,54 -77,0 -153,0 -230,0 0,-18 -1,-36 -2,-54 -1,-17 -2,-34 -2,-50l0 0zm7 160c79,0 157,0 236,0 3,20 6,39 10,60 -82,0 -163,0 -244,0 -1,-21 -1,-40 -2,-60zm267 191c8,47 16,97 24,149 -31,0 -61,0 -92,0 -6,-52 -12,-102 -18,-149 -3,-23 -6,-46 -9,-68 56,0 112,0 168,0 4,22 9,45 13,68 -28,0 -57,0 -86,0l0 0zm-513 -68c28,0 56,0 84,0 1,-21 1,-42 2,-63 -81,0 -162,0 -243,0 -4,20 -7,42 -10,63 28,0 56,0 84,0 -3,22 -6,45 -8,68 -58,0 -115,0 -173,0 -57,0 -115,0 -172,0 6,-23 12,-46 18,-68 56,0 112,0 167,0 13,-63 24,-123 35,-179 26,0 51,0 77,0 -3,18 -6,37 -9,56 79,0 157,0 236,0 1,-19 2,-38 2,-56 26,0 51,0 77,0 0,18 0,37 0,56 0,20 0,39 0,60 0,21 1,42 1,63 55,0 111,0 167,0 2,22 4,45 5,68 -57,0 -115,0 -172,0 0,47 0,97 0,149 -30,0 -61,0 -92,0 2,-52 4,-102 5,-149 -28,0 -57,0 -86,0 2,-23 4,-46 5,-68l0 0z"/>
   <path class="fil0" d="M2540 1355c0,654 -531,1185 -1185,1185 -655,0 -1186,-531 -1186,-1185 0,-655 531,-1186 1186,-1186 654,0 1185,531 1185,1186zm-1185 -1136c-628,0 -1136,508 -1136,1136 0,627 508,1136 1136,1136 627,0 1136,-509 1136,-1136 0,-628 -509,-1136 -1136,-1136z"/>
  </g>
 </g>
</svg>
