<?xml version="1.0" encoding="UTF-8"?>
<!DOCTYPE svg PUBLIC "-//W3C//DTD SVG 1.1//EN" "http://www.w3.org/Graphics/SVG/1.1/DTD/svg11.dtd">
<!-- Creator: CorelDRAW X7 -->
<svg xmlns="http://www.w3.org/2000/svg" xml:space="preserve" width="27.0932mm" height="27.0932mm" version="1.1" style="shape-rendering:geometricPrecision; text-rendering:geometricPrecision; image-rendering:optimizeQuality; fill-rule:evenodd; clip-rule:evenodd"
viewBox="0 0 2709 2709"
 xmlns:xlink="http://www.w3.org/1999/xlink">
 <defs>
  <style type="text/css">
   <![CDATA[
    .fil0 {fill:black}
   ]]>
  </style>
 </defs>
 <g id="Camada_x0020_1">
  <metadata id="CorelCorpID_0Corel-Layer"/>
  <path class="fil0" d="M2540 1355c0,-655 -531,-1186 -1185,-1186 -655,0 -1186,531 -1186,1186 0,654 531,1185 1186,1185 654,0 1185,-531 1185,-1185zm-735 430l0 162 -163 0 163 -162 0 0zm0 -1023l0 837 -349 348 -552 0 0 -1185 901 0zm-450 599l-332 0 0 45 332 0 0 -45zm332 -131l-664 0 0 43 664 0 0 -43zm0 -130l-664 0 0 35 664 0 0 -35zm0 -131l-664 0 0 50 664 0 0 -50zm-246 1125l-70 32 32 -69 38 37zm593 -580l-51 -50 -570 570 51 50 570 -570z"/>
 </g>
</svg>
