<?xml version="1.0" encoding="UTF-8"?>
<!DOCTYPE svg PUBLIC "-//W3C//DTD SVG 1.1//EN" "http://www.w3.org/Graphics/SVG/1.1/DTD/svg11.dtd">
<!-- Creator: CorelDRAW X7 -->
<svg xmlns="http://www.w3.org/2000/svg" xml:space="preserve" width="27.0932mm" height="27.0932mm" version="1.1" style="shape-rendering:geometricPrecision; text-rendering:geometricPrecision; image-rendering:optimizeQuality; fill-rule:evenodd; clip-rule:evenodd"
viewBox="0 0 2709 2709"
 xmlns:xlink="http://www.w3.org/1999/xlink">
 <defs>
  <style type="text/css">
   <![CDATA[
    .fil0 {fill:black}
   ]]>
  </style>
 </defs>
 <g id="Camada_x0020_1">
  <metadata id="CorelCorpID_0Corel-Layer"/>
  <path class="fil0" d="M2540 1355c0,-654 -530,-1186 -1185,-1186 -654,0 -1186,532 -1186,1186 0,655 532,1185 1186,1185 655,0 1185,-530 1185,-1185zm-546 -78c0,7 0,12 -1,17 -8,-345 -291,-622 -638,-622 -348,0 -630,277 -639,622 0,-5 0,-10 0,-17 0,-352 286,-639 639,-639 352,0 639,287 639,639zm0 78c0,352 -287,639 -639,639 -353,0 -639,-287 -639,-639 0,-353 286,-639 639,-639 352,0 639,286 639,639zm-639 -370c-191,0 -348,146 -367,331 18,186 176,332 367,332 191,0 348,-146 368,-332 -20,-185 -177,-331 -368,-331zm-369 348c-1,7 -1,15 -1,22 0,204 166,369 370,369 204,0 369,-165 369,-369 0,-7 0,-15 0,-22 -11,194 -173,347 -369,347 -197,0 -358,-153 -369,-347z"/>
 </g>
</svg>
