<?xml version="1.0" encoding="UTF-8"?>
<!DOCTYPE svg PUBLIC "-//W3C//DTD SVG 1.1//EN" "http://www.w3.org/Graphics/SVG/1.1/DTD/svg11.dtd">
<!-- Creator: CorelDRAW X7 -->
<svg xmlns="http://www.w3.org/2000/svg" xml:space="preserve" width="27.0932mm" height="27.0932mm" version="1.1" style="shape-rendering:geometricPrecision; text-rendering:geometricPrecision; image-rendering:optimizeQuality; fill-rule:evenodd; clip-rule:evenodd"
viewBox="0 0 2709 2709"
 xmlns:xlink="http://www.w3.org/1999/xlink">
 <defs>
  <style type="text/css">
   <![CDATA[
    .fil0 {fill:black}
   ]]>
  </style>
 </defs>
 <g id="Camada_x0020_1">
  <metadata id="CorelCorpID_0Corel-Layer"/>
  <path class="fil0" d="M2540 1355c0,-655 -531,-1186 -1185,-1186 -655,0 -1186,531 -1186,1186 0,654 531,1185 1186,1185 654,0 1185,-531 1185,-1185zm-996 -116c8,0 14,-3 20,-8l241 -250 153 899c5,34 -4,70 -27,96 -22,27 -55,42 -90,42l-972 0c-35,0 -68,-15 -91,-42 -22,-26 -32,-62 -26,-96l153 -899 241 250c5,5 12,8 19,8l379 0 0 0zm-510 -430c-58,0 -107,42 -117,99l-1 8 260 270 357 0 260 -270 -1 -8c-10,-57 -59,-99 -117,-99l-641 0zm297 543c-13,0 -24,10 -24,23l0 6c0,13 11,24 24,24l47 0c13,0 24,-11 24,-24l0 -6c0,-13 -11,-23 -24,-23l-47 0zm154 -780c39,0 71,32 71,71l0 113 -83 0 0 -101 -237 0 0 101 -83 0 0 -113c0,-39 32,-71 71,-71l261 0z"/>
 </g>
</svg>
