<?xml version="1.0" encoding="UTF-8"?>
<!DOCTYPE svg PUBLIC "-//W3C//DTD SVG 1.1//EN" "http://www.w3.org/Graphics/SVG/1.1/DTD/svg11.dtd">
<!-- Creator: CorelDRAW X7 -->
<svg xmlns="http://www.w3.org/2000/svg" xml:space="preserve" width="27.0932mm" height="27.0932mm" version="1.1" style="shape-rendering:geometricPrecision; text-rendering:geometricPrecision; image-rendering:optimizeQuality; fill-rule:evenodd; clip-rule:evenodd"
viewBox="0 0 2709 2709"
 xmlns:xlink="http://www.w3.org/1999/xlink">
 <defs>
  <style type="text/css">
   <![CDATA[
    .fil0 {fill:black}
   ]]>
  </style>
 </defs>
 <g id="Camada_x0020_1">
  <metadata id="CorelCorpID_0Corel-Layer"/>
  <path class="fil0" d="M2540 1355c0,-655 -531,-1186 -1185,-1186 -655,0 -1186,531 -1186,1186 0,654 531,1185 1186,1185 654,0 1185,-531 1185,-1185zm-439 545l-1493 0 308 -308 342 0c28,48 48,83 56,95l41 68 40 -68c8,-12 28,-47 56,-95l342 0 308 308zm-426 -948c0,176 -320,711 -320,711 0,0 -320,-535 -320,-711 0,-177 143,-320 320,-320 176,0 320,143 320,320zm-237 0c0,-46 -38,-83 -83,-83 -46,0 -83,37 -83,83 0,45 37,83 83,83 45,0 83,-38 83,-83z"/>
 </g>
</svg>
