<?xml version="1.0" encoding="UTF-8"?>
<!DOCTYPE svg PUBLIC "-//W3C//DTD SVG 1.1//EN" "http://www.w3.org/Graphics/SVG/1.1/DTD/svg11.dtd">
<!-- Creator: CorelDRAW X7 -->
<svg xmlns="http://www.w3.org/2000/svg" xml:space="preserve" width="27.0932mm" height="27.0932mm" version="1.1" style="shape-rendering:geometricPrecision; text-rendering:geometricPrecision; image-rendering:optimizeQuality; fill-rule:evenodd; clip-rule:evenodd"
viewBox="0 0 2709 2709"
 xmlns:xlink="http://www.w3.org/1999/xlink">
 <defs>
  <style type="text/css">
   <![CDATA[
    .fil0 {fill:black}
   ]]>
  </style>
 </defs>
 <g id="Camada_x0020_1">
  <metadata id="CorelCorpID_0Corel-Layer"/>
  <path class="fil0" d="M1981 1355c0,-37 -5,-75 -11,-110l147 -93 -79 -192 -170 37c-43,-60 -96,-113 -156,-156l38 -169 -192 -79 -93 147c-36,-7 -72,-10 -110,-10 -37,0 -75,3 -110,10l-93 -147 -192 79 37 169c-60,43 -113,96 -156,156l-169 -37 -79 192 147 93c-7,35 -10,73 -10,110 0,38 3,74 10,110l-147 93 79 192 169 -38c43,60 96,113 156,156l-37 170 192 79 93 -147c35,6 73,11 110,11 38,0 74,-5 110,-11l93 147 192 -79 -38 -170c60,-43 113,-96 156,-156l170 38 79 -192 -147 -93c6,-36 11,-72 11,-110zm-626 260c-144,0 -261,-116 -261,-260 0,-144 117,-261 261,-261 144,0 260,117 260,261 0,144 -116,260 -260,260z"/>
 </g>
</svg>
