<?xml version="1.0" encoding="UTF-8"?>
<!DOCTYPE svg PUBLIC "-//W3C//DTD SVG 1.1//EN" "http://www.w3.org/Graphics/SVG/1.1/DTD/svg11.dtd">
<!-- Creator: CorelDRAW X7 -->
<svg xmlns="http://www.w3.org/2000/svg" xml:space="preserve" width="27.0932mm" height="27.0932mm" version="1.1" style="shape-rendering:geometricPrecision; text-rendering:geometricPrecision; image-rendering:optimizeQuality; fill-rule:evenodd; clip-rule:evenodd"
viewBox="0 0 2709 2709"
 xmlns:xlink="http://www.w3.org/1999/xlink">
 <defs>
  <style type="text/css">
   <![CDATA[
    .fil0 {fill:black}
   ]]>
  </style>
 </defs>
 <g id="Camada_x0020_1">
  <metadata id="CorelCorpID_0Corel-Layer"/>
  <path class="fil0" d="M2002 809l109 -145 -54 -54 -145 109 18 17 -527 528c-69,-45 -162,-37 -223,24l-525 525c-69,70 -69,183 0,252 70,70 184,70 254,0l524 -524c60,-61 69,-153 25,-222l526 -528 18 18 0 0 0 0zm-1211 362l-198 -200 17 -162 109 108 163 -35 35 -163 -108 -109 163 -18 199 199 -52 191 232 233c-66,-14 -138,3 -189,55l-14 13 -165 -165 -192 53 0 0 0 0zm1248 867c-103,102 -267,105 -367,5 -76,-76 -93,-191 -51,-285l-184 -185 14 -14c51,-51 69,-123 55,-189l251 252c95,-42 210,-26 286,50 99,100 98,264 -4,366l0 0 0 0zm-86 -275c-52,-53 -137,-53 -190,0 -52,52 -52,137 0,190 53,52 138,52 190,0 52,-53 52,-138 0,-190z"/>
 </g>
</svg>
