<?xml version="1.0" encoding="UTF-8"?>
<!DOCTYPE svg PUBLIC "-//W3C//DTD SVG 1.1//EN" "http://www.w3.org/Graphics/SVG/1.1/DTD/svg11.dtd">
<!-- Creator: CorelDRAW X7 -->
<svg xmlns="http://www.w3.org/2000/svg" xml:space="preserve" width="27.0932mm" height="27.0932mm" version="1.1" style="shape-rendering:geometricPrecision; text-rendering:geometricPrecision; image-rendering:optimizeQuality; fill-rule:evenodd; clip-rule:evenodd"
viewBox="0 0 2709 2709"
 xmlns:xlink="http://www.w3.org/1999/xlink">
 <defs>
  <style type="text/css">
   <![CDATA[
    .fil0 {fill:black}
   ]]>
  </style>
 </defs>
 <g id="Camada_x0020_1">
  <metadata id="CorelCorpID_0Corel-Layer"/>
  <polygon class="fil0" points="1519,1568 1507,1558 1507,1460 1519,1438 1573,1386 1616,1324 1642,1231 1654,1014 1638,914 1573,807 1485,731 1462,715 1431,709 1355,699 1278,709 1249,715 1224,731 1137,807 1072,914 1056,1014 1067,1231 1093,1324 1137,1386 1192,1438 1202,1460 1202,1558 1192,1568 909,1645 887,1656 690,1685 658,1699 648,1721 593,2011 2117,2011 2063,1721 2052,1699 2031,1689 1823,1656 1802,1645 1519,1568 "/>
 </g>
</svg>
