<?xml version="1.0" encoding="UTF-8"?>
<!DOCTYPE svg PUBLIC "-//W3C//DTD SVG 1.1//EN" "http://www.w3.org/Graphics/SVG/1.1/DTD/svg11.dtd">
<!-- Creator: CorelDRAW X7 -->
<svg xmlns="http://www.w3.org/2000/svg" xml:space="preserve" width="27.0932mm" height="27.0932mm" version="1.1" style="shape-rendering:geometricPrecision; text-rendering:geometricPrecision; image-rendering:optimizeQuality; fill-rule:evenodd; clip-rule:evenodd"
viewBox="0 0 2709 2709"
 xmlns:xlink="http://www.w3.org/1999/xlink">
 <defs>
  <style type="text/css">
   <![CDATA[
    .fil0 {fill:black}
   ]]>
  </style>
 </defs>
 <g id="Camada_x0020_1">
  <metadata id="CorelCorpID_0Corel-Layer"/>
  <path class="fil0" d="M1492 593c41,0 75,33 75,75l0 119 -88 0 0 -107 -250 0 0 107 -87 0 0 -119c0,-42 34,-75 75,-75l275 0zm62 703c8,0 15,-4 21,-9l254 -263 161 947c6,36 -4,74 -28,101 -23,29 -58,45 -95,45l-1024 0c-37,0 -72,-16 -96,-45 -23,-27 -34,-65 -28,-101l162 -947 254 263c5,5 12,9 20,9l399 0 0 0 0 0zm-224 119c-14,0 -26,10 -26,24l0 6c0,14 12,26 26,26l49 0c14,0 25,-12 25,-26l0 -6c0,-14 -11,-24 -25,-24l-49 0zm-313 -573c-62,0 -113,45 -124,105l-1 8 274 285 376 0 274 -285 -1 -8c-10,-60 -62,-105 -123,-105l-675 0z"/>
 </g>
</svg>
