<?xml version="1.0" encoding="UTF-8"?>
<!DOCTYPE svg PUBLIC "-//W3C//DTD SVG 1.1//EN" "http://www.w3.org/Graphics/SVG/1.1/DTD/svg11.dtd">
<!-- Creator: CorelDRAW X7 -->
<svg xmlns="http://www.w3.org/2000/svg" xml:space="preserve" width="27.0932mm" height="27.0932mm" version="1.1" style="shape-rendering:geometricPrecision; text-rendering:geometricPrecision; image-rendering:optimizeQuality; fill-rule:evenodd; clip-rule:evenodd"
viewBox="0 0 2709 2709"
 xmlns:xlink="http://www.w3.org/1999/xlink">
 <defs>
  <style type="text/css">
   <![CDATA[
    .fil0 {fill:black}
   ]]>
  </style>
 </defs>
 <g id="Camada_x0020_1">
  <metadata id="CorelCorpID_0Corel-Layer"/>
  <path class="fil0" d="M1989 1227c0,-350 -285,-634 -634,-634 -351,0 -634,284 -634,634 0,305 215,560 503,621l0 104 261 0 0 -104c288,-61 504,-316 504,-621zm-765 890l261 0 0 -105 -261 0 0 105zm614 -890c0,-267 -217,-483 -483,-483 -267,0 -484,216 -483,483 -1,267 216,483 483,483 266,0 483,-216 483,-483zm60 0c0,-300 -244,-543 -543,-543 -301,0 -544,243 -544,543 0,300 243,544 544,544 299,0 543,-244 543,-544z"/>
 </g>
</svg>
