<?xml version="1.0" encoding="UTF-8"?>
<!DOCTYPE svg PUBLIC "-//W3C//DTD SVG 1.1//EN" "http://www.w3.org/Graphics/SVG/1.1/DTD/svg11.dtd">
<!-- Creator: CorelDRAW X7 -->
<svg xmlns="http://www.w3.org/2000/svg" xml:space="preserve" width="27.0932mm" height="27.0932mm" version="1.1" style="shape-rendering:geometricPrecision; text-rendering:geometricPrecision; image-rendering:optimizeQuality; fill-rule:evenodd; clip-rule:evenodd"
viewBox="0 0 2709 2709"
 xmlns:xlink="http://www.w3.org/1999/xlink">
 <defs>
  <style type="text/css">
   <![CDATA[
    .fil0 {fill:black}
   ]]>
  </style>
 </defs>
 <g id="Camada_x0020_1">
  <metadata id="CorelCorpID_0Corel-Layer"/>
  <path class="fil0" d="M2112 1537c0,166 -134,300 -300,300 -166,0 -300,-134 -300,-300 0,-166 134,-300 300,-300 166,0 300,134 300,300zm-246 331l30 164 -1299 0 111 -602 406 -95 14 -61 -88 -82 -27 -363 135 -152 197 0 136 152 -28 363 -87 82 13 61 143 33c-29,50 -46,107 -46,169 0,186 151,336 336,336 19,0 37,-2 54,-5l0 0 0 0zm153 -384l-154 0 0 -153 -106 0 0 153 -153 0 0 106 153 0 0 153 106 0 0 -153 154 0 0 -106 0 0z"/>
 </g>
</svg>
