<?xml version="1.0" encoding="UTF-8"?>
<!DOCTYPE svg PUBLIC "-//W3C//DTD SVG 1.1//EN" "http://www.w3.org/Graphics/SVG/1.1/DTD/svg11.dtd">
<!-- Creator: CorelDRAW X7 -->
<svg xmlns="http://www.w3.org/2000/svg" xml:space="preserve" width="27.0932mm" height="27.0932mm" version="1.1" style="shape-rendering:geometricPrecision; text-rendering:geometricPrecision; image-rendering:optimizeQuality; fill-rule:evenodd; clip-rule:evenodd"
viewBox="0 0 2709 2709"
 xmlns:xlink="http://www.w3.org/1999/xlink">
 <defs>
  <style type="text/css">
   <![CDATA[
    .fil0 {fill:black}
   ]]>
  </style>
 </defs>
 <g id="Camada_x0020_1">
  <metadata id="CorelCorpID_0Corel-Layer"/>
  <path class="fil0" d="M1191 1514l0 -64 9 -15 35 -34 28 -41 17 -60 8 -143 -10 -66 -43 -70 -58 -49 -15 -10 -20 -5 -50 -6 -50 6 -20 5 -16 10 -57 49 -42 70 -11 66 7 143 17 60 29 41 36 34 7 15 0 64 -7 7 -186 50 -14 6 -128 20 -22 10 -6 14 -36 190 384 0 56 -230 18 -27 120 -37 20 -3 0 0zm509 -11l-7 -8 0 -68 7 -15 38 -37 30 -42 18 -64 9 -151 -12 -70 -45 -75 -61 -53 -16 -10 -21 -5 -53 -6 -54 6 -21 5 -17 10 -60 53 -45 75 -12 70 9 151 18 64 30 42 39 37 6 15 0 68 -6 8 -23 6 -175 48 -15 6 -137 21 -21 10 -8 16 -39 201 1061 0 -38 -201 -8 -16 -15 -7 -143 -24 -16 -6 -197 -54 0 0 0 0z"/>
 </g>
</svg>
