<?xml version="1.0" encoding="UTF-8"?>
<!DOCTYPE svg PUBLIC "-//W3C//DTD SVG 1.1//EN" "http://www.w3.org/Graphics/SVG/1.1/DTD/svg11.dtd">
<!-- Creator: CorelDRAW X7 -->
<svg xmlns="http://www.w3.org/2000/svg" xml:space="preserve" width="27.0932mm" height="27.0932mm" version="1.1" style="shape-rendering:geometricPrecision; text-rendering:geometricPrecision; image-rendering:optimizeQuality; fill-rule:evenodd; clip-rule:evenodd"
viewBox="0 0 2709 2709"
 xmlns:xlink="http://www.w3.org/1999/xlink">
 <defs>
  <style type="text/css">
   <![CDATA[
    .fil0 {fill:black}
   ]]>
  </style>
 </defs>
 <g id="Camada_x0020_1">
  <metadata id="CorelCorpID_0Corel-Layer"/>
  <path class="fil0" d="M782 619l-33 -26c-99,129 -158,290 -158,465 0,175 59,336 158,465l33 -25c-94,-123 -149,-275 -149,-440 0,-165 55,-318 149,-439l0 0zm965 1498l84 0 -433 -961c37,-18 64,-55 64,-98 0,-59 -48,-107 -107,-107 -59,0 -107,48 -107,107 0,43 26,80 63,98l-431 961 82 0 96 -215 593 0 96 215 0 0zm-74 -1059c0,72 -25,140 -66,193l-33 -25c36,-46 57,-105 57,-168 0,-63 -21,-121 -57,-168l33 -25c41,53 66,120 66,193l0 0zm-538 -168l-33 -25c-41,53 -65,120 -65,193 0,72 24,140 65,193l33 -25c-35,-46 -57,-105 -57,-168 0,-63 22,-121 57,-168l0 0zm687 168c0,107 -36,205 -98,284l-33 -26c55,-71 89,-160 89,-258 0,-97 -34,-186 -89,-259l33 -25c62,79 98,177 98,284zm-804 -259l-33 -25c-60,79 -97,177 -97,284 0,107 37,205 97,284l33 -26c-55,-71 -88,-160 -88,-258 0,-97 33,-186 88,-259zm952 259c0,141 -47,270 -127,374l-33 -25c74,-97 119,-217 119,-349 0,-131 -45,-253 -119,-349l33 -25c80,103 127,233 127,374zm-1070 -349l-33 -25c-80,103 -128,233 -128,374 0,141 48,270 128,374l33 -25c-75,-97 -119,-217 -119,-349 0,-131 44,-253 119,-349zm1219 349c0,175 -60,336 -159,465l-32 -25c93,-123 150,-275 150,-440 0,-165 -57,-318 -150,-439l32 -26c99,129 159,290 159,465l0 0z"/>
 </g>
</svg>
