<?xml version="1.0" encoding="UTF-8"?>
<!DOCTYPE svg PUBLIC "-//W3C//DTD SVG 1.1//EN" "http://www.w3.org/Graphics/SVG/1.1/DTD/svg11.dtd">
<!-- Creator: CorelDRAW X7 -->
<svg xmlns="http://www.w3.org/2000/svg" xml:space="preserve" width="27.0932mm" height="27.0932mm" version="1.1" style="shape-rendering:geometricPrecision; text-rendering:geometricPrecision; image-rendering:optimizeQuality; fill-rule:evenodd; clip-rule:evenodd"
viewBox="0 0 2709 2709"
 xmlns:xlink="http://www.w3.org/1999/xlink">
 <defs>
  <style type="text/css">
   <![CDATA[
    .fil0 {fill:black}
   ]]>
  </style>
 </defs>
 <g id="Camada_x0020_1">
  <metadata id="CorelCorpID_0Corel-Layer"/>
  <path class="fil0" d="M1056 1369l-118 119 133 131 118 -117 -133 -133zm1061 -491l0 -265 -597 595 132 133 465 -463 0 0zm-1524 0l0 -265 1022 1021 -133 133 -889 -889 0 0zm1505 1078l-152 151 -293 -293 -104 104 -95 -95 369 -369 95 95 -114 113 294 294zm-1486 -1353l264 0 890 880 -136 136 -1018 -1016 0 0zm592 913l-117 118 140 142 119 -119 -142 -141 0 0zm-582 421l151 151 274 -274 104 104 95 -95 -359 -359 -95 94 103 104 -273 275zm1476 -1334l-275 0 -455 454 137 137 593 -591 0 0z"/>
 </g>
</svg>
