<?xml version="1.0" encoding="UTF-8"?>
<!DOCTYPE svg PUBLIC "-//W3C//DTD SVG 1.1//EN" "http://www.w3.org/Graphics/SVG/1.1/DTD/svg11.dtd">
<!-- Creator: CorelDRAW X7 -->
<svg xmlns="http://www.w3.org/2000/svg" xml:space="preserve" width="27.0932mm" height="27.0932mm" version="1.1" style="shape-rendering:geometricPrecision; text-rendering:geometricPrecision; image-rendering:optimizeQuality; fill-rule:evenodd; clip-rule:evenodd"
viewBox="0 0 2709 2709"
 xmlns:xlink="http://www.w3.org/1999/xlink">
 <defs>
  <style type="text/css">
   <![CDATA[
    .fil0 {fill:black}
   ]]>
  </style>
 </defs>
 <g id="Camada_x0020_1">
  <metadata id="CorelCorpID_0Corel-Layer"/>
  <path class="fil0" d="M1133 846c24,0 47,0 72,0 -2,31 -5,64 -7,98 51,0 102,1 154,1 0,17 0,35 0,53 -53,0 -106,0 -158,0 -2,18 -3,37 -5,56 -27,0 -54,0 -81,0 2,-19 5,-38 7,-56 -52,0 -106,0 -158,0 4,-19 7,-36 11,-54 50,0 102,0 153,0 4,-34 8,-67 12,-98zm-292 0c24,0 49,0 73,0 49,0 97,0 146,0 -3,15 -6,31 -8,47 -50,0 -99,0 -149,0 -10,43 -20,87 -31,133 -11,47 -23,98 -35,151 -29,0 -57,0 -86,0 14,-53 28,-104 41,-151 13,-46 25,-90 37,-133 4,-16 9,-32 12,-47l0 0zm108 715c-34,0 -67,0 -101,0 -6,31 -12,61 -19,94 -6,32 -12,66 -18,101 108,0 216,0 325,0 3,-35 6,-69 8,-101 105,0 210,0 315,0 3,66 6,136 10,209 37,0 74,0 112,0 -6,-73 -12,-143 -17,-209 35,0 69,0 104,0 106,0 210,0 315,0l25 101c36,0 73,0 109,0 -24,-85 -46,-165 -68,-240 -20,-70 -39,-137 -56,-201 -30,0 -61,0 -91,0 5,26 11,51 18,77 -32,0 -63,0 -95,0l0 0 0 0c5,27 11,54 17,82 33,0 65,0 97,0 7,28 14,57 22,87l-303 0c-35,0 -68,0 -102,0 -5,-59 -9,-115 -15,-169 -30,0 -62,0 -93,0 2,54 4,110 7,169 -67,0 -135,0 -203,0 -67,0 -135,0 -202,0 -4,31 -7,61 -11,94 -35,0 -69,0 -104,0 4,-33 10,-63 14,-94l0 0zm1034 93c-4,-17 -8,-35 -12,-51l12 51zm-1197 -262c32,0 63,0 95,0 -6,27 -11,54 -16,82 -33,0 -65,0 -98,0 -20,87 -42,181 -65,282 -37,0 -73,0 -109,0 19,-69 36,-134 53,-195 16,-59 31,-115 46,-169 16,0 31,0 47,0 16,0 32,0 47,0l0 0 0 0zm378 0c-63,0 -126,0 -189,0 -4,27 -8,54 -12,82 64,0 130,0 195,0 2,-28 4,-55 6,-82l0 0zm593 -338c27,0 54,0 81,0 -5,-19 -9,-37 -14,-56 -26,0 -52,0 -79,0 -4,-18 -7,-36 -10,-53 25,0 50,0 77,0 -5,-17 -9,-35 -13,-52 -25,0 -50,0 -75,0 -3,-16 -6,-32 -10,-47 25,0 49,0 73,0 0,0 0,0 0,0 25,0 49,0 73,0 0,0 0,0 0,0 0,0 0,0 0,0 5,16 9,31 14,47 0,0 0,0 0,0 14,52 29,105 45,161 17,60 35,123 54,190 -30,0 -60,0 -89,0 -6,-23 -11,-45 -17,-67 -28,0 -56,0 -85,0 -9,-42 -17,-84 -25,-123l0 0 0 0zm-108 -161c3,17 6,35 9,52 -26,0 -51,0 -77,0 -2,-17 -4,-35 -6,-52 -50,0 -100,0 -150,0 -49,0 -99,0 -149,0 1,-16 2,-32 2,-47 61,0 121,0 182,0 61,0 121,0 181,0 1,3 2,7 3,10 2,13 4,26 5,37l0 0 0 0zm-221 52c25,0 51,0 77,0 1,17 2,35 4,53 52,0 105,0 158,0 2,18 6,37 9,56 -81,0 -162,0 -243,0 -1,-19 -2,-38 -3,-56 -1,-18 -1,-36 -2,-53l0 0zm7 169c84,0 167,0 250,0 4,21 8,41 11,63 -86,0 -172,0 -258,0 -1,-22 -2,-42 -3,-63zm284 201c8,51 16,104 25,159 -32,0 -65,0 -97,0 -7,-55 -14,-108 -20,-159 -3,-24 -6,-47 -9,-71 59,0 118,0 177,0 5,24 10,47 15,71 -31,0 -61,0 -91,0l0 0zm-544 -71c30,0 59,0 89,0 0,-23 1,-45 2,-67 -86,0 -172,0 -257,0 -4,21 -8,44 -11,67 29,0 59,0 89,0 -3,24 -6,47 -8,72 -61,0 -123,0 -183,0 -61,0 -122,0 -183,0 7,-25 13,-48 19,-72 60,0 118,0 178,0 12,-67 25,-130 36,-190 27,0 54,0 81,0 -2,19 -6,39 -9,60 83,0 167,0 251,0 1,-21 1,-41 1,-60 27,0 55,0 82,0 0,19 0,39 0,60 0,21 0,41 0,63 0,22 0,44 0,67 60,0 118,0 178,0 2,24 3,47 6,72 -61,0 -122,0 -184,0 1,50 1,103 1,158 -32,0 -65,0 -98,0 3,-55 5,-108 6,-158 -30,0 -61,0 -91,0 1,-25 3,-48 5,-72l0 0z"/>
 </g>
</svg>
