<?xml version="1.0" encoding="UTF-8"?>
<!DOCTYPE svg PUBLIC "-//W3C//DTD SVG 1.1//EN" "http://www.w3.org/Graphics/SVG/1.1/DTD/svg11.dtd">
<!-- Creator: CorelDRAW X7 -->
<svg xmlns="http://www.w3.org/2000/svg" xml:space="preserve" width="27.0932mm" height="27.0932mm" version="1.1" style="shape-rendering:geometricPrecision; text-rendering:geometricPrecision; image-rendering:optimizeQuality; fill-rule:evenodd; clip-rule:evenodd"
viewBox="0 0 2709 2709"
 xmlns:xlink="http://www.w3.org/1999/xlink">
 <defs>
  <style type="text/css">
   <![CDATA[
    .fil0 {fill:black}
   ]]>
  </style>
 </defs>
 <g id="Camada_x0020_1">
  <metadata id="CorelCorpID_0Corel-Layer"/>
  <path class="fil0" d="M829 2117c-61,0 -120,-24 -167,-69 -92,-93 -92,-241 0,-333l360 -360 -360 -361c-92,-91 -92,-241 0,-332 92,-92 241,-92 332,0l361 360 360 -360c92,-92 240,-92 333,0 91,91 91,241 0,332l-361 361 361 360c91,92 91,240 0,333 -46,45 -107,69 -167,69l0 0c-60,0 -120,-24 -166,-69l-360 -361 -361 361c-45,45 -106,69 -165,69l0 0 0 0z"/>
 </g>
</svg>
