<?xml version="1.0" encoding="UTF-8"?>
<!DOCTYPE svg PUBLIC "-//W3C//DTD SVG 1.1//EN" "http://www.w3.org/Graphics/SVG/1.1/DTD/svg11.dtd">
<!-- Creator: CorelDRAW X7 -->
<svg xmlns="http://www.w3.org/2000/svg" xml:space="preserve" width="27.0932mm" height="27.0932mm" version="1.1" style="shape-rendering:geometricPrecision; text-rendering:geometricPrecision; image-rendering:optimizeQuality; fill-rule:evenodd; clip-rule:evenodd"
viewBox="0 0 2709 2709"
 xmlns:xlink="http://www.w3.org/1999/xlink">
 <defs>
  <style type="text/css">
   <![CDATA[
    .fil0 {fill:black}
   ]]>
  </style>
 </defs>
 <g id="Camada_x0020_1">
  <metadata id="CorelCorpID_0Corel-Layer"/>
  <path class="fil0" d="M2002 1981l-135 136 -255 -253 -87 88 -78 -79 311 -311 78 78 -87 87 253 254zm-1275 -1150l224 0 759 750 -117 117 -866 -867 0 0zm688 -10l199 -150 -27 248 247 -29 -147 201 229 98 -228 100 149 200 -215 -24 -94 -95 125 14 -97 -129 149 -65 -149 -64 96 -130 -161 19 18 -160 -129 97 -65 -148 -63 148 -131 -95 15 122 -97 -97 -25 -208 201 148 99 -229 101 228 0 0zm-707 244l0 -223 871 870 -113 112 -758 -759 0 0z"/>
 </g>
</svg>
