<?xml version="1.0" encoding="UTF-8"?>
<!DOCTYPE svg PUBLIC "-//W3C//DTD SVG 1.1//EN" "http://www.w3.org/Graphics/SVG/1.1/DTD/svg11.dtd">
<!-- Creator: CorelDRAW X7 -->
<svg xmlns="http://www.w3.org/2000/svg" xml:space="preserve" width="27.0932mm" height="27.0932mm" version="1.1" style="shape-rendering:geometricPrecision; text-rendering:geometricPrecision; image-rendering:optimizeQuality; fill-rule:evenodd; clip-rule:evenodd"
viewBox="0 0 2709 2709"
 xmlns:xlink="http://www.w3.org/1999/xlink">
 <defs>
  <style type="text/css">
   <![CDATA[
    .fil0 {fill:black}
   ]]>
  </style>
 </defs>
 <g id="Camada_x0020_1">
  <metadata id="CorelCorpID_0Corel-Layer"/>
  <path class="fil0" d="M1450 1474l-10 -43 63 -59 19 -261 -97 -109 -141 0 -97 109 19 261 63 59 -9 43 -293 69 -79 432 933 0 -80 -432 -291 -69 0 0zm-358 -319l-9 -39 57 -52 17 -232 -87 -98 -125 0 -87 98 17 232 56 52 -8 39 -260 61 -70 385 330 0 12 -62 4 -21 21 -5 272 -65 1 -4 -50 -46 -9 -9 -1 -13 -16 -205 -65 -16 0 0zm694 0l-9 -39 56 -52 18 -232 -87 -98 -126 0 -87 98 18 232 56 52 -9 39 -65 16 -15 205 -1 13 -10 9 -49 46 1 4 272 65 21 5 4 21 11 62 332 0 -71 -385 -260 -61 0 0z"/>
 </g>
</svg>
