<?xml version="1.0" encoding="UTF-8"?>
<!DOCTYPE svg PUBLIC "-//W3C//DTD SVG 1.1//EN" "http://www.w3.org/Graphics/SVG/1.1/DTD/svg11.dtd">
<!-- Creator: CorelDRAW X7 -->
<svg xmlns="http://www.w3.org/2000/svg" xml:space="preserve" width="27.0932mm" height="27.0932mm" version="1.1" style="shape-rendering:geometricPrecision; text-rendering:geometricPrecision; image-rendering:optimizeQuality; fill-rule:evenodd; clip-rule:evenodd"
viewBox="0 0 2709 2709"
 xmlns:xlink="http://www.w3.org/1999/xlink">
 <defs>
  <style type="text/css">
   <![CDATA[
    .fil0 {fill:black}
   ]]>
  </style>
 </defs>
 <g id="Camada_x0020_1">
  <metadata id="CorelCorpID_0Corel-Layer"/>
  <path class="fil0" d="M594 1683l84 0 0 -105 -84 0 0 105zm277 -657l-278 0 0 107 278 0 0 -107zm480 250l95 0 0 -393 -95 0 0 107 -228 0 0 179 228 0 0 107 0 0zm620 -51l145 -136 -654 0 0 136 509 0zm145 -155l-145 -136 -509 0 0 136 654 0zm-1184 63l85 0 0 -107 -85 0 0 107zm80 693l96 0 0 -391 -96 0 0 105 -228 0 0 181 228 0 0 105 0 0zm619 -51l146 -136 -653 0 0 136 507 0zm146 -154l-145 -136 -508 0 0 136 653 0z"/>
 </g>
</svg>
