<?xml version="1.0" encoding="UTF-8"?>
<!DOCTYPE svg PUBLIC "-//W3C//DTD SVG 1.1//EN" "http://www.w3.org/Graphics/SVG/1.1/DTD/svg11.dtd">
<!-- Creator: CorelDRAW X7 -->
<svg xmlns="http://www.w3.org/2000/svg" xml:space="preserve" width="27.0932mm" height="27.0932mm" version="1.1" style="shape-rendering:geometricPrecision; text-rendering:geometricPrecision; image-rendering:optimizeQuality; fill-rule:evenodd; clip-rule:evenodd"
viewBox="0 0 2709 2709"
 xmlns:xlink="http://www.w3.org/1999/xlink">
 <defs>
  <style type="text/css">
   <![CDATA[
    .fil0 {fill:black}
   ]]>
  </style>
 </defs>
 <g id="Camada_x0020_1">
  <metadata id="CorelCorpID_0Corel-Layer"/>
  <g id="_790793968">
   <path class="fil0" d="M1888 1524c0,-295 -238,-533 -533,-533 -122,0 -233,39 -322,107l8 17c86,-66 195,-107 314,-107 285,0 516,232 516,516 0,143 -58,272 -151,365l4 22c101,-98 164,-234 164,-387l0 0z"/>
   <path class="fil0" d="M793 1029c-67,104 -106,228 -106,362 0,281 173,521 419,620l0 -34c-160,-88 -267,-258 -267,-453 0,-96 25,-186 71,-263l-7 -21c-53,82 -83,180 -83,284 0,185 94,348 237,444 -209,-108 -352,-326 -352,-577 0,-125 35,-242 97,-341l-9 -20 0 -1z"/>
   <path class="fil0" d="M1357 723l-2 0c-190,0 -361,79 -483,206l47 -20c106,-94 241,-155 391,-165l47 -21 0 0z"/>
   <path class="fil0" d="M2022 1391c0,-255 -143,-477 -353,-589l-22 9c212,107 356,327 356,580 0,220 -109,415 -277,533l4 19c177,-120 292,-322 292,-552l0 0z"/>
   <path class="fil0" d="M1559 2117l17 -207 16 72 7 30 0 0 19 81c30,-9 60,-19 89,-31l-84 -459 -203 -48 -7 -30 45 -40 13 -181 -68 -76 -98 0 -67 76 14 181 43 40 -7 30 -97 23 -225 -525 853 -362 -42 -98 -951 403 42 98 23 -10 259 692 0 261 4 80 405 0z"/>
  </g>
 </g>
</svg>
