<?xml version="1.0" encoding="UTF-8"?>
<!DOCTYPE svg PUBLIC "-//W3C//DTD SVG 1.1//EN" "http://www.w3.org/Graphics/SVG/1.1/DTD/svg11.dtd">
<!-- Creator: CorelDRAW X7 -->
<svg xmlns="http://www.w3.org/2000/svg" xml:space="preserve" width="27.0932mm" height="27.0932mm" version="1.1" style="shape-rendering:geometricPrecision; text-rendering:geometricPrecision; image-rendering:optimizeQuality; fill-rule:evenodd; clip-rule:evenodd"
viewBox="0 0 2709 2709"
 xmlns:xlink="http://www.w3.org/1999/xlink">
 <defs>
  <style type="text/css">
   <![CDATA[
    .fil0 {fill:black}
   ]]>
  </style>
 </defs>
 <g id="Camada_x0020_1">
  <metadata id="CorelCorpID_0Corel-Layer"/>
  <g id="_636813648">
   <path class="fil0" d="M1934 789l0 1328 -579 -305 -579 305 0 -1524 1158 0 0 170 -701 0 0 26 701 0 0 0zm-335 456l-165 0 0 -165 -158 0 0 165 -165 0 0 159 165 0 0 165 158 0 0 -165 165 0 0 -159z"/>
   <polygon class="fil0" points="1958,617 1958,740 2055,740 2055,617 "/>
   <polygon class="fil0" points="752,740 654,740 654,617 752,617 "/>
  </g>
 </g>
</svg>
