<?xml version="1.0" encoding="UTF-8"?>
<!DOCTYPE svg PUBLIC "-//W3C//DTD SVG 1.1//EN" "http://www.w3.org/Graphics/SVG/1.1/DTD/svg11.dtd">
<!-- Creator: CorelDRAW X7 -->
<svg xmlns="http://www.w3.org/2000/svg" xml:space="preserve" width="27.0932mm" height="27.0932mm" version="1.1" style="shape-rendering:geometricPrecision; text-rendering:geometricPrecision; image-rendering:optimizeQuality; fill-rule:evenodd; clip-rule:evenodd"
viewBox="0 0 2709 2709"
 xmlns:xlink="http://www.w3.org/1999/xlink">
 <defs>
  <style type="text/css">
   <![CDATA[
    .fil0 {fill:black}
   ]]>
  </style>
 </defs>
 <g id="Camada_x0020_1">
  <metadata id="CorelCorpID_0Corel-Layer"/>
  <path class="fil0" d="M1811 924c-245,-245 -642,-245 -887,0 -244,245 -244,642 0,887 214,213 543,240 786,82l72 73 184 -184 -73 -72c159,-243 132,-573 -82,-786l0 0zm177 1191l-136 -137 126 -127 139 139 -129 125zm-360 -670c-310,0 -200,0 -510,0 -45,0 -81,-35 -81,-80 0,-44 36,-81 81,-81 310,0 201,0 510,0 45,0 81,37 81,81 0,45 -36,80 -81,80zm120 -458c-210,-210 -550,-210 -760,0 -210,210 -210,551 0,761 210,210 550,210 760,0 210,-210 210,-551 0,-761z"/>
 </g>
</svg>
