<?xml version="1.0" encoding="UTF-8"?>
<!DOCTYPE svg PUBLIC "-//W3C//DTD SVG 1.1//EN" "http://www.w3.org/Graphics/SVG/1.1/DTD/svg11.dtd">
<!-- Creator: CorelDRAW X7 -->
<svg xmlns="http://www.w3.org/2000/svg" xml:space="preserve" width="27.0932mm" height="27.0932mm" version="1.1" style="shape-rendering:geometricPrecision; text-rendering:geometricPrecision; image-rendering:optimizeQuality; fill-rule:evenodd; clip-rule:evenodd"
viewBox="0 0 2709 2709"
 xmlns:xlink="http://www.w3.org/1999/xlink">
 <defs>
  <style type="text/css">
   <![CDATA[
    .fil0 {fill:black}
   ]]>
  </style>
 </defs>
 <g id="Camada_x0020_1">
  <metadata id="CorelCorpID_0Corel-Layer"/>
  <path class="fil0" d="M1654 1478l0 -50 -6 -11 -27 -27 -22 -31 -13 -47 -6 -110 8 -50 33 -55 44 -38 12 -8 16 -3 38 -5 39 5 15 3 12 8 45 38 33 55 7 50 -5 110 -13 47 -22 31 -28 27 -6 11 0 50 6 5 143 39 11 5 99 15 17 8 5 10 28 147 -297 0 -43 -177 -14 -22 -93 -28 -16 -2 0 0zm-211 -9l-7 -5 0 -53 7 -11 28 -29 25 -33 13 -49 6 -118 -8 -53 -36 -57 -46 -41 -13 -9 -16 -3 -41 -5 -41 5 -16 3 -13 9 -47 41 -35 57 -9 53 6 118 14 49 24 33 30 29 5 11 0 53 -5 5 -18 5 -135 36 -11 6 -106 16 -17 7 -6 12 -29 156 818 0 -29 -156 -6 -12 -12 -5 -110 -18 -12 -6 -152 -41 0 0 0 0zm-388 9l0 -50 6 -11 28 -27 22 -31 13 -47 5 -110 -8 -50 -32 -55 -45 -38 -12 -8 -15 -3 -38 -5 -40 5 -14 3 -13 8 -44 38 -32 55 -9 50 5 110 14 47 22 31 28 27 5 11 0 50 -5 5 -143 39 -11 5 -100 15 -17 8 -4 10 -28 147 296 0 43 -177 15 -22 92 -28 16 -2 0 0z"/>
 </g>
</svg>
