<?xml version="1.0" encoding="UTF-8"?>
<!DOCTYPE svg PUBLIC "-//W3C//DTD SVG 1.1//EN" "http://www.w3.org/Graphics/SVG/1.1/DTD/svg11.dtd">
<!-- Creator: CorelDRAW X7 -->
<svg xmlns="http://www.w3.org/2000/svg" xml:space="preserve" width="27.0932mm" height="27.0932mm" version="1.1" style="shape-rendering:geometricPrecision; text-rendering:geometricPrecision; image-rendering:optimizeQuality; fill-rule:evenodd; clip-rule:evenodd"
viewBox="0 0 2709 2709"
 xmlns:xlink="http://www.w3.org/1999/xlink">
 <defs>
  <style type="text/css">
   <![CDATA[
    .fil0 {fill:black}
   ]]>
  </style>
 </defs>
 <g id="Camada_x0020_1">
  <metadata id="CorelCorpID_0Corel-Layer"/>
  <path class="fil0" d="M1072 1441l83 0 0 -173 -83 0 0 173zm734 216l0 321c0,77 -62,139 -139,139l-831 0c-76,0 -138,-62 -138,-139l0 -1247c0,-76 62,-138 138,-138l831 0c77,0 139,62 139,138l0 320 -173 -173 0 -112 -762 0 0 1177 762 0 0 -112 173 -174 0 0 0 0zm-188 -696c-34,-34 -89,-34 -123,0 -34,34 -34,89 0,123l185 184 -442 0 0 173 442 0 -185 185c-34,34 -34,89 0,123 16,16 38,24 61,24 22,0 44,-8 62,-24l393 -394 -393 -394 0 0 0 0z"/>
 </g>
</svg>
