<?xml version="1.0" encoding="UTF-8"?>
<!DOCTYPE svg PUBLIC "-//W3C//DTD SVG 1.1//EN" "http://www.w3.org/Graphics/SVG/1.1/DTD/svg11.dtd">
<!-- Creator: CorelDRAW X7 -->
<svg xmlns="http://www.w3.org/2000/svg" xml:space="preserve" width="27.0932mm" height="27.0932mm" version="1.1" style="shape-rendering:geometricPrecision; text-rendering:geometricPrecision; image-rendering:optimizeQuality; fill-rule:evenodd; clip-rule:evenodd"
viewBox="0 0 2709 2709"
 xmlns:xlink="http://www.w3.org/1999/xlink">
 <defs>
  <style type="text/css">
   <![CDATA[
    .fil0 {fill:black}
   ]]>
  </style>
 </defs>
 <g id="Camada_x0020_1">
  <metadata id="CorelCorpID_0Corel-Layer"/>
  <path class="fil0" d="M1732 1100c-212,0 -384,173 -384,385 0,213 172,386 384,386 212,0 385,-173 385,-386 0,-212 -173,-385 -385,-385zm-186 0l0 0 0 0 5 -58 -813 0 -4 58 787 0 0 12 0 0c-41,24 -78,55 -109,91l-674 0 0 56 630 0c-41,66 -65,144 -65,226l0 0c0,225 173,408 392,427l0 168 -1102 0 0 -1451 1102 0 0 430c-52,5 -103,19 -149,41zm-808 -217l813 0 0 58 -813 0 0 -58zm290 1052l-290 0 0 -57 290 0 0 57zm87 0l-29 0 0 -57 29 0 0 57zm0 -157l-377 0 0 -60 377 0 0 60zm29 -361l-406 0 0 -55 406 0 0 55zm87 0l-29 0 0 -55 29 0 0 55zm388 251l-130 -227 88 -50 80 138 257 -149 51 88 -346 200 0 0z"/>
 </g>
</svg>
