<?xml version="1.0" encoding="UTF-8"?>
<!DOCTYPE svg PUBLIC "-//W3C//DTD SVG 1.1//EN" "http://www.w3.org/Graphics/SVG/1.1/DTD/svg11.dtd">
<!-- Creator: CorelDRAW X7 -->
<svg xmlns="http://www.w3.org/2000/svg" xml:space="preserve" width="32px" height="32px" version="1.1" style="shape-rendering:geometricPrecision; text-rendering:geometricPrecision; image-rendering:optimizeQuality; fill-rule:evenodd; clip-rule:evenodd"
viewBox="0 0 3200 3200"
 xmlns:xlink="http://www.w3.org/1999/xlink">
 <defs>
  <style type="text/css">
   <![CDATA[
    .fil0 {fill:black}
   ]]>
  </style>
 </defs>
 <g id="Camada_x0020_1">
  <metadata id="CorelCorpID_0Corel-Layer"/>
  <path class="fil0" d="M1594 0c886,0 1606,720 1606,1594 0,886 -720,1606 -1606,1606 -874,0 -1594,-720 -1594,-1606 0,-874 720,-1594 1594,-1594zm-894 1200l-299 996 699 -196 100 -1000 -500 200zm1300 0l100 1000 700 -300 -300 -900 -500 200zm-700 -200l-100 1000 800 200 -100 -1000 -600 -200 0 0z"/>
 </g>
</svg>
