<?xml version="1.0" encoding="UTF-8"?>
<!DOCTYPE svg PUBLIC "-//W3C//DTD SVG 1.1//EN" "http://www.w3.org/Graphics/SVG/1.1/DTD/svg11.dtd">
<!-- Creator: CorelDRAW X7 -->
<svg xmlns="http://www.w3.org/2000/svg" xml:space="preserve" width="32px" height="32px" version="1.1" style="shape-rendering:geometricPrecision; text-rendering:geometricPrecision; image-rendering:optimizeQuality; fill-rule:evenodd; clip-rule:evenodd"
viewBox="0 0 3200 3200"
 xmlns:xlink="http://www.w3.org/1999/xlink">
 <defs>
  <style type="text/css">
   <![CDATA[
    .fil0 {fill:black}
   ]]>
  </style>
 </defs>
 <g id="Camada_x0020_1">
  <metadata id="CorelCorpID_0Corel-Layer"/>
  <path class="fil0" d="M3200 1594c0,-881 -713,-1594 -1606,-1594 -881,0 -1594,713 -1594,1594 0,893 713,1606 1594,1606 893,0 1606,-713 1606,-1606zm-2415 -895l333 0 -12 133 -202 0 -36 226 -24 238 -154 0 95 -597 0 0zm-36 1359l48 -404 488 0 -24 404 166 0 12 -309 0 -274 -309 0 12 -179 -143 0 -24 179 -297 0 -36 274 -59 309 166 0 0 0zm1702 0l-24 -214 -167 0 -23 -190 166 0 -24 -179 155 0 152 1025 -178 0 -33 -228 -345 0 8 228 -178 0 -9 -228 -179 0 10 228 -548 0 15 -228 345 0 0 -214 345 0 -24 -404 167 0 24 404 345 0 0 0zm-1344 -214l-168 0 -47 428 -345 0 -39 228 548 0 26 -335 25 -321zm344 -869l286 0 11 155 -297 0 0 167 -155 0 12 -167 -297 0 12 -155 285 0 12 -143 -71 0 12 -133 202 0 -12 276 0 0 0 0 0 0zm143 869l167 0 0 -369 464 0 -24 -179 -143 0 -12 -166 -154 0 12 166 -310 0 0 262 0 286 0 0 0 0 0 0zm440 -869l-142 0 -13 -143 -285 0 0 -133 417 0 23 276 0 0 0 0zm322 321l-24 -166 -143 0 -12 -155 143 0 -24 -143 -143 0 -12 -133 274 0 95 597 -154 0 0 0z"/>
 </g>
</svg>
