<?xml version="1.0" encoding="UTF-8"?>
<!DOCTYPE svg PUBLIC "-//W3C//DTD SVG 1.1//EN" "http://www.w3.org/Graphics/SVG/1.1/DTD/svg11.dtd">
<!-- Creator: CorelDRAW X7 -->
<svg xmlns="http://www.w3.org/2000/svg" xml:space="preserve" width="32px" height="32px" version="1.1" style="shape-rendering:geometricPrecision; text-rendering:geometricPrecision; image-rendering:optimizeQuality; fill-rule:evenodd; clip-rule:evenodd"
viewBox="0 0 3200 3200"
 xmlns:xlink="http://www.w3.org/1999/xlink">
 <defs>
  <style type="text/css">
   <![CDATA[
    .fil0 {fill:black}
   ]]>
  </style>
 </defs>
 <g id="Camada_x0020_1">
  <metadata id="CorelCorpID_0Corel-Layer"/>
  <path class="fil0" d="M1594 0c886,0 1606,720 1606,1594 0,886 -720,1606 -1606,1606 -874,0 -1594,-720 -1594,-1606 0,-874 720,-1594 1594,-1594zm-390 2728c-472,-165 -803,-603 -803,-1134 0,-166 36,-343 107,-484l70 71c-47,129 -82,271 -82,413 0,390 200,721 484,921 -106,-141 -177,-318 -177,-519 0,-71 12,-154 36,-224l70 141c-12,24 -12,59 -12,83 0,236 118,449 307,579l0 47 0 71 0 35zm696 -128l50 -200 150 400 97 -1 0 -201 -95 -496 -402 -102 0 -100 100 -100 0 -300 -100 -100 -200 0 -100 100 0 300 99 101 1 99 -200 0 -200 -300 -108 -602 106 -94 1300 -402 106 -201 -201 0 -1405 496 -98 103 -175 125 50 50 125 -75 98 -2 2 602 305 603 95 201 0 295 602 0 -2 -199 0 0zm497 -604c0,165 -47,330 -130,449l-35 -130c47,-95 71,-201 71,-319 0,-379 -319,-697 -709,-697 -166,0 -319,59 -437,153l-12 -106c130,-95 283,-142 449,-142 441,0 803,347 803,792zm-484 -1559l-189 71c-47,0 -83,-12 -130,-12 -354,0 -661,177 -862,437l-182 117c206,-412 582,-649 1044,-649 0,-13 293,30 319,36zm472 259c260,225 414,544 414,898 0,414 -201,768 -508,980l-20 -108c260,-200 433,-506 433,-872 0,-343 -177,-661 -425,-862l106 -36z"/>
 </g>
</svg>
