<?xml version="1.0" encoding="UTF-8"?>
<!DOCTYPE svg PUBLIC "-//W3C//DTD SVG 1.1//EN" "http://www.w3.org/Graphics/SVG/1.1/DTD/svg11.dtd">
<!-- Creator: CorelDRAW X7 -->
<svg xmlns="http://www.w3.org/2000/svg" xml:space="preserve" width="32px" height="32px" version="1.1" style="shape-rendering:geometricPrecision; text-rendering:geometricPrecision; image-rendering:optimizeQuality; fill-rule:evenodd; clip-rule:evenodd"
viewBox="0 0 3200 3200"
 xmlns:xlink="http://www.w3.org/1999/xlink">
 <defs>
  <style type="text/css">
   <![CDATA[
    .fil0 {fill:black}
   ]]>
  </style>
 </defs>
 <g id="Camada_x0020_1">
  <metadata id="CorelCorpID_0Corel-Layer"/>
  <path class="fil0" d="M1900 1800l0 600 -300 400 -300 -400 0 -600 100 -200 0 200 400 0 0 -200 100 200zm-306 -1800c425,0 803,153 1087,425l-881 875 0 200 975 -981c260,284 425,661 425,1075 0,885 -721,1606 -1606,1606 -874,0 -1594,-721 -1594,-1606 0,-414 165,-791 425,-1075l975 981 0 -200 -881 -875c284,-272 662,-425 1075,-425l0 0zm-94 1300l200 0 0 50 0 300 0 50 -200 0 0 -50 0 -300 0 -50z"/>
 </g>
</svg>
