<?xml version="1.0" encoding="UTF-8"?>
<!DOCTYPE svg PUBLIC "-//W3C//DTD SVG 1.1//EN" "http://www.w3.org/Graphics/SVG/1.1/DTD/svg11.dtd">
<!-- Creator: CorelDRAW X7 -->
<svg xmlns="http://www.w3.org/2000/svg" xml:space="preserve" width="32px" height="32px" version="1.1" style="shape-rendering:geometricPrecision; text-rendering:geometricPrecision; image-rendering:optimizeQuality; fill-rule:evenodd; clip-rule:evenodd"
viewBox="0 0 3200 3200"
 xmlns:xlink="http://www.w3.org/1999/xlink">
 <defs>
  <style type="text/css">
   <![CDATA[
    .fil0 {fill:black}
   ]]>
  </style>
 </defs>
 <g id="Camada_x0020_1">
  <metadata id="CorelCorpID_0Corel-Layer"/>
  <path class="fil0" d="M1600 0c900,0 1600,700 1600,1600 0,900 -700,1600 -1600,1600 -900,0 -1600,-700 -1600,-1600 0,-900 700,-1600 1600,-1600zm1200 2200l-100 -400 -400 -100 0 -100 100 -100 50 -350 -150 -150 -200 0 -150 150 50 350 100 100 0 100 -50 50 250 50 100 400 400 0zm-1900 100l100 -400 500 -200 0 -100 -150 -150 -50 -350 200 -200 200 0 200 200 -50 350 -150 150 0 100 500 200 100 400 -1400 0zm-500 -100l100 -400 400 -100 0 -100 -100 -100 -50 -350 150 -150 200 0 150 150 -50 350 -100 100 0 100 50 50 -250 50 -101 400 -399 0z"/>
 </g>
</svg>
