<?xml version="1.0" encoding="UTF-8"?>
<!DOCTYPE svg PUBLIC "-//W3C//DTD SVG 1.1//EN" "http://www.w3.org/Graphics/SVG/1.1/DTD/svg11.dtd">
<!-- Creator: CorelDRAW X7 -->
<svg xmlns="http://www.w3.org/2000/svg" xml:space="preserve" width="32px" height="32px" version="1.1" style="shape-rendering:geometricPrecision; text-rendering:geometricPrecision; image-rendering:optimizeQuality; fill-rule:evenodd; clip-rule:evenodd"
viewBox="0 0 3200 3200"
 xmlns:xlink="http://www.w3.org/1999/xlink">
 <defs>
  <style type="text/css">
   <![CDATA[
    .fil0 {fill:black}
   ]]>
  </style>
 </defs>
 <g id="Camada_x0020_1">
  <metadata id="CorelCorpID_0Corel-Layer"/>
  <path class="fil0" d="M1606 0c874,0 1594,720 1594,1594 0,886 -720,1606 -1594,1606 -886,0 -1606,-720 -1606,-1606 0,-874 720,-1594 1606,-1594zm44 400l0 1700 250 0 0 -1400 -250 -300zm-150 2400l201 0 0 -500 299 0 0 -100 -800 0 0 100 300 0 0 500zm-200 -2100l0 1400 250 0 0 -1700 -250 300z"/>
 </g>
</svg>
