<?xml version="1.0" encoding="UTF-8"?>
<!DOCTYPE svg PUBLIC "-//W3C//DTD SVG 1.1//EN" "http://www.w3.org/Graphics/SVG/1.1/DTD/svg11.dtd">
<!-- Creator: CorelDRAW X7 -->
<svg xmlns="http://www.w3.org/2000/svg" xml:space="preserve" width="32px" height="32px" version="1.1" style="shape-rendering:geometricPrecision; text-rendering:geometricPrecision; image-rendering:optimizeQuality; fill-rule:evenodd; clip-rule:evenodd"
viewBox="0 0 3200 3200"
 xmlns:xlink="http://www.w3.org/1999/xlink">
 <defs>
  <style type="text/css">
   <![CDATA[
    .fil0 {fill:black}
   ]]>
  </style>
 </defs>
 <g id="Camada_x0020_1">
  <metadata id="CorelCorpID_0Corel-Layer"/>
  <path class="fil0" d="M1594 0c886,0 1606,720 1606,1594 0,886 -720,1606 -1606,1606 -874,0 -1594,-720 -1594,-1606 0,-874 720,-1594 1594,-1594zm-390 1701l295 0 0 -202 -295 0 0 202zm1193 803c0,94 -94,200 -200,200l-1194 0c-106,0 -200,-106 -200,-200l0 -1808c0,-94 94,-200 200,-200l1194 0c106,0 200,106 200,200l0 296 -200 -189 0 -107 -1194 0 0 1808 1194 0 0 -95 200 -213 0 308 0 0 0 0zm-602 -1406l508 401 -709 0 0 202 709 0 -508 401 0 201 201 0 708 -709 -708 -697 -201 0 0 201 0 0 0 0z"/>
 </g>
</svg>
