<?xml version="1.0" encoding="UTF-8"?>
<!DOCTYPE svg PUBLIC "-//W3C//DTD SVG 1.1//EN" "http://www.w3.org/Graphics/SVG/1.1/DTD/svg11.dtd">
<!-- Creator: CorelDRAW X7 -->
<svg xmlns="http://www.w3.org/2000/svg" xml:space="preserve" width="32px" height="32px" version="1.1" style="shape-rendering:geometricPrecision; text-rendering:geometricPrecision; image-rendering:optimizeQuality; fill-rule:evenodd; clip-rule:evenodd"
viewBox="0 0 3200 3200"
 xmlns:xlink="http://www.w3.org/1999/xlink">
 <defs>
  <style type="text/css">
   <![CDATA[
    .fil0 {fill:black}
   ]]>
  </style>
 </defs>
 <g id="Camada_x0020_1">
  <metadata id="CorelCorpID_0Corel-Layer"/>
  <path class="fil0" d="M1600 0c900,0 1600,700 1600,1600 0,900 -700,1600 -1600,1600 -700,0 -1286,-465 -1483,-1000l283 0 0 -200 -349 0c-7,-34 -13,-68 -19,-100 -38,-227 -45,-408 -4,-600l222 0 0 -200 -171 0c214,-640 821,-1100 1521,-1100l0 0 0 0 0 0zm600 1900l-700 0 0 150 950 0 -250 -150 0 0zm400 -900l-700 0 0 150 950 0 -250 -150 0 0zm-1700 300l200 0 0 -200 -200 0 0 200zm-100 -200l-450 0 0 200 450 0 0 -200zm1000 400l0 -600 -200 0 0 200 -400 0 0 200 400 0 0 200 200 0 0 0 0 0 0 0zm100 -250l0 150 700 0 250 -150 -950 0zm-1400 950l200 0 0 -200 -200 0 0 200zm900 200l0 -600 -200 0 0 200 -400 0 0 200 400 0 0 200 200 0 0 0 0 0 0 0zm100 -250l0 150 700 0 250 -150 -950 0z"/>
 </g>
</svg>
