<?xml version="1.0" encoding="UTF-8"?>
<!DOCTYPE svg PUBLIC "-//W3C//DTD SVG 1.1//EN" "http://www.w3.org/Graphics/SVG/1.1/DTD/svg11.dtd">
<!-- Creator: CorelDRAW X7 -->
<svg xmlns="http://www.w3.org/2000/svg" xml:space="preserve" width="32px" height="32px" version="1.1" style="shape-rendering:geometricPrecision; text-rendering:geometricPrecision; image-rendering:optimizeQuality; fill-rule:evenodd; clip-rule:evenodd"
viewBox="0 0 3200 3200"
 xmlns:xlink="http://www.w3.org/1999/xlink">
 <defs>
  <style type="text/css">
   <![CDATA[
    .fil0 {fill:black}
   ]]>
  </style>
 </defs>
 <g id="Camada_x0020_1">
  <metadata id="CorelCorpID_0Corel-Layer"/>
  <path class="fil0" d="M1600 0c884,0 1600,716 1600,1600 0,884 -716,1600 -1600,1600 -884,0 -1600,-716 -1600,-1600 0,-884 716,-1600 1600,-1600zm0 1300c17,0 34,2 50,4l0 51c-17,-3 -33,-4 -50,-4l0 -51zm0 -900c448,0 882,266 1100,650l-153 91c179,301 203,675 62,999 152,81 14,308 -125,216 -380,510 -1111,594 -1596,183 -119,118 -298,-68 -171,-182 -263,-354 -290,-836 -65,-1217l-152 -90c66,-119 152,-225 253,-316 -109,-131 104,-292 200,-149 194,-118 418,-185 647,-185l0 0zm905 765l-262 156c308,508 -91,1129 -643,1129 -552,0 -951,-621 -643,-1130l-262 -155c-215,366 -189,828 64,1166 107,-32 196,69 156,167 463,396 1172,317 1533,-176 -56,-80 -4,-202 113,-197 136,-311 115,-669 -56,-960l0 0zm-305 180l-263 156c189,293 -92,599 -337,599 -245,0 -526,-306 -338,-599l-262 -156c-285,470 76,1055 600,1055 524,0 885,-586 600,-1055l0 0zm-304 180l-232 137c65,110 -139,166 -139,38 0,-14 4,-27 11,-38l-232 -137c-165,258 83,525 296,525 213,0 461,-267 296,-525zm729 -500c-349,-544 -1063,-758 -1651,-390 15,103 -91,174 -178,132 -86,77 -161,164 -221,258l125 76c0,-44 -2,-36 50,-99 0,91 8,67 -25,114l275 168c0,-36 3,-35 50,-87 0,85 8,65 -22,105l272 165 50 -67c0,75 7,59 -17,87l237 145c20,-9 40,-9 60,0l270 -165 0 -17 10 11 290 -176 0 -28 14 19 286 -175 0 -34 17 24 108 -66zm-1025 -75c17,0 33,0 50,1l0 51c-16,-2 -33,-2 -50,-2l0 -50zm100 7c16,2 33,5 50,9l0 51c-17,-4 -34,-7 -50,-10l0 -50zm100 21c17,5 34,11 49,17l0 53c-15,-7 -32,-12 -49,-18l0 -52zm100 37c17,8 34,17 50,25l0 57c-16,-10 -33,-19 -50,-27l0 -55zm99 55c18,11 34,23 51,35l0 63c-17,-14 -33,-27 -51,-39l0 -59zm101 77c62,57 50,39 50,125 -16,-19 -32,-39 -50,-57l0 -68zm-1000 0c16,-14 32,-28 50,-42l0 63c-18,16 -34,31 -50,47l0 -68zm100 -77c16,-10 33,-20 50,-30l0 57c-18,10 -34,21 -50,32l0 -59zm100 -55c16,-7 33,-13 50,-20l0 53c-17,6 -34,14 -50,22l0 -55zm100 -37c16,-4 33,-9 50,-12l0 51c-17,4 -34,8 -50,13l0 -52zm100 -21c16,-2 33,-4 50,-5l0 50c-17,1 -34,3 -50,5l0 -50zm100 -357c17,0 34,0 50,1l0 50c-17,-1 -33,-1 -50,-1l0 -50zm100 4c16,2 33,4 50,6l0 50c-17,-2 -34,-4 -50,-6l0 -50zm100 14c17,3 34,6 49,10l0 51c-15,-4 -32,-7 -49,-10l0 -51zm100 23c17,5 34,10 50,16l0 52c-16,-6 -33,-11 -50,-16l0 -52zm99 34c17,6 34,13 51,21l0 54c-17,-8 -34,-15 -51,-22l0 -53zm101 44c17,9 34,18 50,28l0 57c-16,-10 -33,-20 -50,-29l0 -56zm100 58c17,11 34,23 50,35l0 61c-16,-13 -33,-25 -50,-37l0 -59zm100 74c17,14 34,29 50,44l0 68c-16,-17 -33,-33 -50,-48l0 -64zm100 93c62,66 50,44 50,137 -62,-87 -50,-32 -50,-137zm-1600 1c16,-17 32,-33 50,-50l0 68c-18,18 -34,36 -50,55l0 -73zm100 -94c16,-13 33,-26 50,-39l0 61c-17,14 -34,28 -50,43l0 -65zm100 -73c17,-11 33,-21 50,-31l0 57c-17,10 -34,21 -50,33l0 -59zm100 -58c16,-9 33,-17 50,-24l0 54c-17,8 -34,16 -50,25l0 -55zm100 -45c16,-7 33,-13 50,-18l0 52c-17,6 -34,12 -50,19l0 -53zm100 -34c17,-5 33,-9 50,-13l0 51c-17,4 -33,9 -50,14l0 -52zm100 -23c16,-3 33,-6 50,-8l0 50c-17,3 -34,5 -50,9l0 -51zm100 -14c16,-1 33,-2 50,-3l0 50c-17,1 -34,2 -50,3l0 -50zm200 711c17,6 33,13 50,20l0 55c-17,-9 -33,-15 -50,-22l0 -53zm100 47c17,11 34,24 49,37l0 68c-15,-16 -32,-31 -49,-45l0 -60zm-400 1c16,-11 33,-20 50,-28l0 55c-17,10 -34,20 -50,32l0 -59zm100 -48c16,-5 33,-9 50,-11l0 51c-17,3 -34,7 -50,13l0 -53z"/>
 </g>
</svg>
