<?xml version="1.0" encoding="UTF-8"?>
<!DOCTYPE svg PUBLIC "-//W3C//DTD SVG 1.1//EN" "http://www.w3.org/Graphics/SVG/1.1/DTD/svg11.dtd">
<!-- Creator: CorelDRAW X7 -->
<svg xmlns="http://www.w3.org/2000/svg" xml:space="preserve" width="32px" height="32px" version="1.1" style="shape-rendering:geometricPrecision; text-rendering:geometricPrecision; image-rendering:optimizeQuality; fill-rule:evenodd; clip-rule:evenodd"
viewBox="0 0 3200 3200"
 xmlns:xlink="http://www.w3.org/1999/xlink">
 <defs>
  <style type="text/css">
   <![CDATA[
    .fil0 {fill:black}
   ]]>
  </style>
 </defs>
 <g id="Camada_x0020_1">
  <metadata id="CorelCorpID_0Corel-Layer"/>
  <path class="fil0" d="M3200 1600c0,-884 -716,-1600 -1600,-1600 -884,0 -1600,716 -1600,1600 0,884 716,1600 1600,1600 884,0 1600,-716 1600,-1600zm-894 1008l-706 -302 -706 302 0 -2016 1412 0 0 302 -1286 0 1286 101 0 1613zm-404 -1109l-201 0 0 -201 -202 0 0 201 -201 0 0 202 201 0 0 201 202 0 0 -201 201 0 0 -202zm-1310 -806l0 201 201 0 0 -201 -201 0zm1815 0l0 201 201 0 0 -201 -201 0z"/>
 </g>
</svg>
