<?xml version="1.0" encoding="UTF-8"?>
<!DOCTYPE svg PUBLIC "-//W3C//DTD SVG 1.1//EN" "http://www.w3.org/Graphics/SVG/1.1/DTD/svg11.dtd">
<!-- Creator: CorelDRAW X7 -->
<svg xmlns="http://www.w3.org/2000/svg" xml:space="preserve" width="32px" height="32px" version="1.1" style="shape-rendering:geometricPrecision; text-rendering:geometricPrecision; image-rendering:optimizeQuality; fill-rule:evenodd; clip-rule:evenodd"
viewBox="0 0 3200 3200"
 xmlns:xlink="http://www.w3.org/1999/xlink">
 <defs>
  <style type="text/css">
   <![CDATA[
    .fil0 {fill:black}
   ]]>
  </style>
 </defs>
 <g id="Camada_x0020_1">
  <metadata id="CorelCorpID_0Corel-Layer"/>
  <path class="fil0" d="M1600 0c884,0 1600,710 1600,1587 0,810 -611,1478 -1400,1576l0 -263 -400 0 0 263c-789,-98 -1400,-766 -1400,-1576 0,-877 716,-1587 1600,-1587l0 0zm1125 1517c0,-612 -508,-1120 -1131,-1120 -612,0 -1119,508 -1119,1120 0,369 173,692 438,900 127,127 290,222 487,257l0 127 400 -1 0 -127c196,-34 348,-129 486,-256 266,-208 439,-531 439,-900l0 0zm-438 14c0,-370 -312,-681 -693,-681 -369,0 -681,311 -681,681 0,382 312,693 681,693 381,0 693,-311 693,-693zm232 -6c0,-504 -420,-913 -925,-913 -504,0 -913,409 -913,913 0,517 409,925 913,925 505,0 925,-408 925,-925z"/>
 </g>
</svg>
