<?xml version="1.0" encoding="UTF-8"?>
<!DOCTYPE svg PUBLIC "-//W3C//DTD SVG 1.1//EN" "http://www.w3.org/Graphics/SVG/1.1/DTD/svg11.dtd">
<!-- Creator: CorelDRAW X7 -->
<svg xmlns="http://www.w3.org/2000/svg" xml:space="preserve" width="32px" height="32px" version="1.1" style="shape-rendering:geometricPrecision; text-rendering:geometricPrecision; image-rendering:optimizeQuality; fill-rule:evenodd; clip-rule:evenodd"
viewBox="0 0 3200 3200"
 xmlns:xlink="http://www.w3.org/1999/xlink">
 <defs>
  <style type="text/css">
   <![CDATA[
    .fil0 {fill:black}
   ]]>
  </style>
 </defs>
 <g id="Camada_x0020_1">
  <metadata id="CorelCorpID_0Corel-Layer"/>
  <path class="fil0" d="M1594 0c886,0 1606,720 1606,1594 0,886 -720,1606 -1606,1606 -874,0 -1594,-720 -1594,-1606 0,-874 720,-1594 1594,-1594zm603 496l0 696c-119,0 -237,36 -331,95 -118,59 -118,59 -165,118l-697 0 0 94 626 0c-24,36 -47,60 -60,95l-566 0 0 107 531 0c-12,35 -23,82 -23,106 -13,35 -13,59 -13,95 0,389 320,696 697,696l0 107 -1393 0 0 -2209 1393 0 1 0zm3 1804l-405 -599 803 0 -398 599zm-3 -1001c-331,0 -591,271 -591,602 0,331 260,603 591,603 330,0 602,-272 602,-603 0,-331 -272,-602 -602,-602zm-1193 1004l401 0 0 94 -401 0 0 -94zm0 -307l401 0 0 106 -401 0 0 -106zm0 -898l992 0 0 107 -992 0 0 -107zm0 -295l992 0 0 94 -992 0 0 -94z"/>
 </g>
</svg>
