<?xml version="1.0" encoding="UTF-8"?>
<!DOCTYPE svg PUBLIC "-//W3C//DTD SVG 1.1//EN" "http://www.w3.org/Graphics/SVG/1.1/DTD/svg11.dtd">
<!-- Creator: CorelDRAW X7 -->
<svg xmlns="http://www.w3.org/2000/svg" xml:space="preserve" width="32px" height="32px" version="1.1" style="shape-rendering:geometricPrecision; text-rendering:geometricPrecision; image-rendering:optimizeQuality; fill-rule:evenodd; clip-rule:evenodd"
viewBox="0 0 3200 3200"
 xmlns:xlink="http://www.w3.org/1999/xlink">
 <defs>
  <style type="text/css">
   <![CDATA[
    .fil0 {fill:black}
   ]]>
  </style>
 </defs>
 <g id="Camada_x0020_1">
  <metadata id="CorelCorpID_0Corel-Layer"/>
  <path class="fil0" d="M1600 0c884,0 1600,716 1600,1600 0,884 -716,1600 -1600,1600 -884,0 -1600,-716 -1600,-1600 0,-884 716,-1600 1600,-1600zm-105 1770l-594 955 357 0 140 -225 404 0 139 225 358 0 -594 -955c57,-35 95,-98 95,-170 0,-111 -90,-200 -200,-200 -111,0 -200,89 -200,200 0,72 38,135 95,170l0 0zm524 -600c112,109 181,261 181,430 0,137 -46,264 -124,365l-57 -93c52,-78 81,-171 81,-272 0,-132 -52,-253 -135,-342l54 -88zm-895 795c-78,-101 -124,-228 -124,-365 0,-169 69,-321 181,-430l54 88c-83,89 -135,210 -135,342 0,101 29,194 81,272l-57 93zm1056 -1053c196,165 320,412 320,688 0,246 -98,469 -259,631l-56 -92c131,-141 211,-331 211,-539 0,-238 -105,-453 -272,-598l56 -90 0 0zm-1221 1319c-161,-162 -259,-385 -259,-631 0,-276 124,-523 320,-688l56 90c-167,145 -272,360 -272,598 0,208 80,398 211,539l-57 92 1 0zm1381 -1576c280,219 460,561 460,945 0,354 -153,672 -397,892l-40 -65c223,-206 362,-500 362,-827 0,-357 -166,-675 -425,-881l40 -64 0 0zm-1543 1837c-244,-220 -397,-538 -397,-892 0,-384 180,-726 460,-945l40 64c-259,206 -425,524 -425,881 0,327 139,621 362,827l-40 65 0 0z"/>
 </g>
</svg>
