<?xml version="1.0" encoding="UTF-8"?>
<!DOCTYPE svg PUBLIC "-//W3C//DTD SVG 1.1//EN" "http://www.w3.org/Graphics/SVG/1.1/DTD/svg11.dtd">
<!-- Creator: CorelDRAW X7 -->
<svg xmlns="http://www.w3.org/2000/svg" xml:space="preserve" width="32px" height="32px" version="1.1" style="shape-rendering:geometricPrecision; text-rendering:geometricPrecision; image-rendering:optimizeQuality; fill-rule:evenodd; clip-rule:evenodd"
viewBox="0 0 3200 3200"
 xmlns:xlink="http://www.w3.org/1999/xlink">
 <defs>
  <style type="text/css">
   <![CDATA[
    .fil0 {fill:black}
   ]]>
  </style>
 </defs>
 <g id="Camada_x0020_1">
  <metadata id="CorelCorpID_0Corel-Layer"/>
  <path class="fil0" d="M1600 0c884,0 1600,716 1600,1600 0,884 -716,1600 -1600,1600 -884,0 -1600,-716 -1600,-1600 0,-884 716,-1600 1600,-1600zm650 1100l450 200 -500 100 50 400 -1000 -1000 450 50 150 -450 150 450 550 -250 -300 500 0 0 0 0zm-1650 -400l450 50 1100 1150 -175 175 -1375 -1375 0 0 0 0zm-50 50l1375 1375 -200 200 -1125 -1125 -50 -450 0 0 0 0zm1850 2000l-350 -350 -200 200 -150 -150 600 -600 150 150 -200 200 350 350 0 50 -150 150 -50 0zm-150 -1900l-150 250 350 150 -350 50 0 200 -550 -550 200 50 100 -350 100 350 300 -150z"/>
 </g>
</svg>
