<?xml version="1.0" encoding="UTF-8"?>
<!DOCTYPE svg PUBLIC "-//W3C//DTD SVG 1.1//EN" "http://www.w3.org/Graphics/SVG/1.1/DTD/svg11.dtd">
<!-- Creator: CorelDRAW X7 -->
<svg xmlns="http://www.w3.org/2000/svg" xml:space="preserve" width="32px" height="32px" version="1.1" style="shape-rendering:geometricPrecision; text-rendering:geometricPrecision; image-rendering:optimizeQuality; fill-rule:evenodd; clip-rule:evenodd"
viewBox="0 0 3200 3200"
 xmlns:xlink="http://www.w3.org/1999/xlink">
 <defs>
  <style type="text/css">
   <![CDATA[
    .fil0 {fill:black}
   ]]>
  </style>
 </defs>
 <g id="Camada_x0020_1">
  <metadata id="CorelCorpID_0Corel-Layer"/>
  <path class="fil0" d="M1594 0c886,0 1606,720 1606,1594 0,886 -720,1606 -1606,1606 -874,0 -1594,-720 -1594,-1606 0,-874 720,-1594 1594,-1594zm506 1975l350 -325 149 150 -500 500 -300 -400 151 -150 150 225zm100 -775c-154,0 -402,77 -500,200l-700 0 0 100 630 -1c-24,19 -50,66 -62,101l-568 0 0 100 535 1c-19,55 -36,142 -36,201 0,389 324,698 701,698l0 100 -1400 0 0 -2200 1400 0 0 700zm-4 99c-330,0 -590,271 -590,602 0,331 260,603 590,603 331,0 603,-272 603,-603 0,-331 -272,-602 -603,-602zm-1196 1001l400 0 0 100 -400 0 0 -100zm0 -300l400 0 0 100 -400 0 0 -100zm0 -900l1000 0 0 100 -1000 0 0 -100zm0 -300l1000 0 0 100 -1000 0 0 -100z"/>
 </g>
</svg>
