<?xml version="1.0" encoding="UTF-8"?>
<!DOCTYPE svg PUBLIC "-//W3C//DTD SVG 1.1//EN" "http://www.w3.org/Graphics/SVG/1.1/DTD/svg11.dtd">
<!-- Creator: CorelDRAW X7 -->
<svg xmlns="http://www.w3.org/2000/svg" xml:space="preserve" width="32px" height="32px" version="1.1" style="shape-rendering:geometricPrecision; text-rendering:geometricPrecision; image-rendering:optimizeQuality; fill-rule:evenodd; clip-rule:evenodd"
viewBox="0 0 3200 3200"
 xmlns:xlink="http://www.w3.org/1999/xlink">
 <defs>
  <style type="text/css">
   <![CDATA[
    .fil0 {fill:black}
   ]]>
  </style>
 </defs>
 <g id="Camada_x0020_1">
  <metadata id="CorelCorpID_0Corel-Layer"/>
  <path class="fil0" d="M1606 0c874,0 1594,720 1594,1594 0,886 -720,1606 -1594,1606 -886,0 -1606,-720 -1606,-1606 0,-874 720,-1594 1606,-1594zm-12 697l-248 -95 -47 -106 -95 0 0 106 -200 0 -307 95 -201 200 -94 307 295 295 200 0 201 603 -94 590 590 -94 602 94 -94 -590 200 -603 201 0 295 -295 -94 -307 -201 -189 -307 -106 -201 0 0 -106 -94 0 -47 106 -260 95 0 0zm-295 200l301 103 301 -103 0 -200 95 0 0 307 0 141 254 305 -101 50 -248 -295 0 -201 -301 96 -301 -96 0 201 -248 295 -101 -50 254 -305 0 -141 0 -307 95 0 0 200zm301 403l-200 100 -196 194 293 -94 203 0 296 94 -196 -194 -200 -100zm0 1000l-100 -200 -250 -50 250 -50 100 -200 100 200 250 50 -250 50 -100 200z"/>
 </g>
</svg>
