<?xml version="1.0" encoding="UTF-8"?>
<!DOCTYPE svg PUBLIC "-//W3C//DTD SVG 1.1//EN" "http://www.w3.org/Graphics/SVG/1.1/DTD/svg11.dtd">
<!-- Creator: CorelDRAW X7 -->
<svg xmlns="http://www.w3.org/2000/svg" xml:space="preserve" width="32px" height="32px" version="1.1" style="shape-rendering:geometricPrecision; text-rendering:geometricPrecision; image-rendering:optimizeQuality; fill-rule:evenodd; clip-rule:evenodd"
viewBox="0 0 3200 3200"
 xmlns:xlink="http://www.w3.org/1999/xlink">
 <defs>
  <style type="text/css">
   <![CDATA[
    .fil0 {fill:black}
   ]]>
  </style>
 </defs>
 <g id="Camada_x0020_1">
  <metadata id="CorelCorpID_0Corel-Layer"/>
  <path class="fil0" d="M1600 0c870,0 1600,716 1600,1600 0,884 -730,1600 -1600,1600 -870,0 -1575,-716 -1575,-1600 0,-884 705,-1600 1575,-1600zm25 884c32,0 64,2 95,6l116 -238 315 131 -89 250c50,38 94,83 132,132l252 -86 129 316 -240 113c4,30 6,61 6,92 0,32 -2,64 -6,95l239 117 -132 315 -250 -90c-38,50 -83,94 -132,132l86 252 -316 129 -113 -240c-30,4 -61,6 -92,6 -32,0 -64,-2 -95,-6l-117 239 -315 -132 90 -250c-49,-38 -94,-83 -132,-132l-252 86 -129 -316 240 -113c-4,-30 -6,-61 -6,-92 0,-32 2,-64 6,-95l-239 -116 132 -315 250 89c38,-50 83,-94 132,-132l-86 -252 316 -129 113 240c30,-4 61,-6 92,-6zm0 461c142,0 256,113 256,255 0,142 -114,255 -256,255 -141,0 -256,-113 -256,-255 0,-142 115,-255 256,-255z"/>
 </g>
</svg>
