<?xml version="1.0" encoding="UTF-8"?>
<!DOCTYPE svg PUBLIC "-//W3C//DTD SVG 1.1//EN" "http://www.w3.org/Graphics/SVG/1.1/DTD/svg11.dtd">
<!-- Creator: CorelDRAW X7 -->
<svg xmlns="http://www.w3.org/2000/svg" xml:space="preserve" width="32px" height="32px" version="1.1" style="shape-rendering:geometricPrecision; text-rendering:geometricPrecision; image-rendering:optimizeQuality; fill-rule:evenodd; clip-rule:evenodd"
viewBox="0 0 3200 3200"
 xmlns:xlink="http://www.w3.org/1999/xlink">
 <defs>
  <style type="text/css">
   <![CDATA[
    .fil0 {fill:black}
   ]]>
  </style>
 </defs>
 <g id="Camada_x0020_1">
  <metadata id="CorelCorpID_0Corel-Layer"/>
  <path class="fil0" d="M1600 0c900,0 1600,700 1600,1600 0,900 -700,1600 -1600,1600 -900,0 -1600,-700 -1600,-1600 0,-900 700,-1600 1600,-1600zm0 600c600,0 1000,400 1000,1000 0,600 -400,1000 -1000,1000 -600,0 -1000,-400 -1000,-1000 0,-600 400,-1000 1000,-1000zm0 300c400,0 700,300 700,700 0,400 -300,700 -700,700 -400,0 -700,-300 -700,-700 0,-400 300,-700 700,-700z"/>
 </g>
</svg>
