<?xml version="1.0" encoding="UTF-8"?>
<!DOCTYPE svg PUBLIC "-//W3C//DTD SVG 1.1//EN" "http://www.w3.org/Graphics/SVG/1.1/DTD/svg11.dtd">
<!-- Creator: CorelDRAW X7 -->
<svg xmlns="http://www.w3.org/2000/svg" xml:space="preserve" width="32px" height="32px" version="1.1" style="shape-rendering:geometricPrecision; text-rendering:geometricPrecision; image-rendering:optimizeQuality; fill-rule:evenodd; clip-rule:evenodd"
viewBox="0 0 3200 3200"
 xmlns:xlink="http://www.w3.org/1999/xlink">
 <defs>
  <style type="text/css">
   <![CDATA[
    .fil0 {fill:black}
   ]]>
  </style>
 </defs>
 <g id="Camada_x0020_1">
  <metadata id="CorelCorpID_0Corel-Layer"/>
  <path class="fil0" d="M1600 0c884,0 1600,716 1600,1600 0,884 -716,1600 -1600,1600 -884,0 -1600,-716 -1600,-1600 0,-884 716,-1600 1600,-1600zm825 700l-225 75 0 150 -525 525 -225 0 -76 75 -599 600 -75 150 75 150 150 75 150 -75 675 -675 0 -225 525 -525 150 0 75 -225 -75 -75 0 0zm-1725 452l0 -231 150 160 222 -9 9 -222 -160 -150 231 0 151 150 -3 250 250 250 -200 0 -100 100 -150 -150 -250 3 -150 -151 0 0 0 0zm1150 698l0 -200 250 250c34,-11 69,-15 103,-14 157,6 297,133 297,312 -5,188 -155,304 -301,302 -188,-1 -313,-142 -314,-302 0,-32 5,-65 15,-98l-150 -150 100 -100zm343 197c-92,1 -147,71 -147,146 0,76 71,147 147,147 75,0 146,-71 146,-147 0,-75 -54,-147 -146,-146z"/>
 </g>
</svg>
