<?xml version="1.0" encoding="UTF-8"?>
<!DOCTYPE svg PUBLIC "-//W3C//DTD SVG 1.1//EN" "http://www.w3.org/Graphics/SVG/1.1/DTD/svg11.dtd">
<!-- Creator: CorelDRAW X7 -->
<svg xmlns="http://www.w3.org/2000/svg" xml:space="preserve" width="32px" height="32px" version="1.1" style="shape-rendering:geometricPrecision; text-rendering:geometricPrecision; image-rendering:optimizeQuality; fill-rule:evenodd; clip-rule:evenodd"
viewBox="0 0 3200 3200"
 xmlns:xlink="http://www.w3.org/1999/xlink">
 <defs>
  <style type="text/css">
   <![CDATA[
    .fil0 {fill:black}
   ]]>
  </style>
 </defs>
 <g id="Camada_x0020_1">
  <metadata id="CorelCorpID_0Corel-Layer"/>
  <path class="fil0" d="M2385 697c260,224 414,543 414,897 0,414 -201,768 -508,980l-24 -106c260,-201 437,-508 437,-874 0,-342 -177,-661 -425,-862l106 -35 0 0zm-1180 2031c-473,-165 -804,-603 -804,-1134 0,-166 36,-342 107,-484l71 71c-47,129 -83,271 -83,413 0,390 201,721 484,921 -106,-141 -177,-318 -177,-519 0,-71 12,-154 36,-224l70 141c-11,24 -11,59 -11,83 0,236 118,449 307,579l0 47 0 71 0 35 0 0 0 0zm695 -128l50 -200 150 400 97 -1 0 -201 -95 -496 -402 -102 0 -100 100 -100 0 -300 -100 -100 -200 0 -100 100 0 300 99 101 1 99 -200 0 -200 -300 -108 -602 106 -94 1300 -401 106 -202 -201 0 -1405 497 -98 102 -175 125 50 50 125 -75 98 -2 2 602 305 603 95 201 0 295 602 0 -2 -199 0 0zm-306 -1395c449,0 803,354 803,791 0,165 -47,330 -130,449l-35 -130c47,-95 71,-201 71,-319 0,-379 -319,-697 -709,-697 -166,0 -318,59 -437,154l-12 -107c131,-94 283,-141 449,-141l0 0zm0 -804c107,0 212,13 319,36l-189 71c-47,0 -83,-12 -130,-12 -354,0 -661,177 -862,437l-225 154c201,-402 615,-686 1087,-686l0 0 0 0z"/>
 </g>
</svg>
