<?xml version="1.0" encoding="UTF-8"?>
<!DOCTYPE svg PUBLIC "-//W3C//DTD SVG 1.1//EN" "http://www.w3.org/Graphics/SVG/1.1/DTD/svg11.dtd">
<!-- Creator: CorelDRAW X7 -->
<svg xmlns="http://www.w3.org/2000/svg" xml:space="preserve" width="32px" height="32px" version="1.1" style="shape-rendering:geometricPrecision; text-rendering:geometricPrecision; image-rendering:optimizeQuality; fill-rule:evenodd; clip-rule:evenodd"
viewBox="0 0 3200 3200"
 xmlns:xlink="http://www.w3.org/1999/xlink">
 <defs>
  <style type="text/css">
   <![CDATA[
    .fil0 {fill:black}
   ]]>
  </style>
 </defs>
 <g id="Camada_x0020_1">
  <metadata id="CorelCorpID_0Corel-Layer"/>
  <polygon class="fil0" points="400,2300 500,1900 900,1800 1000,1750 1000,1600 850,1400 825,1025 1000,800 1300,800 1475,1025 1450,1400 1300,1600 1300,1750 1350,1775 1200,1825 1125,1900 1075,2300 "/>
  <polygon class="fil0" points="1153,2300 1200,1950 1250,1900 1606,1795 1800,1700 1800,1600 1625,1375 1600,900 1800,700 2100,700 2300,900 2275,1375 2100,1600 2100,1700 2300,1800 2700,1900 2800,2300 "/>
 </g>
</svg>
