<?xml version="1.0" encoding="UTF-8"?>
<!DOCTYPE svg PUBLIC "-//W3C//DTD SVG 1.1//EN" "http://www.w3.org/Graphics/SVG/1.1/DTD/svg11.dtd">
<!-- Creator: CorelDRAW X7 -->
<svg xmlns="http://www.w3.org/2000/svg" xml:space="preserve" width="32px" height="32px" version="1.1" style="shape-rendering:geometricPrecision; text-rendering:geometricPrecision; image-rendering:optimizeQuality; fill-rule:evenodd; clip-rule:evenodd"
viewBox="0 0 3200 3200"
 xmlns:xlink="http://www.w3.org/1999/xlink">
 <defs>
  <style type="text/css">
   <![CDATA[
    .fil0 {fill:black}
   ]]>
  </style>
 </defs>
 <g id="Camada_x0020_1">
  <metadata id="CorelCorpID_0Corel-Layer"/>
  <path class="fil0" d="M2200 2150l0 250 -250 0 250 -250zm-700 450l150 -50 -100 -100 -50 150zm900 -800l0 -100 -100 0 -700 700 100 100 700 -700zm-200 -1200l0 1050 -750 750 -650 0 0 -1800 1400 0 0 0zm-200 300l-1000 0 0 100 1000 0 0 -100zm0 600l-1000 0 0 100 1000 0 0 -100zm0 -300l-1000 0 0 100 1000 0 0 -100zm-400 600l-600 0 0 100 600 0 0 -100z"/>
 </g>
</svg>
