<?xml version="1.0" encoding="UTF-8"?>
<!DOCTYPE svg PUBLIC "-//W3C//DTD SVG 1.1//EN" "http://www.w3.org/Graphics/SVG/1.1/DTD/svg11.dtd">
<!-- Creator: CorelDRAW X7 -->
<svg xmlns="http://www.w3.org/2000/svg" xml:space="preserve" width="32px" height="32px" version="1.1" style="shape-rendering:geometricPrecision; text-rendering:geometricPrecision; image-rendering:optimizeQuality; fill-rule:evenodd; clip-rule:evenodd"
viewBox="0 0 3200 3200"
 xmlns:xlink="http://www.w3.org/1999/xlink">
 <defs>
  <style type="text/css">
   <![CDATA[
    .fil0 {fill:black}
   ]]>
  </style>
 </defs>
 <g id="Camada_x0020_1">
  <metadata id="CorelCorpID_0Corel-Layer"/>
  <path class="fil0" d="M2150 1500c193,0 350,157 350,350 0,193 -157,350 -350,350 -193,0 -350,-157 -350,-350 0,-193 157,-350 350,-350zm-150 300l100 0 0 -100 100 0 0 100 100 0 0 100 -100 0 0 100 -100 0 0 -100 -100 0 0 -100z"/>
  <path class="fil0" d="M800 2000l100 -100 300 -100 200 -100 0 -200 -150 -150 -50 -450 250 -200 250 0 200 200 -50 450 -150 150 0 200c0,67 0,133 0,200 0,250 200,450 450,450 162,0 150,-110 150,50l-1600 0 100 -400 0 0 0 0z"/>
 </g>
</svg>
