<?xml version="1.0" encoding="UTF-8"?>
<!DOCTYPE svg PUBLIC "-//W3C//DTD SVG 1.1//EN" "http://www.w3.org/Graphics/SVG/1.1/DTD/svg11.dtd">
<!-- Creator: CorelDRAW X7 -->
<svg xmlns="http://www.w3.org/2000/svg" xml:space="preserve" width="32px" height="32px" version="1.1" style="shape-rendering:geometricPrecision; text-rendering:geometricPrecision; image-rendering:optimizeQuality; fill-rule:evenodd; clip-rule:evenodd"
viewBox="0 0 3200 3200"
 xmlns:xlink="http://www.w3.org/1999/xlink">
 <defs>
  <style type="text/css">
   <![CDATA[
    .fil0 {fill:black}
   ]]>
  </style>
 </defs>
 <g id="Camada_x0020_1">
  <metadata id="CorelCorpID_0Corel-Layer"/>
  <polygon class="fil0" points="2450,2100 1500,2100 1500,2250 2250,2250 2450,2100 2450,2100 "/>
  <polygon class="fil0" points="1450,2350 1450,1750 1250,1750 1250,1950 850,1950 850,2150 1250,2150 1250,2350 1450,2350 1450,2350 "/>
  <polygon class="fil0" points="500,2150 700,2150 700,1950 500,1950 "/>
  <polygon class="fil0" points="2800,1200 1850,1200 1850,1350 2600,1350 2800,1200 2800,1200 "/>
  <polygon class="fil0" points="1800,1450 1800,850 1600,850 1600,1050 1200,1050 1200,1250 1600,1250 1600,1450 1800,1450 1800,1450 "/>
  <polygon class="fil0" points="800,1050 397,1050 397,1250 800,1250 "/>
  <polygon class="fil0" points="900,1250 1100,1250 1100,1050 900,1050 "/>
  <polygon class="fil0" points="2600,950 1850,950 1850,1100 2800,1100 "/>
  <polygon class="fil0" points="2250,1850 1500,1850 1500,2000 2450,2000 "/>
 </g>
</svg>
