<?xml version="1.0" encoding="UTF-8"?>
<!DOCTYPE svg PUBLIC "-//W3C//DTD SVG 1.1//EN" "http://www.w3.org/Graphics/SVG/1.1/DTD/svg11.dtd">
<!-- Creator: CorelDRAW X7 -->
<svg xmlns="http://www.w3.org/2000/svg" xml:space="preserve" width="32px" height="32px" version="1.1" style="shape-rendering:geometricPrecision; text-rendering:geometricPrecision; image-rendering:optimizeQuality; fill-rule:evenodd; clip-rule:evenodd"
viewBox="0 0 3200 3200"
 xmlns:xlink="http://www.w3.org/1999/xlink">
 <defs>
  <style type="text/css">
   <![CDATA[
    .fil0 {fill:black}
   ]]>
  </style>
 </defs>
 <g id="Camada_x0020_1">
  <metadata id="CorelCorpID_0Corel-Layer"/>
  <polygon class="fil0" points="1000,1600 1100,1900 1200,2000 1300,2000 1500,1900 1500,1700 1400,1500 1000,1600 1000,1600 1000,1600 "/>
  <polygon class="fil0" points="2200,2400 2100,2700 2000,2800 1900,2800 1700,2700 1700,2500 1800,2300 2200,2400 2200,2400 2200,2400 "/>
  <polygon class="fil0" points="1800,2200 1900,1600 2000,1400 2300,1200 2400,1300 2500,1500 2500,1700 2400,2000 2300,2200 2200,2300 1800,2200 1800,2200 "/>
  <polygon class="fil0" points="1400,1400 1300,800 1200,600 900,400 800,500 700,700 700,900 800,1200 900,1400 1000,1500 1400,1400 1400,1400 "/>
 </g>
</svg>
