<?xml version="1.0" encoding="UTF-8"?>
<!DOCTYPE svg PUBLIC "-//W3C//DTD SVG 1.1//EN" "http://www.w3.org/Graphics/SVG/1.1/DTD/svg11.dtd">
<!-- Creator: CorelDRAW X7 -->
<svg xmlns="http://www.w3.org/2000/svg" xml:space="preserve" width="32px" height="32px" version="1.1" style="shape-rendering:geometricPrecision; text-rendering:geometricPrecision; image-rendering:optimizeQuality; fill-rule:evenodd; clip-rule:evenodd"
viewBox="0 0 3200 3200"
 xmlns:xlink="http://www.w3.org/1999/xlink">
 <defs>
  <style type="text/css">
   <![CDATA[
    .fil0 {fill:black}
   ]]>
  </style>
 </defs>
 <g id="Camada_x0020_1">
  <metadata id="CorelCorpID_0Corel-Layer"/>
  <path class="fil0" d="M897 1594c248,0 449,212 449,461 0,248 -201,449 -449,449 -247,0 -449,-201 -449,-449 0,-249 201,-461 449,-461z"/>
  <path class="fil0" d="M2303 1594c247,0 449,212 449,461 0,248 -201,449 -449,449 -248,0 -449,-201 -449,-449 0,-249 201,-461 449,-461z"/>
  <path class="fil0" d="M1594 401c260,0 461,201 461,449 0,248 -201,449 -461,449 -248,0 -449,-201 -449,-449 0,-247 201,-449 449,-449z"/>
 </g>
</svg>
