<?xml version="1.0" encoding="UTF-8"?>
<!DOCTYPE svg PUBLIC "-//W3C//DTD SVG 1.1//EN" "http://www.w3.org/Graphics/SVG/1.1/DTD/svg11.dtd">
<!-- Creator: CorelDRAW X7 -->
<svg xmlns="http://www.w3.org/2000/svg" xml:space="preserve" width="32px" height="32px" version="1.1" style="shape-rendering:geometricPrecision; text-rendering:geometricPrecision; image-rendering:optimizeQuality; fill-rule:evenodd; clip-rule:evenodd"
viewBox="0 0 3200 3200"
 xmlns:xlink="http://www.w3.org/1999/xlink">
 <defs>
  <style type="text/css">
   <![CDATA[
    .fil0 {fill:black}
   ]]>
  </style>
 </defs>
 <g id="Camada_x0020_1">
  <metadata id="CorelCorpID_0Corel-Layer"/>
  <path class="fil0" d="M2500 2200l0 300 -250 -300 -850 0c-100,0 -200,-100 -200,-200l0 -150 650 0c95,0 200,-105 200,-200l0 -550 450 0c100,0 200,100 200,200l0 700c0,100 -100,200 -200,200l0 0z"/>
  <path class="fil0" d="M700 1800l0 400 250 -400 850 0c100,0 200,-100 200,-200l0 -700c0,-100 -100,-200 -200,-200l-1100 0c-100,0 -200,100 -200,200l0 700c0,100 100,200 200,200z"/>
 </g>
</svg>
