<?xml version="1.0" encoding="UTF-8"?>
<!DOCTYPE svg PUBLIC "-//W3C//DTD SVG 1.1//EN" "http://www.w3.org/Graphics/SVG/1.1/DTD/svg11.dtd">
<!-- Creator: CorelDRAW X7 -->
<svg xmlns="http://www.w3.org/2000/svg" xml:space="preserve" width="32px" height="32px" version="1.1" style="shape-rendering:geometricPrecision; text-rendering:geometricPrecision; image-rendering:optimizeQuality; fill-rule:evenodd; clip-rule:evenodd"
viewBox="0 0 3200 3200"
 xmlns:xlink="http://www.w3.org/1999/xlink">
 <defs>
  <style type="text/css">
   <![CDATA[
    .fil0 {fill:black}
   ]]>
  </style>
 </defs>
 <g id="Camada_x0020_1">
  <metadata id="CorelCorpID_0Corel-Layer"/>
  <polygon class="fil0" points="1650,1150 1825,1325 2450,700 2100,700 1650,1150 "/>
  <polygon class="fil0" points="700,2300 900,2500 1200,2200 1350,2350 1500,2200 1000,1700 850,1850 1000,2000 700,2300 "/>
  <polygon class="fil0" points="1325,1925 1500,2100 1550,2050 1375,1875 "/>
  <polygon class="fil0" points="1100,700 2075,1675 1900,1850 750,700 1100,700 "/>
  <polygon class="fil0" points="2500,2300 2300,2500 2000,2200 1850,2350 1700,2200 2200,1700 2350,1850 2196,1996 2500,2300 "/>
  <polygon class="fil0" points="1850,1900 1675,2075 700,1100 700,750 1850,1900 "/>
  <polygon class="fil0" points="2500,750 1875,1375 2050,1550 2500,1100 2500,750 "/>
  <polygon class="fil0" points="1150,1650 1100,1700 1275,1875 1325,1825 "/>
 </g>
</svg>
