<?xml version="1.0" encoding="UTF-8"?>
<!DOCTYPE svg PUBLIC "-//W3C//DTD SVG 1.1//EN" "http://www.w3.org/Graphics/SVG/1.1/DTD/svg11.dtd">
<!-- Creator: CorelDRAW X7 -->
<svg xmlns="http://www.w3.org/2000/svg" xml:space="preserve" width="32px" height="32px" version="1.1" style="shape-rendering:geometricPrecision; text-rendering:geometricPrecision; image-rendering:optimizeQuality; fill-rule:evenodd; clip-rule:evenodd"
viewBox="0 0 3200 3200"
 xmlns:xlink="http://www.w3.org/1999/xlink">
 <defs>
  <style type="text/css">
   <![CDATA[
    .fil0 {fill:black}
   ]]>
  </style>
 </defs>
 <g id="Camada_x0020_1">
  <metadata id="CorelCorpID_0Corel-Layer"/>
  <path class="fil0" d="M1600 1300c17,0 34,2 50,4l0 51c-17,-3 -33,-4 -50,-4l0 -51 0 0 0 0zm-525 -900c52,0 97,26 124,66 128,-43 263,-66 401,-66 448,0 901,256 1120,639l-173 102c82,138 135,296 149,466 60,19 104,76 104,143 0,73 -53,135 -123,147 -81,428 -380,861 -1077,903 -278,0 -526,-99 -716,-262 -18,8 -38,12 -59,12 -83,0 -150,-67 -150,-150 0,-26 7,-51 19,-73 -123,-179 -194,-395 -194,-627 0,-205 55,-396 152,-559l-171 -103c100,-177 258,-335 449,-449 -3,-13 -5,-26 -5,-39 0,-83 67,-150 150,-150zm149 165c-7,76 -71,135 -149,135 -32,0 -62,-10 -87,-28 -163,98 -285,229 -388,368l100 61 0 -33c16,-23 33,-45 50,-66l0 79c-8,12 -16,24 -25,36l275 167 0 -27c16,-20 33,-41 50,-60l0 75c-8,10 -14,20 -21,30l271 165 0 -17c15,-17 32,-34 50,-50l0 67c-6,7 -12,14 -17,20l237 145c9,-4 19,-7 30,-7 11,0 21,3 30,7l270 -165 0 -17 10 12 290 -177 0 -28 13 19 287 -174 0 -35 17 24 79 -49c-221,-342 -596,-542 -996,-542 -142,7 -266,30 -376,65zm-399 1685c83,0 150,67 150,150 0,25 -6,48 -17,69 172,146 394,231 642,231 564,-19 889,-390 977,-819 -46,-26 -77,-75 -77,-131 0,-64 40,-119 97,-140 -13,-155 -57,-285 -135,-417l-170 105c68,112 108,265 108,402 15,436 -377,816 -800,800 -430,9 -807,-364 -800,-800 0,-137 42,-292 110,-404l-170 -105c-92,156 -140,313 -140,509 9,211 71,402 174,559 16,-6 33,-9 51,-9zm1375 -904l-256 150c40,61 56,134 56,204 11,209 -187,406 -400,400 -225,0 -400,-175 -400,-400 0,-70 16,-143 55,-204l-255 -150c-63,104 -100,226 -100,354 -36,319 292,715 700,700 399,29 721,-367 700,-700 0,-128 -37,-250 -100,-354l0 0zm-342 200l-194 116c7,11 11,24 11,38 0,42 -33,75 -75,75 -41,0 -75,-33 -75,-75 0,-14 4,-27 11,-38l-194 -114c-27,52 -42,91 -42,152 -7,159 144,308 300,300 171,9 321,-166 300,-300 0,-61 -8,-101 -42,-154zm-258 -596c17,0 33,0 50,2l0 50c-16,-1 -33,-2 -50,-2l0 0 0 -50 0 0 0 0zm100 7c17,3 34,6 50,9l0 51c-16,-4 -33,-7 -50,-9l0 -51zm100 21c17,6 34,11 49,17l0 53c-15,-6 -32,-12 -49,-17l0 -53zm100 38c17,7 34,16 50,24l0 57c-16,-10 -33,-19 -50,-27l0 -54zm99 54c18,11 34,23 51,36l0 62c-17,-14 -33,-27 -51,-38l0 -60zm101 77c17,16 34,33 49,50l0 75c-15,-19 -31,-39 -49,-57l0 -68 0 0zm-1000 0c16,-14 32,-28 50,-42l0 64c-18,15 -34,30 -50,47l0 -69zm100 -77c16,-10 33,-20 50,-30l0 57c-17,10 -34,21 -50,33l0 -60zm100 -54c16,-8 33,-14 50,-21l0 53c-17,7 -34,14 -50,22l0 -54zm100 -38c17,-4 33,-9 50,-12l0 51c-17,4 -33,8 -50,14l0 -53zm100 -21c16,-2 33,-4 50,-5l0 50c-17,1 -34,3 -50,6l0 -51zm100 -357c17,0 34,1 50,1l0 50c-17,-1 -33,-1 -50,-1l0 0 0 -50 0 0zm100 5c17,1 33,3 50,5l0 51c-17,-3 -33,-5 -50,-7l0 -49 0 0zm100 13c17,3 34,6 49,10l0 52c-15,-4 -32,-8 -49,-11l0 -51zm100 23c17,5 34,11 50,16l0 52c-16,-6 -33,-11 -50,-16l0 -52zm99 34c17,7 34,13 51,21l0 54c-17,-8 -34,-15 -51,-22l0 -53zm101 45c17,9 34,18 49,27l0 57c-15,-10 -32,-19 -49,-29l0 -56 0 1zm100 58c17,11 34,22 50,34l0 61c-16,-13 -33,-24 -50,-37l0 -58zm99 73c18,14 35,29 51,44l0 68c-16,-17 -33,-32 -51,-47l0 -65 0 0zm101 94c17,18 34,37 49,56l0 80c-15,-22 -32,-43 -49,-63l0 -73zm-1600 0c16,-17 32,-33 50,-49l0 67c-18,18 -34,36 -50,55l0 -73zm100 -94c16,-13 33,-26 50,-38l0 60c-17,14 -34,28 -50,43l0 -65zm100 -73c17,-11 33,-21 50,-31l0 57c-17,11 -34,22 -50,33l0 -59zm100 -58c17,-8 33,-17 50,-24l0 54c-17,8 -33,17 -50,26l0 -56zm100 -45c16,-6 33,-12 50,-18l0 53c-17,5 -34,11 -50,18l0 -53 0 0zm100 -34c17,-4 33,-8 50,-13l0 52c-17,4 -33,8 -50,13l0 -52zm100 -23c17,-3 33,-5 50,-7l0 50c-17,2 -33,5 -50,8l0 -51zm100 -13c16,-2 33,-3 50,-4l0 50c-17,1 -34,2 -50,3l0 -49zm200 710c17,6 34,13 50,20l0 55c-16,-9 -33,-15 -50,-22l0 -53zm100 47c17,11 34,24 49,38l0 67c-15,-16 -31,-31 -49,-45l0 -60zm-400 1c16,-10 33,-20 50,-28l0 55c-17,10 -34,21 -50,32l0 -59 0 0zm100 -48c16,-5 33,-9 50,-11l0 51c-17,3 -34,7 -50,13l0 -53 0 0z"/>
 </g>
</svg>
