<?xml version="1.0" encoding="UTF-8"?>
<!DOCTYPE svg PUBLIC "-//W3C//DTD SVG 1.1//EN" "http://www.w3.org/Graphics/SVG/1.1/DTD/svg11.dtd">
<!-- Creator: CorelDRAW X7 -->
<svg xmlns="http://www.w3.org/2000/svg" xml:space="preserve" width="32px" height="32px" version="1.1" style="shape-rendering:geometricPrecision; text-rendering:geometricPrecision; image-rendering:optimizeQuality; fill-rule:evenodd; clip-rule:evenodd"
viewBox="0 0 3200 3200"
 xmlns:xlink="http://www.w3.org/1999/xlink">
 <defs>
  <style type="text/css">
   <![CDATA[
    .fil0 {fill:black}
   ]]>
  </style>
 </defs>
 <g id="Camada_x0020_1">
  <metadata id="CorelCorpID_0Corel-Layer"/>
  <polygon class="fil0" points="400,2200 500,1800 900,1700 900,1600 800,1500 775,1125 900,1000 1100,1000 1225,1125 1200,1500 1100,1600 1100,1700 1200,1750 950,1850 850,2200 "/>
  <polygon class="fil0" points="900,2300 1000,1900 1500,1700 1500,1600 1350,1400 1350,1050 1500,900 1700,900 1850,1050 1850,1400 1700,1600 1700,1700 2200,1900 2300,2300 "/>
  <polygon class="fil0" points="2800,2200 2700,1800 2300,1700 2300,1600 2400,1500 2425,1125 2300,1000 2100,1000 1975,1125 2000,1500 2100,1600 2100,1700 2000,1750 2250,1850 2350,2200 "/>
 </g>
</svg>
