<?xml version="1.0" encoding="UTF-8"?>
<!DOCTYPE svg PUBLIC "-//W3C//DTD SVG 1.1//EN" "http://www.w3.org/Graphics/SVG/1.1/DTD/svg11.dtd">
<!-- Creator: CorelDRAW X7 -->
<svg xmlns="http://www.w3.org/2000/svg" xml:space="preserve" width="32px" height="32px" version="1.1" style="shape-rendering:geometricPrecision; text-rendering:geometricPrecision; image-rendering:optimizeQuality; fill-rule:evenodd; clip-rule:evenodd"
viewBox="0 0 3200 3200"
 xmlns:xlink="http://www.w3.org/1999/xlink">
 <defs>
  <style type="text/css">
   <![CDATA[
    .fil0 {fill:black}
   ]]>
  </style>
 </defs>
 <g id="Camada_x0020_1">
  <metadata id="CorelCorpID_0Corel-Layer"/>
  <path class="fil0" d="M1795 1098l508 401 -709 0 0 202 709 0 -508 401 0 201 201 0 708 -709 -708 -696 -201 0 0 200 0 0 0 0zm-590 603l294 0 0 -202 -294 0 0 202zm1192 803c0,94 -94,200 -200,200l-1193 0c-107,0 -201,-106 -201,-200l0 -1807c0,-94 94,-201 201,-201l1193 0c106,0 200,107 200,201l0 295 -200 -189 0 -106 -1193 0 0 1807 1193 0 0 -95 200 -213 0 308 0 0 0 0z"/>
 </g>
</svg>
