<?xml version="1.0" encoding="UTF-8"?>
<!DOCTYPE svg PUBLIC "-//W3C//DTD SVG 1.1//EN" "http://www.w3.org/Graphics/SVG/1.1/DTD/svg11.dtd">
<!-- Creator: CorelDRAW X7 -->
<svg xmlns="http://www.w3.org/2000/svg" xml:space="preserve" width="32px" height="32px" version="1.1" style="shape-rendering:geometricPrecision; text-rendering:geometricPrecision; image-rendering:optimizeQuality; fill-rule:evenodd; clip-rule:evenodd"
viewBox="0 0 3200 3200"
 xmlns:xlink="http://www.w3.org/1999/xlink">
 <defs>
  <style type="text/css">
   <![CDATA[
    .fil0 {fill:black}
   ]]>
  </style>
 </defs>
 <g id="Camada_x0020_1">
  <metadata id="CorelCorpID_0Corel-Layer"/>
  <polygon class="fil0" points="2356,1296 2331,1130 2189,1130 2177,976 2320,976 2296,832 2153,832 2141,699 2415,699 2510,1296 2355,1296 "/>
  <polygon class="fil0" points="2034,976 1892,976 1879,832 1594,832 1594,699 2010,699 2034,976 2034,976 "/>
  <polygon class="fil0" points="1594,1844 1761,1844 1761,1475 2224,1475 2201,1296 2058,1296 2046,1130 1892,1130 1903,1296 1594,1296 1594,1558 1594,1844 1594,1844 1594,1844 "/>
  <polygon class="fil0" points="1451,976 1737,976 1748,1130 1451,1130 1451,1297 1296,1297 1308,1130 1011,1130 1023,976 1308,976 1320,832 1249,832 1261,699 1463,699 1451,976 1451,976 1451,976 "/>
  <polygon class="fil0" points="1107,1844 939,1844 892,2272 547,2272 508,2500 1056,2500 1083,2165 "/>
  <polygon class="fil0" points="2451,2058 2427,1844 2260,1844 2237,1654 2403,1654 2379,1475 2534,1475 2686,2500 2507,2500 2475,2272 2130,2272 2138,2500 1960,2500 1951,2272 1772,2272 1781,2500 1234,2500 1249,2272 1594,2272 1594,2058 1939,2058 1915,1654 2081,1654 2106,2058 2451,2058 "/>
  <polygon class="fil0" points="749,2058 797,1654 1285,1654 1261,2058 1428,2058 1439,1749 1439,1475 1130,1475 1142,1296 999,1296 976,1475 678,1475 642,1749 583,2058 749,2058 "/>
  <polygon class="fil0" points="785,699 1118,699 1107,832 904,832 868,1058 844,1296 690,1296 785,699 "/>
 </g>
</svg>
