<?xml version="1.0" encoding="UTF-8"?>
<!DOCTYPE svg PUBLIC "-//W3C//DTD SVG 1.1//EN" "http://www.w3.org/Graphics/SVG/1.1/DTD/svg11.dtd">
<!-- Creator: CorelDRAW X7 -->
<svg xmlns="http://www.w3.org/2000/svg" xml:space="preserve" width="32px" height="32px" version="1.1" style="shape-rendering:geometricPrecision; text-rendering:geometricPrecision; image-rendering:optimizeQuality; fill-rule:evenodd; clip-rule:evenodd"
viewBox="0 0 3200 3200"
 xmlns:xlink="http://www.w3.org/1999/xlink">
 <defs>
  <style type="text/css">
   <![CDATA[
    .fil0 {fill:black}
   ]]>
  </style>
 </defs>
 <g id="Camada_x0020_1">
  <metadata id="CorelCorpID_0Corel-Layer"/>
  <path class="fil0" d="M1100 800c-100,0 -200,100 -200,200l450 450 500 0 450 -450c0,-100 -100,-200 -200,-200l-1000 0 0 0zm700 -400c100,0 200,100 200,200l0 100 -200 0 0 -100 -400 0 0 100 -200 0 0 -100c0,-100 100,-200 200,-200l400 0zm100 1200l426 -431 174 1231c0,100 -100,200 -200,200l-1400 0c-100,0 -200,-100 -200,-200l174 -1231 426 431 600 0 0 0zm-450 200l-99 100 99 100 300 0 100 -100 -100 -100 -300 0z"/>
 </g>
</svg>
