<?xml version="1.0" encoding="UTF-8"?>
<!DOCTYPE svg PUBLIC "-//W3C//DTD SVG 1.1//EN" "http://www.w3.org/Graphics/SVG/1.1/DTD/svg11.dtd">
<!-- Creator: CorelDRAW X7 -->
<svg xmlns="http://www.w3.org/2000/svg" xml:space="preserve" width="32px" height="32px" version="1.1" style="shape-rendering:geometricPrecision; text-rendering:geometricPrecision; image-rendering:optimizeQuality; fill-rule:evenodd; clip-rule:evenodd"
viewBox="0 0 3200 3200"
 xmlns:xlink="http://www.w3.org/1999/xlink">
 <defs>
  <style type="text/css">
   <![CDATA[
    .fil0 {fill:black}
   ]]>
  </style>
 </defs>
 <g id="Camada_x0020_1">
  <metadata id="CorelCorpID_0Corel-Layer"/>
  <path class="fil0" d="M797 2492c-244,-220 -397,-538 -397,-892 0,-384 180,-725 460,-945l41 64c-260,206 -426,524 -426,881 0,327 139,621 362,827l-40 65 0 0z"/>
  <path class="fil0" d="M2340 655c280,220 460,561 460,945 0,354 -153,672 -397,892l-40 -66c223,-205 362,-499 362,-826 0,-357 -166,-675 -426,-881l41 -64 0 0z"/>
  <path class="fil0" d="M959 2231c-161,-163 -259,-385 -259,-631 0,-276 124,-523 320,-688l56 90c-167,145 -272,360 -272,598 0,208 80,397 211,539l-56 92 0 0z"/>
  <path class="fil0" d="M2180 912c196,165 320,412 320,688 0,246 -98,468 -259,631l-56 -92c131,-142 211,-331 211,-539 0,-238 -105,-453 -272,-598l56 -90 0 0z"/>
  <path class="fil0" d="M1124 1965c-78,-101 -124,-228 -124,-365 0,-169 70,-321 181,-429l54 87c-83,89 -135,210 -135,342 0,101 30,194 81,272l-57 93z"/>
  <path class="fil0" d="M2019 1171c111,108 181,260 181,429 0,137 -46,264 -124,365l-57 -93c51,-78 81,-171 81,-272 0,-132 -52,-253 -135,-342l54 -87z"/>
  <path class="fil0" d="M1495 1770l-594 955 358 0 139 -225 404 0 139 225 358 0 -594 -955c57,-35 95,-98 95,-170 0,-111 -90,-200 -200,-200 -111,0 -200,89 -200,200 0,72 38,135 95,170l0 0z"/>
 </g>
</svg>
