<?xml version="1.0" encoding="UTF-8"?>
<!DOCTYPE svg PUBLIC "-//W3C//DTD SVG 1.1//EN" "http://www.w3.org/Graphics/SVG/1.1/DTD/svg11.dtd">
<!-- Creator: CorelDRAW X7 -->
<svg xmlns="http://www.w3.org/2000/svg" xml:space="preserve" width="32px" height="32px" version="1.1" style="shape-rendering:geometricPrecision; text-rendering:geometricPrecision; image-rendering:optimizeQuality; fill-rule:evenodd; clip-rule:evenodd"
viewBox="0 0 3200 3200"
 xmlns:xlink="http://www.w3.org/1999/xlink">
 <defs>
  <style type="text/css">
   <![CDATA[
    .fil0 {fill:black}
   ]]>
  </style>
 </defs>
 <g id="Camada_x0020_1">
  <metadata id="CorelCorpID_0Corel-Layer"/>
  <g id="_939885184">
   <g id="_939906688">
    <path class="fil0" d="M2507 894l0 1910 -913 -404 -901 404 0 -2408 1814 0 0 404 -1613 0 1613 94 0 0zm-510 606l-297 0 0 -298 -201 0 0 298 -296 0 0 200 296 0 0 297 201 0 0 -297 297 0 0 -200z"/>
    <polygon class="fil0" points="396,492 396,693 598,693 598,492 "/>
    <polygon class="fil0" points="2602,492 2602,693 2804,693 2804,492 "/>
   </g>
  </g>
 </g>
</svg>
