<?xml version="1.0" encoding="UTF-8"?>
<!DOCTYPE svg PUBLIC "-//W3C//DTD SVG 1.1//EN" "http://www.w3.org/Graphics/SVG/1.1/DTD/svg11.dtd">
<!-- Creator: CorelDRAW X7 -->
<svg xmlns="http://www.w3.org/2000/svg" xml:space="preserve" width="32px" height="32px" version="1.1" style="shape-rendering:geometricPrecision; text-rendering:geometricPrecision; image-rendering:optimizeQuality; fill-rule:evenodd; clip-rule:evenodd"
viewBox="0 0 3200 3200"
 xmlns:xlink="http://www.w3.org/1999/xlink">
 <defs>
  <style type="text/css">
   <![CDATA[
    .fil0 {fill:black}
   ]]>
  </style>
 </defs>
 <g id="Camada_x0020_1">
  <metadata id="CorelCorpID_0Corel-Layer"/>
  <path class="fil0" d="M2799 621l-95 -95 -307 95 0 201 -697 708 -295 0 -106 95 -803 802 -94 201 94 201 201 94 200 -94 898 -909 0 -296 708 -696 201 0 94 -307 1 0zm-2397 508l0 -307 200 212 295 -12 12 -295 -212 -201 307 0 200 201 0 295 -59 48 355 354 -201 0 -106 94 -248 -248 -48 59 -295 0 -200 -200 0 0zm1393 991l106 -94 0 -201 317 329c71,-35 120,-34 179,-34 201,0 403,130 402,402 -2,272 -199,403 -402,401 -203,-1 -401,-200 -401,-401 0,-59 1,-105 36,-176l-237 -226zm602 201c-103,0 -201,79 -201,201 0,122 98,201 201,201 103,0 201,-79 201,-201 0,-122 -98,-201 -201,-201z"/>
 </g>
</svg>
