<?xml version="1.0" encoding="UTF-8"?>
<!DOCTYPE svg PUBLIC "-//W3C//DTD SVG 1.1//EN" "http://www.w3.org/Graphics/SVG/1.1/DTD/svg11.dtd">
<!-- Creator: CorelDRAW X7 -->
<svg xmlns="http://www.w3.org/2000/svg" xml:space="preserve" width="32px" height="32px" version="1.1" style="shape-rendering:geometricPrecision; text-rendering:geometricPrecision; image-rendering:optimizeQuality; fill-rule:evenodd; clip-rule:evenodd"
viewBox="0 0 3200 3200"
 xmlns:xlink="http://www.w3.org/1999/xlink">
 <defs>
  <style type="text/css">
   <![CDATA[
    .fil0 {fill:black}
   ]]>
  </style>
 </defs>
 <g id="Camada_x0020_1">
  <metadata id="CorelCorpID_0Corel-Layer"/>
  <path class="fil0" d="M1200 0l-133 0 0 133 -267 0 -600 400 -200 467 400 400 200 -67 267 400 66 467 -133 733 0 267 800 -66 800 66 0 -267 -133 -733 66 -467 267 -400 200 67 400 -400 -200 -467 -600 -400 -267 0 0 -133 -133 0 -67 133 -333 134 -333 -134 -67 -133 0 0zm400 733l-467 -133 0 400 -333 333 -67 -66 334 -334 0 -666 66 0 0 266 467 134 467 -134 0 -266 66 0 0 666 334 334 -67 66 -333 -333 0 -400 -467 133zm0 1934l-67 -400 -333 -67 333 -67 67 -333 67 333 333 67 -333 67 -67 400zm0 -1334l-267 67 -266 133 533 -66 533 66 -266 -133 -267 -67 0 0z"/>
 </g>
</svg>
