<?xml version="1.0" encoding="UTF-8"?>
<!DOCTYPE svg PUBLIC "-//W3C//DTD SVG 1.1//EN" "http://www.w3.org/Graphics/SVG/1.1/DTD/svg11.dtd">
<!-- Creator: CorelDRAW X7 -->
<svg xmlns="http://www.w3.org/2000/svg" xml:space="preserve" width="32px" height="32px" version="1.1" style="shape-rendering:geometricPrecision; text-rendering:geometricPrecision; image-rendering:optimizeQuality; fill-rule:evenodd; clip-rule:evenodd"
viewBox="0 0 3200 3200"
 xmlns:xlink="http://www.w3.org/1999/xlink">
 <defs>
  <style type="text/css">
   <![CDATA[
    .fil1 {fill:black}
    .fil0 {fill:black}
   ]]>
  </style>
 </defs>
 <g id="Camada_x0020_1">
  <metadata id="CorelCorpID_0Corel-Layer"/>
  <path class="fil0" d="M1600 0c884,0 1600,716 1600,1600 0,884 -716,1600 -1600,1600 -884,0 -1600,-716 -1600,-1600 0,-884 716,-1600 1600,-1600zm0 100c828,0 1500,672 1500,1500 0,828 -672,1500 -1500,1500 -828,0 -1500,-672 -1500,-1500 0,-828 672,-1500 1500,-1500z"/>
  <path class="fil1" d="M1600 300c718,0 1300,582 1300,1300 0,718 -582,1300 -1300,1300 -718,0 -1300,-582 -1300,-1300 0,-718 582,-1300 1300,-1300zm-406 1869l81 -244 81 -81 249 -86 158 -77 0 -81 -143 -183 -20 -386 163 -162 243 0 163 162 -20 386 -143 183 0 81 163 82 325 81 81 325 -1381 0 0 0zm-488 -325l325 -81 81 -41 0 -122 -121 -163 -21 -304 142 -183 244 0 142 183 -20 304 -122 163 0 122 -81 41 -81 81 -78 325 -491 0 81 -325z"/>
 </g>
</svg>
