<?xml version="1.0" encoding="UTF-8"?>
<!DOCTYPE svg PUBLIC "-//W3C//DTD SVG 1.1//EN" "http://www.w3.org/Graphics/SVG/1.1/DTD/svg11.dtd">
<!-- Creator: CorelDRAW X7 -->
<svg xmlns="http://www.w3.org/2000/svg" xml:space="preserve" width="32px" height="32px" version="1.1" style="shape-rendering:geometricPrecision; text-rendering:geometricPrecision; image-rendering:optimizeQuality; fill-rule:evenodd; clip-rule:evenodd"
viewBox="0 0 3200 3200"
 xmlns:xlink="http://www.w3.org/1999/xlink">
 <defs>
  <style type="text/css">
   <![CDATA[
    .fil1 {fill:black}
    .fil0 {fill:black}
   ]]>
  </style>
 </defs>
 <g id="Camada_x0020_1">
  <metadata id="CorelCorpID_0Corel-Layer"/>
  <path class="fil0" d="M1600 0c884,0 1600,716 1600,1600 0,884 -716,1600 -1600,1600 -884,0 -1600,-716 -1600,-1600 0,-884 716,-1600 1600,-1600zm0 100c828,0 1500,672 1500,1500 0,828 -672,1500 -1500,1500 -828,0 -1500,-672 -1500,-1500 0,-828 672,-1500 1500,-1500z"/>
  <path class="fil1" d="M1590 290c712,0 1310,586 1310,1310 0,724 -598,1310 -1310,1310 -713,0 -1290,-586 -1290,-1310 0,-724 577,-1310 1290,-1310zm20 724c26,0 53,1 78,5l95 -195 258 107 -73 205c41,31 77,68 108,108l207 -71 105 259 -196 93c3,24 5,50 5,75 0,26 -2,52 -5,78l195 96 -108 258 -204 -74c-32,41 -68,77 -109,108l71 206 -259 106 -92 -196c-25,3 -50,4 -76,4 -26,0 -52,-1 -78,-4l-95 195 -258 -108 73 -205c-40,-31 -77,-68 -108,-108l-206 71 -106 -259 197 -93c-4,-24 -5,-50 -5,-75 0,-26 1,-52 5,-78l-196 -95 108 -258 205 73c31,-41 68,-77 108,-108l-70 -206 258 -106 93 197c24,-4 50,-5 75,-5l0 0zm0 377c117,0 210,93 210,209 0,116 -93,209 -210,209 -115,0 -209,-93 -209,-209 0,-116 94,-209 209,-209z"/>
 </g>
</svg>
