<?xml version="1.0" encoding="UTF-8"?>
<!DOCTYPE svg PUBLIC "-//W3C//DTD SVG 1.1//EN" "http://www.w3.org/Graphics/SVG/1.1/DTD/svg11.dtd">
<!-- Creator: CorelDRAW X7 -->
<svg xmlns="http://www.w3.org/2000/svg" xml:space="preserve" width="32px" height="32px" version="1.1" style="shape-rendering:geometricPrecision; text-rendering:geometricPrecision; image-rendering:optimizeQuality; fill-rule:evenodd; clip-rule:evenodd"
viewBox="0 0 3200 3200"
 xmlns:xlink="http://www.w3.org/1999/xlink">
 <defs>
  <style type="text/css">
   <![CDATA[
    .fil1 {fill:black}
    .fil0 {fill:black}
   ]]>
  </style>
 </defs>
 <g id="Camada_x0020_1">
  <metadata id="CorelCorpID_0Corel-Layer"/>
  <path class="fil0" d="M1600 0c884,0 1600,716 1600,1600 0,884 -716,1600 -1600,1600 -884,0 -1600,-716 -1600,-1600 0,-884 716,-1600 1600,-1600zm0 100c828,0 1500,672 1500,1500 0,828 -672,1500 -1500,1500 -828,0 -1500,-672 -1500,-1500 0,-828 672,-1500 1500,-1500z"/>
  <path class="fil1" d="M1595 300c720,0 1305,585 1305,1295 0,720 -585,1305 -1305,1305 -710,0 -1295,-585 -1295,-1305 0,-710 585,-1295 1295,-1295zm20 818c188,0 338,163 325,350 -13,207 -164,494 -299,757l421 0 285 193 -1463 0 285 -193 420 0c-146,-285 -295,-580 -299,-782 0,-179 146,-325 325,-325l0 0zm0 214c68,0 122,54 122,121 0,67 -54,122 -122,122 -67,0 -121,-55 -121,-122 0,-67 54,-121 121,-121z"/>
 </g>
</svg>
