<?xml version="1.0" standalone="no"?>
<!DOCTYPE svg PUBLIC "-//W3C//DTD SVG 1.1//EN" "http://www.w3.org/Graphics/SVG/1.1/DTD/svg11.dtd" >
<svg xmlns="http://www.w3.org/2000/svg">
<metadata>
<json>
<![CDATA[
{
	"fontFamily": "sao-glyphs",
	"majorVersion": 1,
	"minorVersion": 3,
	"fontURL": "http://www.sampleppp.xyz/sao-gliph/",
	"description": "Glyphicons based on Sword Art Online Anime\nFont generated by IcoMoon.",
	"designer": "Hil Zapf",
	"version": "Version 1.3",
	"fontId": "sao-glyphs",
	"psName": "sao-glyphs",
	"subFamily": "Regular",
	"fullName": "sao-glyphs"
}
]]>
</json>
</metadata>
<defs>
<font id="sao-glyphs" horiz-adv-x="1024">
<font-face units-per-em="1024" ascent="960" descent="-64" />
<missing-glyph horiz-adv-x="1024" />
<glyph unicode="&#x20;" horiz-adv-x="512" d="" />
<glyph unicode="&#xe900;" glyph-name="btn-alert" data-tags="btn-alert" d="M512 960c-282.72 0-512-229.28-512-512s229.28-512 512-512c282.72 0 512 229.28 512 512s-229.28 512-512 512zM832 241.44h-674.88l354.88 542.56 15.84-24.16 339.040-518.4h-34.88zM488 312.96v48h48v-48h-48zM488 616.8h48v-224h-48v224zM226.88 279.2h570.24l-285.12 435.84-285.12-435.84z" />
<glyph unicode="&#xe901;" glyph-name="btn-armor" data-tags="btn-armor" d="M512 960c282.72 0 512-229.28 512-512s-229.28-512-512-512c-282.72 0-512 229.28-512 512s229.28 512 512 512zM416 832h-32v-32h-64l-144-96-48-112 96-96 48 16 64-96 16-112-32-176v-64l192 16 192-16v64l-32 176 16 112 64 96 48-16 96 96-48 112-144 96h-64v32h-32l-16-32-80-32-80 32-16 32zM512 656l-112 32v-96l-80-80-16 16 80 80v160h16v-64l112-32 112 32v64h16v-160l80-80-16-16-80 80v96l-112-32zM512 192l-16 96-80 16 80 16 16 80 16-80 80-16-80-16-16-96zM512 512l-64-16-64-32 128 16 128-16-64 32-64 16z" />
<glyph unicode="&#xe902;" glyph-name="btn-avatar" data-tags="btn-avatar" d="M513.92 960c-283.52 0-513.92-230.4-513.92-510.080 0-283.52 230.4-513.92 513.92-513.92 279.68 0 510.080 230.4 510.080 513.92 0 279.68-230.4 510.080-510.080 510.080zM160 192l32 128 32 32 144 32 80 32v64l-64 96v160l64 96h128l64-96v-160l-64-96v-64l80-32 144-32 32-32 32-128h-704z" />
<glyph unicode="&#xe903;" glyph-name="btn-battle-healing" data-tags="btn-battle-healing" d="M510.080 960c283.52 0 513.92-230.4 513.92-510.080 0-283.52-230.4-513.92-513.92-513.92-279.68 0-510.080 230.4-510.080 513.92 0 279.68 230.4 510.080 510.080 510.080zM385.44 87.2v48.96c-60.48 41.6-98.24 109.6-98.24 185.28 0 7.52 0 18.88 3.84 26.4l-22.72 45.28c-7.52-22.56-11.36-48.96-11.36-71.68 0-64.32 22.72-120.96 56.64-166.24-90.72 64.16-154.88 170.080-154.88 294.72 0 45.28 11.36 90.72 26.4 132.16l-22.56 22.72c-22.72-45.28-34.080-101.92-34.080-154.88 0-170.080 105.76-309.92 256.96-362.72zM608 128l16 64 48-128 30.88 0.48v64.16l-30.24 158.72-128.64 32.64v32l32 32v96l-32 32h-64l-32-32v-96l31.84-32.32 0.16-31.68h-64l-64 96-34.56 192.48 34.080 30.24 415.68 128.48 33.92 64.32h-64.16l-449.6-158.72-31.36-32.8-56-40 16-16 40 24 31.36 0.48 0.64-192.48 97.6-192.8 30.24-64.32v-94.4h192.64l-0.48 63.52zM510.080 574.56c-52.96 0-101.92-15.040-143.52-45.28l3.68-34.080c37.92 30.24 86.88 49.12 139.84 49.12 124.64 0 226.72-101.92 226.72-222.88 0-37.76-7.52-71.84-22.72-102.080l11.36-41.6c26.56 37.92 41.6 90.72 41.6 143.68 0 139.84-113.28 253.12-256.96 253.12zM510.080 831.52v0c-151.2 0-283.36-90.72-347.68-219.2l71.84 49.12c64.32 83.2 162.56 139.84 275.84 139.84 15.040 0 26.4-3.84 41.6-3.84l60.48 22.72c-34.080 7.52-68 11.36-102.080 11.36zM763.2 737.12l-33.92-11.36c79.36-64.32 136-166.24 136-275.84 0-117.12-56.64-215.36-139.84-279.68l7.52-33.92c98.4 68 162.56 181.28 162.56 313.6 0 113.28-49.12 215.36-132.32 287.2z" />
<glyph unicode="&#xe904;" glyph-name="btn-before" data-tags="btn-before" d="M512 960c282.72 0 512-229.28 512-512s-229.28-512-512-512c-282.72 0-512 229.28-512 512s229.28 512 512 512zM256 449.12v-241.12c0-17.6 14.4-32 32-32v0c17.6 0 32 14.4 32 32v176.16l240.16-160.16c11.68-7.84 64-48 80-48s32 10.080 32.16 33.76v476.32c0 24.64-16.16 33.92-32.16 33.92s-66.56-39.2-79.36-47.84l-240.8-160.32v176.16c0 17.6-14.4 32-32 32v0c-17.6 0-32-14.4-32-32v-238.88z" />
<glyph unicode="&#xe905;" glyph-name="btn-belt" data-tags="btn-belt" d="M512 960c-282.72 0-512-229.28-512-512s229.28-512 512-512c282.72 0 512 229.28 512 512s-229.28 512-512 512zM832 485.28c0-36.48 0-43.84 0-72.8-0.16-53.6-86.72-87.36-196.64-101.28-0.96-21.76-19.040-39.2-41.12-39.2h-164.48c-22.24 0-40.48 17.76-41.12 39.84l-7.84 1.12c-34.080-12.8-66.72-27.84-98.4-51.040-18.080-13.12-42.4 3.68-48 24v0c-5.6 20.48 10.88 35.52 27.68 50.24l4.8 4c-45.76 17.76-74.88 41.76-74.88 72.32 0 28.96 0 36.32 0 72.8 0 56.96 161.28 90.24 320 90.72 161.12 0.48 320-32.8 320-90.72zM578.24 368c7.52 0 13.76-6.24 13.76-13.76v-20.48c0-7.52-6.24-13.76-13.76-13.76h-132.48c-7.52 0-13.76 6.24-13.76 13.76v20.48c0 7.52 6.24 13.76 13.76 13.76h132.48zM631.2 392.96c78.4 12.32 143.040 35.84 168.16 63.040-18.88 43.68-152.16 72.32-287.36 72-133.28-0.32-268.8-28.96-287.36-72 24.48-26.56 90.24-49.92 168.48-62.4 6.88 13.28 20.64 22.4 36.64 22.4h164.48c16.32 0 30.24-9.44 36.96-23.040zM585.12 384h-146.24c-12.64 0-22.88-10.24-22.88-22.88v-34.24c0-12.64 10.24-22.88 22.88-22.88h146.24c12.64 0 22.88 10.24 22.88 22.88v34.24c0 12.64-10.24 22.88-22.88 22.88z" />
<glyph unicode="&#xe906;" glyph-name="btn-blade" data-tags="btn-blade" d="M513.92 960c279.68 0 510.080-230.4 510.080-510.080 0-283.52-230.4-513.92-510.080-513.92-283.52 0-513.92 230.4-513.92 513.92 0 279.68 230.4 510.080 513.92 510.080zM528 832v-560h64v464l-64 96zM464 64h96v160h64v32h-224v-32h64v-160zM432 736v-464h64v560l-64-96z" />
<glyph unicode="&#xe907;" glyph-name="btn-blade-dual" data-tags="btn-blade-dual" d="M513.92 960c-283.52 0-513.92-230.4-513.92-510.080 0-283.52 230.4-513.92 513.92-513.92 279.68 0 510.080 230.4 510.080 513.92 0 279.68-230.4 510.080-510.080 510.080zM368 432l56-56-16-16-56 56 16 16zM800 720v-112l-144-144-56 56 200 200zM592 352l-56-56-312 312v112l368-368zM800 224l-64-64-96 96-48-48-48 48 160 160 48-48-49.12-46.56 97.12-97.44zM352 736l312-312-56-56-368 368h112zM424 344l16 16 56-56-16-16-56 56zM224 224l96 96-48 48 48 48 160-160-48-48-48 48-96-96-64 64zM528 592l144 144h112l-200-200-56 56z" />
<glyph unicode="&#xe908;" glyph-name="btn-blade-parrying" data-tags="btn-blade-parrying" d="M512 960c-282.72 0-512-229.28-512-512s229.28-512 512-512c282.72 0 512 229.28 512 512s-229.28 512-512 512zM720 608l144-64-160-32 16-128-320 320 144-16 48 144 48-144 176 80-96-160zM192 736l144-16 352-368-56-56-440 440zM176 720l440-440-64-64-360 360-16 144zM768 80l-112 112-64-64-48 48 192 192 48-48-64-64 112-112v-16l-48-48h-16zM720 688l-48-80 112-48-112-16v-64l-176 176 64-16 32 112 32-112 96 48z" />
<glyph unicode="&#xe909;" glyph-name="btn-blade-throwing" data-tags="btn-blade-throwing" d="M512 960c288 0 512-224 512-512s-224-512-512-512c-224 0-416 144-480 336h112v64h-128c-16 32-16 80-16 112s0 80 16 112h64v64h-48c64 192 256 336 480 336v0zM720 368h-240v-48h304l-64 48zM832 656h-240v-48h304l-64 48zM288 560h64v64h-64v-64zM256 624h-144v-64h144v64zM576 496v192h-64v-64h-128v-64h128v-64h64zM896 576h-304v-48h240l64 48zM176 272h64v64h-64v-64zM464 208v192h-64v-64h-128v-64h128v-64h64zM784 288h-304v-48h240l64 48z" />
<glyph unicode="&#xe90a;" glyph-name="btn-brightness" data-tags="btn-brightness" d="M512 960c-282.88 0-512-229.12-512-512s229.12-512 512-512c282.88 0 512 229.12 512 512s-229.12 512-512 512zM755.2 238.72l-33.92-33.92-125.92 125.76c13.12 9.44 24.64 20.8 34.080 33.92l125.76-125.76zM512 560c61.92 0 112-50.080 112-112s-50.080-112-112-112c-61.92 0-112 50.080-112 112s50.080 112 112 112zM512 368v160c-44.16 0-80-35.84-80-80s35.84-80 80-80zM536 306.080v-178.080h-48v178.080c7.84-1.44 15.84-2.080 24-2.080s16.16 0.64 24 2.080zM428.64 330.56l-125.92-125.76-33.92 33.92 125.76 125.76c9.44-13.12 20.96-24.48 34.080-33.92zM370.080 424h-178.080v48h178.080c-1.44-7.84-2.080-15.84-2.080-24s0.64-16.16 2.080-24zM394.56 531.36l-125.76 125.92 33.92 33.92 125.76-125.76c-13.12-9.44-24.48-20.96-33.92-34.080zM488 589.92v178.080h48v-178.080c-7.84 1.44-15.84 2.080-24 2.080s-16.16-0.64-24-2.080zM595.52 565.44l125.76 125.76 33.92-33.92-125.76-125.92c-9.44 13.12-20.8 24.64-33.92 34.080zM653.92 472h178.080v-48h-178.080c1.44 7.84 2.080 15.84 2.080 24s-0.64 16.16-2.080 24z" />
<glyph unicode="&#xe90b;" glyph-name="btn-calendar" data-tags="btn-calendar" d="M512 960c-282.72 0-512-229.28-512-512s229.28-512 512-512c282.72 0 512 229.28 512 512s-229.28 512-512 512zM288 607.2v48l448 1.6v-48l-448-1.6zM640 303.2v-48h80v48h-80zM640 367.2v-48h80v48h-80zM640 431.2v-48h80v48h-80zM640 495.2v-48h80v48h-80zM528 303.2v-48h80v48h-80zM528 367.2v-48h80v48h-80zM528 431.2v-48h80v48h-80zM528 495.2v-48h80v48h-80zM416 303.2v-48h80v48h-80zM416 367.2v-48h80v48h-80zM416 431.2v-48h80v48h-80zM416 495.2v-48h80v48h-80zM304 303.2v-48h80v48h-80zM304 367.2v-48h80v48h-80zM304 431.2v-48h80v48h-80zM304 495.2v-48h80v48h-80zM640 559.2v-48h80v48h-80zM528 559.2v-48h80v48h-80zM416 559.2v-48h80v48h-80zM736 688.8h32v-480l-512-1.6v480l480 1.6zM288 575.2l448 1.6v-336l-448-1.6v336z" />
<glyph unicode="&#xe90c;" glyph-name="btn-cancel" data-tags="btn-cancel" d="M512 960c-288 0-512-224-512-512s224-512 512-512c288 0 512 224 512 512s-224 512-512 512zM720 128l-208 208-208-208-112 112 208 208-208 208 112 112 208-208 208 208 112-112-208-208 208-208-112-112z" />
<glyph unicode="&#xe90d;" glyph-name="btn-clock" data-tags="btn-clock" d="M512 960c-282.72 0-512-229.28-512-512s229.28-512 512-512c282.72 0 512 229.28 512 512s-229.28 512-512 512zM512 768c176.64 0 320-143.36 320-320s-143.36-320-320-320c-176.64 0-320 143.36-320 320s143.36 320 320 320zM512 704c-150.24 0-256-105.76-256-256s105.76-256 256-256c150.24 0 256 105.76 256 256s-105.76 256-256 256zM539.36 656.32v-180.96h180.96c31.84 0 31.68-56.16 0-56.16h-236.96v237.12c0 31.68 56 31.68 56 0v0z" />
<glyph unicode="&#xe90e;" glyph-name="btn-confirm" data-tags="btn-confirm" d="M512 960c-288 0-512-224-512-512s224-512 512-512c288 0 512 224 512 512s-224 512-512 512zM512 768c192 0 320-128 320-320s-128-320-320-320c-192 0-320 128-320 320s128 320 320 320zM512 672c128 0 224-96 224-224s-96-224-224-224c-128 0-224 96-224 224s96 224 224 224z" />
<glyph unicode="&#xe90f;" glyph-name="btn-contrast" data-tags="btn-contrast" d="M504 960c-278.4 0-504-225.6-504-504s225.6-504 504-504c278.4 0 504 225.6 504 504s-225.6 504-504 504zM512 768c-176.8 0-320-143.2-320-320s143.2-320 320-320c176.8 0 320 143.2 320 320s-143.2 320-320 320zM512 704c141.44 0 256-114.56 256-256s-114.56-256-256-256c-141.44 0-256 114.56-256 256s114.56 256 256 256zM672 608l-320-320c40.96-40.96 97.44-66.24 160-66.24 124.96 0 226.24 101.28 226.24 226.24 0 62.4-25.28 119.040-66.24 160zM512 736c159.040 0 288-128.96 288-288s-128.96-288-288-288c-159.040 0-288 128.96-288 288s128.96 288 288 288z" />
<glyph unicode="&#xe910;" glyph-name="btn-correct" data-tags="btn-correct" d="M513.92 960c-283.52 0-513.92-230.4-513.92-510.080 0-283.52 230.4-513.92 513.92-513.92 279.68 0 510.080 230.4 510.080 513.92 0 279.68-230.4 510.080-510.080 510.080zM384 192l-256 352 128 112 176-208 368 256 96-160-512-352z" />
<glyph unicode="&#xe911;" glyph-name="btn-cross" data-tags="btn-cross" d="M512 960c-282.72 0-512-229.28-512-512s229.28-512 512-512c282.72 0 512 229.28 512 512s-229.28 512-512 512zM704 496l-32 32h-128v-232l32-24-64-176-64 176 32 24v232h-128l-32-32-64 64 64 64 32-32h128v128l-32 32 64 64 64-64-32-32v-128h128l32 32 64-64-64-64z" />
<glyph unicode="&#xe912;" glyph-name="btn-details" data-tags="btn-details" d="M512 960c282.72 0 512-227.36 512-508 0-259.040-195.52-472.8-448-504v84h-128v-84c-252.48 31.2-448 244.96-448 504 0 280.64 229.28 508 512 508zM872 474.56c0 195.68-162.56 358.24-361.92 358.24-195.68 0-358.080-162.56-358.080-358.24 0-118.080 55.36-221.44 140.32-288 40.64-40.64 92.8-70.88 155.68-82.080v-40.64l128 0.16v40.64c62.72 11.040 111.36 41.28 155.68 81.92 84.96 66.4 140.32 169.92 140.32 288v0zM731.84 470.080c0-122.080-99.68-221.76-221.76-221.76-118.080 0-217.92 99.68-217.92 221.76 0 118.24 99.84 217.92 217.92 217.92 122.080 0 221.76-99.68 221.76-217.92zM806.080 472c0 161.28-134.56 292-296 292s-292-130.72-292-292c0-165.28 130.56-296 292-296s296 130.72 296 296z" />
<glyph unicode="&#xe913;" glyph-name="btn-dices" data-tags="btn-dices" d="M512 960c282.72 0 512-229.28 512-512s-229.28-512-512-512c-282.72 0-512 229.28-512 512s229.28 512 512 512zM739.84 463.68v203.040l-7.68 4.48-181.44 104.8-7.68-4.48-181.44-104.8v-192.16l-70.080-40.48v-211.84l7.84-4.48 181.28-103.36 7.52 4.32 181.6 103.52v192.8l70.080 39.84v8.8zM384 336v-64h16v64h-16zM384 256v-16h16v16h-16zM592 336h-32l-16-16v-16h16v16h16v-24l-16-8v-16h16v8l16 8v48zM560 240h16v15.84l-16 0.16v-16zM480.64 543.2l7.68-4.32 47.040-27.2v40.96l-125.12 72.32-1.28 18.4 16.64 8.16 125.12-72.32 125.12 72.32 16.48-8.16-1.12-18.4-125.12-72.32v-58.72l89.6-51.68 53.44 30.4v176.48l-158.4 91.52-158.56-91.52v-156.96l71.84 41.44v26.4h16l0.64-16.8zM552 680l32-16-32-16-32 16 32 16zM672 576v-48l-16-8v-8h-16v16l16 8v24h-16v-16h-16v16l16 16h32zM640 480v16l16-0.16v-15.84h-16zM355.52 418.88l-16.48-8.32 1.12-18.4 125.12-72.16v-144.48l15.36-10.24 15.36 10.24v144.48l125.12 72.16 1.28 18.4-16.64 8.32-125.12-72.32-125.12 72.32zM639.2 416.48v-176.64l-158.56-90.24-158.4 90.24v176.64l158.4 91.52 158.56-91.52z" />
<glyph unicode="&#xe914;" glyph-name="btn-dungeon" data-tags="btn-dungeon" d="M1024 449.92c0 281.76-228.32 510.080-513.92 510.080-281.76 0-510.080-228.32-510.080-510.080 0-285.6 228.32-513.92 510.080-513.92 285.6 0 513.92 228.32 513.92 513.92zM251.2 736.16h106.56l-3.68-42.56h-64.8l-11.36-72.32-7.68-76.16h-49.44l30.4 191.040zM239.84 301.44h-53.28l19.040 98.88 11.52 87.68h95.040l7.68 57.12h45.6l-3.68-57.12h98.88v-87.68l-3.84-98.88h-53.28l7.68 129.44h-156.16l-15.2-129.44zM784.16 301.44l-7.52 68.48h-53.44l-7.52 60.96h53.28l-7.68 57.12h49.6l48.64-327.84h-57.12l-10.56 72.8h-110.4l2.88-72.8h-57.12l-2.88 72.8h-57.12l2.88-72.8h-175.040l4.64 72.8h110.4v68.48h110.4l-7.68 129.44h53.28l7.68-129.44h110.4zM354.080 369.92l-7.68-102.72-8.48-107.040h-175.2l12.32 72.8h110.4l15.2 136.96h53.44zM464.32 647.84h91.36l3.84-49.44h-95.2v-53.44h-49.44l3.84 53.44h-95.2l3.84 49.44h91.36l3.84 45.76h-22.88l3.84 42.56h64.64l-3.84-88.32zM510.080 369.92v175.2h99.040l-3.84 53.28h49.44l3.84-53.28h45.76l7.52-57.12h-148.48v-118.080h-53.28zM650.88 647.84h-45.6l-3.84 45.76h-91.36v42.56h133.28l7.52-88.32zM753.76 545.12l-7.68 53.28h-45.6l-3.84 49.44h45.6l-7.52 45.76h-45.76l-3.84 42.56h87.68l30.4-191.040h-49.44z" />
<glyph unicode="&#xe915;" glyph-name="btn-elemental-air" data-tags="btn-elemental-air" d="M512 960c-282.72 0-512-229.28-512-512s229.28-512 512-512c282.72 0 512 229.28 512 512s-229.28 512-512 512zM520.32 527.84c17.76-1.44 34.72-5.6 50.4-12.32 6.080 76.64 70.56 103.68 60.64 188.8h44.32c3.84-94.88-80.16-117.6-60.48-217.12 32.48-29.28 52.96-71.68 52.96-118.88 0-88.32-71.68-160-160-160s-160 71.68-160 160c0 36.32 12.16 69.76 32.48 96.64-25.6 118.88 68.64 137.92 56.64 239.36h44.48c3.52-90.24-72.32-115.2-62.72-203.2 17.92 12 38.4 20.64 60.48 24.64 12.48 80.96 90.88 106.080 47.52 226.56 16.16 0 32 0 48 0 34.4-119.52-47.36-145.12-54.72-224.48zM508.16 448.32c-44.16 0-80-35.84-80-80s35.84-80 80-80c44.16 0 80 35.84 80 80s-35.84 80-80 80zM508.16 480.32c61.76 0 112-50.24 112-112 0-61.92-50.24-112-112-112-61.92 0-112 50.080-112 112 0 61.76 50.080 112 112 112z" />
<glyph unicode="&#xe916;" glyph-name="btn-elemental-earth" data-tags="btn-elemental-earth" d="M512 960c-282.72 0-512-229.28-512-512s229.28-512 512-512c282.72 0 512 229.28 512 512s-229.28 512-512 512zM512 528c88.32 0 160-71.68 160-160l-0.16-5.92c40 3.2 86.72 11.040 144.16 26.72 0-16 0-32 0-48-60.96-14.56-109.92-20.48-151.68-21.6-7.2-22.72-19.36-43.2-35.36-60.16 49.12-0.32 108 6.56 187.040 28.16 0-16.16 0-32 0-48-108-25.6-178.4-24.8-237.44-16.64-20.16-9.28-42.72-14.56-66.56-14.56-41.76 0-79.68 16-108.16 42.24-23.84 1.12-49.92 0.48-79.52-3.040-36.32-4.16-77.92-12.48-127.68-26.88 0 16 0 32 0 48 41.76 9.92 77.92 16 109.92 19.2 24 2.4 45.6 3.36 65.44 3.040-10.080 18.4-16.8 38.88-19.040 60.8-42.72-2.56-92.96-11.040-156.32-29.28 0 16 0 32 0 48 63.68 15.040 114.24 21.12 157.28 22.080 11.52 76.8 77.92 135.84 158.080 135.84zM816 194.72c0-16 0-32 0-48-309.6-73.28-309.6 70.72-619.36-18.72 0 16 0 32 0 48 309.76 73.44 310.080-65.44 619.36 18.72zM512 448c-44.16 0-80-35.84-80-80s35.84-79.84 80-79.84c44.16 0 80 35.68 80 79.84s-35.84 80-80 80zM512 480c61.92 0 112-50.080 112-112 0-61.76-50.080-112-112-112s-112 50.24-112 112c0 61.92 50.080 112 112 112z" />
<glyph unicode="&#xe917;" glyph-name="btn-elemental-fire" data-tags="btn-elemental-fire" d="M512 960c-282.72 0-512-229.28-512-512s229.28-512 512-512c282.72 0 512 229.28 512 512s-229.28 512-512 512zM642.4 460.64v0l1.28-1.76c17.76-25.92 28.32-57.12 28.32-90.88 0-88.32-71.68-160-160-160s-160 71.68-160 160c0 28.64 7.52 55.36 20.64 78.56 20.96 40.8 83.040 96.8 43.36 177.44 37.28-14.88 60.64-43.68 63.68-99.36l0.32 0.16c1.28 118.24 19.52 163.040 96 227.2-56-156.48 29.92-237.76 66.4-291.36v0zM512 448c-44.16 0-80-35.84-80-80s35.84-80 80-80c44.16 0 80 35.84 80 80s-35.84 80-80 80zM512 480c61.92 0 112-50.24 112-112 0-61.92-50.080-112-112-112s-112 50.080-112 112c0 61.76 50.080 112 112 112z" />
<glyph unicode="&#xe918;" glyph-name="btn-elemental-nature" data-tags="btn-elemental-nature" d="M512 960c-282.72 0-512-229.28-512-512s229.28-512 512-512c282.72 0 512 229.28 512 512s-229.28 512-512 512zM365.12 160c7.68 27.84 19.2 54.72 34.24 94.56-29.28 28.96-47.36 69.12-47.36 113.44 0 44.16 17.92 84.16 47.040 113.12h-0.16c60 60 217.76 171.52 435.68 107.52-178.88-60.16-106.4-225.92-206.4-330.72l-3.040-3.040c-28.96-28.96-68.96-46.88-113.12-46.88-26.24 0-51.2 6.4-73.12 17.76-10.56-28-19.84-46.080-26.56-65.76h-47.2zM512 448c-44.16 0-80-35.84-80-80s35.84-80 80-80c44.16 0 80 35.84 80 80s-35.84 80-80 80zM578.24 513.6c17.6-8 33.44-19.040 46.88-32.48 41.28 37.12 30.88 62.88 126.24 97.92-62.4-3.040-126.56-33.28-173.12-65.44v0zM512 480c61.92 0 112-50.24 112-112 0-61.92-50.080-112-112-112-61.76 0-112 50.080-112 112 0 61.76 50.24 112 112 112z" />
<glyph unicode="&#xe919;" glyph-name="btn-elemental-void" data-tags="btn-elemental-void" d="M512 960c-282.72 0-512-229.28-512-512s229.28-512 512-512c282.72 0 512 229.28 512 512s-229.28 512-512 512zM512 528c88.32 0 160-71.68 160-160s-71.68-160-160-160c-88.32 0-160 71.68-160 160s71.68 160 160 160zM512 480c61.92 0 112-50.080 112-112 0-61.76-50.080-112-112-112s-112 50.24-112 112c0 61.92 50.080 112 112 112z" />
<glyph unicode="&#xe91a;" glyph-name="btn-elemental-water" data-tags="btn-elemental-water" d="M512 960c-282.72 0-512-229.28-512-512s229.28-512 512-512c282.72 0 512 229.28 512 512s-229.28 512-512 512zM672 368c0-88.32-71.68-160-160-160s-160 71.68-160 160l0.16 5.44c4.16 144 171.68 210.080 87.84 378.56 199.36-108.64 232-299.2 232-384v0zM512 448c-44.16 0-80-35.84-80-80s35.84-80 80-80c44.16 0 80 35.84 80 80s-35.84 80-80 80zM512 480c61.92 0 112-50.24 112-112 0-61.92-50.080-112-112-112s-112 50.080-112 112c0 61.76 50.080 112 112 112z" />
<glyph unicode="&#xe91b;" glyph-name="btn-equipament" data-tags="btn-equipament" d="M510.080 960c283.52 0 513.92-230.4 513.92-510.080 0-283.52-230.4-513.92-513.92-513.92-279.68 0-510.080 230.4-510.080 513.92 0 279.68 230.4 510.080 510.080 510.080zM384 64h112v768l-112-112v-656zM528 64h112v656l-112 112v-768z" />
<glyph unicode="&#xe91c;" glyph-name="btn-evil" data-tags="btn-evil" d="M512 960c-282.72 0-512-229.28-512-512s229.28-512 512-512c282.72 0 512 229.28 512 512s-229.28 512-512 512zM615.52 548c58.24-13.76 122.88-42.24 169.28-99.2-45.92-56.48-109.76-84.96-167.52-98.88 24 25.6 38.72 60.16 38.72 98.080 0 38.88-15.36 74.080-40.48 100zM528.16 304.96c-5.28-0.64-10.72-0.96-16.16-0.96-4.96 0-9.92 0.16-14.72 0.8l-88.16-237.28 40.8 240.8c-14.4 1.44-29.12 3.52-44.16 6.24l-174.88-144.64 129.92 156.32c-30.72 9.92-61.76 24.64-91.2 45.28l-141.6-24 116.96 43.2c-18.88 16.16-37.12 35.36-54.080 58.080 16.96 22.56 35.2 41.76 54.080 57.92l-116.96 43.2 141.6-24c29.44 20.64 60.48 35.36 91.2 45.28l-129.92 156.32 174.88-144.64c15.040 2.72 29.76 4.8 44.16 6.24l-40.8 240.96 88.48-238.24 15.84 0.16 14.4-0.16 88.48 238.24-40.96-240.96c14.56-1.44 29.12-3.52 44.32-6.24l174.88 144.64-129.92-156.32c30.72-9.92 61.6-24.64 91.2-45.28l141.6 24-116.96-43.2c18.88-16.16 36.96-35.36 54.080-57.92-17.12-22.72-35.2-41.92-54.080-58.080l116.96-43.2-141.6 24c-29.6-20.64-60.48-35.36-91.2-45.28l129.92-156.32-174.88 144.64c-15.2-2.72-29.76-4.8-44.32-6.24l40.96-240.8-88.16 237.44zM406.24 350.24c-57.28 14.080-120.16 42.72-165.6 98.56 45.92 56.32 109.6 84.96 167.36 98.88-24.8-25.92-40-60.96-40-99.68 0-37.76 14.56-72 38.24-97.76zM532.64 337.92c52 9.6 91.36 55.36 91.36 110.080 0 61.44-49.44 111.2-110.56 112h-1.44c-61.92 0-112-50.080-112-112 0-54.56 39.040-100.16 90.88-110.080 7.52-0.32 14.72-0.48 21.12-0.48h1.44c5.92 0 12.32 0.16 19.2 0.48zM512 528c44.16 0 80-35.84 80-80s-35.84-80-80-80c-44.16 0-80 35.84-80 80s35.84 80 80 80z" />
<glyph unicode="&#xe91d;" glyph-name="btn-exclamation" data-tags="btn-exclamation" d="M512 960c-282.72 0-512-229.28-512-512s229.28-512 512-512c282.72 0 512 229.28 512 512s-229.28 512-512 512zM576.32 255.2h-128.64v530.080c0 40.16 32.16 48.16 64.32 48.16s64.32-16 64.32-48.16v-530.080zM447.68 62.56v128.48h128.64v-128.48h-128.64z" />
<glyph unicode="&#xe91e;" glyph-name="btn-foward" data-tags="btn-foward" d="M512 944c-282.72 0-512-229.28-512-512s229.28-512 512-512c282.72 0 512 229.28 512 512s-229.28 512-512 512zM496 704c0 32 32 64 64 64 16 0 48-32 80-64l144-160c36.64-40.8 64-80 64-96s-25.44-53.28-64-96l-144-160c-32-32-64-64-80-64-32 0-64 32-64 64s0 64 0 112l-112-112c-32-32-64-64-96-64-16 0-48 32-48 64v512c0 32 32 64 64 64s48-32 80-64l112-112c0 37.28 0 74.72 0 112z" />
<glyph unicode="&#xe91f;" glyph-name="btn-friend-add" data-tags="btn-friend-add" d="M512 960c-288 0-512-224-512-512s224-512 512-512c288 0 512 224 512 512s-224 512-512 512zM224 176l32 160 32 16 80 16 64 48v48l-16 32-32 48v112l80 80h48l80-80v-112l-32-48-16-32v-48c0-16 0-48 0-64 0-80 64-144 144-144 16 0 32 0 48 16l16-48h-528zM688 464c64 0 112-48 112-112s-48-128-112-128c-80 0-128 64-128 128s48 112 128 112zM608 320v48h48v48h48v-48h48v-48h-48v-48h-48v48h-48z" />
<glyph unicode="&#xe920;" glyph-name="btn-friend-remove" data-tags="btn-friend-remove" d="M512 960c-288 0-512-224-512-512s224-512 512-512c288 0 512 224 512 512s-224 512-512 512zM224 176l32 160 32 16 80 16 64 48v48l-16 32-32 48v112l80 80h48l80-80v-112l-32-48-16-32v-48c0-16 0-48 0-64 0-80 64-144 144-144 16 0 32 0 48 16l16-48h-528zM688 464c64 0 112-48 112-112s-48-128-112-128c-80 0-128 64-128 128s48 112 128 112zM608 320v48c78.72 0 65.28 0 144 0v-48c-78.72 0-65.28 0-144 0z" />
<glyph unicode="&#xe921;" glyph-name="btn-gps" data-tags="btn-gps" d="M507.040 961.12c-279.68 0-510.080-230.4-510.080-510.080 0-283.52 230.4-513.92 510.080-513.92 283.52 0 513.92 230.4 513.92 513.92 0 279.68-230.4 510.080-513.92 510.080zM515.040 638.88c73.92 0 133.12-64.16 127.52-137.92-4.64-81.44-64.16-194.56-117.28-298.080h165.76l112-76h-576l112 76h165.76c-57.6 112.64-116.16 228.32-117.76 308 0 70.72 57.28 128 128 128zM515.040 554.72c26.4 0 47.84-21.44 47.84-47.84s-21.44-47.84-47.84-47.84c-26.56 0-48 21.44-48 47.84s21.44 47.84 48 47.84z" />
<glyph unicode="&#xe922;" glyph-name="btn-group" data-tags="btn-group" d="M512 960c-288 0-512-224-512-512s224-512 512-512c288 0 512 224 512 512s-224 512-512 512zM896 256h-144l-32 112-80 32 32 16v32l-32 32-8 120 40 40h64l40-40-8-120-32-32v-32l128-32 32-128zM288 224l32 128 160 64v32l-48 64v112l48 48h64l48-48v-112l-48-64v-32l160-64 32-128h-448zM128 256l32 128 128 32v32l-32 32-8 120 40 40h64l40-40-8-120-32-32v-32l32-16-80-32-32-112h-144z" />
<glyph unicode="&#xe923;" glyph-name="btn-guild" data-tags="btn-guild" d="M512 960c-282.72 0-512-229.28-512-512s229.28-512 512-512c282.72 0 512 229.28 512 512s-229.28 512-512 512zM784 752h80v-64h-80v64zM160 752h80v-64h-80v64zM768 112l-256 128-256-128v672h512v-128h-448l448-16v-528zM640 496h-96v96h-64v-96h-96v-64h96v-96h64v96h96v64z" />
<glyph unicode="&#xe924;" glyph-name="btn-heart" data-tags="btn-heart" d="M512 960c-282.72 0-512-229.28-512-512s229.28-512 512-512c282.72 0 512 229.28 512 512s-229.28 512-512 512zM512 544c71.2 189.28 538.56 8.8 0-339.52-538.56 348.32-71.2 528.8 0 339.52z" />
<glyph unicode="&#xe925;" glyph-name="btn-help" data-tags="btn-help" d="M510.080 960c-279.68 0-510.080-230.4-510.080-510.080 0-283.52 230.4-513.92 510.080-513.92 283.52 0 513.92 230.4 513.92 513.92 0 279.68-230.4 510.080-513.92 510.080zM448 96v96h96v-96h-96zM415.68 801.28h256.8l-0.48-321.28c0-32-32-64-63.68-71.68l-64.16-22.72-0.16-129.6h-96v192l128 48v208h-128v-64h-96l-0.48 97.12c0.48 46.88 17.12 64.16 64.16 64.16z" />
<glyph unicode="&#xe926;" glyph-name="btn-info" data-tags="btn-info" d="M512 960c282.72 0 512-229.28 512-512s-229.28-512-512-512c-282.72 0-512 229.28-512 512s229.28 512 512 512zM464 735.68v-96h96v96h-96zM560 591.84h-96v-431.84h96v431.84z" />
<glyph unicode="&#xe927;" glyph-name="btn-invite" data-tags="btn-invite" d="M513.92 960c-283.52 0-513.92-230.4-513.92-510.080 0-283.52 230.4-513.92 513.92-513.92 279.68 0 510.080 230.4 510.080 513.92 0 279.68-230.4 510.080-510.080 510.080zM510.080 831.52c83.2 0 147.36-64.16 147.36-143.52s-64.16-143.68-147.36-143.68c-79.36 0-143.52 64.16-143.52 143.68 0 79.2 64.16 143.52 143.52 143.52zM736.8 449.92c79.36 0 143.68-68 143.68-147.36s-64.32-143.68-143.68-143.68c-79.36 0-143.52 64.32-143.52 143.68s64.16 147.36 143.52 147.36zM287.2 449.92c79.36 0 143.52-68 143.52-147.36s-64.16-143.68-143.52-143.68c-79.36 0-143.68 64.32-143.68 143.68s64.32 147.36 143.68 147.36z" />
<glyph unicode="&#xe928;" glyph-name="btn-itens" data-tags="btn-itens" d="M510.080 960c-279.68 0-510.080-230.4-510.080-510.080 0-283.52 230.4-513.92 510.080-513.92 283.52 0 513.92 230.4 513.92 513.92 0 279.68-230.4 510.080-513.92 510.080zM576 832c32 0 64-32 64-64v-32h-64v32h-128v-32h-64v32c0 32 32 64 64 64h128zM608 448l136.32 137.92 55.68-393.92c0-32-32-64-64-64h-448c-32 0-64 32-64 64l55.68 393.92 136.32-137.92h192zM464.16 384h95.84l32-32-32-32h-95.84l-32 32 32 32zM352 704h320c32 0 64-32 64-64l-144-144h-160l-144 144c0 32 32 64 64 64z" />
<glyph unicode="&#xe929;" glyph-name="btn-life-status" data-tags="btn-life-status" d="M704 727.36c-12.64 9.44-27.52 15.040-42.4 16.64-20.64 2.4-41.92-2.72-58.080-15.040-17.28-13.28-28.48-33.76-27.36-60.8 1.76-36.48 29.76-87.68 108.48-148.16l19.36-14.88 19.36 14.88c78.72 60.48 106.72 111.68 108.48 148.16 1.12 27.040-10.080 47.52-27.36 60.8-16 12.32-37.28 17.44-58.080 15.040-14.88-1.6-29.76-7.2-42.4-16.64zM512 960c282.72 0 512-229.28 512-512h-359.2l-13.6-7.52-42.24-93.92-23.2 105.92-15.84 71.84-15.36-72-35.52-164.48-35.68 283.2-11.52 91.2-19.84-89.76-66.56-300.8-51.84 427.2-13.92 114.56-17.76-113.92-57.28-369.12-22.080 105.92-3.2 11.68h-219.36c0 282.72 229.28 512 512 512zM1023.040 416c-16.64-267.84-239.040-480-511.040-480s-494.4 212.16-511.040 480h194.24l38.56-164.8 19.84-70.88 11.36 72.64 50.88 327.52 49.12-405.28 11.2-92.64 20.16 91.040 66.88 302.24 35.84-284.8 11.68-92.96 19.84 91.68 39.68 184 24.16-110.080 20.8 32.8 58.4 119.52h349.44zM704 673.92c26.72 84.32 201.92 26.4 0-128.48-201.92 154.88-26.72 212.8 0 128.48z" />
<glyph unicode="&#xe92a;" glyph-name="btn-list" data-tags="btn-list" d="M1024 448c0 288-224 512-512 512s-512-224-512-512c0-288 224-512 512-512s512 224 512 512zM256 800h448v-224c-32 0-64 0-96-32s-32-32-64-32h-224v-32h192c0 0 0-32 0-32h-192v-32h160c0 0 0-32 0-32s0-32 0-32c0-128 96-224 224-224v-32h-448v704zM704 544c96 0 192-96 192-192s-96-192-192-192c-96 0-192 96-192 192s96 192 192 192zM608 384l64-96 128 144 32-48-160-160-32 32-64 96 32 32zM320 224h128v-32h-128v32zM320 320h128v-32h-128v32zM320 608h320v-32h-320v32zM320 704h320v-32h-320v32z" />
<glyph unicode="&#xe92b;" glyph-name="btn-list-down" data-tags="btn-list-down" d="M510.080 960c-279.68 0-510.080-230.4-510.080-510.080 0-283.52 230.4-513.92 510.080-513.92 283.52 0 513.92 230.4 513.92 513.92 0 279.68-230.4 510.080-513.92 510.080zM702.88 801.28v-222.88c-37.92 0-75.68-11.36-105.76-30.24-37.92-18.88-37.92-18.88-52.96-37.76h-223.040v-30.24h200.32c-7.52-11.36-15.040-19.040-18.88-30.24h-181.44v-34.080h170.080c-3.84-11.36-7.52-26.4-7.52-34.080-3.84-11.2-3.84-18.88-3.84-30.24 0-124.64 102.080-222.88 223.040-222.88v-34.080h-445.92v706.72h445.92zM704 224l127.36 191.84h-256.96l129.6-191.84zM702.88 544.32c105.76 0 192.64-86.88 192.64-192.64s-86.88-192.8-192.64-192.8c-105.92 0-188.96 87.040-188.96 192.8s83.2 192.64 188.96 192.64zM321.12 223.2h128.48v-30.24h-128.48v30.24zM321.12 321.44h128.48v-34.080h-128.48v34.080zM321.12 608.64h317.44v-34.080h-317.44v34.080zM321.12 703.040h317.44v-30.24h-317.44v30.24z" />
<glyph unicode="&#xe92c;" glyph-name="btn-list-up" data-tags="btn-list-up" d="M510.080 960c-279.68 0-510.080-230.4-510.080-510.080 0-283.52 230.4-513.92 510.080-513.92 283.52 0 513.92 230.4 513.92 513.92 0 279.68-230.4 510.080-513.92 510.080zM256.96 801.28h445.92v-222.88c-37.92 0-75.68-11.36-105.76-30.24-37.92-18.88-37.92-18.88-52.96-37.76h-223.040v-30.24h200.32c-7.52-11.36-15.040-19.040-18.88-30.24h-181.44v-34.080h170.080c-3.84-11.36-7.52-26.4-7.52-34.080-3.84-11.2-3.84-18.88-3.84-30.24 0-124.64 102.080-222.88 223.040-222.88v-34.080h-445.92v706.72zM702.88 480.16l128.48-223.040h-256.96l128.48 223.040zM702.88 544.32c105.76 0 192.64-86.88 192.64-192.64s-86.88-192.8-192.64-192.8c-105.92 0-188.96 87.040-188.96 192.8s83.2 192.64 188.96 192.64zM321.12 223.2h128.48v-30.24h-128.48v30.24zM321.12 321.44h128.48v-34.080h-128.48v34.080zM321.12 608.64h317.44v-34.080h-317.44v34.080zM321.12 703.040h317.44v-30.24h-317.44v30.24z" />
<glyph unicode="&#xe92d;" glyph-name="btn-loading" data-tags="btn-loading" d="M512 960c-282.72 0-512-229.28-512-512s229.28-512 512-512c282.72 0 512 229.28 512 512s-229.28 512-512 512zM482.72 688.32v111.68h58.56v-133.92c-9.6 1.28-19.36 1.92-29.28 1.92s-19.68-0.64-29.28-1.92v22.24zM512 610.88c44.96 0 85.6-18.24 115.040-47.68h0.16v-0.16c29.44-29.44 47.68-70.080 47.68-115.040s-18.24-85.6-47.68-115.040v-0.16h-0.16c-29.44-29.44-70.080-47.68-115.040-47.68s-85.6 18.24-115.040 47.68h-0.16v0.16c-29.44 29.44-47.68 70.080-47.68 115.040s18.24 85.6 47.68 115.040v0.16h0.16c29.44 29.44 70.080 47.68 115.040 47.68zM600.48 536.48c-22.56 22.56-53.92 36.64-88.48 36.64s-65.92-14.080-88.48-36.64v0c-22.56-22.56-36.64-53.92-36.64-88.48s14.080-65.92 36.64-88.48v0c22.56-22.56 53.92-36.64 88.48-36.64s65.92 14.080 88.48 36.64v0c22.56 22.56 36.64 53.92 36.64 88.48s-14.080 65.92-36.64 88.48v0zM595.68 651.52l37.6 65.12 0.8 1.6 28.48 49.28 50.88-29.28-27.84-48.32-2.080-3.52-37.12-64.32c-15.36 12-32.48 21.92-50.72 29.44zM686.080 582.4l116.16 67.040 29.28-50.88-50.56-29.12-10.080-5.92-55.36-31.84c-7.52 18.24-17.44 35.36-29.44 50.72zM730.080 477.28h133.92v-58.56h-133.92c1.28 9.6 1.92 19.36 1.92 29.28s-0.64 19.68-1.92 29.28zM715.52 364.32l116-66.88-29.28-50.88-44.96 25.92-21.76 12.64-49.44 28.48c12 15.36 21.92 32.48 29.44 50.72zM646.4 273.92l25.76-44.48 17.28-30.080 24-41.6-50.88-29.28-23.2 40.32-20.16 34.72-23.52 40.96c18.24 7.52 35.36 17.44 50.72 29.44zM541.28 229.92v-133.92h-58.56v133.92c9.6-1.28 19.36-1.92 29.28-1.92s19.68 0.64 29.28 1.92zM428.32 244.48l-22.4-38.88-24.48-42.4-20-34.72-50.88 29.28 45.6 78.88 21.44 37.28c15.36-12 32.48-21.92 50.72-29.44zM337.92 313.6l-116.16-67.040-29.28 50.88 27.36 15.84 88.64 51.040c7.52-18.24 17.44-35.36 29.44-50.72zM293.92 418.72h-133.92v58.56h133.92c-1.28-9.6-1.92-19.36-1.92-29.28s0.64-19.68 1.92-29.28zM308.48 531.68l-27.84 16-88.16 50.88 29.28 50.88 20.32-11.68 67.68-39.2 28.16-16.16c-12-15.36-21.92-32.48-29.44-50.72zM377.6 622.080l-67.040 116.16 50.88 29.28 11.2-19.52 43.36-74.88 12.32-21.6c-18.24-7.52-35.36-17.44-50.72-29.44zM453.28 683.68c-2.72-0.64-5.6-1.28-8.48-2.080l-44.64 77.44c17.44 6.080 35.2 10.56 53.12 13.76v-89.12zM339.52 629.6c-3.36-2.72-6.56-5.76-9.76-8.8l-70.4 40.64c11.84 14.72 24.96 27.84 38.88 39.68l41.28-71.52zM271.2 519.36c-0.96-4.16-1.92-8.32-2.88-12.64h-74.88c2.72 17.92 6.56 34.88 11.36 51.040l66.4-38.4zM268.8 389.28c0.8-4 1.76-8.16 2.88-12.32l-63.2-36.48c-5.92 16-10.4 32.32-13.6 48.8h73.92zM322.56 271.040c3.68-4.64 7.68-9.28 11.84-13.76l-29.44-50.72c-13.12 10.24-25.12 21.44-36.16 33.44l53.76 31.040zM433.6 195.040c6.4-1.92 12.96-3.52 19.68-4.96v-45.76c-15.2 2.24-29.6 5.44-43.52 9.44l23.84 41.28zM570.72 189.92c6.56 1.28 13.28 2.88 20 4.64l21.28-36.96c-13.44-4.96-27.36-8.8-41.28-11.68v44zM696.16 246.24c6.72 5.28 13.12 10.72 19.2 16.8l24.8-14.4c-8.64-10.88-18.080-20.96-28-30.24l-16 27.84zM777.28 362.56c2.72 8.64 5.12 17.44 7.040 26.72h16.48c-1.92-12.32-4.64-24.32-7.84-35.84l-15.68 9.12zM786.080 506.72c-1.76 9.44-3.68 18.88-6.24 28.32l11.36 6.56c3.52-11.52 6.4-23.2 8.64-34.88h-13.76zM728.8 640.8c-7.040 9.12-14.56 17.76-22.88 25.92l2.88 4.96c9.6-8.48 18.4-17.6 26.56-27.2l-6.56-3.68zM605.6 727.2c-11.2 3.52-22.72 6.4-34.88 8.64v0.32c12.16-2.080 24-4.8 35.2-8.16l-0.32-0.8z" />
<glyph unicode="&#xe92e;" glyph-name="btn-logout" data-tags="btn-logout" d="M510.080 960c-279.68 0-510.080-230.4-510.080-510.080 0-283.52 230.4-513.92 510.080-513.92 283.52 0 513.92 230.4 513.92 513.92 0 279.68-230.4 510.080-513.92 510.080zM385.44 415.84v64.32h94.4v-64.32h-94.4zM767.040 158.88c0-30.24-30.24-64.16-64.16-64.16h-381.76c-33.92 0-64.16 34.080-64.16 64.16v578.24c0 30.080 30.24 64.16 64.16 64.16h381.76c33.92 0 64.16-34.080 64.16-64.16v-94.56l-64.16 60.48v34.080h-381.76v-578.24h381.76v30.24l64.16 68v-98.24zM574.4 608.64v64.16h64.16l226.72-222.88-226.72-226.72h-64.16v64.32l162.4 128.32h-226.72v64.32h226.72l-162.4 128.48z" />
<glyph unicode="&#xe92f;" glyph-name="btn-mail" data-tags="btn-mail" d="M512 960c-282.72 0-512-229.28-512-512s229.28-512 512-512c282.72 0 512 229.28 512 512s-229.28 512-512 512zM800 576v-256c0-26.4-21.6-48-47.84-48h-480.16c-26.4 0-48 21.6-48 48v256c0 8.64 2.24 16.8 6.24 23.84l281.76-183.84 281.6 183.84c4-7.040 6.4-15.2 6.4-23.84zM752 624c11.68 0 22.4-4.32 30.72-11.2l-270.72-176.8-270.88 176.8c8.32 6.88 19.040 11.2 30.72 11.2h480.16z" />
<glyph unicode="&#xe930;" glyph-name="btn-mail-open" data-tags="btn-mail-open" d="M512 960c-282.72 0-512-229.28-512-512s229.28-512 512-512c282.72 0 512 229.28 512 512s-229.28 512-512 512zM752 532h-480.16c-11.68 0-22.4 4.16-30.72 11.2l270.88 160.8 270.72-160.8c-8.32-7.040-19.040-11.2-30.72-11.2zM704 484l-192-112-176 112h368zM800 500v-256c0-26.4-21.6-52-48-52h-480.16c-26.4 0-47.84 25.6-47.84 52v256c0 8.64 2.24 16.8 6.24 23.84l281.76-183.84 281.6 183.84c4-7.040 6.4-15.2 6.4-23.84z" />
<glyph unicode="&#xe931;" glyph-name="btn-map" data-tags="btn-map" d="M510.080 960c283.52 0 513.92-230.4 513.92-510.080 0-283.52-230.4-513.92-513.92-513.92-279.68 0-510.080 230.4-510.080 513.92 0 279.68 230.4 510.080 510.080 510.080zM400 640l-176-64-95.52-318.88 239.52 62.88 32 320zM640 576l32-320 224 96-96 288-160-64zM416 640l-32-320 272-64-32 320-208 64z" />
<glyph unicode="&#xe932;" glyph-name="btn-message" data-tags="btn-message" d="M510.080 960c283.52 0 513.92-230.4 513.92-510.080 0-283.52-230.4-513.92-513.92-513.92-279.68 0-510.080 230.4-510.080 513.92 0 279.68 230.4 510.080 510.080 510.080zM224 384v-128l80 128h272c32 0 64 32 64 64v224c0 32-32 64-64 64h-352c-32 0-64-32-64-64v-224c0-32 32-64 64-64zM800 256c32 0 64 32 64 64v224c0 32-32 64-64 64h-144v-176c0-30.24-33.76-64-64-64h-208v-48c0-32 32-64 64-64h272l80-96v96z" />
<glyph unicode="&#xe933;" glyph-name="btn-mic" data-tags="btn-mic" d="M512 960c-282.72 0-512-229.28-512-512s229.28-512 512-512c282.72 0 512 229.28 512 512s-229.28 512-512 512zM672 592v-128c0-80.96-64.64-150.72-144-159.2v-64.8h64v-64h-160v64h64v64.8c-79.36 8.48-144 78.24-144 159.2v128h32v-136.48c0-67.2 60.8-119.52 128-119.52s128 52.32 128 119.52v136.48h32zM512 720c52.8 0 96-43.2 96-96v-48h-192v48c0 52.8 43.2 96 96 96zM608 560v-96c0-52.8-43.2-96-96-96s-96 43.2-96 96v96h192z" />
<glyph unicode="&#xe934;" glyph-name="btn-mic-muted" data-tags="btn-mic-muted" d="M512 960c-282.72 0-512-229.28-512-512s229.28-512 512-512c282.72 0 512 229.28 512 512s-229.28 512-512 512zM688.16 832.48c115.040 0 208.32-93.28 208.32-208.32s-93.28-208.16-208.32-208.16c-115.040 0-208.16 93.12-208.16 208.16s93.12 208.32 208.16 208.32zM627.84 392c-18.56-45.76-63.52-78.4-115.84-78.4-68.64 0-124.8 56.16-124.8 124.8v124.8h69.12c21.92-83.68 87.84-149.44 171.52-171.2zM712.8 385.6c-22.4-81.28-94.56-145.12-180-154.24v-84.16h83.2v-83.2h-208v83.2h83.2v84.16c-103.2 11.040-187.2 101.76-187.2 207.040v166.4h41.6v-177.44c0-87.36 79.040-155.36 166.4-155.36 72.64 0 139.36 47.040 160 112.96 5.28-0.32 10.72-0.48 16.16-0.48 8.32 0 16.64 0.32 24.64 1.12zM451.84 584h-64.64v62.4c0 64 48.8 117.12 110.88 124-31.040-40.48-49.6-91.2-49.6-146.24 0-13.6 1.12-27.040 3.36-40.16zM688.16 797.28c36.32 0 69.92-11.040 97.76-30.080l-97.92-97.92-97.76 97.76c27.84 19.040 61.6 30.24 97.92 30.24zM831.2 721.92c19.040-27.84 30.080-61.44 30.080-97.76s-11.2-70.080-30.24-97.92l-97.76 97.76 97.92 97.92zM785.6 481.12c-27.68-19.040-61.28-30.080-97.44-30.080s-69.92 11.2-97.6 30.24l97.44 97.44 97.6-97.6zM545.28 526.56c-19.040 27.68-30.24 61.44-30.24 97.6s11.040 69.76 30.080 97.44l97.6-97.6-97.44-97.44z" />
<glyph unicode="&#xe935;" glyph-name="btn-mic-volume-down" data-tags="btn-mic-volume-down" d="M512 960c-282.72 0-512-229.28-512-512s229.28-512 512-512c282.72 0 512 229.28 512 512s-229.28 512-512 512zM688 512l96 208h-192l96-208zM688.16 832.48c115.040 0 208.32-93.28 208.32-208.32s-93.28-208.16-208.32-208.16c-115.040 0-208.16 93.12-208.16 208.16s93.12 208.32 208.16 208.32zM627.84 392c-18.56-45.76-63.52-78.4-115.84-78.4-68.64 0-124.8 56.16-124.8 124.8v124.8h69.12c21.92-83.68 87.84-149.44 171.52-171.2zM712.8 385.6c-22.4-81.28-94.56-145.12-180-154.24v-84.16h83.2v-83.2h-208v83.2h83.2v84.16c-103.2 11.040-187.2 101.76-187.2 207.040v166.4h41.6v-177.44c0-87.36 79.040-155.36 166.4-155.36 72.64 0 139.36 47.040 160 112.96 5.28-0.32 10.72-0.48 16.16-0.48 8.32 0 16.64 0.32 24.64 1.12zM451.84 584h-64.64v62.4c0 64 48.8 117.12 110.88 124-31.040-40.48-49.6-91.2-49.6-146.24 0-13.6 1.12-27.040 3.36-40.16zM688.16 797.28c95.68 0 173.12-77.44 173.12-173.12 0-95.52-77.44-173.12-173.12-173.12-95.52 0-173.12 77.6-173.12 173.12 0 95.68 77.6 173.12 173.12 173.12z" />
<glyph unicode="&#xe936;" glyph-name="btn-mic-volume-up" data-tags="btn-mic-volume-up" d="M512 960c-282.72 0-512-229.28-512-512s229.28-512 512-512c282.72 0 512 229.28 512 512s-229.28 512-512 512zM688 736l-96-208h192l-96 208zM688.16 832.48c115.040 0 208.32-93.28 208.32-208.32s-93.28-208.16-208.32-208.16c-115.040 0-208.16 93.12-208.16 208.16s93.12 208.32 208.16 208.32zM627.84 392c-18.56-45.76-63.52-78.4-115.84-78.4-68.64 0-124.8 56.16-124.8 124.8v124.8h69.12c21.92-83.68 87.84-149.44 171.52-171.2zM712.8 385.6c-22.4-81.28-94.56-145.12-180-154.24v-84.16h83.2v-83.2h-208v83.2h83.2v84.16c-103.2 11.040-187.2 101.76-187.2 207.040v166.4h41.6v-177.44c0-87.36 79.040-155.36 166.4-155.36 72.64 0 139.36 47.040 160 112.96 5.28-0.32 10.72-0.48 16.16-0.48 8.32 0 16.64 0.32 24.64 1.12zM451.84 584h-64.64v62.4c0 64 48.8 117.12 110.88 124-31.040-40.48-49.6-91.2-49.6-146.24 0-13.6 1.12-27.040 3.36-40.16zM688.16 797.28c95.68 0 173.12-77.44 173.12-173.12 0-95.52-77.44-173.12-173.12-173.12-95.52 0-173.12 77.6-173.12 173.12 0 95.68 77.6 173.12 173.12 173.12z" />
<glyph unicode="&#xe937;" glyph-name="btn-minus" data-tags="btn-minus" d="M513.92 960c-283.52 0-513.92-230.4-513.92-510.080 0-283.52 230.4-513.92 513.92-513.92 279.68 0 510.080 230.4 510.080 513.92 0 279.68-230.4 510.080-510.080 510.080zM768 352c-302.24 0-209.76 0-512 0-128.48 0-128.48 192 0 192 302.24 0 209.76 0 512 0 128.48 0 128.48-192 0-192z" />
<glyph unicode="&#xe938;" glyph-name="btn-necklace" data-tags="btn-necklace" d="M608 352l-48 80v-32h-96v32l-48-80v-160l96-128 96 128v160zM510.080 960c136 0 256.96-49.12 347.68-136l-297.76-280v-80l328 329.76c83.040-90.72 136-211.52 136-343.84 0-283.36-230.56-513.92-513.92-513.92-279.68 0-510.080 230.56-510.080 513.92 0 132.32 52.96 253.12 136 343.84l328-329.76v64l-297.76 296c90.72 86.88 211.68 136 343.84 136zM496 544l-16-16v-96l16-16h32l16 16v96l-16 16h-32z" />
<glyph unicode="&#xe939;" glyph-name="btn-next" data-tags="btn-next" d="M512 960c-282.72 0-512-229.28-512-512s229.28-512 512-512c282.72 0 512 229.28 512 512s-229.28 512-512 512zM768 449.12v-241.12c0-17.6-14.4-32-32-32v0c-17.6 0-32 14.4-32 32v176.16l-240.16-160.16c-11.68-7.84-64-48-80-48s-32 10.080-32.16 33.76v476.32c0 24.64 16.16 33.92 32.16 33.92s66.56-39.2 79.36-47.84l240.8-160.32v176.16c0 17.6 14.4 32 32 32v0c17.6 0 32-14.4 32-32v-238.88z" />
<glyph unicode="&#xe93a;" glyph-name="btn-options" data-tags="btn-options" d="M512 960c282.72 0 512-229.28 512-512s-229.28-512-512-512c-282.72 0-512 229.28-512 512s229.28 512 512 512zM776 736l-72-24v-48l-168-168h-72l-24.32-23.84-191.68-192.16-24-48 24-48 48-24 48 24 216 216v72l168 168h48l24 72-24 24zM224 591.36v-0.16l48.16-48.16h71.040l24.8 0.96 56-56 24 24h48l-80 80 0.96 24.8v71.040l-48.32 48.16h-73.76l51.040-48.16-2.72-71.040-71.040-2.72-48.16 51.040v-73.76zM552 360l68-68c-29.92-65.92 20-132 83.52-132 48.32 0 96.48 22.72 96.48 96.48 0 77.28-66.080 113.44-132 83.52l-92 92v-48l-24-24zM703.52 304.8c-22.72 0-48.32-25.6-48.32-48.32 0-25.6 25.6-48.16 48.32-48.16 25.6 0 48.16 22.72 48.16 48.16 0 22.72-22.72 48.32-48.16 48.32z" />
<glyph unicode="&#xe93b;" glyph-name="btn-party" data-tags="btn-party" d="M512 960c-282.72 0-512-229.28-512-512s229.28-512 512-512c282.72 0 512 229.28 512 512s-229.28 512-512 512zM360.8 208l23.2 128 16 16 113.92 33.6 62.080 30.4v32l-56 72-8 152 64 64h96l64-64-8-152-56-72v-32l64-32 128-32 24-144h-527.2zM136 208l24 144 128 32 32 16v48l-48 64-8 120 56 72h96l56-72-8-120-48-64v-48l32-16-56-8-24-24-24-144h-208z" />
<glyph unicode="&#xe93c;" glyph-name="btn-plus" data-tags="btn-plus" d="M513.92 960c-283.52 0-513.92-230.4-513.92-510.080 0-283.52 230.4-513.92 513.92-513.92 279.68 0 510.080 230.4 510.080 513.92 0 279.68-230.4 510.080-510.080 510.080zM767.040 351.68h-158.72v-158.72c0-128.48-192.64-128.48-192.64 0v158.72h-158.72c-128.48 0-128.48 192.64 0 192.64h158.72v158.72c0 128.48 192.64 128.48 192.64 0v-158.72h158.72c128.48 0 128.48-192.64 0-192.64z" />
<glyph unicode="&#xe93d;" glyph-name="btn-power" data-tags="btn-power" d="M512 960c-282.72 0-512-229.28-512-512s229.28-512 512-512c282.72 0 512 229.28 512 512s-229.28 512-512 512zM624.16 676.64c88.48-40 143.040-107.2 143.040-229.44s-114.24-255.2-255.2-255.2c-140.96 0-255.2 132.96-255.2 255.2s54.72 189.6 143.2 229.6v-51.2c-63.040-36.32-98.56-81.12-98.56-178.4 0-97.12 94.24-210.56 210.56-210.56s210.56 113.44 210.56 210.56c0 97.28-35.36 141.92-98.4 178.4v51.040zM488 744l24 56 24-56v-240c1.76-7.68 14.88-12.48 32-16-27.040-35.52-41.92-77.6-56-120-14.72 42.4-30.24 84.48-56 120 16.8 4.32 29.6 9.28 32 16v240z" />
<glyph unicode="&#xe93e;" glyph-name="btn-quest" data-tags="btn-quest" d="M1024 448c0 288-224 512-512 512s-512-224-512-512c0-288 224-512 512-512s512 224 512 512zM480 128l16 48 32-32-48-16zM768 384l-224-224-32 32 224 224h32v-32zM704 768v-336l-240-240h-208v576h448zM640 480h-320v-32h320v32zM640 576h-320v-32h320v32zM512 384h-192v-32h192v32zM640 672h-320v-32h320v32zM704 272v-80h-80l80 80z" />
<glyph unicode="&#xe93f;" glyph-name="btn-question" data-tags="btn-question" d="M510.080 960c-279.68 0-510.080-230.4-510.080-510.080 0-283.52 230.4-513.92 510.080-513.92 283.52 0 513.92 230.4 513.92 513.92 0 279.68-230.4 510.080-513.92 510.080zM448 96v96h96v-96h-96zM415.68 801.28h256.8l-0.48-321.28c0-32-32-64-63.68-71.68l-64.16-22.72-0.16-129.6h-96v192l128 48v208h-128v-64h-96l-0.48 97.12c0.48 46.88 17.12 64.16 64.16 64.16z" />
<glyph unicode="&#xe940;" glyph-name="btn-radar" data-tags="btn-radar" d="M512 960c-282.72 0-512-229.28-512-512s229.28-512 512-512c282.72 0 512 229.28 512 512s-229.28 512-512 512zM512 544c5.28 0 10.72-0.48 16-1.28v-16.32c-5.44 0.96-10.72 1.44-16 1.44v16.16zM512 832c143.36 0 282.080-85.28 352-208l-48.96-28.96c31.040-52.32 48.96-113.6 48.96-179.040 0-50.080-10.4-97.6-29.28-140.64 12.64-6.72 21.28-20 21.28-35.36 0-22.080-17.92-40-40-40-7.84 0-15.2 2.24-21.28 6.24-64.16-86.4-166.88-142.24-282.72-142.24-86.88 0-166.4 31.52-227.84 83.68-7.2-7.2-17.12-11.68-28.16-11.68-22.080 0-40 17.92-40 40 0 11.84 5.28 22.56 13.44 29.92-43.52 58.56-69.44 131.36-69.44 210.080 0 65.44 17.76 126.72 48.8 179.040l-48.8 28.96c21.28 37.92 48.8 72 81.12 101.12-5.76 6.88-9.12 15.68-9.12 25.28 0 22.080 17.92 40 40 40 13.76 0 25.92-6.88 33.12-17.6 62.080 37.6 133.76 59.2 206.88 59.2zM801.6 587.2l-84-49.76c21.76-35.84 34.4-77.6 34.4-121.44 0-129.6-110.4-240-240-240s-240 110.4-240 240c0 43.84 12.64 85.6 34.4 121.44l-84 49.76c-29.44-50.080-46.4-108.64-46.4-171.2 0-76 24.96-145.92 67.040-202.080 4.16 1.28 8.48 2.080 12.96 2.080 22.080 0 40-17.92 40-40 0-5.44-1.12-10.56-3.040-15.36 58.72-50.24 135.2-80.64 219.040-80.64 111.68 0 210.24 53.76 271.2 137.12-4.48 6.4-7.2 14.4-7.2 22.88 0 22.080 17.92 40 40 40l3.52-0.16c18.24 41.6 28.48 87.52 28.48 136.16 0 62.56-16.96 121.12-46.4 171.2zM704 529.44l-84-49.6c12.48-19.36 20-41.44 20-63.84 0-64.8-63.2-128-128-128s-128 63.2-128 128c0 22.24 7.52 44.48 20 63.84l-84 49.6c-20.32-33.44-32-72.32-32-113.44 0-121.6 102.4-224 224-224s224 102.4 224 224c0 41.12-11.68 80-32 113.44zM606.56 471.84l-73.92-43.68c2.080-3.52 3.36-7.68 3.36-12.16 0-13.28-10.72-24-24-24s-24 10.72-24 24c0 4.48 1.28 8.64 3.36 12.16l-73.92 43.68c-10.88-16.96-17.44-36.32-17.44-55.84 0-56.64 55.36-112 112-112s112 55.36 112 112c0 19.52-6.56 38.88-17.44 55.84zM840 632c-67.84 105.76-192.96 184-328 184-72 0-141.28-22.24-200.48-59.2 0.32-2.080 0.48-4.16 0.48-6.4 0-21.92-17.92-39.84-40-39.84-6.24 0-12 1.28-17.28 3.84-27.52-24.48-51.36-52.32-70.72-82.4l40-24.32v10.72c5.12 7.2 10.4 14.24 16 21.12v-25.6c-2.72-3.68-5.28-7.52-7.84-11.2l87.84-53.6v8.48c4.96 6.72 10.4 13.12 16 19.2v-24c-2.4-3.040-4.64-6.24-6.88-9.28l86.88-52.96v5.44c4.8 5.6 10.24 11.040 16 16v-21.6c-1.92-2.080-3.68-4.16-5.44-6.24l75.68-46.24c3.040 1.28 6.24 2.080 9.76 2.080s6.72-0.8 9.76-2.080l86.24 52.64v5.6l3.040-3.84 92.8 56.64v8.8l4.48-6.080 91.52 55.84v11.040l5.44-7.68 34.72 21.12zM512 656c5.28 0 10.56-0.16 16-0.48v-16.16c-5.28 0.48-10.72 0.64-16 0.64v0 16zM544 653.76c5.28-0.8 10.72-1.76 16-2.88v-16.32c-5.28 1.28-10.72 2.24-16 3.040v16.16zM576 646.88c5.28-1.6 10.72-3.36 15.84-5.28v-16.96c-5.12 2.080-10.56 4-15.84 5.6v16.64zM608 635.040c5.28-2.4 10.72-5.12 15.84-8v-18.080c-5.12 3.2-10.4 6.080-15.84 8.64v17.44zM639.84 617.6c5.6-3.52 10.88-7.36 16-11.36v-20c-5.12 4.32-10.4 8.48-16 12.32v19.040zM671.84 592.96c5.6-5.12 11.040-10.4 16-16v-24c-4.96 6.24-10.24 12.48-16 18.24v21.76zM352 592.8c5.12 4.64 10.4 9.12 16 13.44v-20.16c-5.6-4.8-10.88-9.76-16-15.040v21.76zM384 617.44c5.12 3.36 10.56 6.56 16 9.6v-18.080c-5.6-3.2-10.88-6.72-16-10.4v18.88zM416 635.040c5.12 2.4 10.56 4.48 16 6.56v-16.96c-5.44-2.080-10.88-4.48-16-7.040v17.44zM448 646.88c5.28 1.44 10.56 2.88 16 4v-16.32c-5.44-1.28-10.72-2.72-16-4.32v16.64zM480 653.76c5.28 0.64 10.56 1.28 16 1.6v-16c-5.44-0.32-10.72-0.96-16-1.76v16.16zM512 768c5.28 0 10.72-0.16 16-0.32v-16c-5.44 0.16-10.72 0.32-16 0.32v0 16zM544 766.56c5.28-0.48 10.56-1.12 16-1.76v-16.16c-5.44 0.8-10.72 1.44-16 1.92v16zM576 762.24c5.28-0.96 10.72-2.080 15.84-3.36v-16.32c-5.12 1.28-10.56 2.4-15.84 3.36v16.32zM608 754.72c5.28-1.44 10.72-3.2 15.84-4.96v-16.64c-5.12 1.76-10.56 3.52-15.84 5.12v16.48zM639.84 744c5.44-2.080 10.72-4.32 16-6.72v-17.28c-5.12 2.4-10.56 4.8-16 7.040v16.96zM671.84 729.76c5.44-2.88 10.88-5.76 16-8.8v-18.24c-5.12 3.2-10.56 6.24-16 9.28v17.76zM703.84 711.2c5.44-3.52 10.88-7.2 16-11.040v-19.68c-5.12 4.16-10.4 8-16 11.84v18.88zM735.84 687.68c5.6-4.48 10.88-9.28 16-14.080v-21.76c-5.12 5.28-10.4 10.4-16 15.2v20.64zM767.84 657.76c5.6-5.92 10.88-11.84 16-18.080v-25.6c-4.96 7.040-10.4 13.76-16 20.32v23.36zM256 657.6c5.12 5.44 10.4 10.72 16 15.84v-21.76c-5.6-5.6-10.88-11.36-16-17.44v23.36zM288 687.52c5.12 4.32 10.56 8.48 16 12.48v-19.52c-5.44-4.32-10.88-8.8-16-13.44v20.48zM320 711.040c5.28 3.52 10.56 6.72 16 9.92v-18.24c-5.44-3.36-10.88-6.88-16-10.56v18.88zM352 729.6c5.28 2.72 10.56 5.28 16 7.68v-17.28c-5.44-2.56-10.72-5.28-16-8.16v17.76zM384 744c5.28 2.080 10.56 4 16 5.76v-16.8c-5.44-1.76-10.72-3.84-16-5.92v16.96zM416 754.72c5.28 1.6 10.56 2.88 16 4.16v-16.32c-5.44-1.28-10.72-2.72-16-4.32v16.48zM448 762.24c5.28 0.96 10.56 1.76 16 2.4v-16c-5.44-0.8-10.72-1.6-16-2.72v16.32zM480 766.56c5.28 0.48 10.56 0.8 16 1.12v-16c-5.44-0.32-10.72-0.64-16-1.12v16zM544 539.040c5.44-1.76 10.72-3.84 16-6.24v-17.76c-5.28 2.88-10.56 5.12-16 7.040v16.96zM576 524c5.44-3.52 10.88-7.52 15.84-11.84v-21.76c-4.8 5.28-10.24 10.080-15.84 14.4v19.2zM448 523.84c5.12 3.36 10.4 6.4 16 8.96v-17.76c-5.6-3.040-11.040-6.4-16-10.24v19.040zM480 539.040c5.28 1.6 10.56 2.88 16 3.68v-16.32c-5.44-0.96-10.88-2.4-16-4.32v16.96z" />
<glyph unicode="&#xe941;" glyph-name="btn-reverse" data-tags="btn-reverse" d="M512 944c282.72 0 512-229.28 512-512s-229.28-512-512-512c-282.72 0-512 229.28-512 512s229.28 512 512 512zM528 704c0 32-32 64-64 64-16 0-48-32-80-64l-144-160c-36.64-40.8-64-80-64-96s25.44-53.28 64-96l144-160c32-32 64-64 80-64 32 0 64 32 64 64s0 64 0 112l112-112c32-32 64-64 96-64 16 0 48 32 48 64v512c0 32-32 64-64 64s-48-32-80-64l-112-112c0 37.28 0 74.72 0 112z" />
<glyph unicode="&#xe942;" glyph-name="btn-ring" data-tags="btn-ring" d="M512 960c-282.72 0-512-229.28-512-512s229.28-512 512-512c282.72 0 512 229.28 512 512s-229.28 512-512 512zM355.68 624.96c30.72 17.76 36.96 21.44 61.44 35.52 61.44 35.2 149.6-47.040 206.72-146.72 56.32-98.4 82.24-213.76 21.6-248.96-24.48-14.080-30.56-17.6-61.44-35.36-48.16-27.84-128.64 55.52-185.6 153.44-57.92 99.36-91.68 213.92-42.72 242.080zM392 619.040c-30.24-32.8 0.16-127.52 48.64-211.040 47.84-82.24 113.44-153.76 156.48-144.16 20.32 41.76-6.88 127.52-50.72 204.48-44.8 78.4-107.2 147.36-154.4 150.72z" />
<glyph unicode="&#xe943;" glyph-name="btn-settings" data-tags="btn-settings" d="M504 960c-278.4 0-504-229.28-504-512s225.6-512 504-512c278.4 0 504 229.28 504 512s-225.6 512-504 512zM512 677.12c10.24 0 20.48-0.64 30.4-2.080l37.28 76.48 100.8-42.080-28.64-80c15.84-12.16 30.080-26.56 42.24-42.4l80.48 27.68 41.44-101.12-76.8-36.16c1.28-9.6 1.92-19.52 1.92-29.44 0-10.24-0.64-20.48-2.080-30.4l76.48-37.28-42.080-100.8-80 28.64c-12.16-15.84-26.56-30.080-42.4-42.24l27.68-80.48-101.12-41.44-36.16 76.8c-9.6-1.28-19.52-1.92-29.44-1.92-10.24 0-20.48 0.64-30.4 2.080l-37.28-76.48-100.8 42.080 28.64 80c-15.84 12.16-30.080 26.56-42.24 42.4l-80.48-27.68-41.44 101.12 76.8 36.16c-1.28 9.6-1.92 19.52-1.92 29.44 0 10.24 0.64 20.48 2.080 30.4l-76.48 37.28 42.080 100.8 80-28.64c12.16 15.84 26.56 30.080 42.4 42.24l-27.68 80.48 101.12 41.44 36.16-76.8c9.6 1.28 19.52 1.92 29.44 1.92zM512 529.76c45.28 0 81.76-36.48 81.76-81.76s-36.48-81.76-81.76-81.76c-45.28 0-81.76 36.48-81.76 81.76s36.48 81.76 81.76 81.76z" />
<glyph unicode="&#xe944;" glyph-name="btn-share" data-tags="btn-share" d="M512 960c-282.72 0-512-229.28-512-512s229.28-512 512-512c282.72 0 512 229.28 512 512s-229.28 512-512 512zM696 720c44.16 0 80-35.84 80-80s-35.84-80-80-80c-24.32 0-46.24 10.88-60.8 28l-229.76-119.84c1.6-6.4 2.56-13.12 2.56-20.16s-0.96-13.76-2.56-20.16l234.88-122.56c14.72 18.72 37.44 30.72 63.040 30.72 44.16 0 80-35.84 80-80s-35.84-80-80-80c-44.16 0-80 35.84-80 80 0 8.16 1.28 16 3.52 23.52l-233.76 121.92c-14.56-20.16-38.24-33.44-65.12-33.44-44.16 0-80 35.84-80 80s35.84 80 80 80c26.88 0 50.56-13.28 65.12-33.44l227.52 118.72c-3.040 8.32-4.64 17.28-4.64 26.72 0 44.16 35.84 80 80 80z" />
<glyph unicode="&#xe945;" glyph-name="btn-shield" data-tags="btn-shield" d="M512 960c-282.72 0-512-229.28-512-512s229.28-512 512-512c282.72 0 512 229.28 512 512s-229.28 512-512 512zM512 696l-64-16-96-16h-64l16-240 16-80 80-128 112-72 112 72 81.92 121.92 14.080 86.080 16.48 239.68-80.48 0.32-79.36 15.68-64.64 16.32zM512 624l47.84-12 58.72-11.68 59.52-0.16-12.32-177.12-10.4-63.84-60.48-89.92-67.52-43.36-15.36 230.080v-240l-82.72 53.28-59.040 94.56-11.84 59.2-11.84 177.28h47.2l71.040 11.84 47.2 11.84zM512 656l55.2-13.92 68-13.44 68.8-0.32-14.080-204.96-12.16-73.6-69.92-104.16-95.84-61.6-95.68 61.6-68.48 109.44-13.6 68.32-13.76 205.28h54.72l82.080 13.6 54.72 13.76z" />
<glyph unicode="&#xe946;" glyph-name="btn-signal" data-tags="btn-signal" d="M512 960c-282.72 0-512-229.28-512-512s229.28-512 512-512c282.72 0 512 229.28 512 512s-229.28 512-512 512zM478.24 393.6c-18.080 11.36-30.24 31.36-30.24 54.4 0 35.36 28.64 64 64 64s64-28.64 64-64c0-23.040-12.16-43.040-30.24-54.4l189.76-305.6h-114.24l-44.8 72h-128.96l-44.8-72h-114.24l189.76 305.6zM646.080 585.44c35.68-34.88 57.92-83.52 57.92-137.44 0-43.84-14.72-84.32-39.52-116.64l-18.4 29.44c16.48 25.12 25.92 55.040 25.92 87.2 0 42.24-16.48 80.8-43.2 109.44l17.28 28zM359.52 331.36c-24.8 32.32-39.52 72.8-39.52 116.64 0 53.92 22.24 102.56 57.92 137.44l17.28-28c-26.72-28.64-43.2-67.2-43.2-109.44 0-32.16 9.44-62.080 25.92-87.2l-18.4-29.44zM697.6 668.16c62.56-52.8 102.4-131.84 102.4-220.16 0-78.72-31.52-149.92-82.72-201.92l-18.24 29.44c41.92 45.28 67.52 105.92 67.52 172.48 0 76.32-33.6 144.8-86.88 191.52l17.92 28.64zM306.72 246.080c-51.2 52-82.72 123.2-82.72 201.92 0 88.32 39.84 167.36 102.4 220.16l17.92-28.64c-53.28-46.72-86.88-115.2-86.88-191.52 0-66.56 25.6-127.2 67.52-172.48l-18.24-29.44zM748.64 750.4c89.76-70.24 147.36-179.52 147.36-302.4 0-113.12-48.96-215.040-127.040-285.28l-12.8 20.8c71.2 65.76 115.84 159.84 115.84 264.48 0 114.24-53.28 216-136.16 281.92l12.8 20.48zM255.040 162.72c-78.080 70.24-127.040 172.16-127.040 285.28 0 122.88 57.6 232.16 147.36 302.4l12.8-20.48c-82.88-65.92-136.16-167.68-136.16-281.92 0-104.64 44.64-198.72 115.84-264.48l-12.8-20.8z" />
<glyph unicode="&#xe947;" glyph-name="btn-skill" data-tags="btn-skill" d="M512 960c282.72 0 512-229.28 512-512 0-39.68-4.48-78.24-13.12-115.36l-498.88 497.92-498.88-497.92c-8.64 37.12-13.12 75.68-13.12 115.36 0 282.72 229.28 512 512 512zM996.8 283.040c-20.48-60.48-52.16-115.84-92.16-163.68l-280.64 280.64v-64l250.080-250.080c-92.64-92.64-220.64-149.92-362.080-149.92s-269.44 57.28-362.080 149.92l250.080 250.080v64l-280.64-280.64c-40 47.84-71.52 103.2-92.16 163.52l484.8 483.84 484.8-483.68zM720 160l-144 32-32 32v32l56 56 8 136-64 64h-64l-64-64 8-136 56-56v-32l-32-32-144-32-32-80h480l-32 80z" />
<glyph unicode="&#xe948;" glyph-name="btn-social-android" data-tags="btn-social-android" d="M512 960c282.72 0 512-229.28 512-512s-229.28-512-512-512c-282.72 0-512 229.28-512 512s229.28 512 512 512zM241.12 521.28v-165.44c0-21.92 17.76-39.52 39.52-39.52s39.52 17.6 39.52 39.52v165.44c0 51.84-79.040 51.84-79.040 0zM782.88 521.28c0 21.76-17.6 39.52-39.52 39.52-21.76 0-39.52-17.76-39.52-39.52v-165.44c0-21.76 17.76-39.52 39.68-39.52 21.76 0 39.36 17.76 39.36 39.52v165.44zM335.52 548.48v-251.52c0-23.36 18.88-42.24 42.24-42.24h28.64v-87.52c0-21.76 17.76-39.52 39.52-39.52s39.52 17.76 39.52 39.52v87.52h53.28v-87.52c0-21.76 17.76-39.52 39.52-39.52s39.52 17.76 39.52 39.68v87.36h28.8c23.2 0 42.080 18.88 42.080 42.24v251.68l-353.12-0.16zM604.64 706.4l25.12 51.52c1.6 2.72 0.16 8.32-2.56 9.92-2.72 1.28-8.64-0.32-10.080-3.040l-27.84-50.88c-23.52 10.56-49.6 16.32-77.44 16.32-27.68 0-53.92-5.76-77.28-16.16l-27.68 50.72c-1.44 2.72-8.48 4.48-11.040 3.040-2.72-1.44-5.6-6.72-4.16-9.44l27.84-52c-54.24-28-84.16-81.76-84.16-142.88h352c0 61.12-28.64 114.88-82.72 142.88zM591.36 627.52c-8.8 0-16 7.2-16 16s7.2 16 16 16c8.8 0 16-7.2 16-16s-7.2-16-16-16zM431.36 627.52c-8.8 0-16 7.2-16 16s7.2 16 16 16c8.8 0 16-7.2 16-16s-7.2-16-16-16z" />
<glyph unicode="&#xe949;" glyph-name="btn-social-delicius" data-tags="btn-social-delicius" d="M512 960c282.72 0 512-229.28 512-512s-229.28-512-512-512c-282.72 0-512 229.28-512 512s229.28 512 512 512zM512 448h-320v-320h320v320zM832 768h-320v-320h320v320z" />
<glyph unicode="&#xe94a;" glyph-name="btn-social-deviantart" data-tags="btn-social-deviantart" d="M512 960v0c281.6 0 512-230.4 512-512v0c0-281.6-230.4-512-512-512v0c-281.6 0-512 230.4-512 512v0c0 281.6 230.4 512 512 512zM704 640.16l6.080 11.52v116.32h-116.32l-11.68-11.68-54.88-104.64-17.28-11.68h-196v-159.84h107.84l9.6-11.52-117.44-224.32v-116.32h116.32l11.68 11.68 54.88 104.64 17.28 11.68h196v159.84h-107.68l-9.6 11.68 111.2 212.64z" />
<glyph unicode="&#xe94b;" glyph-name="btn-social-facebook" data-tags="btn-social-facebook" d="M512 960c282.72 0 512-229.28 512-512s-229.28-512-512-512c-282.72 0-512 229.28-512 512s229.28 512 512 512zM796.64 768h-569.28c-19.52 0-35.36-15.84-35.36-35.36v-569.28c0-19.52 15.84-35.36 35.36-35.36h306.56v247.84h-83.52v96.48h83.52v71.36c0 82.72 50.4 127.68 124.16 127.68 35.36 0 65.76-2.56 74.56-3.84v-86.4h-51.2c-40 0-47.84-19.040-47.84-47.040v-61.6h95.52l-12.32-96.64h-83.2v-247.84h163.040c19.52 0 35.36 15.84 35.36 35.36v569.28c0 19.52-15.84 35.36-35.36 35.36z" />
<glyph unicode="&#xe94c;" glyph-name="btn-social-flickr" data-tags="btn-social-flickr" d="M512 960c282.72 0 512-229.28 512-512s-229.28-512-512-512c-282.72 0-512 229.28-512 512s229.28 512 512 512zM192 448c0-81.92 66.56-148.32 148.32-148.32 82.080 0 148.64 66.4 148.64 148.32s-66.56 148.48-148.64 148.48c-81.76 0-148.32-66.56-148.32-148.48zM535.040 448c0-81.92 66.56-148.32 148.48-148.32s148.48 66.4 148.48 148.32c0 81.92-66.56 148.48-148.32 148.48-82.080 0-148.64-66.56-148.64-148.48z" />
<glyph unicode="&#xe94d;" glyph-name="btn-social-google" data-tags="btn-social-google" d="M512 960c282.72 0 512-229.28 512-512s-229.28-512-512-512c-282.72 0-512 229.28-512 512s229.28 512 512 512zM518.4 493.76v-109.76h181.44c-7.36-47.040-54.72-138.080-181.44-138.080-109.12 0-198.4 90.4-198.4 202.080 0 111.52 89.12 201.92 198.4 201.92 62.24 0 103.68-26.4 127.68-49.28l86.72 83.68c-55.84 52.16-128 83.68-214.4 83.68-176.96 0-320-143.040-320-320s143.040-320 320-320c184.64 0 307.2 129.76 307.2 312.64 0 21.12-2.24 37.12-4.96 53.12h-302.24z" />
<glyph unicode="&#xe94e;" glyph-name="btn-social-googledrive" data-tags="btn-social-googledrive" d="M512 960c-282.72 0-512-229.28-512-512s229.28-512 512-512c282.72 0 512 229.28 512 512s-229.28 512-512 512zM310.24 170.88l106.56 184.8h415.2l-106.72-184.8h-415.040zM405.28 355.68l-106.56-184.8-106.72 184.8 207.52 359.52 106.72-184.8-100.96-174.72zM826.24 365.6h-213.28l-207.68 359.52h213.44l207.52-359.52z" />
<glyph unicode="&#xe94f;" glyph-name="btn-social-googleplay" data-tags="btn-social-googleplay" d="M512 960c282.72 0 512-229.28 512-512s-229.28-512-512-512c-282.72 0-512 229.28-512 512s229.28 512 512 512zM224.48 768c-0.8-2.4-1.6-4.96-1.6-8.16v-619.52c0-5.76 1.6-8.96 4.96-12.32l304.32 322.56-307.68 317.44zM552.8 429.12l-255.2-271.52c78.72 45.12 221.44 126.4 221.44 126.4l112.48 64-78.72 81.12zM574.080 451.36l84.48-87.84c13.28 7.36 116.48 66.4 131.36 74.72 15.52 8.96 13.92 21.28 0.8 27.84-12.32 6.56-115.68 65.6-131.2 75.52l-85.44-90.24zM552.8 472.64l79.52 84.48-113.28 64.8c0 0-185.44 105.92-246.88 141.28l280.64-290.56z" />
<glyph unicode="&#xe950;" glyph-name="btn-social-googleplus" data-tags="btn-social-googleplus" d="M512 960c282.72 0 512-229.28 512-512s-229.28-512-512-512c-282.72 0-512 229.28-512 512s229.28 512 512 512zM395.52 476.16v-69.76h115.68c-19.84-127.84-241.6-115.84-241.6 40.64 0 114.080 134.24 167.52 207.2 97.28l55.36 53.12c-125.76 117.6-340.16 28.96-340.16-150.4 0-282.72 446.88-264.16 396 29.12h-192.48zM832 418.080v58.080h-58.24v58.24h-58.080v-58.24h-58.24v-58.080h58.24v-58.24h58.24v58.24h58.080z" />
<glyph unicode="&#xe951;" glyph-name="btn-social-hangouts" data-tags="btn-social-hangouts" d="M512 960c282.72 0 512-229.28 512-512s-229.28-512-512-512c-282.72 0-512 229.28-512 512s229.28 512 512 512zM512 768c-154.72 0-280-125.28-280-280 0-146.72 133.28-266.72 280-266.72v-93.28c169.28 82.72 280 218.72 280 360 0 154.72-125.28 280-280 280zM378.72 448h66.56v-66.72c29.44 0 53.44 29.44 53.44 66.72v120h-120v-120zM538.72 568v-120h66.56v-66.72c29.44 0 53.44 29.44 53.44 66.72v120h-120z" />
<glyph unicode="&#xe952;" glyph-name="btn-social-line" data-tags="btn-social-line" d="M512 960c282.72 0 512-229.28 512-512s-229.28-512-512-512c-282.72 0-512 229.28-512 512s229.28 512 512 512zM708.48 505.12c22.080 0 22.080-33.6 0-33.6h-46.88v-29.92c30.24 0 63.52 6.24 63.52-16.8 0-24.64-40.8-16.8-80.32-16.8-28.64 0-16.64 79.84-16.64 144 0 24.48 40.8 16.8 80.32 16.8 21.92 0 22.080-33.6 0-33.6h-46.88v-30.080h46.88zM575.36 414.72l-65.28 88.64c0-47.2 8.96-95.36-16.8-95.36-28.64 0-16.64 79.84-16.64 144 0 16 20.64 22.88 30.24 9.92l65.12-88.64c0 47.040-8.8 95.52 16.8 95.52 28.64 0 16.8-79.36 16.8-143.84 0-16.48-20.8-23.040-30.24-10.24zM452.48 424.8c0-22.080-33.44-22.24-33.44 0 0 64.48-12 144 16.8 144 28.64 0 16.64-79.84 16.64-144zM386.72 408c-100.32 0-80.48-24-80.48 144 0 21.92 33.6 22.080 33.6 0v-110.4c30.4 0 63.68 6.4 63.68-16.8 0-9.28-7.52-16.8-16.8-16.8zM832 493.12c0 143.2-143.52 259.84-320 259.84-371.2 0-456.16-445.92-52.48-516 73.76-12.8-18.72-119.36 52.48-89.28 34.24 14.4 184.32 108.48 251.52 185.76 46.24 50.72 68.48 102.4 68.48 159.68z" />
<glyph unicode="&#xe953;" glyph-name="btn-social-netflix" data-tags="btn-social-netflix" d="M512 960c282.72 0 512-229.28 512-512s-229.28-512-512-512c-282.72 0-512 229.28-512 512s229.28 512 512 512zM445.6 140.64v352.96l119.36-338.72c36.64 4.16 73.44 8 110.24 11.68v601.44h-96.8v-365.6l-128.64 365.6h-100.96v-640l96.8 12.64z" />
<glyph unicode="&#xe954;" glyph-name="btn-social-playstation" data-tags="btn-social-playstation" d="M512 960c282.72 0 512-229.28 512-512s-229.28-512-512-512c-282.72 0-512 229.28-512 512s229.28 512 512 512zM431.36 698.56v-467.52l104.32-33.6v392c0 40.8 41.28 36.48 41.28-13.6v-156.48c65.12-31.84 116.32 0 116.32 84 0 86.24-30.080 124.48-118.24 155.2l-143.68 40zM555.36 265.92v-61.44l227.84 83.040c143.84 52.96-59.040 140.32-227.84 81.12v-63.52l111.68 39.84c47.2 17.12 100.32-2.4 56-18.4l-167.68-60.64zM261.6 362.080c-55.52-19.36-115.84-62.88-21.6-89.92 60.16-20 113.6-21.28 171.040-11.36v55.040c-33.92-12.48-78.56-34.080-113.92-22.24-44.16 14.72 81.28 48.96 114.080 60.8v61.44l-149.6-53.76z" />
<glyph unicode="&#xe955;" glyph-name="btn-social-podcasts" data-tags="btn-social-podcasts" d="M512 960c-282.72 0-512-229.28-512-512s229.28-512 512-512c282.72 0 512 229.28 512 512s-229.28 512-512 512zM511.040 128c0 0-70.24 0-70.24 207.84 0 92.48 140.32 92.48 140.32 0 0-207.84-70.080-207.84-70.080-207.84zM605.92 244.48c253.76 104.96 179.68 476.64-87.52 483.36-274.72 6.88-359.36-374.88-102.4-482.56l8.8-45.76c-256.8 79.040-274.88 440.48-26.24 545.6 248 104.8 493.44-156.8 374.080-397.28-35.52-71.52-99.36-125.6-175.52-148.96l8.8 45.6zM608.16 360.48c156.32 129.12-46.4 366.080-197.92 228.48-67.68-61.6-65.92-167.68 3.84-227.2l-3.36-47.2c-195.68 122.080-43.68 425.12 171.2 340.48 146.24-57.44 165.12-259.040 28.96-341.76l-2.72 47.2zM511.040 427.040c-93.12 0-93.44 141.76 0.48 141.76 92 0 92.96-141.76-0.48-141.76z" />
<glyph unicode="&#xe956;" glyph-name="btn-social-skype" data-tags="btn-social-skype" d="M512 960c282.72 0 512-229.28 512-512s-229.28-512-512-512c-282.72 0-512 229.28-512 512s229.28 512 512 512zM393.6 391.040c45.92 0 33.92-66.080 119.84-66.080 73.76 0 93.12 71.2 31.84 86.56-98.4 24.48-186.24 31.040-186.24 124 0 160.8 292.16 127.040 292.16 26.4 0-20.8-18.080-32.96-38.88-32.96-39.2 0-31.84 54.4-110.88 54.4-59.68 0-102.24-60.64-3.040-83.040 81.76-18.24 167.68-26.080 167.68-120.96 0-86.24-80.16-116.32-154.4-115.36-159.68 0-187.52 127.040-118.080 127.040zM809.44 394.56c36.8 184.16-111.68 357.92-297.28 357.92l-56.96-5.44c-0.8-0.16-0.96 0.32-1.28 0.32-156.32 82.56-324.96-90.56-239.68-245.28 0.48-0.64 0.32-0.32 0.16-1.12-35.68-205.92 144-386.24 349.6-349.92 0.64 0 1.28 0 2.24-0.48 157.44-87.52 330.56 88.48 243.2 244z" />
<glyph unicode="&#xe957;" glyph-name="btn-social-spotify" data-tags="btn-social-spotify" d="M512 960c-281.6 0-512-230.4-512-512s230.4-512 512-512c281.6 0 512 230.4 512 512s-227.84 512-512 512zM747.52 220.16c-45.44-68.16-133.44 131.040-494.080 38.4-39.2-10.080-56.32 50.080-15.36 61.44 213.6 59.36 551.68-15.36 509.44-99.84v0zM808.96 360.96c-12.8-17.92-35.84-25.6-53.76-12.8-138.24 84.48-348.16 110.080-509.44 58.88-51.68-14.56-69.6 61.44-23.040 74.24 186.88 56.32 417.28 28.16 576-69.12 29.6-16.48 10.24-50.88 10.24-51.2zM814.080 504.32c-163.84 97.28-437.76 107.52-593.92 58.88-59.36-18.080-86.24 71.36-28.16 89.6 255.68 80.48 763.68-17.12 688.64-135.68-12.8-17.92-43.52-25.6-66.56-12.8v0z" />
<glyph unicode="&#xe958;" glyph-name="btn-social-twitter" data-tags="btn-social-twitter" d="M512 960c282.72 0 512-229.28 512-512s-229.28-512-512-512c-282.72 0-512 229.28-512 512s229.28 512 512 512zM832 646.4c-23.68-10.4-48.8-17.44-75.36-20.64 27.040 16.32 47.84 42.080 57.6 72.64-25.28-15.040-53.44-25.92-83.36-31.84-90.080 96.32-253.92 12.32-223.68-119.68-109.12 5.44-205.92 57.76-270.72 137.12-34.88-59.36-16.96-136.8 40.64-175.36-21.44 0.8-41.76 6.72-59.52 16.48 0-65.12 44.48-118.24 105.44-130.4l-59.36-2.24c16.8-52.16 65.28-90.080 122.72-91.2-53.92-42.24-123.040-62.72-194.4-54.4 252.96-161.92 587.36 23.68 574.4 331.52 25.76 18.56 48 41.6 65.6 68z" />
<glyph unicode="&#xe959;" glyph-name="btn-social-vine" data-tags="btn-social-vine" d="M512 960c282.72 0 512-229.28 512-512s-229.28-512-512-512c-282.72 0-512 229.28-512 512s229.28 512 512 512zM647.68 671.84c56.8 0 42.24-97.44 29.76-138.88 0 0 24.8-43.52 92.8-30.080 42.24 94.24 38.24 265.12-119.36 265.12-194.56 0-193.28-299.040-32.16-380.8-30.72-61.28-69.76-115.36-110.4-156-73.76 89.28-140.48 208.32-168 440.64h-108.8c46.88-361.44 212.16-585.92 302.080-535.2 32.32 18.4 128.96 115.040 182.56 228.32 22.4 0 49.44 2.56 76.32 8.64v76c0 0.48 0.16 0.16-0.16 0.16-209.28-48.16-226.88 222.080-144.64 222.080z" />
<glyph unicode="&#xe95a;" glyph-name="btn-social-whatsapp" data-tags="btn-social-whatsapp" d="M512 960c282.72 0 512-229.28 512-512s-229.28-512-512-512c-282.72 0-512 229.28-512 512s229.28 512 512 512zM656.96 385.28c-77.92 39.2-56.48 34.72-95.84-10.080-21.6-24.48-149.12 81.76-122.080 108.48 33.44 33.28 21.76 34.88-5.28 99.84-20.64 49.44-139.040-25.28-49.76-144.16 32.32-43.040 132.48-154.24 231.52-139.52 36.16 5.44 86.080 60 45.92 83.36-0.48 0.16-4 1.92-4.48 2.080zM509.44 187.2c-53.44 0.64-95.36 15.52-140.64 42.4l-100.32-26.080 26.88 97.12c-179.68 280.8 187.52 553.44 405.28 336.64 162.88-162.080 52.48-438.88-173.44-449.76-2.56-0.16-15.2-0.32-17.76-0.32zM743.040 670.72c-0.64 0.48-15.040 14.72-15.68 15.2-261.92 239.040-671.68-79.84-490.24-393.6l-45.12-164.32 168.96 44c2.4-0.16 62.080-38.56 152.48-38.56 281.28 0 422.72 337.92 229.6 537.28z" />
<glyph unicode="&#xe95b;" glyph-name="btn-social-wikipedia" data-tags="btn-social-wikipedia" d="M512 960c-282.72 0-512-229.28-512-512s229.28-512 512-512c282.72 0 512 229.28 512 512s-229.28 512-512 512zM513.76 418.080c-24.96-51.36-59.040-121.12-76-152.48-16.32-28.48-29.92-24.8-40.8-0.8l-166.88 360.64c-20.8 17.6-38.080-9.28-38.080 23.52h146.4c0-18.72 3.040-15.84-20.96-16.8-23.2-0.96-21.6-11.52-14.88-27.52 28.8-70.24 128.16-280 128.16-280l3.68-0.96 64.16 128-68.32 137.92c-42.24 83.52-46.88 14.88-46.88 59.36l118.88 0.32c0-42.080-50.88 11.040-17.92-55.36l42.24-86.56c53.6 106.88 73.6 122.72 22.88 125.6l-5.6 16.16h110.4c0-42.72-7.2 20.48-49.92-55.68l-62.56-117.28 74.4-152 4.48-1.28 116.96 277.76c16.64 42.24-40.96 25.28-40.96 36.96v11.68l135.36-0.16c0-41.6-36.32 9.76-63.36-55.68 0 0-107.52-246.4-144.48-328.32-14.080-26.72-28-24.32-40.16 0.8-15.2 31.52-46.88 100.8-70.24 152.16v0z" />
<glyph unicode="&#xe95c;" glyph-name="btn-social-windows" data-tags="btn-social-windows" d="M512 960c282.72 0 512-229.28 512-512s-229.28-512-512-512c-282.72 0-512 229.28-512 512s229.28 512 512 512zM475.68 442.4v-264.64l356.32-49.76v314.4h-356.32zM464.96 442.4h-272.96v-225.12l272.96-38.080v263.2zM464.96 453.12v263.68l-272.96-38.24v-225.6l272.96 0.16zM475.52 453.12h356.48v314.88l-356.32-49.76v-265.12h-0.16z" />
<glyph unicode="&#xe95d;" glyph-name="btn-social-xbox" data-tags="btn-social-xbox" d="M512 960c282.72 0 512-229.28 512-512s-229.28-512-512-512c-282.72 0-512 229.28-512 512s229.28 512 512 512zM301.28 207.040c122.080-107.040 312-103.2 421.44 0 50.080 51.040-115.040 232.32-210.72 304.48-95.52-72.16-260.8-253.44-210.72-304.48zM599.040 591.36c66.56-79.040 199.52-275.2 161.92-344.48 160.64 198.72 4 431.040-33.92 431.040-15.68 0-52.8-11.68-128-86.56v0zM289.44 676.64c-37.76-12.8-182.24-236.8-26.56-429.6-37.28 69.44 95.52 265.28 162.24 344.32-74.4 74.24-119.040 92.16-135.68 85.28v0zM512 673.44v-0.16c0.16 0.48 125.12 72.96 180.48 39.2-111.36 74.24-249.6 74.4-360.96 0 51.040 33.6 175.68-36.32 180.48-39.040z" />
<glyph unicode="&#xe95e;" glyph-name="btn-social-youtube" data-tags="btn-social-youtube" d="M512 960c-282.72 0-512-229.28-512-512s229.28-512 512-512c282.72 0 512 229.28 512 512s-229.28 512-512 512zM192 473.12c0 218.88 37.76 199.84 320 200.96 0 0 134.4-0.16 224-6.72 107.68-10.4 96-125.92 96-244.48 0-102.4-2.72-185.28-96-194.24l-441.6-0.32c-95.52 13.6-102.4 68.48-102.4 194.4v50.4zM445.92 364v179.84l172.96-90.24-172.96-89.6z" />
<glyph unicode="&#xe95f;" glyph-name="btn-start" data-tags="btn-start" d="M512 960c-282.72 0-512-229.28-512-512s229.28-512 512-512c282.72 0 512 229.28 512 512s-229.28 512-512 512zM751.84 480c8.96-6.080 16.16-19.52 16.16-32 0-11.84-7.2-25.92-16.16-32l-288-192c-11.68-7.84-64-48-80-48s-32 10.080-32.16 33.76v476.32c0 24.64 16.16 33.92 32.16 33.92s66.56-39.2 79.36-47.84l288.64-192.16z" />
<glyph unicode="&#xe960;" glyph-name="btn-statistic-columns" data-tags="btn-statistic-columns" d="M512 960c-282.72 0-512-229.28-512-512s229.28-512 512-512c282.72 0 512 229.28 512 512s-229.28 512-512 512zM712 256v304h48v-304h-48zM760 176h-496v48h496v-48zM488 256v464h48v-464h-48zM376 256v384h48v-384h-48zM600 256v336h48v-336h-48zM264 256v368h48v-368h-48z" />
<glyph unicode="&#xe961;" glyph-name="btn-status-bar2" data-tags="btn-status-bar2" d="M512 960c288 0 512-224 512-512s-224-512-512-512c-288 0-512 224-512 512s224 512 512 512zM608 704l-320-288h224l-96-224 288 288h-224l128 224z" />
<glyph unicode="&#xe962;" glyph-name="btn-stop" data-tags="btn-stop" d="M512 960c288 0 512-224 512-512s-224-512-512-512c-288 0-512 224-512 512s224 512 512 512zM736 640c0 32-32 64-64 64h-320c-32 0-64-32-64-64v-384c0-32 32-64 64-64h320c32 0 64 32 64 64v384z" />
<glyph unicode="&#xe963;" glyph-name="btn-target" data-tags="btn-target" d="M512 960c-282.72 0-512-229.28-512-512s229.28-512 512-512c282.72 0 512 229.28 512 512s-229.28 512-512 512zM553.76 723.2c120.32-18.080 215.36-113.12 233.44-233.44h44.8v-83.52h-44.8c-18.080-120.32-113.12-215.36-233.44-233.44v-44.8h-83.52v44.8c-120.32 18.080-215.36 113.12-233.44 233.44h-44.8v83.52h44.8c18.080 120.32 113.12 215.36 233.44 233.44v44.8h83.52v-44.8zM319.68 489.76h67.040v-83.52h-67.040c16.16-75.2 75.36-134.4 150.56-150.56v67.040h83.52v-67.040c75.2 16.16 134.4 75.36 150.56 150.56h-67.040v83.52h67.040c-16.16 75.2-75.36 134.4-150.56 150.56v-67.040h-83.52v67.040c-75.2-16.16-134.4-75.36-150.56-150.56z" />
<glyph unicode="&#xe964;" glyph-name="btn-text-align-center" data-tags="btn-text-align-center" d="M512 960c-282.72 0-512-229.28-512-512s229.28-512 512-512c282.72 0 512 229.28 512 512s-229.28 512-512 512zM272 584h480v-48h-480v48zM288 696h448v-48h-448v48zM352 248h320v-48h-320v48zM320 360h384v-48h-384v48zM192 472h640v-48h-640v48z" />
<glyph unicode="&#xe965;" glyph-name="btn-text-align-justify" data-tags="btn-text-align-justify" d="M512 960c-282.72 0-512-229.28-512-512s229.28-512 512-512c282.72 0 512 229.28 512 512s-229.28 512-512 512zM192 472h640v-48h-640v48zM192 584h640v-48h-640v48zM192 696h640v-48h-640v48zM192 248h480v-48h-480v48zM192 360h640v-48h-640v48z" />
<glyph unicode="&#xe966;" glyph-name="btn-text-align-left" data-tags="btn-text-align-left" d="M512 960c-282.72 0-512-229.28-512-512s229.28-512 512-512c282.72 0 512 229.28 512 512s-229.28 512-512 512zM192 696h448v-48h-448v48zM192 248h320v-48h-320v48zM192 360h384v-48h-384v48zM192 472h640v-48h-640v48zM192 584h480v-48h-480v48z" />
<glyph unicode="&#xe967;" glyph-name="btn-text-align-right" data-tags="btn-text-align-right" d="M512 960c282.72 0 512-229.28 512-512s-229.28-512-512-512c-282.72 0-512 229.28-512 512s229.28 512 512 512zM832 696h-448v-48h448v48zM832 248h-320v-48h320v48zM832 360h-384v-48h384v48zM832 472h-640v-48h640v48zM832 584h-480v-48h480v48z" />
<glyph unicode="&#xe968;" glyph-name="btn-timer" data-tags="btn-timer" d="M512 960c-282.72 0-512-229.28-512-512s229.28-512 512-512c282.72 0 512 229.28 512 512s-229.28 512-512 512zM512 768c88 0 167.68-35.52 225.6-93.12l-67.2 67.36 45.28 45.12 135.68-135.68-45.12-45.28-67.36 67.2c57.6-57.92 93.12-137.6 93.12-225.6 0-176.64-143.36-320-320-320s-320 143.36-320 320c0 176.64 143.36 320 320 320zM539.36 656.32c0 31.52-56 31.68-56 0v-240.16h56v240.16zM512 704c150.24 0 256-105.76 256-256s-105.76-256-256-256c-150.24 0-256 105.76-256 256s105.76 256 256 256z" />
<glyph unicode="&#xe969;" glyph-name="btn-tracking" data-tags="btn-tracking" d="M512 960c-288 0-512-224-512-512s224-512 512-512c288 0 512 224 512 512s-224 512-512 512zM448 512l-128-32-32 32-32 64-32 96v64l32 64 32 32 96-64 32-64 32-192zM576 256l32 192 32 64 96 64 32-32 32-64v-64l-32-96-32-64-32-32-128 32zM704 192l-32-96-32-32h-32l-64 32v64l32 64 128-32zM320 448l128 32 32-64v-64l-64-32h-32l-32 32-32 96z" />
<glyph unicode="&#xe96a;" glyph-name="btn-volume-down" data-tags="btn-volume-down" d="M512 960c-282.72 0-512-229.28-512-512s229.28-512 512-512c282.72 0 512 229.28 512 512s-229.28 512-512 512zM688.16 832.48c115.040 0 208.32-93.28 208.32-208.32s-93.28-208.16-208.32-208.16c-115.040 0-208.16 93.12-208.16 208.16s93.12 208.32 208.16 208.32zM192 521.12c0 18.24 18.24 36.64 36.64 36.64h55.040l127.68 146.24h36.64v-512h-36.64l-128 146.24c-18.24 0-36.48 0-54.72 0-18.4 0-36.64 18.4-36.64 36.64 0 48.8 0 97.44 0 146.24v0zM696 384.48c-25.28-99.040-108.48-175.2-211.36-189.92v37.12c83.2 13.92 150.72 74.88 174.080 154.56 9.6-1.28 19.52-1.76 29.44-1.76h7.84zM622.56 393.44c-19.68-62.88-72.48-111.2-137.92-124.64v37.44c49.6 12.8 89.12 51.040 103.68 100 11.040-5.12 22.4-9.44 34.24-12.8zM555.2 424.64c-8.16-37.28-35.2-67.52-70.56-80.16v40c21.76 12.8 36.48 36.48 36.48 63.52l-0.16 4.32c10.56-10.24 22.080-19.52 34.24-27.68zM688 504l96 200h-192l96-200zM688.16 797.28c95.68 0 173.12-77.44 173.12-173.12 0-95.52-77.44-173.12-173.12-173.12-95.52 0-173.12 77.6-173.12 173.12 0 95.68 77.6 173.12 173.12 173.12z" />
<glyph unicode="&#xe96b;" glyph-name="btn-volume-mute" data-tags="btn-volume-mute" d="M512 960c-282.72 0-512-229.28-512-512s229.28-512 512-512c282.72 0 512 229.28 512 512s-229.28 512-512 512zM688.16 832.48c115.040 0 208.32-93.28 208.32-208.32s-93.28-208.16-208.32-208.16c-115.040 0-208.16 93.12-208.16 208.16s93.12 208.32 208.16 208.32zM785.92 767.2l-97.92-97.92-97.76 97.76c27.84 19.040 61.6 30.24 97.92 30.24s69.92-11.040 97.76-30.080zM642.72 624l-97.44-97.44c-19.040 27.68-30.24 61.44-30.24 97.6s11.040 69.76 30.080 97.44l97.6-97.6zM590.56 481.28l97.44 97.44 97.6-97.6c-27.68-19.040-61.28-30.080-97.44-30.080s-69.92 11.2-97.6 30.24zM733.28 624l97.92 97.92c19.040-27.84 30.080-61.44 30.080-97.76s-11.2-70.080-30.24-97.92l-97.76 97.76zM192 521.12c0 18.24 18.24 36.64 36.64 36.64h55.040l127.68 146.24h36.64v-512h-36.64l-128 146.24c-18.24 0-36.48 0-54.72 0-18.4 0-36.64 18.4-36.64 36.64 0 48.8 0 97.44 0 146.24v0zM696 384.48c-25.28-99.040-108.48-175.2-211.36-189.92v37.12c83.2 13.92 150.72 74.88 174.080 154.56 9.6-1.28 19.52-1.76 29.44-1.76h7.84zM622.56 393.44c-19.68-62.88-72.48-111.2-137.92-124.64v37.44c49.6 12.8 89.12 51.040 103.68 100 11.040-5.12 22.4-9.44 34.24-12.8zM555.2 424.64c-8.16-37.28-35.2-67.52-70.56-80.16v40c21.76 12.8 36.48 36.48 36.48 63.52l-0.16 4.32c10.56-10.24 22.080-19.52 34.24-27.68z" />
<glyph unicode="&#xe96c;" glyph-name="btn-volume-up" data-tags="btn-volume-up" d="M512 960c-282.72 0-512-229.28-512-512s229.28-512 512-512c282.72 0 512 229.28 512 512s-229.28 512-512 512zM688.16 832.48c115.040 0 208.32-93.28 208.32-208.32s-93.28-208.16-208.32-208.16c-115.040 0-208.16 93.12-208.16 208.16s93.12 208.32 208.16 208.32zM192 521.12c0 18.24 18.24 36.64 36.64 36.64h55.040l127.68 146.24h36.64v-512h-36.64l-128 146.24c-18.24 0-36.48 0-54.72 0-18.4 0-36.64 18.4-36.64 36.64 0 48.8 0 97.44 0 146.24v0zM696 384.48c-25.28-99.040-108.48-175.2-211.36-189.92v37.12c83.2 13.92 150.72 74.88 174.080 154.56 9.6-1.28 19.52-1.76 29.44-1.76h7.84zM622.56 393.44c-19.68-62.88-72.48-111.2-137.92-124.64v37.44c49.6 12.8 89.12 51.040 103.68 100 11.040-5.12 22.4-9.44 34.24-12.8zM555.2 424.64c-8.16-37.28-35.2-67.52-70.56-80.16v40c21.76 12.8 36.48 36.48 36.48 63.52l-0.16 4.32c10.56-10.24 22.080-19.52 34.24-27.68zM688 736l-96-208h192l-96 208zM688.16 797.28c95.68 0 173.12-77.44 173.12-173.12 0-95.52-77.44-173.12-173.12-173.12-95.52 0-173.12 77.6-173.12 173.12 0 95.68 77.6 173.12 173.12 173.12z" />
<glyph unicode="&#xe96d;" glyph-name="btn-zoom-in" data-tags="btn-zoom-in" d="M755.52 294.080c28.16 44.48 44.48 97.28 44.48 153.92 0 159.040-128.96 288-288 288s-288-128.96-288-288c0-159.040 128.96-288 288-288 56.16 0 108.48 16 152.8 43.84l39.2-39.36 90.56 90.56-39.040 39.040zM512 960c282.72 0 512-229.28 512-512 0-118.56-40.32-227.68-108-314.4l-98.72 98.72-90.56-90.4 98.72-98.72c-86.56-67.2-195.36-107.2-313.44-107.2-282.72 0-512 229.28-512 512s229.28 512 512 512zM512 640c-106.080 0-192-85.92-192-192s85.92-192 192-192c106.080 0 192 85.92 192 192s-85.92 192-192 192zM480 544h64v-64h64v-64h-64v-64h-64v64h-64v64h64v64zM512 688c132.48 0 240-107.52 240-240s-107.52-240-240-240c-132.48 0-240 107.52-240 240s107.52 240 240 240z" />
<glyph unicode="&#xe96e;" glyph-name="btn-zoom-out" data-tags="btn-zoom-out" d="M512 960v0c-282.72 0-512-229.28-512-512s229.28-512 512-512c118.080 0 226.88 40 313.44 107.2l-98.72 98.72 90.56 90.4 98.72-98.72c67.68 86.72 108 195.84 108 314.4 0 282.72-229.28 512-512 512zM512 688v0c-132.48 0-240-107.52-240-240s107.52-240 240-240c132.48 0 240 107.52 240 240s-107.52 240-240 240zM512 640c106.080 0 192-85.92 192-192 0-252.64-384-252.64-384 0 0 106.080 85.92 192 192 192zM608 480v-64c-104.96 0-87.040 0-192 0v64c104.8 0 87.040 0 192 0zM755.52 294.080l39.040-39.040-90.56-90.56-39.2 39.36c-44.32-27.84-96.64-43.84-152.8-43.84-159.040 0-288 128.96-288 288s128.96 288 288 288c159.040 0 288-128.96 288-288 0-56.64-16.32-109.44-44.48-153.92v0z" />
<glyph unicode="&#xe96f;" glyph-name="icon-alert" data-tags="icon-alert" d="M832 241.44h-674.88l354.88 542.56 15.84-24.16 339.040-518.4h-34.88zM488 312.96h48v48h-48v-48zM488 616.8h48v-224h-48v224zM226.88 279.2h570.24l-285.12 435.84-285.12-435.84z" />
<glyph unicode="&#xe970;" glyph-name="icon-armor" data-tags="icon-armor" d="M416 832h-32v-32h-64l-144-96-48-112 96-96 48 16 64-96 16-112-32-176v-64l192 16 192-16v64l-32 176 16 112 64 96 48-16 96 96-48 112-144 96h-64v32h-32l-16-32-80-32-80 32-16 32zM512 656l-112 32v-96l-80-80-16 16 80 80v160h16v-64l112-32 112 32v64h16v-160l80-80-16-16-80 80v96l-112-32zM512 192l-16 96-80 16 80 16 16 80 16-80 80-16-80-16-16-96zM512 512l64-16 64-32-128 16-128-16 64 32 64 16z" />
<glyph unicode="&#xe971;" glyph-name="icon-avatar" data-tags="icon-avatar" d="M160 192l32 128 32 32 144 32 80 32v64l-64 96v160l64 96h128l64-96v-160l-64-96v-64l80-32 144-32 32-32 32-128z" />
<glyph unicode="&#xe972;" glyph-name="icon-battle-healing" data-tags="icon-battle-healing" d="M763.2 737.12c83.2-71.84 132.32-173.92 132.32-287.2 0-132.32-64.16-245.6-162.56-313.6l-7.52 33.92c83.2 64.32 139.84 162.56 139.84 279.68 0 109.6-56.64 211.52-136 275.84l33.92 11.36zM385.44 87.2c-151.2 52.8-256.96 192.64-256.96 362.72 0 52.96 11.36 109.6 34.080 154.88l22.56-22.72c-15.040-41.44-26.4-86.88-26.4-132.16 0-124.64 64.16-230.56 154.88-294.72-33.92 45.28-56.64 101.92-56.64 166.24 0 22.72 3.84 49.12 11.36 71.68l22.72-45.28c-3.84-7.52-3.84-18.88-3.84-26.4 0-75.68 37.76-143.68 98.24-185.28v-48.96zM608 128l16 64 48-128 30.88 0.48v64.16l-30.24 158.72-128.64 32.64v32l32 32v96l-32 32h-64l-32-32v-96l31.84-32.32 0.16-31.68h-64l-64 96-34.56 192.48 34.080 30.24 415.68 128.48 33.92 64.32h-64.16l-449.6-158.72-31.36-32.8-56-40 16-16 40 24 31.36 0.48 0.64-192.48 97.6-192.8 30.24-64.32v-94.4h192.64l-0.48 63.52zM510.080 574.56c143.68 0 256.96-113.28 256.96-253.12 0-52.96-15.040-105.76-41.6-143.68l-11.36 41.6c15.2 30.24 22.72 64.32 22.72 102.080 0 120.96-102.080 222.88-226.72 222.88-52.96 0-101.92-18.88-139.84-49.12l-3.68 34.080c41.6 30.24 90.56 45.28 143.52 45.28zM510.080 831.52c34.080 0 68-3.84 102.080-11.36l-60.48-22.72c-15.2 0-26.56 3.84-41.6 3.84-113.28 0-211.52-56.64-275.84-139.84l-71.84-49.12c64.32 128.48 196.48 219.2 347.68 219.2v0z" />
<glyph unicode="&#xe973;" glyph-name="icon-before" data-tags="icon-before" d="M256 449.12v-241.12c0-17.6 14.4-32 32-32v0c17.6 0 32 14.4 32 32v176.16l240.16-160.16c11.68-7.84 64-48 80-48s32 10.080 32.16 33.76v476.32c0 24.64-16.16 33.92-32.16 33.92s-66.56-39.2-79.36-47.84l-240.8-160.32v176.16c0 17.6-14.4 32-32 32v0c-17.6 0-32-14.4-32-32v-238.88z" />
<glyph unicode="&#xe974;" glyph-name="icon-belt" data-tags="icon-belt" d="M832 485.28c0-36.48 0-43.84 0-72.8-0.16-53.6-86.72-87.36-196.64-101.28-0.96-21.76-19.040-39.2-41.12-39.2h-164.48c-22.24 0-40.48 17.76-41.12 39.84l-7.84 1.12c-34.080-12.8-66.72-27.84-98.4-51.040-18.080-13.12-42.4 3.68-48 24v0c-5.6 20.48 10.88 35.52 27.68 50.24l4.8 4c-45.76 17.76-74.88 41.76-74.88 72.32 0 28.96 0 36.32 0 72.8 0 56.96 161.28 90.24 320 90.72 161.12 0.48 320-32.8 320-90.72zM578.24 368h-132.48c-7.52 0-13.76-6.24-13.76-13.76v-20.48c0-7.52 6.24-13.76 13.76-13.76h132.48c7.52 0 13.76 6.24 13.76 13.76v20.48c0 7.52-6.24 13.76-13.76 13.76zM631.2 392.96c78.4 12.32 143.040 35.84 168.16 63.040-18.88 43.68-152.16 72.32-287.36 72-133.28-0.32-268.8-28.96-287.36-72 24.48-26.56 90.24-49.92 168.48-62.4 6.88 13.28 20.64 22.4 36.64 22.4h164.48c16.32 0 30.24-9.44 36.96-23.040zM585.12 384h-146.24c-12.64 0-22.88-10.24-22.88-22.88v-34.24c0-12.64 10.24-22.88 22.88-22.88h146.24c12.64 0 22.88 10.24 22.88 22.88v34.24c0 12.64-10.24 22.88-22.88 22.88z" />
<glyph unicode="&#xe975;" glyph-name="icon-blade" data-tags="icon-blade" d="M432 736v-464h64v560zM464 64h96v160h64v32h-224v-32h64zM528 832v-560h64v464z" />
<glyph unicode="&#xe976;" glyph-name="icon-blade-dual" data-tags="icon-blade-dual" d="M528 592l56-56 200 200h-112l-144-144zM368 432l-16-16 56-56 16 16-56 56zM800 720l-200-200 56-56 144 144v112zM592 352l-56-56-312 312v112l368-368zM800 224l-64-64-96 96-48-48-48 48 160 160 48-48-49.12-46.56 97.12-97.44zM352 736l312-312-56-56-368 368h112zM424 344l56-56 16 16-56 56-16-16zM224 224l64-64 96 96 48-48 48 48-160 160-48-48 48-48-96-96z" />
<glyph unicode="&#xe977;" glyph-name="icon-blade-parrying" data-tags="icon-blade-parrying" d="M720 608l96 160-176-80-48 144-48-144-144 16 320-320-16 128 160 32-144 64zM720 688l-48-80 112-48-112-16v-64l-176 176 64-16 32 112 32-112 96 48zM768 80l-112 112-64-64-48 48 192 192 48-48-64-64 112-112v-16l-48-48zM176 720l440-440-64-64-360 360-16 144zM192 736l144-16 352-368-56-56-440 440z" />
<glyph unicode="&#xe978;" glyph-name="icon-blade-throwing" data-tags="icon-blade-throwing" d="M784 288h-304v-48h240l64 48zM464 208v192h-64v-64h-128v-64h128v-64h64zM128 272h112v64h-112zM896 576h-304v-48h240l64 48zM576 496v192h-64v-64h-128v-64h128v-64h64zM256 624h-128v-64h128zM288 560h64v64h-64zM832 656h-240v-48h304zM720 368h-240v-48h304z" />
<glyph unicode="&#xe979;" glyph-name="icon-brightness" data-tags="icon-brightness" d="M755.2 238.72l-125.76 125.76c-9.44-13.12-20.96-24.48-34.080-33.92l125.92-125.76 33.92 33.92zM512 560c-61.92 0-112-50.080-112-112s50.080-112 112-112c61.92 0 112 50.080 112 112s-50.080 112-112 112zM512 368c-44.16 0-80 35.84-80 80s35.84 80 80 80v-160zM536 306.080v-178.080h-48v178.080c7.84-1.44 15.84-2.080 24-2.080s16.16 0.64 24 2.080zM428.64 330.56l-125.92-125.76-33.92 33.92 125.76 125.76c9.44-13.12 20.96-24.48 34.080-33.92zM370.080 424h-178.080v48h178.080c-1.44-7.84-2.080-15.84-2.080-24s0.64-16.16 2.080-24zM394.56 531.36l-125.76 125.92 33.92 33.92 125.76-125.76c-13.12-9.44-24.48-20.96-33.92-34.080zM488 589.92v178.080h48v-178.080c-7.84 1.44-15.84 2.080-24 2.080s-16.16-0.64-24-2.080zM595.52 565.44l125.76 125.76 33.92-33.92-125.76-125.92c-9.44 13.12-20.8 24.64-33.92 34.080zM653.92 472h178.080v-48h-178.080c1.44 7.84 2.080 15.84 2.080 24s-0.64 16.16-2.080 24z" />
<glyph unicode="&#xe97a;" glyph-name="icon-calendar" data-tags="icon-calendar" d="M288 607.2v48l448 1.6v-48l-448-1.6zM640 303.2v-48h80v48h-80zM640 367.2v-48h80v48h-80zM640 431.2v-48h80v48h-80zM640 495.2v-48h80v48h-80zM528 303.2v-48h80v48h-80zM528 367.2v-48h80v48h-80zM528 431.2v-48h80v48h-80zM528 495.2v-48h80v48h-80zM416 303.2v-48h80v48h-80zM416 367.2v-48h80v48h-80zM416 431.2v-48h80v48h-80zM416 495.2v-48h80v48h-80zM304 303.2v-48h80v48h-80zM304 367.2v-48h80v48h-80zM304 431.2v-48h80v48h-80zM304 495.2v-48h80v48h-80zM640 559.2v-48h80v48h-80zM528 559.2v-48h80v48h-80zM416 559.2v-48h80v48h-80zM736 688.8l-480-1.6v-480l512 1.6v480h-32zM288 575.2l448 1.6v-336l-448-1.6v336z" />
<glyph unicode="&#xe97b;" glyph-name="icon-cancel" data-tags="icon-cancel" d="M720 128l-208 208-208-208-112 112 208 208-208 208 112 112 208-208 208 208 112-112-208-208 208-208z" />
<glyph unicode="&#xe97c;" glyph-name="icon-clock" data-tags="icon-clock" d="M512 768c-176.64 0-320-143.36-320-320s143.36-320 320-320c176.64 0 320 143.36 320 320s-143.36 320-320 320zM512 704c150.24 0 256-105.76 256-256s-105.76-256-256-256c-150.24 0-256 105.76-256 256s105.76 256 256 256zM539.36 656.32v-180.96h180.96c31.84 0 31.68-56.16 0-56.16h-236.96v237.12c0 31.68 56 31.68 56 0z" />
<glyph unicode="&#xe97d;" glyph-name="icon-confirm" data-tags="icon-confirm" d="M512 768c-192 0-320-128-320-320s128-320 320-320c192 0 320 128 320 320s-128 320-320 320zM512 672c128 0 224-96 224-224s-96-224-224-224c-128 0-224 96-224 224s96 224 224 224z" />
<glyph unicode="&#xe97e;" glyph-name="icon-contrast" data-tags="icon-contrast" d="M512 768c-176.8 0-320-143.2-320-320s143.2-320 320-320c176.8 0 320 143.2 320 320s-143.2 320-320 320zM512 704c-141.44 0-256-114.56-256-256s114.56-256 256-256c141.44 0 256 114.56 256 256s-114.56 256-256 256zM672 608c40.96-40.96 66.24-97.6 66.24-160 0-124.96-101.28-226.24-226.24-226.24-62.56 0-119.040 25.28-160 66.24l320 320zM512 736c159.040 0 288-128.96 288-288s-128.96-288-288-288c-159.040 0-288 128.96-288 288s128.96 288 288 288z" />
<glyph unicode="&#xe97f;" glyph-name="icon-correct" data-tags="icon-correct" d="M384 192l-256 352 128 112 176-208 368 256 96-160z" />
<glyph unicode="&#xe980;" glyph-name="icon-cross" data-tags="icon-cross" d="M704 496l-32 32h-128v-232l32-24-64-176-64 176 32 24v232h-128l-32-32-64 64 64 64 32-32h128v128l-32 32 64 64 64-64-32-32v-128h128l32 32 64-64z" />
<glyph unicode="&#xe981;" glyph-name="icon-details" data-tags="icon-details" d="M872 474.56v0c0-118.080-55.36-221.6-140.32-288-44.32-40.64-92.96-70.88-155.68-81.92v-40.64l-128-0.16v40.64c-62.88 11.2-115.040 41.44-155.68 82.080-84.96 66.56-140.32 169.92-140.32 288 0 195.68 162.4 358.24 358.080 358.24 199.36 0 361.92-162.56 361.92-358.24zM448 32h128v-64h-128v64zM731.84 470.080c0 118.24-99.68 217.92-221.76 217.92-118.080 0-217.92-99.68-217.92-217.92 0-122.080 99.84-221.76 217.92-221.76 122.080 0 221.76 99.68 221.76 221.76zM806.080 472c0 161.28-134.56 292-296 292s-292-130.72-292-292c0-165.28 130.56-296 292-296s296 130.72 296 296z" />
<glyph unicode="&#xe982;" glyph-name="icon-dices" data-tags="icon-dices" d="M739.84 463.68v203.040l-7.68 4.48-181.44 104.8-7.68-4.48-181.44-104.8v-192.16l-70.080-40.48v-211.84l7.84-4.48 181.28-103.36 7.52 4.32 181.6 103.52v192.8l70.080 39.84v8.8zM384 336h16v-64h-16v64zM384 256h16v-16h-16v16zM592 336v-48l-16-8v-8h-16v16l16 8v24h-16v-16h-16v16l16 16h32zM560 240v16l16-0.16v-15.84h-16zM480.64 543.2l-0.64 16.8h-16v-26.4l-71.84-41.44v156.96l158.56 91.52 158.4-91.52v-176.48l-53.44-30.4-89.6 51.68v58.72l125.12 72.32 1.12 18.4-16.48 8.16-125.12-72.32-125.12 72.32-16.64-8.16 1.28-18.4 125.12-72.32v-40.96l-47.040 27.2-7.68 4.32zM552 680l32-16-32-16-32 16 32 16zM672 576v-48l-16-8v-8h-16v16l16 8v24h-16v-16h-16v16l16 16h32zM640 480v16l16-0.16v-15.84h-16zM355.52 418.88l-16.48-8.32 1.12-18.4 125.12-72.16v-144.48l15.36-10.24 15.36 10.24v144.48l125.12 72.16 1.28 18.4-16.64 8.32-125.12-72.32-125.12 72.32zM639.2 416.48v-176.64l-158.56-90.24-158.4 90.24v176.64l158.4 91.52 158.56-91.52zM480.016 447.944l31.913-15.968-31.913-15.968-31.913 15.968 31.913 15.968z" />
<glyph unicode="&#xe983;" glyph-name="icon-dungeon" data-tags="icon-dungeon" d="M753.76 545.12l-7.68 53.28h-45.6l-3.84 49.44h45.6l-7.52 45.76h-45.76l-3.84 42.56h87.68l30.4-191.040h-49.44zM251.2 736.16h106.56l-3.68-42.56h-64.8l-11.36-72.32-7.68-76.16h-49.44l30.4 191.040zM239.84 301.44l15.2 129.44h156.16l-7.68-129.44h53.28l3.84 98.88v87.68h-98.88l3.68 57.12h-45.6l-7.68-57.12h-95.040l-11.52-87.68-19.040-98.88h53.28zM784.16 301.44l-7.52 68.48h-53.44l-7.52 60.96h53.28l-7.68 57.12h49.6l48.64-327.84h-57.12l-10.56 72.8h-110.4l2.88-72.8h-57.12l-2.88 72.8h-57.12l2.88-72.8h-175.040l4.64 72.8h110.4v68.48h110.4l-7.68 129.44h53.28l7.68-129.44h110.4zM354.080 369.92h-53.44l-15.2-136.96h-110.4l-12.32-72.8h175.2l8.48 107.040 7.68 102.72zM464.32 647.84h91.36l3.84-49.44h-95.2v-53.44h-49.44l3.84 53.44h-95.2l3.84 49.44h91.36l3.84 45.76h-22.88l3.84 42.56h64.64l-3.84-88.32zM510.080 369.92h53.28v118.080h148.48l-7.52 57.12h-45.76l-3.84 53.28h-49.44l3.84-53.28h-99.040v-175.2zM650.88 647.84h-45.6l-3.84 45.76h-91.36v42.56h133.28l7.52-88.32z" />
<glyph unicode="&#xe984;" glyph-name="icon-elemental-air" data-tags="icon-elemental-air" d="M520.32 527.84c7.36 79.36 89.12 104.96 54.72 224.48-16 0-31.84 0-48 0 43.36-120.48-35.040-145.6-47.52-226.56-22.080-4-42.56-12.64-60.48-24.64-9.6 88 66.24 112.96 62.72 203.2h-44.48c12-101.44-82.24-120.48-56.64-239.36-20.32-26.88-32.48-60.32-32.48-96.64 0-88.32 71.68-160 160-160s160 71.68 160 160c0 47.2-20.48 89.6-52.96 118.88-19.68 99.52 64.32 122.24 60.48 217.12h-44.32c9.92-85.12-54.56-112.16-60.64-188.8-15.68 6.72-32.64 10.88-50.4 12.32zM508.16 448.32c44.16 0 80-35.84 80-80s-35.84-80-80-80c-44.16 0-80 35.84-80 80s35.84 80 80 80zM508.16 480.32c61.76 0 112-50.24 112-112 0-61.92-50.24-112-112-112-61.92 0-112 50.080-112 112 0 61.76 50.080 112 112 112z" />
<glyph unicode="&#xe985;" glyph-name="icon-elemental-earth" data-tags="icon-elemental-earth" d="M512 528c-80.16 0-146.56-59.040-158.080-135.84-43.040-0.96-93.6-7.040-157.28-22.080 0-16 0-32 0-48 63.36 18.24 113.6 26.72 156.32 29.28 2.24-21.92 8.96-42.4 19.040-60.8-19.84 0.32-41.44-0.64-65.44-3.040-32-3.2-68.16-9.28-109.92-19.2 0-16 0-32 0-48 49.76 14.4 91.36 22.72 127.68 26.88 29.6 3.52 55.68 4.16 79.52 3.040 28.48-26.24 66.4-42.24 108.16-42.24 23.84 0 46.4 5.28 66.56 14.56 59.040-8.16 129.44-8.96 237.44 16.64 0 16 0 31.84 0 48-79.040-21.6-137.92-28.48-187.040-28.16 16 16.96 28.16 37.44 35.36 60.16 41.76 1.12 90.72 7.040 151.68 21.6 0 16 0 32 0 48-57.44-15.68-104.16-23.52-144.16-26.72l0.16 5.92c0 88.32-71.68 160-160 160zM816 194.72c0-16 0-32 0-48-309.6-73.28-309.6 70.72-619.36-18.72 0 16 0 32 0 48 309.76 73.44 310.080-65.44 619.36 18.72zM512 448c44.16 0 80-35.84 80-80s-35.84-79.84-80-79.84c-44.16 0-80 35.68-80 79.84s35.84 80 80 80zM512 480c61.92 0 112-50.080 112-112 0-61.76-50.080-112-112-112s-112 50.24-112 112c0 61.92 50.080 112 112 112z" />
<glyph unicode="&#xe986;" glyph-name="icon-elemental-fire" data-tags="icon-elemental-fire" d="M642.4 460.64v0c-36.48 53.6-122.4 134.88-66.4 291.36-76.48-64.16-94.72-108.96-96-227.2l-0.32-0.16c-3.040 55.68-26.4 84.48-63.68 99.36 39.68-80.64-22.4-136.64-43.36-177.44-13.12-23.2-20.64-49.92-20.64-78.56 0-88.32 71.68-160 160-160s160 71.68 160 160c0 33.76-10.56 64.96-28.32 90.88l-1.28 1.76zM512 480c61.92 0 112-50.24 112-112 0-61.92-50.080-112-112-112s-112 50.080-112 112c0 61.76 50.080 112 112 112zM512 448c44.16 0 80-35.84 80-80s-35.84-80-80-80c-44.16 0-80 35.84-80 80s35.84 80 80 80z" />
<glyph unicode="&#xe987;" glyph-name="icon-elemental-nature" data-tags="icon-elemental-nature" d="M365.12 160h47.2c6.72 19.68 16 37.76 26.56 65.76 21.92-11.36 46.88-17.76 73.12-17.76 44.16 0 84.16 17.92 113.12 46.88l3.040 3.040c100 104.8 27.52 270.56 206.4 330.72-217.92 64-375.68-47.52-435.68-107.52h0.16c-29.12-28.96-47.040-68.96-47.040-113.12 0-44.32 18.080-84.48 47.36-113.44-15.040-39.84-26.56-66.72-34.24-94.56zM512 448c-44.16 0-80-35.84-80-80s35.84-80 80-80c44.16 0 80 35.84 80 80s-35.84 80-80 80zM578.24 513.6v0c46.56 32.16 110.72 62.4 173.12 65.44-95.36-35.040-84.96-60.8-126.24-97.92-13.44 13.44-29.28 24.48-46.88 32.48zM512 480c61.92 0 112-50.24 112-112 0-61.92-50.080-112-112-112-61.76 0-112 50.080-112 112 0 61.76 50.24 112 112 112z" />
<glyph unicode="&#xe988;" glyph-name="icon-elemental-void" data-tags="icon-elemental-void" d="M512 528c-88.32 0-160-71.68-160-160s71.68-160 160-160c88.32 0 160 71.68 160 160s-71.68 160-160 160zM512 480c61.92 0 112-50.080 112-112 0-61.76-50.080-112-112-112s-112 50.24-112 112c0 61.92 50.080 112 112 112zM592 368c0-44.183-35.817-80-80-80s-80 35.817-80 80c0 44.183 35.817 80 80 80s80-35.817 80-80z" />
<glyph unicode="&#xe989;" glyph-name="icon-elemental-water" data-tags="icon-elemental-water" d="M672 368v0c0 84.8-32.64 275.36-232 384 83.84-168.48-83.68-234.56-87.84-378.56l-0.16-5.44c0-88.32 71.68-160 160-160s160 71.68 160 160zM512 448c44.16 0 80-35.84 80-80s-35.84-80-80-80c-44.16 0-80 35.84-80 80s35.84 80 80 80zM512 480c61.92 0 112-50.24 112-112 0-61.92-50.080-112-112-112s-112 50.080-112 112c0 61.76 50.080 112 112 112z" />
<glyph unicode="&#xe98a;" glyph-name="icon-equipament" data-tags="icon-equipament" d="M528 64h112v656l-112 112v-768zM384 64h112v768l-112-112v-656z" />
<glyph unicode="&#xe98b;" glyph-name="icon-evil" data-tags="icon-evil" d="M512 592c-79.52 0-144-64.48-144-144s64.48-144 144-144c79.52 0 144 64.48 144 144s-64.48 144-144 144zM512 560c61.92 0 112-50.080 112-112s-50.080-112-112-112c-61.92 0-112 50.080-112 112s50.080 112 112 112zM592 448c0-44.183-35.817-80-80-80s-80 35.817-80 80c0 44.183 35.817 80 80 80s80-35.817 80-80zM409.12 67.52l88.48 238.080 15.84-0.16 14.4 0.16 88.48-238.080-40.96 240.8c14.56 1.44 29.12 3.52 44.32 6.24l174.88-144.64-129.92 156.32c30.72 9.92 61.6 24.64 91.2 45.28l141.6-24-116.96 43.2c18.88 16.16 36.96 35.36 54.080 58.080-17.12 22.56-35.2 41.76-54.080 57.92l116.96 43.2-141.6-24c-29.6 20.64-60.48 35.36-91.2 45.28l129.92 156.32-174.88-144.64c-15.2 2.72-29.76 4.8-44.32 6.24l40.96 240.96-88.48-238.24-15.84 0.16-14.4-0.16-88.48 238.24 40.8-240.96c-14.4-1.44-29.12-3.52-44.16-6.24l-174.88 144.64 129.92-156.32c-30.72-9.92-61.76-24.64-91.2-45.28l-141.6 24 116.96-43.2c-18.88-16.16-37.12-35.36-54.080-57.92 16.96-22.72 35.2-41.92 54.080-58.080l-116.96-43.2 141.6 24c29.44-20.64 60.48-35.36 91.2-45.28l-129.92-156.32 174.88 144.64c15.040-2.72 29.76-4.8 44.16-6.24l-40.8-240.8zM784.8 448.8c-77.92-95.84-207.52-111.36-271.36-111.36h-1.44c-63.84 0-193.44 15.52-271.36 111.36 77.92 95.68 207.52 111.2 271.36 111.2h1.44c63.84 0 193.44-15.52 271.36-111.2z" />
<glyph unicode="&#xe98c;" glyph-name="icon-exclamation" data-tags="icon-exclamation" d="M448 64v128h128v-128h-128zM576 256h-128v512c0 32 32 64 64 64s64-32 64-64v-512z" />
<glyph unicode="&#xe98d;" glyph-name="icon-foward" data-tags="icon-foward" d="M496 704c0 32 32 64 64 64 16 0 48-32 80-64l144-160c36.64-40.8 64-80 64-96s-25.44-53.28-64-96l-144-160c-32-32-64-64-80-64-32 0-64 32-64 64s0 64 0 112l-112-112c-32-32-64-64-96-64-16 0-48 32-48 64v512c0 32 32 64 64 64s48-32 80-64l112-112c0 37.28 0 74.72 0 112z" />
<glyph unicode="&#xe98e;" glyph-name="icon-friend-add" data-tags="icon-friend-add" d="M688 464c-80 0-128-48-128-112s48-128 128-128c64 0 112 64 112 128s-48 112-112 112zM224 176l32 160 32 16 80 16 64 48v48l-16 32-32 48v112l80 80h48l80-80v-112l-32-48-16-32v-48c0-16 0-48 0-64 0-80 64-144 144-144 16 0 32 0 48 16l16-48h-528zM608 320v48h48v48h48v-48h48v-48h-48v-48h-48v48h-48z" />
<glyph unicode="&#xe98f;" glyph-name="icon-friend-remove" data-tags="icon-friend-remove" d="M688 464c-80 0-128-48-128-112s48-128 128-128c64 0 112 64 112 128s-48 112-112 112zM224 176l32 160 32 16 80 16 64 48v48l-16 32-32 48v112l80 80h48l80-80v-112l-32-48-16-32v-112c0-80 64-144 144-144 16 0 32 0 48 16l16-48h-528zM608 320v48c78.72 0 65.28 0 144 0v-48c-78.72 0-65.28 0-144 0z" />
<glyph unicode="&#xe990;" glyph-name="icon-gps" data-tags="icon-gps" d="M515.040 638.88c-70.72 0-128-57.28-128-128 1.6-79.68 60.16-195.36 117.76-308h-165.76l-112-76h576l-112 76h-165.76c53.12 103.52 112.64 216.64 117.28 298.080 5.6 73.76-53.6 137.92-127.52 137.92zM515.040 554.72c26.4 0 47.84-21.44 47.84-47.84s-21.44-47.84-47.84-47.84c-26.56 0-48 21.44-48 47.84s21.44 47.84 48 47.84z" />
<glyph unicode="&#xe991;" glyph-name="icon-group" data-tags="icon-group" d="M128 256l32 128 128 32v32l-32 32-8 120 40 40h64l40-40-8-120-32-32v-32l32-16-80-32-32-112h-144zM896 256l-32 128-128 32v32l32 32 8 120-40 40h-64l-40-40 8-120 32-32v-32l-32-16 80-32 32-112h144zM288 224l32 128 160 64v32l-48 64v112l48 48h64l48-48v-112l-48-64v-32l160-64 32-128h-448z" />
<glyph unicode="&#xe992;" glyph-name="icon-guild" data-tags="icon-guild" d="M784 752v-64h80v64h-80zM160 752v-64h80v64h-80zM768 112l-256 128-256-128v672h512v-128h-448l448-16v-528zM640 496h-96v96h-64v-96h-96v-64h96v-96h64v96h96v64z" />
<glyph unicode="&#xe993;" glyph-name="icon-heart" data-tags="icon-heart" d="M512 544c71.2 189.28 538.56 8.8 0-339.52-538.56 348.32-71.2 528.8 0 339.52z" />
<glyph unicode="&#xe994;" glyph-name="icon-help" data-tags="icon-help" d="M415.68 801.28h256.8l-0.48-321.28c0-32-32-64-63.68-71.68l-64.16-22.72-0.16-129.6h-96v192l128 48v208h-128v-64h-96l-0.48 97.12c0.48 46.88 17.12 64.16 64.16 64.16zM448 96v96h96v-96z" />
<glyph unicode="&#xe995;" glyph-name="icon-info" data-tags="icon-info" d="M464 735.68v-96h96v96zM560 591.84h-96v-431.84h96v431.84z" />
<glyph unicode="&#xe996;" glyph-name="icon-invite" data-tags="icon-invite" d="M287.2 449.92c79.36 0 143.52-68 143.52-147.36s-64.16-143.68-143.52-143.68c-79.36 0-143.68 64.32-143.68 143.68s64.32 147.36 143.68 147.36zM510.080 831.52c83.2 0 147.36-64.16 147.36-143.52s-64.16-143.68-147.36-143.68c-79.36 0-143.52 64.16-143.52 143.68 0 79.2 64.16 143.52 143.52 143.52zM736.8 449.92c79.36 0 143.68-68 143.68-147.36s-64.32-143.68-143.68-143.68c-79.36 0-143.52 64.32-143.52 143.68s64.16 147.36 143.52 147.36z" />
<glyph unicode="&#xe997;" glyph-name="icon-itens" data-tags="icon-itens" d="M352 704c-32 0-64-32-64-64l144-144h160l144 144c0 32-32 64-64 64h-320zM576 832c32 0 64-32 64-64v-32h-64v32h-128v-32h-64v32c0 32 32 64 64 64h128zM608 448l136.32 137.92 55.68-393.92c0-32-32-64-64-64h-448c-32 0-64 32-64 64l55.68 393.92 136.32-137.92h192zM464.16 384l-32-32 32-32h95.84l32 32-32 32h-95.84z" />
<glyph unicode="&#xe998;" glyph-name="icon-life-status" data-tags="icon-life-status" d="M704 727.36c-12.64 9.44-27.52 15.040-42.4 16.64-20.64 2.4-41.92-2.72-58.080-15.040-17.28-13.28-28.48-33.76-27.36-60.8 1.76-36.48 29.76-87.68 108.48-148.16l19.36-14.88 19.36 14.88c78.72 60.48 106.72 111.68 108.48 148.16 1.12 27.040-10.080 47.52-27.36 60.8-16 12.32-37.28 17.44-58.080 15.040-14.88-1.6-29.76-7.2-42.4-16.64zM128 448h91.36l3.2-11.68 22.080-105.92 57.28 369.12 17.76 113.92 13.92-114.56 51.84-427.2 66.56 300.8 19.84 89.76 11.52-91.2 35.68-283.2 35.52 164.48 15.36 72 15.84-71.84 23.2-105.92 42.24 93.92 13.6 7.52h231.2v-32h-222.4l-58.4-119.52-20.8-32.8-8.32 37.92-15.84 72.16-39.68-184-19.84-91.68-11.68 92.96-35.84 284.8-87.040-393.28-11.2 92.64-49.12 405.28-50.88-327.52-11.36-72.64-19.84 70.88-38.56 164.8h-67.2v32zM704 673.92c26.72 84.32 201.92 26.4 0-128.48-201.92 154.88-26.72 212.8 0 128.48z" />
<glyph unicode="&#xe999;" glyph-name="icon-list" data-tags="icon-list" d="M704 544c-96 0-192-96-192-192s96-192 192-192c96 0 192 96 192 192s-96 192-192 192zM608 384l64-96 128 144 32-48-160-160-32 32-64 96 32 32zM256 800v-704h448v32c-128 0-224 96-224 224 0 0 0 32 0 32s0 32 0 32h-160v32h192c0 0 0 32 0 32h-192v32h224c32 0 32 0 64 32s64 32 96 32v224h-448zM320 224h128v-32h-128v32zM320 320h128v-32h-128v32zM320 704h320v-32h-320v32zM320 608h320v-32h-320v32z" />
<glyph unicode="&#xe99a;" glyph-name="icon-list-down" data-tags="icon-list-down" d="M702.88 544.32c-105.76 0-188.96-86.88-188.96-192.64s83.040-192.8 188.96-192.8c105.76 0 192.64 87.040 192.64 192.8s-86.88 192.64-192.64 192.64zM702.88 801.28h-445.92v-706.72h445.92v34.080c-120.96 0-223.040 98.24-223.040 222.88 0 11.36 0 19.040 3.84 30.24 0 7.68 3.68 22.72 7.52 34.080h-170.080v34.080h181.44c3.84 11.2 11.36 18.88 18.88 30.24h-200.32v30.24h223.040c15.040 18.88 15.040 18.88 52.96 37.76 30.080 18.88 67.84 30.24 105.76 30.24v222.88zM321.12 703.040h317.44v-30.24h-317.44v30.24zM321.12 223.2h128.48v-30.24h-128.48v30.24zM321.12 321.44h128.48v-34.080h-128.48v34.080zM321.12 608.64h317.44v-34.080h-317.44v34.080zM704 224l-129.6 191.84h256.96l-127.36-191.84z" />
</font>
</defs>
</svg>
