<?xml version="1.0" encoding="UTF-8"?>
<!DOCTYPE svg PUBLIC "-//W3C//DTD SVG 1.1//EN" "http://www.w3.org/Graphics/SVG/1.1/DTD/svg11.dtd">
<!-- Creator: CorelDRAW X7 -->
<svg xmlns="http://www.w3.org/2000/svg" xml:space="preserve" width="64px" height="64px" version="1.1" style="shape-rendering:geometricPrecision; text-rendering:geometricPrecision; image-rendering:optimizeQuality; fill-rule:evenodd; clip-rule:evenodd"
viewBox="0 0 6400 6400"
 xmlns:xlink="http://www.w3.org/1999/xlink">
 <defs>
  <style type="text/css">
   <![CDATA[
    .fil0 {fill:black}
   ]]>
  </style>
 </defs>
 <g id="Camada_x0020_1">
  <metadata id="CorelCorpID_0Corel-Layer"/>
  <path class="fil0" d="M3200 0c1767,0 3200,1433 3200,3200 0,1767 -1433,3200 -3200,3200 -1767,0 -3200,-1433 -3200,-3200 0,-1767 1433,-3200 3200,-3200zm-1797 1200c-5,15 -10,31 -10,51l0 3872c0,36 10,56 31,77l1902 -2016 -1923 -1984zm2052 2118l492 507 -703 400c0,0 -892,508 -1384,790l1595 -1697 0 0zm133 -139l528 549c83,-46 728,-415 821,-467 97,-56 87,-133 5,-174 -77,-41 -723,-410 -820,-472l-534 564 0 0zm-133 -133l497 -528 -708 -405c0,0 -1159,-662 -1543,-883l1754 1816 0 0z"/>
 </g>
</svg>
