<?xml version="1.0" encoding="UTF-8"?>
<!DOCTYPE svg PUBLIC "-//W3C//DTD SVG 1.1//EN" "http://www.w3.org/Graphics/SVG/1.1/DTD/svg11.dtd">
<!-- Creator: CorelDRAW X7 -->
<svg xmlns="http://www.w3.org/2000/svg" xml:space="preserve" width="64px" height="64px" version="1.1" style="shape-rendering:geometricPrecision; text-rendering:geometricPrecision; image-rendering:optimizeQuality; fill-rule:evenodd; clip-rule:evenodd"
viewBox="0 0 6400 6400"
 xmlns:xlink="http://www.w3.org/1999/xlink">
 <defs>
  <style type="text/css">
   <![CDATA[
    .fil0 {fill:black}
   ]]>
  </style>
 </defs>
 <g id="Camada_x0020_1">
  <metadata id="CorelCorpID_0Corel-Layer"/>
  <path class="fil0" d="M4722 4162l244 244 -566 566 -245 -246c-277,174 -604,274 -955,274 -994,0 -1800,-806 -1800,-1800 0,-994 806,-1800 1800,-1800 994,0 1800,806 1800,1800 0,354 -102,684 -278,962zm-1522 -4162c1767,0 3200,1433 3200,3200 0,741 -252,1423 -675,1965l-617 -617 -566 565 617 617c-541,420 -1221,670 -1959,670 -1767,0 -3200,-1433 -3200,-3200 0,-1767 1433,-3200 3200,-3200zm0 2000c663,0 1200,537 1200,1200 0,663 -537,1200 -1200,1200 -663,0 -1200,-537 -1200,-1200 0,-663 537,-1200 1200,-1200zm-200 600l400 0 0 400 400 0 0 400 -400 0 0 400 -400 0 0 -400 -400 0 0 -400 400 0 0 -400zm200 -900c828,0 1500,672 1500,1500 0,828 -672,1500 -1500,1500 -828,0 -1500,-672 -1500,-1500 0,-828 672,-1500 1500,-1500z"/>
 </g>
</svg>
