<?xml version="1.0" encoding="UTF-8"?>
<!DOCTYPE svg PUBLIC "-//W3C//DTD SVG 1.1//EN" "http://www.w3.org/Graphics/SVG/1.1/DTD/svg11.dtd">
<!-- Creator: CorelDRAW X7 -->
<svg xmlns="http://www.w3.org/2000/svg" xml:space="preserve" width="64px" height="64px" version="1.1" style="shape-rendering:geometricPrecision; text-rendering:geometricPrecision; image-rendering:optimizeQuality; fill-rule:evenodd; clip-rule:evenodd"
viewBox="0 0 6400 6400"
 xmlns:xlink="http://www.w3.org/1999/xlink">
 <defs>
  <style type="text/css">
   <![CDATA[
    .fil0 {fill:black}
   ]]>
  </style>
 </defs>
 <g id="Camada_x0020_1">
  <metadata id="CorelCorpID_0Corel-Layer"/>
  <path class="fil0" d="M3200 0c1767,0 3200,1433 3200,3200 0,1767 -1433,3200 -3200,3200 -1767,0 -3200,-1433 -3200,-3200 0,-1767 1433,-3200 3200,-3200zm0 2700c552,0 1000,448 1000,1000l-1 37c250,-20 542,-69 901,-167 0,100 0,200 0,300 -381,91 -687,128 -948,135 -45,142 -121,270 -221,376 307,2 675,-41 1169,-176 0,101 0,200 0,300 -675,160 -1115,155 -1484,104 -126,58 -267,91 -416,91 -261,0 -498,-100 -676,-264 -149,-7 -312,-3 -497,19 -227,26 -487,78 -798,168 0,-100 0,-200 0,-300 261,-62 487,-100 687,-120 150,-15 285,-21 409,-19 -63,-115 -105,-243 -119,-380 -267,16 -581,69 -977,183 0,-100 0,-200 0,-300 398,-94 714,-132 983,-138 72,-480 487,-849 988,-849zm1900 2083c0,100 0,200 0,300 -1935,458 -1935,-442 -3871,117 0,-100 0,-200 0,-300 1936,-459 1938,409 3871,-117zm-1900 -1583c276,0 500,224 500,500 0,276 -224,499 -500,499 -276,0 -500,-223 -500,-499 0,-276 224,-500 500,-500zm0 -200c387,0 700,313 700,700 0,386 -313,700 -700,700 -387,0 -700,-314 -700,-700 0,-387 313,-700 700,-700z"/>
 </g>
</svg>
