<?xml version="1.0" encoding="UTF-8"?>
<!DOCTYPE svg PUBLIC "-//W3C//DTD SVG 1.1//EN" "http://www.w3.org/Graphics/SVG/1.1/DTD/svg11.dtd">
<!-- Creator: CorelDRAW X7 -->
<svg xmlns="http://www.w3.org/2000/svg" xml:space="preserve" width="64px" height="64px" version="1.1" style="shape-rendering:geometricPrecision; text-rendering:geometricPrecision; image-rendering:optimizeQuality; fill-rule:evenodd; clip-rule:evenodd"
viewBox="0 0 6400 6400"
 xmlns:xlink="http://www.w3.org/1999/xlink">
 <defs>
  <style type="text/css">
   <![CDATA[
    .fil0 {fill:black}
   ]]>
  </style>
 </defs>
 <g id="Camada_x0020_1">
  <metadata id="CorelCorpID_0Corel-Layer"/>
  <path class="fil0" d="M3200 0c1767,0 3200,1433 3200,3200 0,1767 -1433,3200 -3200,3200 -1767,0 -3200,-1433 -3200,-3200 0,-1767 1433,-3200 3200,-3200zm-1317 4706c763,669 1950,645 2634,0 313,-319 -719,-1452 -1317,-1903 -597,451 -1630,1584 -1317,1903zm1861 -2402c416,494 1247,1720 1012,2153 1004,-1242 25,-2694 -212,-2694 -98,0 -330,73 -800,541l0 0zm-1935 -533c-236,80 -1139,1480 -166,2685 -233,-434 597,-1658 1014,-2152 -465,-464 -744,-576 -848,-533l0 0zm1391 20c-30,-17 -809,-454 -1128,-244 696,-465 1560,-464 2256,0 -346,-211 -1127,242 -1128,245l0 -1z"/>
 </g>
</svg>
