<?xml version="1.0" encoding="UTF-8"?>
<!DOCTYPE svg PUBLIC "-//W3C//DTD SVG 1.1//EN" "http://www.w3.org/Graphics/SVG/1.1/DTD/svg11.dtd">
<!-- Creator: CorelDRAW X7 -->
<svg xmlns="http://www.w3.org/2000/svg" xml:space="preserve" width="64px" height="64px" version="1.1" style="shape-rendering:geometricPrecision; text-rendering:geometricPrecision; image-rendering:optimizeQuality; fill-rule:evenodd; clip-rule:evenodd"
viewBox="0 0 6400 6400"
 xmlns:xlink="http://www.w3.org/1999/xlink">
 <defs>
  <style type="text/css">
   <![CDATA[
    .fil0 {fill:black}
   ]]>
  </style>
 </defs>
 <g id="Camada_x0020_1">
  <metadata id="CorelCorpID_0Corel-Layer"/>
  <path class="fil0" d="M3200 0c1767,0 3200,1433 3200,3200 0,1767 -1433,3200 -3200,3200 -1767,0 -3200,-1433 -3200,-3200 0,-1767 1433,-3200 3200,-3200zm1228 2843c138,0 138,210 0,210l-293 0 0 187c189,0 397,-39 397,105 0,154 -255,105 -502,105 -179,0 -104,-499 -104,-900 0,-153 255,-105 502,-105 137,0 138,210 0,210l-293 0 0 188 293 0zm-832 565l-408 -554c0,295 56,596 -105,596 -179,0 -104,-499 -104,-900 0,-100 129,-143 189,-62l407 554c0,-294 -55,-597 105,-597 179,0 105,496 105,899 0,103 -130,144 -189,64zm-768 -63c0,138 -209,139 -209,0 0,-403 -75,-900 105,-900 179,0 104,499 104,900zm-411 105c-627,0 -503,150 -503,-900 0,-137 210,-138 210,0l0 690c190,0 398,-40 398,105 0,58 -47,105 -105,105zm2783 -532c0,-895 -897,-1624 -2000,-1624 -2320,0 -2851,2787 -328,3225 461,80 -117,746 328,558 214,-90 1152,-678 1572,-1161 289,-317 428,-640 428,-998z"/>
 </g>
</svg>
