<?xml version="1.0" encoding="UTF-8"?>
<!DOCTYPE svg PUBLIC "-//W3C//DTD SVG 1.1//EN" "http://www.w3.org/Graphics/SVG/1.1/DTD/svg11.dtd">
<!-- Creator: CorelDRAW X7 -->
<svg xmlns="http://www.w3.org/2000/svg" xml:space="preserve" width="64px" height="64px" version="1.1" style="shape-rendering:geometricPrecision; text-rendering:geometricPrecision; image-rendering:optimizeQuality; fill-rule:evenodd; clip-rule:evenodd"
viewBox="0 0 6400 6400"
 xmlns:xlink="http://www.w3.org/1999/xlink">
 <defs>
  <style type="text/css">
   <![CDATA[
    .fil0 {fill:black}
   ]]>
  </style>
 </defs>
 <g id="Camada_x0020_1">
  <metadata id="CorelCorpID_0Corel-Layer"/>
  <path class="fil0" d="M3200 0c1767,0 3200,1433 3200,3200 0,1767 -1433,3200 -3200,3200 -1767,0 -3200,-1433 -3200,-3200 0,-1767 1433,-3200 3200,-3200zm906 3592c-487,-245 -353,-217 -599,63 -135,153 -932,-511 -763,-678 209,-208 136,-218 -33,-624 -129,-309 -869,158 -311,901 202,269 828,964 1447,872 226,-34 538,-375 287,-521 -3,-1 -25,-12 -28,-13zm-922 1238c-334,-4 -596,-97 -879,-265l-627 163 168 -607c-1123,-1755 1172,-3459 2533,-2104 1018,1013 328,2743 -1084,2811 -16,1 -95,2 -111,2zm1460 -3022c-4,-3 -94,-92 -98,-95 -1637,-1494 -4198,499 -3064,2460l-282 1027 1056 -275c15,1 388,241 953,241 1758,0 2642,-2112 1435,-3358z"/>
 </g>
</svg>
