<?xml version="1.0" encoding="UTF-8"?>
<!DOCTYPE svg PUBLIC "-//W3C//DTD SVG 1.1//EN" "http://www.w3.org/Graphics/SVG/1.1/DTD/svg11.dtd">
<!-- Creator: CorelDRAW X7 -->
<svg xmlns="http://www.w3.org/2000/svg" xml:space="preserve" width="64px" height="64px" version="1.1" style="shape-rendering:geometricPrecision; text-rendering:geometricPrecision; image-rendering:optimizeQuality; fill-rule:evenodd; clip-rule:evenodd"
viewBox="0 0 6400 6400"
 xmlns:xlink="http://www.w3.org/1999/xlink">
 <defs>
  <style type="text/css">
   <![CDATA[
    .fil0 {fill:black}
   ]]>
  </style>
 </defs>
 <g id="Camada_x0020_1">
  <metadata id="CorelCorpID_0Corel-Layer"/>
  <path class="fil0" d="M3200 0c1768,0 3200,1432 3200,3200 0,1768 -1432,3200 -3200,3200 -1768,0 -3200,-1432 -3200,-3200 0,-1768 1432,-3200 3200,-3200zm1520 4508l-212 212 -787 -786c82,-59 154,-130 213,-212l786 786zm-1520 -2008c387,0 700,313 700,700 0,387 -313,700 -700,700 -387,0 -700,-313 -700,-700 0,-387 313,-700 700,-700zm0 1200c-276,0 -500,-224 -500,-500 0,-276 224,-500 500,-500l0 1000zm150 387l0 1113 -300 0 0 -1113c49,9 99,13 150,13 51,0 101,-4 150,-13zm-671 -153l-787 786 -212 -212 786 -786c59,82 131,153 213,212zm-366 -584l-1113 0 0 -300 1113 0c-9,49 -13,99 -13,150 0,51 4,101 13,150zm153 -671l-786 -787 212 -212 786 786c-82,59 -153,131 -212,213zm584 -366l0 -1113 300 0 0 1113c-49,-9 -99,-13 -150,-13 -51,0 -101,4 -150,13zm672 153l786 -786 212 212 -786 787c-59,-82 -130,-154 -212,-213zm365 584l1113 0 0 300 -1113 0c9,-49 13,-99 13,-150 0,-51 -4,-101 -13,-150z"/>
 </g>
</svg>
