<?xml version="1.0" encoding="UTF-8"?>
<!DOCTYPE svg PUBLIC "-//W3C//DTD SVG 1.1//EN" "http://www.w3.org/Graphics/SVG/1.1/DTD/svg11.dtd">
<!-- Creator: CorelDRAW X7 -->
<svg xmlns="http://www.w3.org/2000/svg" xml:space="preserve" width="64px" height="64px" version="1.1" style="shape-rendering:geometricPrecision; text-rendering:geometricPrecision; image-rendering:optimizeQuality; fill-rule:evenodd; clip-rule:evenodd"
viewBox="0 0 6400 6400"
 xmlns:xlink="http://www.w3.org/1999/xlink">
 <defs>
  <style type="text/css">
   <![CDATA[
    .fil0 {fill:black}
   ]]>
  </style>
 </defs>
 <g id="Camada_x0020_1">
  <metadata id="CorelCorpID_0Corel-Layer"/>
  <path class="fil0" d="M3200 0c1767,0 3200,1433 3200,3200 0,1767 -1433,3200 -3200,3200 -1767,0 -3200,-1433 -3200,-3200 0,-1767 1433,-3200 3200,-3200zm-150 2110l0 -910 300 0 0 910c-49,-6 -99,-10 -150,-10 -51,0 -101,4 -150,10zm150 190c497,0 900,402 900,900 0,497 -402,900 -900,900 -497,0 -900,-402 -900,-900 0,-497 402,-900 900,-900zm0 1543c-355,0 -643,-288 -643,-643 0,-355 288,-643 643,-643l0 1286zm-877 -1307l-643 -644 212 -212 644 643c-81,61 -152,133 -213,213zm-213 814l-910 0 0 -300 910 0c-6,49 -10,99 -10,150 0,51 4,101 10,150zm426 727l-644 643 -212 -212 643 -644c61,81 133,152 213,213zm814 213l0 910 -300 0 0 -910c49,6 99,10 150,10 51,0 101,-4 150,-10zm1370 218l-212 212 -644 -643c80,-61 152,-132 213,-213l643 644zm-430 -1458l910 0 0 300 -910 0c6,-49 10,-99 10,-150 0,-51 -4,-101 -10,-150zm-425 -727l643 -643 212 212 -643 644c-61,-80 -132,-152 -212,-213z"/>
 </g>
</svg>
