<?xml version="1.0" encoding="UTF-8"?>
<!DOCTYPE svg PUBLIC "-//W3C//DTD SVG 1.1//EN" "http://www.w3.org/Graphics/SVG/1.1/DTD/svg11.dtd">
<!-- Creator: CorelDRAW X7 -->
<svg xmlns="http://www.w3.org/2000/svg" xml:space="preserve" width="64px" height="64px" version="1.1" style="shape-rendering:geometricPrecision; text-rendering:geometricPrecision; image-rendering:optimizeQuality; fill-rule:evenodd; clip-rule:evenodd"
viewBox="0 0 6400 6400"
 xmlns:xlink="http://www.w3.org/1999/xlink">
 <defs>
  <style type="text/css">
   <![CDATA[
    .fil0 {fill:black}
   ]]>
  </style>
 </defs>
 <g id="Camada_x0020_1">
  <metadata id="CorelCorpID_0Corel-Layer"/>
  <path class="fil0" d="M3188 0c1772,0 3212,1440 3212,3188 0,1772 -1440,3212 -3212,3212 -1748,0 -3188,-1440 -3188,-3212 0,-1748 1440,-3188 3188,-3188zm-779 3401l590 0 0 -402 -590 0 0 402zm2385 1606c0,189 -189,401 -401,401l-2386 0c-212,0 -401,-213 -401,-401l0 -3614c0,-188 189,-401 401,-401l2386 0c212,0 401,213 401,401l0 591 -401 -378 0 -213 -2386 0 0 3614 2386 0 0 -189 401 -425 0 614 0 0zm-1204 -2811l1015 803 -1417 0 0 402 1417 0 -1015 802 0 402 401 0 1417 -1417 -1417 -1393 -401 0 0 401 0 0z"/>
 </g>
</svg>
