<?xml version="1.0" encoding="UTF-8"?>
<!DOCTYPE svg PUBLIC "-//W3C//DTD SVG 1.1//EN" "http://www.w3.org/Graphics/SVG/1.1/DTD/svg11.dtd">
<!-- Creator: CorelDRAW X7 -->
<svg xmlns="http://www.w3.org/2000/svg" xml:space="preserve" width="64px" height="64px" version="1.1" style="shape-rendering:geometricPrecision; text-rendering:geometricPrecision; image-rendering:optimizeQuality; fill-rule:evenodd; clip-rule:evenodd"
viewBox="0 0 6400 6400"
 xmlns:xlink="http://www.w3.org/1999/xlink">
 <defs>
  <style type="text/css">
   <![CDATA[
    .fil0 {fill:black}
   ]]>
  </style>
 </defs>
 <g id="Camada_x0020_1">
  <metadata id="CorelCorpID_0Corel-Layer"/>
  <path class="fil0" d="M6400 3188c0,-1761 -1427,-3188 -3212,-3188 -1761,0 -3188,1427 -3188,3188 0,1785 1427,3212 3188,3212 1785,0 3212,-1427 3212,-3212zm-4830 -1789l666 0 -23 266 -405 0 -71 452 -48 476 -309 0 190 -1194zm-71 2717l95 -809 976 0 -48 809 333 0 24 -618 0 -548 -618 0 23 -357 -285 0 -48 357 -594 0 -72 548 -119 618 333 0zm3402 0l-47 -428 -334 0 -47 -381 333 0 -48 -357 310 0 304 2049 -357 0 -66 -455 -690 0 18 455 -357 0 -18 -455 -357 0 18 455 -1094 0 29 -455 690 0 0 -428 690 0 -48 -809 333 0 48 809 690 0zm-2688 -428l-334 0 -95 856 -690 0 -77 455 1095 0 53 -669 48 -642zm689 -1737l571 0 24 309 -595 0 0 334 -309 0 24 -334 -595 0 24 -309 571 0 24 -286 -143 0 24 -266 404 0 -24 552 0 0 0 0zm286 1737l333 0 0 -738 928 0 -47 -357 -286 0 -24 -333 -309 0 24 333 -619 0 0 523 0 571 0 0 0 1zm880 -1737l-285 0 -24 -286 -571 0 0 -266 833 0 47 552 0 0 0 0zm643 642l-48 -333 -285 0 -24 -309 285 0 -47 -286 -286 0 -24 -266 548 0 190 1194 -309 0z"/>
 </g>
</svg>
