<?xml version="1.0" encoding="UTF-8"?>
<!DOCTYPE svg PUBLIC "-//W3C//DTD SVG 1.1//EN" "http://www.w3.org/Graphics/SVG/1.1/DTD/svg11.dtd">
<!-- Creator: CorelDRAW X7 -->
<svg xmlns="http://www.w3.org/2000/svg" xml:space="preserve" width="64px" height="64px" version="1.1" style="shape-rendering:geometricPrecision; text-rendering:geometricPrecision; image-rendering:optimizeQuality; fill-rule:evenodd; clip-rule:evenodd"
viewBox="0 0 6400 6400"
 xmlns:xlink="http://www.w3.org/1999/xlink">
 <defs>
  <style type="text/css">
   <![CDATA[
    .fil0 {fill:black}
   ]]>
  </style>
 </defs>
 <g id="Camada_x0020_1">
  <metadata id="CorelCorpID_0Corel-Layer"/>
  <path class="fil0" d="M3200 0c1767,0 3200,1433 3200,3200 0,1767 -1433,3200 -3200,3200 -1767,0 -3200,-1433 -3200,-3200 0,-1767 1433,-3200 3200,-3200zm1000 2300l0 800c0,506 -404,942 -900,995l0 405 400 0 0 400 -1000 0 0 -400 400 0 0 -405c-496,-53 -900,-489 -900,-995l0 -800 200 0 0 853c0,420 380,747 800,747 420,0 800,-327 800,-747l0 -853 200 0zm-1000 -800c330,0 600,270 600,600l0 300 -1200 0 0 -300c0,-330 270,-600 600,-600zm600 1000l0 600c0,330 -270,600 -600,600 -330,0 -600,-270 -600,-600l0 -600 1200 0z"/>
 </g>
</svg>
