<?xml version="1.0" encoding="UTF-8"?>
<!DOCTYPE svg PUBLIC "-//W3C//DTD SVG 1.1//EN" "http://www.w3.org/Graphics/SVG/1.1/DTD/svg11.dtd">
<!-- Creator: CorelDRAW X7 -->
<svg xmlns="http://www.w3.org/2000/svg" xml:space="preserve" width="64px" height="64px" version="1.1" style="shape-rendering:geometricPrecision; text-rendering:geometricPrecision; image-rendering:optimizeQuality; fill-rule:evenodd; clip-rule:evenodd"
viewBox="0 0 6400 6400"
 xmlns:xlink="http://www.w3.org/1999/xlink">
 <defs>
  <style type="text/css">
   <![CDATA[
    .fil0 {fill:black}
   ]]>
  </style>
 </defs>
 <g id="Camada_x0020_1">
  <metadata id="CorelCorpID_0Corel-Layer"/>
  <path class="fil0" d="M3200 0c1767,0 3200,1433 3200,3200 0,1767 -1433,3200 -3200,3200 -1767,0 -3200,-1433 -3200,-3200 0,-1767 1433,-3200 3200,-3200zm1300 2200l900 400 -1000 200 100 800 -2000 -2000 900 100 300 -900 300 900 1100 -500 -600 1000 0 0zm-3300 -800l900 100 2200 2300 -350 350 -2750 -2750 0 0zm-100 100l2750 2750 -400 400 -2250 -2250 -100 -900 0 0zm3700 4000l-700 -700 -400 400 -300 -300 1200 -1200 300 300 -400 400 700 700 0 100 -300 300 -100 0zm-300 -3800l-300 500 700 300 -700 100 0 400 -1100 -1100 400 100 200 -700 200 700 600 -300z"/>
 </g>
</svg>
