<?xml version="1.0" encoding="UTF-8"?>
<!DOCTYPE svg PUBLIC "-//W3C//DTD SVG 1.1//EN" "http://www.w3.org/Graphics/SVG/1.1/DTD/svg11.dtd">
<!-- Creator: CorelDRAW X7 -->
<svg xmlns="http://www.w3.org/2000/svg" xml:space="preserve" width="64px" height="64px" version="1.1" style="shape-rendering:geometricPrecision; text-rendering:geometricPrecision; image-rendering:optimizeQuality; fill-rule:evenodd; clip-rule:evenodd"
viewBox="0 0 6400 6400"
 xmlns:xlink="http://www.w3.org/1999/xlink">
 <defs>
  <style type="text/css">
   <![CDATA[
    .fil0 {fill:black}
   ]]>
  </style>
 </defs>
 <g id="Camada_x0020_1">
  <metadata id="CorelCorpID_0Corel-Layer"/>
  <path class="fil0" d="M3212 0c1748,0 3188,1440 3188,3188 0,1772 -1440,3212 -3188,3212 -1772,0 -3212,-1440 -3212,-3212 0,-1748 1440,-3188 3212,-3188zm-912 3300l-100 100 350 350 100 -100 -350 -350zm2700 -1800l-1250 1250 350 350 900 -900 0 -700zm-1300 2300l-350 350 -1950 -1950 0 -700 2300 2300zm1300 800l-400 400 -600 -600 -300 300 -300 -300 1000 -1000 300 300 -307 291 607 609zm-2800 -3200l1950 1950 -350 350 -2300 -2300 700 0zm450 2450l350 350 100 -100 -350 -350 -100 100zm-1250 750l400 400 600 -600 300 300 300 -300 -1000 -1000 -300 300 300 300 -600 600zm1900 -2300l350 350 1250 -1250 -700 0 -900 900z"/>
 </g>
</svg>
