<?xml version="1.0" encoding="UTF-8"?>
<!DOCTYPE svg PUBLIC "-//W3C//DTD SVG 1.1//EN" "http://www.w3.org/Graphics/SVG/1.1/DTD/svg11.dtd">
<!-- Creator: CorelDRAW X7 -->
<svg xmlns="http://www.w3.org/2000/svg" xml:space="preserve" width="64px" height="64px" version="1.1" style="shape-rendering:geometricPrecision; text-rendering:geometricPrecision; image-rendering:optimizeQuality; fill-rule:evenodd; clip-rule:evenodd"
viewBox="0 0 6400 6400"
 xmlns:xlink="http://www.w3.org/1999/xlink">
 <defs>
  <style type="text/css">
   <![CDATA[
    .fil0 {fill:black;fill-rule:nonzero}
   ]]>
  </style>
 </defs>
 <g id="Camada_x0020_1">
  <metadata id="CorelCorpID_0Corel-Layer"/>
  <path class="fil0" d="M3200 0c-1760,0 -3200,1440 -3200,3200 0,1760 1440,3200 3200,3200 1760,0 3200,-1440 3200,-3200 0,-1760 -1424,-3200 -3200,-3200zm1472 4624c-284,426 -834,-819 -3088,-240 -245,63 -352,-313 -96,-384 1335,-371 3448,96 3184,624l0 0zm384 -880c-80,112 -224,160 -336,80 -864,-528 -2176,-688 -3184,-368 -323,91 -435,-384 -144,-464 1168,-352 2608,-176 3600,432 185,103 64,318 64,320zm32 -896c-1024,-608 -2736,-672 -3712,-368 -371,113 -539,-446 -176,-560 1598,-503 4773,107 4304,848 -80,112 -272,160 -416,80l0 0z"/>
 </g>
</svg>
