<?xml version="1.0" encoding="UTF-8"?>
<!DOCTYPE svg PUBLIC "-//W3C//DTD SVG 1.1//EN" "http://www.w3.org/Graphics/SVG/1.1/DTD/svg11.dtd">
<!-- Creator: CorelDRAW X7 -->
<svg xmlns="http://www.w3.org/2000/svg" xml:space="preserve" width="64px" height="64px" version="1.1" style="shape-rendering:geometricPrecision; text-rendering:geometricPrecision; image-rendering:optimizeQuality; fill-rule:evenodd; clip-rule:evenodd"
viewBox="0 0 6400 6400"
 xmlns:xlink="http://www.w3.org/1999/xlink">
 <defs>
  <style type="text/css">
   <![CDATA[
    .fil0 {fill:black}
   ]]>
  </style>
 </defs>
 <g id="Camada_x0020_1">
  <metadata id="CorelCorpID_0Corel-Layer"/>
  <path class="fil0" d="M3200 0c1767,0 3200,1433 3200,3200 0,1767 -1433,3200 -3200,3200 -1767,0 -3200,-1433 -3200,-3200 0,-1767 1433,-3200 3200,-3200zm-918 5000c48,-174 120,-342 214,-591 -183,-181 -296,-432 -296,-709 0,-276 112,-526 294,-707l-1 0c375,-375 1361,-1072 2723,-672 -1118,376 -665,1412 -1290,2067l-6 6 -13 13 0 0c-181,181 -431,293 -707,293 -164,0 -320,-40 -457,-111 -66,175 -124,288 -166,411l-295 0zm918 -1800c276,0 500,224 500,500 0,276 -224,500 -500,500 -276,0 -500,-224 -500,-500 0,-276 224,-500 500,-500zm414 -410c110,50 209,119 293,203 258,-232 193,-393 789,-612 -390,19 -791,208 -1082,409l0 0zm-414 210c387,0 700,314 700,700 0,387 -313,700 -700,700 -386,0 -700,-313 -700,-700 0,-386 314,-700 700,-700z"/>
 </g>
</svg>
