<?xml version="1.0" encoding="UTF-8"?>
<!DOCTYPE svg PUBLIC "-//W3C//DTD SVG 1.1//EN" "http://www.w3.org/Graphics/SVG/1.1/DTD/svg11.dtd">
<!-- Creator: CorelDRAW X7 -->
<svg xmlns="http://www.w3.org/2000/svg" xml:space="preserve" width="64px" height="64px" version="1.1" style="shape-rendering:geometricPrecision; text-rendering:geometricPrecision; image-rendering:optimizeQuality; fill-rule:evenodd; clip-rule:evenodd"
viewBox="0 0 6400 6400"
 xmlns:xlink="http://www.w3.org/1999/xlink">
 <defs>
  <style type="text/css">
   <![CDATA[
    .fil0 {fill:black}
   ]]>
  </style>
 </defs>
 <g id="Camada_x0020_1">
  <metadata id="CorelCorpID_0Corel-Layer"/>
  <path class="fil0" d="M3200 0c1767,0 3200,1433 3200,3200 0,1767 -1433,3200 -3200,3200 -1767,0 -3200,-1433 -3200,-3200 0,-1767 1433,-3200 3200,-3200zm1650 1400l-450 150 0 300 -1050 1050 -450 0 -152 149 -1198 1201 -150 300 150 300 300 150 300 -150 1350 -1350 0 -450 1050 -1050 300 0 150 -450 -150 -150zm-3450 904l0 -461 301 319 444 -17 17 -444 -319 -301 461 0 302 301 0 444 -6 155 500 500 -300 0 -150 150 -350 -350 -155 6 -444 0 -301 -301 0 -1zm2050 1446l150 -150 0 -300 575 575c412,-187 825,39 825,522 0,461 -301,603 -603,603 -397,0 -709,-413 -522,-825l-425 -425zm947 345c-142,0 -302,160 -302,302 0,160 160,301 302,301 160,0 301,-142 301,-301 0,-142 -142,-302 -301,-302z"/>
 </g>
</svg>
