<?xml version="1.0" encoding="UTF-8"?>
<!DOCTYPE svg PUBLIC "-//W3C//DTD SVG 1.1//EN" "http://www.w3.org/Graphics/SVG/1.1/DTD/svg11.dtd">
<!-- Creator: CorelDRAW X7 -->
<svg xmlns="http://www.w3.org/2000/svg" xml:space="preserve" width="64px" height="64px" version="1.1" style="shape-rendering:geometricPrecision; text-rendering:geometricPrecision; image-rendering:optimizeQuality; fill-rule:evenodd; clip-rule:evenodd"
viewBox="0 0 6400 6400"
 xmlns:xlink="http://www.w3.org/1999/xlink">
 <defs>
  <style type="text/css">
   <![CDATA[
    .fil0 {fill:black}
   ]]>
  </style>
 </defs>
 <g id="Camada_x0020_1">
  <metadata id="CorelCorpID_0Corel-Layer"/>
  <path class="fil0" d="M6400 3200c0,-1800 -1400,-3200 -3200,-3200 -1800,0 -3200,1400 -3200,3200 0,1800 1400,3200 3200,3200 1800,0 3200,-1400 3200,-3200zm-3400 2000l300 -100 -200 -200 -100 300zm1800 -1600l0 -200 -200 0 -1400 1400 200 200 1400 -1400zm-400 -2400l0 2100 -1500 1500 -1300 0 0 -3600 2800 0zm-400 1800l-2000 0 0 200 2000 0 0 -200zm0 -600l-2000 0 0 200 2000 0 0 -200zm-800 1200l-1200 0 0 200 1200 0 0 -200zm800 -1800l-2000 0 0 200 2000 0 0 -200zm400 2500l0 500 -500 0 500 -500z"/>
 </g>
</svg>
