<?xml version="1.0" encoding="UTF-8"?>
<!DOCTYPE svg PUBLIC "-//W3C//DTD SVG 1.1//EN" "http://www.w3.org/Graphics/SVG/1.1/DTD/svg11.dtd">
<!-- Creator: CorelDRAW X7 -->
<svg xmlns="http://www.w3.org/2000/svg" xml:space="preserve" width="64px" height="64px" version="1.1" style="shape-rendering:geometricPrecision; text-rendering:geometricPrecision; image-rendering:optimizeQuality; fill-rule:evenodd; clip-rule:evenodd"
viewBox="0 0 6400 6400"
 xmlns:xlink="http://www.w3.org/1999/xlink">
 <defs>
  <style type="text/css">
   <![CDATA[
    .fil0 {fill:black}
   ]]>
  </style>
 </defs>
 <g id="Camada_x0020_1">
  <metadata id="CorelCorpID_0Corel-Layer"/>
  <path class="fil0" d="M3200 0l0 0c1760,0 3200,1440 3200,3200l0 0c0,1760 -1440,3200 -3200,3200l0 0c-1760,0 -3200,-1440 -3200,-3200l0 0c0,-1760 1440,-3200 3200,-3200zm1200 1999l38 -72 0 -727 -727 0 -73 73 -343 654 -108 73 -1225 0 0 999 674 0 60 72 -696 1330 -38 72 0 727 727 0 73 -73 343 -654 108 -73 1225 0 0 -999 -673 0 -60 -73 695 -1329 0 0z"/>
 </g>
</svg>
