<?xml version="1.0" encoding="UTF-8"?>
<!DOCTYPE svg PUBLIC "-//W3C//DTD SVG 1.1//EN" "http://www.w3.org/Graphics/SVG/1.1/DTD/svg11.dtd">
<!-- Creator: CorelDRAW X7 -->
<svg xmlns="http://www.w3.org/2000/svg" xml:space="preserve" width="64px" height="64px" version="1.1" style="shape-rendering:geometricPrecision; text-rendering:geometricPrecision; image-rendering:optimizeQuality; fill-rule:evenodd; clip-rule:evenodd"
viewBox="0 0 6400 6400"
 xmlns:xlink="http://www.w3.org/1999/xlink">
 <defs>
  <style type="text/css">
   <![CDATA[
    .fil0 {fill:black}
   ]]>
  </style>
 </defs>
 <g id="Camada_x0020_1">
  <metadata id="CorelCorpID_0Corel-Layer"/>
  <path class="fil0" d="M3200 0c1800,0 3200,1400 3200,3200 0,1800 -1400,3200 -3200,3200 -1400,0 -2600,-900 -3000,-2100l700 0 0 -400 -800 0c-100,-200 -100,-500 -100,-700 0,-200 0,-500 100,-700l400 0 0 -400 -300 0c400,-1200 1600,-2100 3000,-2100l0 0zm1300 3700l-1500 0 0 300 1900 0 -400 -300zm700 -1800l-1500 0 0 300 1900 0 -400 -300zm-3400 600l400 0 0 -400 -400 0 0 400zm-200 -400l-900 0 0 400 900 0 0 -400zm2000 800l0 -1200 -400 0 0 400 -800 0 0 400 800 0 0 400 400 0 0 0zm2000 -500l-1900 0 0 300 1500 0 400 -300 0 0zm-4500 1900l400 0 0 -400 -400 0 0 400zm1800 400l0 -1200 -400 0 0 400 -800 0 0 400 800 0 0 400 400 0 0 0zm2000 -500l-1900 0 0 300 1500 0 400 -300 0 0z"/>
 </g>
</svg>
