<?xml version="1.0" encoding="UTF-8"?>
<!DOCTYPE svg PUBLIC "-//W3C//DTD SVG 1.1//EN" "http://www.w3.org/Graphics/SVG/1.1/DTD/svg11.dtd">
<!-- Creator: CorelDRAW X7 -->
<svg xmlns="http://www.w3.org/2000/svg" xml:space="preserve" width="64px" height="64px" version="1.1" style="shape-rendering:geometricPrecision; text-rendering:geometricPrecision; image-rendering:optimizeQuality; fill-rule:evenodd; clip-rule:evenodd"
viewBox="0 0 6400 6400"
 xmlns:xlink="http://www.w3.org/1999/xlink">
 <defs>
  <style type="text/css">
   <![CDATA[
    .fil0 {fill:black}
   ]]>
  </style>
 </defs>
 <g id="Camada_x0020_1">
  <metadata id="CorelCorpID_0Corel-Layer"/>
  <path class="fil0" d="M3169 -7c1772,0 3212,1440 3212,3188 0,1772 -1440,3212 -3212,3212 -1748,0 -3188,-1440 -3188,-3212 0,-1748 1440,-3188 3188,-3188zm50 2014c462,0 832,401 797,862 -29,509 -401,1216 -733,1863l1036 0 700 475 -3600 0 700 -475 1036 0c-360,-704 -726,-1427 -736,-1925 0,-442 358,-800 800,-800zm0 526c165,0 299,134 299,299 0,165 -134,299 -299,299 -166,0 -300,-134 -300,-299 0,-165 134,-299 300,-299z"/>
 </g>
</svg>
