<?xml version="1.0" encoding="UTF-8"?>
<!DOCTYPE svg PUBLIC "-//W3C//DTD SVG 1.1//EN" "http://www.w3.org/Graphics/SVG/1.1/DTD/svg11.dtd">
<!-- Creator: CorelDRAW X7 -->
<svg xmlns="http://www.w3.org/2000/svg" xml:space="preserve" width="64px" height="64px" version="1.1" style="shape-rendering:geometricPrecision; text-rendering:geometricPrecision; image-rendering:optimizeQuality; fill-rule:evenodd; clip-rule:evenodd"
viewBox="0 0 6400 6400"
 xmlns:xlink="http://www.w3.org/1999/xlink">
 <defs>
  <style type="text/css">
   <![CDATA[
    .fil0 {fill:black}
   ]]>
  </style>
 </defs>
 <g id="Camada_x0020_1">
  <metadata id="CorelCorpID_0Corel-Layer"/>
  <path class="fil0" d="M3212 0c1748,0 3188,1440 3188,3188 0,1772 -1440,3212 -3188,3212 -1772,0 -3212,-1440 -3212,-3212 0,-1748 1440,-3188 3212,-3188zm1582 3802l-992 0 0 992c0,803 -1204,803 -1204,0l0 -992 -992 0c-803,0 -803,-1204 0,-1204l992 0 0 -992c0,-803 1204,-803 1204,0l0 992 992 0c803,0 803,1204 0,1204z"/>
 </g>
</svg>
