<?xml version="1.0" encoding="UTF-8"?>
<!DOCTYPE svg PUBLIC "-//W3C//DTD SVG 1.1//EN" "http://www.w3.org/Graphics/SVG/1.1/DTD/svg11.dtd">
<!-- Creator: CorelDRAW X7 -->
<svg xmlns="http://www.w3.org/2000/svg" xml:space="preserve" width="64px" height="64px" version="1.1" style="shape-rendering:geometricPrecision; text-rendering:geometricPrecision; image-rendering:optimizeQuality; fill-rule:evenodd; clip-rule:evenodd"
viewBox="0 0 6400 6400"
 xmlns:xlink="http://www.w3.org/1999/xlink">
 <defs>
  <style type="text/css">
   <![CDATA[
    .fil0 {fill:black}
   ]]>
  </style>
 </defs>
 <g id="Camada_x0020_1">
  <metadata id="CorelCorpID_0Corel-Layer"/>
  <path class="fil0" d="M3200 0c1767,0 3200,1433 3200,3200 0,1767 -1433,3200 -3200,3200 -1767,0 -3200,-1433 -3200,-3200 0,-1767 1433,-3200 3200,-3200zm647 2575c157,162 253,382 253,625 0,237 -92,453 -242,613 361,-87 760,-265 1047,-618 -290,-356 -694,-534 -1058,-620zm-546 1519c-33,4 -67,6 -101,6 -31,0 -62,-1 -92,-5l-551 1483 255 -1505c-90,-9 -182,-22 -276,-39l-1093 904 812 -977c-192,-62 -386,-154 -570,-283l-885 150 731 -270c-118,-101 -232,-221 -338,-363 106,-141 220,-261 338,-362l-731 -270 885 150c184,-129 378,-221 570,-283l-812 -977 1093 904c94,-17 186,-30 276,-39l-255 -1506 553 1489 90 -1 4 0 5 0 90 1 553 -1489 -256 1506c91,9 182,22 277,39l1093 -904 -812 977c192,62 385,154 570,283l885 -150 -731 270c118,101 231,221 338,362 -107,142 -220,262 -338,363l731 270 -885 -150c-185,129 -378,221 -570,283l812 977 -1093 -904c-95,17 -186,30 -277,39l256 1505 -551 -1484zm-762 -283c-148,-161 -239,-375 -239,-611 0,-242 95,-461 250,-623 -361,87 -759,266 -1046,618 284,349 677,528 1035,616zm790 77c-43,2 -83,3 -120,3l-5 0 -4 0c-40,0 -85,-1 -132,-3 -324,-62 -568,-347 -568,-688 0,-387 313,-700 700,-700l4 0 5 0c382,5 691,316 691,700 0,342 -246,628 -571,688zm-129 -1188c276,0 500,224 500,500 0,276 -224,500 -500,500 -276,0 -500,-224 -500,-500 0,-276 224,-500 500,-500z"/>
 </g>
</svg>
