<?xml version="1.0" encoding="UTF-8"?>
<!DOCTYPE svg PUBLIC "-//W3C//DTD SVG 1.1//EN" "http://www.w3.org/Graphics/SVG/1.1/DTD/svg11.dtd">
<!-- Creator: CorelDRAW X7 -->
<svg xmlns="http://www.w3.org/2000/svg" xml:space="preserve" width="64px" height="64px" version="1.1" style="shape-rendering:geometricPrecision; text-rendering:geometricPrecision; image-rendering:optimizeQuality; fill-rule:evenodd; clip-rule:evenodd"
viewBox="0 0 6400 6400"
 xmlns:xlink="http://www.w3.org/1999/xlink">
 <defs>
  <style type="text/css">
   <![CDATA[
    .fil0 {fill:black}
   ]]>
  </style>
 </defs>
 <g id="Camada_x0020_1">
  <metadata id="CorelCorpID_0Corel-Layer"/>
  <path class="fil0" d="M4400 1454c79,-59 172,-94 265,-104 130,-15 263,17 363,94 108,83 178,211 171,380 -11,228 -186,548 -678,926l-121 93 -121 -93c-492,-378 -667,-698 -678,-926 -7,-169 63,-297 171,-380 101,-77 234,-109 363,-94 93,10 186,45 265,104zm-1200 -1454c1767,0 3200,1433 3200,3200l-2245 0 -85 47 -264 587 -145 -662 -99 -449 -96 450 -222 1028 -223 -1770 -72 -570 -124 561 -416 1880 -324 -2670 -87 -716 -111 712 -358 2307 -138 -662 -20 -73 -76 0 -1295 0 0 0c0,-1767 1433,-3200 3200,-3200zm3194 3400c-104,1674 -1494,3000 -3194,3000 -1700,0 -3090,-1326 -3194,-3000l1214 0 241 1030 124 443 71 -454 318 -2047 307 2533 70 579 126 -569 418 -1889 224 1780 73 581 124 -573 248 -1150 99 451 52 237 130 -205 365 -747 2184 0zm-1994 -1612c167,-527 1262,-165 0,803 -1262,-968 -167,-1330 0,-803z"/>
 </g>
</svg>
