<?xml version="1.0" encoding="UTF-8"?>
<!DOCTYPE svg PUBLIC "-//W3C//DTD SVG 1.1//EN" "http://www.w3.org/Graphics/SVG/1.1/DTD/svg11.dtd">
<!-- Creator: CorelDRAW X7 -->
<svg xmlns="http://www.w3.org/2000/svg" xml:space="preserve" width="64px" height="64px" version="1.1" style="shape-rendering:geometricPrecision; text-rendering:geometricPrecision; image-rendering:optimizeQuality; fill-rule:evenodd; clip-rule:evenodd"
viewBox="0 0 6400 6400"
 xmlns:xlink="http://www.w3.org/1999/xlink">
 <defs>
  <style type="text/css">
   <![CDATA[
    .fil0 {fill:black}
   ]]>
  </style>
 </defs>
 <g id="Camada_x0020_1">
  <metadata id="CorelCorpID_0Corel-Layer"/>
  <path class="fil0" d="M3200 0c1767,0 3200,1433 3200,3200 0,248 -28,489 -82,721l-3118 -3112 -3118 3112c-54,-232 -82,-473 -82,-721 0,-1767 1433,-3200 3200,-3200zm3030 4231c-128,378 -326,724 -576,1023l-1754 -1754 0 400 1563 1563c-579,579 -1379,937 -2263,937 -884,0 -1684,-358 -2263,-937l1563 -1563 0 -400 -1754 1754c-250,-299 -447,-645 -576,-1022l3030 -3024 3030 3023zm-1730 769l-900 -200 -200 -200 0 -200 350 -350 50 -850 -400 -400 -400 0 -400 400 50 850 350 350 0 200 -200 200 -900 200 -200 500 3000 0 -200 -500z"/>
 </g>
</svg>
