<?xml version="1.0" encoding="UTF-8"?>
<!DOCTYPE svg PUBLIC "-//W3C//DTD SVG 1.1//EN" "http://www.w3.org/Graphics/SVG/1.1/DTD/svg11.dtd">
<!-- Creator: CorelDRAW X7 -->
<svg xmlns="http://www.w3.org/2000/svg" xml:space="preserve" width="64px" height="64px" version="1.1" style="shape-rendering:geometricPrecision; text-rendering:geometricPrecision; image-rendering:optimizeQuality; fill-rule:evenodd; clip-rule:evenodd"
viewBox="0 0 6400 6400"
 xmlns:xlink="http://www.w3.org/1999/xlink">
 <defs>
  <style type="text/css">
   <![CDATA[
    .fil0 {fill:black}
   ]]>
  </style>
 </defs>
 <g id="Camada_x0020_1">
  <metadata id="CorelCorpID_0Corel-Layer"/>
  <path class="fil0" d="M3200 0c1767,0 3200,1433 3200,3200 0,1767 -1433,3200 -3200,3200 -1767,0 -3200,-1433 -3200,-3200 0,-1767 1433,-3200 3200,-3200zm40 2914l0 686 1134 0c-46,294 -342,863 -1134,863 -682,0 -1240,-565 -1240,-1263 0,-697 557,-1262 1240,-1262 389,0 648,165 798,308l542 -523c-349,-326 -800,-523 -1340,-523 -1106,0 -2000,894 -2000,2000 0,1106 894,2000 2000,2000 1154,0 1920,-811 1920,-1954 0,-132 -14,-232 -31,-332l-1889 0z"/>
 </g>
</svg>
