<?xml version="1.0" encoding="UTF-8"?>
<!DOCTYPE svg PUBLIC "-//W3C//DTD SVG 1.1//EN" "http://www.w3.org/Graphics/SVG/1.1/DTD/svg11.dtd">
<!-- Creator: CorelDRAW X7 -->
<svg xmlns="http://www.w3.org/2000/svg" xml:space="preserve" width="64px" height="64px" version="1.1" style="shape-rendering:geometricPrecision; text-rendering:geometricPrecision; image-rendering:optimizeQuality; fill-rule:evenodd; clip-rule:evenodd"
viewBox="0 0 6400 6400"
 xmlns:xlink="http://www.w3.org/1999/xlink">
 <defs>
  <style type="text/css">
   <![CDATA[
    .fil0 {fill:black}
   ]]>
  </style>
 </defs>
 <g id="Camada_x0020_1">
  <metadata id="CorelCorpID_0Corel-Layer"/>
  <path class="fil0" d="M3212 0c1748,0 3188,1440 3188,3188 0,1772 -1440,3212 -3188,3212 -1772,0 -3212,-1440 -3212,-3212 0,-1748 1440,-3188 3212,-3188zm88 800l0 3500 400 0 0 -2900 -400 -600zm-400 4800l600 0 0 -1000 400 0 0 -200 -1400 0 0 200 400 0 0 1000zm-200 -4200l0 2900 400 0 0 -3500 -400 600z"/>
 </g>
</svg>
