<?xml version="1.0" encoding="UTF-8"?>
<!DOCTYPE svg PUBLIC "-//W3C//DTD SVG 1.1//EN" "http://www.w3.org/Graphics/SVG/1.1/DTD/svg11.dtd">
<!-- Creator: CorelDRAW X7 -->
<svg xmlns="http://www.w3.org/2000/svg" xml:space="preserve" width="64px" height="64px" version="1.1" style="shape-rendering:geometricPrecision; text-rendering:geometricPrecision; image-rendering:optimizeQuality; fill-rule:evenodd; clip-rule:evenodd"
viewBox="0 0 6400 6400"
 xmlns:xlink="http://www.w3.org/1999/xlink">
 <defs>
  <style type="text/css">
   <![CDATA[
    .fil0 {fill:black}
   ]]>
  </style>
 </defs>
 <g id="Camada_x0020_1">
  <metadata id="CorelCorpID_0Corel-Layer"/>
  <path class="fil0" d="M3200 0c1767,0 3200,1433 3200,3200 0,1767 -1433,3200 -3200,3200 -1767,0 -3200,-1433 -3200,-3200 0,-1767 1433,-3200 3200,-3200zm-1693 2742l0 1034c0,137 111,247 247,247 136,0 247,-110 247,-247l0 -1034c0,-324 -494,-324 -494,0zm3386 0c0,-136 -110,-247 -247,-247 -136,0 -247,111 -247,247l0 1034c0,136 111,247 248,247 136,0 246,-111 246,-247l0 -1034zm-2796 -170l0 1572c0,146 118,264 264,264l179 0 0 547c0,136 111,247 247,247 136,0 247,-111 247,-247l0 -547 333 0 0 547c0,136 111,247 247,247 136,0 247,-111 247,-248l0 -546 180 0c145,0 263,-118 263,-264l0 -1573 -2207 1zm1682 -987l157 -322c10,-17 1,-52 -16,-62 -17,-8 -54,2 -63,19l-174 318c-147,-66 -310,-102 -484,-102 -173,0 -337,36 -483,101l-173 -317c-9,-17 -53,-28 -69,-19 -17,9 -35,42 -26,59l174 325c-339,175 -526,511 -526,893l2200 0c0,-382 -179,-718 -517,-893zm-83 493c-55,0 -100,-45 -100,-100 0,-55 45,-100 100,-100 55,0 100,45 100,100 0,55 -45,100 -100,100zm-1000 0c-55,0 -100,-45 -100,-100 0,-55 45,-100 100,-100 55,0 100,45 100,100 0,55 -45,100 -100,100z"/>
 </g>
</svg>
