<?xml version="1.0" encoding="UTF-8"?>
<!DOCTYPE svg PUBLIC "-//W3C//DTD SVG 1.1//EN" "http://www.w3.org/Graphics/SVG/1.1/DTD/svg11.dtd">
<!-- Creator: CorelDRAW X7 -->
<svg xmlns="http://www.w3.org/2000/svg" xml:space="preserve" width="64px" height="64px" version="1.1" style="shape-rendering:geometricPrecision; text-rendering:geometricPrecision; image-rendering:optimizeQuality; fill-rule:evenodd; clip-rule:evenodd"
viewBox="0 0 6400 6400"
 xmlns:xlink="http://www.w3.org/1999/xlink">
 <defs>
  <style type="text/css">
   <![CDATA[
    .fil0 {fill:black}
   ]]>
  </style>
 </defs>
 <g id="Camada_x0020_1">
  <metadata id="CorelCorpID_0Corel-Layer"/>
  <path class="fil0" d="M3200 0c1767,0 3200,1433 3200,3200 0,1767 -1433,3200 -3200,3200 -1767,0 -3200,-1433 -3200,-3200 0,-1767 1433,-3200 3200,-3200zm-1400 2205l2800 -10 0 -300 -2800 10 0 300zm2200 1900l500 0 0 300 -500 0 0 -300zm0 -400l500 0 0 300 -500 0 0 -300zm0 -400l500 0 0 300 -500 0 0 -300zm0 -400l500 0 0 300 -500 0 0 -300zm-700 1200l500 0 0 300 -500 0 0 -300zm0 -400l500 0 0 300 -500 0 0 -300zm0 -400l500 0 0 300 -500 0 0 -300zm0 -400l500 0 0 300 -500 0 0 -300zm-700 1200l500 0 0 300 -500 0 0 -300zm0 -400l500 0 0 300 -500 0 0 -300zm0 -400l500 0 0 300 -500 0 0 -300zm0 -400l500 0 0 300 -500 0 0 -300zm-700 1200l500 0 0 300 -500 0 0 -300zm0 -400l500 0 0 300 -500 0 0 -300zm0 -400l500 0 0 300 -500 0 0 -300zm0 -400l500 0 0 300 -500 0 0 -300zm2100 -400l500 0 0 300 -500 0 0 -300zm-700 0l500 0 0 300 -500 0 0 -300zm-700 0l500 0 0 300 -500 0 0 -300zm2000 -810l200 0 0 3000 -3200 10 0 -3000 3000 -10zm-2800 710l2800 -10 0 2100 -2800 10 0 -2100z"/>
 </g>
</svg>
