<?xml version="1.0" encoding="UTF-8"?>
<!DOCTYPE svg PUBLIC "-//W3C//DTD SVG 1.1//EN" "http://www.w3.org/Graphics/SVG/1.1/DTD/svg11.dtd">
<!-- Creator: CorelDRAW X7 -->
<svg xmlns="http://www.w3.org/2000/svg" xml:space="preserve" width="64px" height="64px" version="1.1" style="shape-rendering:geometricPrecision; text-rendering:geometricPrecision; image-rendering:optimizeQuality; fill-rule:evenodd; clip-rule:evenodd"
viewBox="0 0 6400 6400"
 xmlns:xlink="http://www.w3.org/1999/xlink">
 <defs>
  <style type="text/css">
   <![CDATA[
    .fil0 {fill:black}
   ]]>
  </style>
 </defs>
 <g id="Camada_x0020_1">
  <metadata id="CorelCorpID_0Corel-Layer"/>
  <path class="fil0" d="M5200 2967c0,228 0,274 0,455 -1,335 -542,546 -1229,633 -6,136 -119,245 -257,245l-1028 0c-139,0 -253,-111 -257,-249l-49 -7c-213,80 -417,174 -615,319 -113,82 -265,-23 -300,-150l0 0c-35,-128 68,-222 173,-314l30 -25c-286,-111 -468,-261 -468,-452 0,-181 0,-227 0,-455 0,-356 1008,-564 2000,-567 1007,-3 2000,205 2000,567zm-1586 733l-828 0c-47,0 -86,39 -86,86l0 128c0,47 39,86 86,86l828 0c47,0 86,-39 86,-86l0 -128c0,-47 -39,-86 -86,-86zm331 -156c490,-77 894,-224 1051,-394 -118,-273 -951,-452 -1796,-450 -833,2 -1680,181 -1796,450 153,166 564,312 1053,390 43,-83 129,-140 229,-140l1028 0c102,0 189,59 231,144zm-288 56l-914 0c-79,0 -143,64 -143,143l0 214c0,79 64,143 143,143l914 0c79,0 143,-64 143,-143l0 -214c0,-79 -64,-143 -143,-143z"/>
 </g>
</svg>
