<?xml version="1.0" encoding="UTF-8"?>
<!DOCTYPE svg PUBLIC "-//W3C//DTD SVG 1.1//EN" "http://www.w3.org/Graphics/SVG/1.1/DTD/svg11.dtd">
<!-- Creator: CorelDRAW X7 -->
<svg xmlns="http://www.w3.org/2000/svg" xml:space="preserve" width="64px" height="64px" version="1.1" style="shape-rendering:geometricPrecision; text-rendering:geometricPrecision; image-rendering:optimizeQuality; fill-rule:evenodd; clip-rule:evenodd"
viewBox="0 0 6400 6400"
 xmlns:xlink="http://www.w3.org/1999/xlink">
 <defs>
  <style type="text/css">
   <![CDATA[
    .fil0 {fill:black}
   ]]>
  </style>
 </defs>
 <g id="Camada_x0020_1">
  <metadata id="CorelCorpID_0Corel-Layer"/>
  <path class="fil0" d="M1200 3043c0,-324 40,-648 40,-648 0,0 39,-275 159,-397 152,-159 352,-154 441,-171 320,-31 1360,-40 1360,-40 0,0 840,1 1400,42 79,9 249,10 401,169 120,122 159,397 159,397 0,0 40,324 40,648l0 314c0,324 -40,648 -40,648 0,0 -39,275 -159,397 -152,159 -322,160 -401,169 -560,41 -1400,42 -1400,42 0,0 -1040,-9 -1360,-40 -89,-17 -289,-12 -441,-171 -120,-122 -159,-397 -159,-397 0,0 -40,-324 -40,-647l0 -315zm1587 682l0 -1124 1081 564 -1080 560 -1 0 0 0z"/>
 </g>
</svg>
