<?xml version="1.0" encoding="UTF-8"?>
<!DOCTYPE svg PUBLIC "-//W3C//DTD SVG 1.1//EN" "http://www.w3.org/Graphics/SVG/1.1/DTD/svg11.dtd">
<!-- Creator: CorelDRAW X7 -->
<svg xmlns="http://www.w3.org/2000/svg" xml:space="preserve" width="64px" height="64px" version="1.1" style="shape-rendering:geometricPrecision; text-rendering:geometricPrecision; image-rendering:optimizeQuality; fill-rule:evenodd; clip-rule:evenodd"
viewBox="0 0 6400 6400"
 xmlns:xlink="http://www.w3.org/1999/xlink">
 <defs>
  <style type="text/css">
   <![CDATA[
    .fil0 {fill:black}
   ]]>
  </style>
 </defs>
 <g id="Camada_x0020_1">
  <metadata id="CorelCorpID_0Corel-Layer"/>
  <path class="fil0" d="M3300 1600c0,-200 -200,-400 -400,-400 -100,0 -300,200 -500,400l-900 1000c-229,255 -400,500 -400,600 0,100 159,333 400,600l900 1000c200,200 400,400 500,400 200,0 400,-200 400,-400 0,-200 0,-400 0,-700l700 700c200,200 400,400 600,400 100,0 300,-200 300,-400l0 -3200c0,-200 -200,-400 -400,-400 -200,0 -300,200 -500,400l-700 700c0,-233 0,-467 0,-700z"/>
 </g>
</svg>
