<?xml version="1.0" encoding="UTF-8"?>
<!DOCTYPE svg PUBLIC "-//W3C//DTD SVG 1.1//EN" "http://www.w3.org/Graphics/SVG/1.1/DTD/svg11.dtd">
<!-- Creator: CorelDRAW X7 -->
<svg xmlns="http://www.w3.org/2000/svg" xml:space="preserve" width="64px" height="64px" version="1.1" style="shape-rendering:geometricPrecision; text-rendering:geometricPrecision; image-rendering:optimizeQuality; fill-rule:evenodd; clip-rule:evenodd"
viewBox="0 0 6400 6400"
 xmlns:xlink="http://www.w3.org/1999/xlink">
 <defs>
  <style type="text/css">
   <![CDATA[
    .fil0 {fill:black}
   ]]>
  </style>
 </defs>
 <g id="Camada_x0020_1">
  <metadata id="CorelCorpID_0Corel-Layer"/>
  <path class="fil0" d="M3461 1480c752,113 1346,707 1459,1459l280 0 0 522 -280 0c-113,752 -707,1346 -1459,1459l0 280 -522 0 0 -280c-752,-113 -1346,-707 -1459,-1459l-280 0 0 -522 280 0c113,-752 707,-1346 1459,-1459l0 -280 522 0 0 280zm-1463 1459l419 0 0 522 -419 0c101,470 471,840 941,941l0 -419 522 0 0 419c470,-101 840,-471 941,-941l-419 0 0 -522 419 0c-101,-470 -471,-840 -941,-941l0 419 -522 0 0 -419c-470,101 -840,471 -941,941z"/>
 </g>
</svg>
