<?xml version="1.0" encoding="UTF-8"?>
<!DOCTYPE svg PUBLIC "-//W3C//DTD SVG 1.1//EN" "http://www.w3.org/Graphics/SVG/1.1/DTD/svg11.dtd">
<!-- Creator: CorelDRAW X7 -->
<svg xmlns="http://www.w3.org/2000/svg" xml:space="preserve" width="64px" height="64px" version="1.1" style="shape-rendering:geometricPrecision; text-rendering:geometricPrecision; image-rendering:optimizeQuality; fill-rule:evenodd; clip-rule:evenodd"
viewBox="0 0 6400 6400"
 xmlns:xlink="http://www.w3.org/1999/xlink">
 <defs>
  <style type="text/css">
   <![CDATA[
    .fil0 {fill:black}
   ]]>
  </style>
 </defs>
 <g id="Camada_x0020_1">
  <metadata id="CorelCorpID_0Corel-Layer"/>
  <polygon class="fil0" points="3590,2196 4605,2999 3188,2999 3188,3401 4605,3401 3590,4203 3590,4605 3991,4605 5408,3188 3991,1795 3590,1795 3590,2196 "/>
  <path class="fil0" d="M4794 5007c0,189 -189,401 -401,401l-2386 0c-212,0 -401,-213 -401,-401l0 -3614c0,-188 189,-401 401,-401l2386 0c212,0 401,213 401,401l0 591 -401 -378 0 -213 -2386 0 0 3614 2386 0 0 -189 401 -425 0 614 0 0z"/>
  <polygon class="fil0" points="2409,3401 2999,3401 2999,2999 2409,2999 "/>
 </g>
</svg>
