<?xml version="1.0" encoding="UTF-8"?>
<!DOCTYPE svg PUBLIC "-//W3C//DTD SVG 1.1//EN" "http://www.w3.org/Graphics/SVG/1.1/DTD/svg11.dtd">
<!-- Creator: CorelDRAW X7 -->
<svg xmlns="http://www.w3.org/2000/svg" xml:space="preserve" width="64px" height="64px" version="1.1" style="shape-rendering:geometricPrecision; text-rendering:geometricPrecision; image-rendering:optimizeQuality; fill-rule:evenodd; clip-rule:evenodd"
viewBox="0 0 6400 6400"
 xmlns:xlink="http://www.w3.org/1999/xlink">
 <defs>
  <style type="text/css">
   <![CDATA[
    .fil0 {fill:black}
   ]]>
  </style>
 </defs>
 <g id="Camada_x0020_1">
  <metadata id="CorelCorpID_0Corel-Layer"/>
  <path class="fil0" d="M2600 800l-200 0 0 200 -400 0 -900 600 -300 700 600 600 300 -100 400 600 100 700 -200 1100 0 400 1200 -100 1200 100 0 -400 -200 -1100 100 -700 400 -600 300 100 600 -600 -300 -700 -900 -600 -400 0 0 -200 -200 0 -100 200 -500 200 -500 -200 -100 -200zm600 1100l-700 -200 0 600 -500 500 -100 -100 500 -500 0 -1000 100 0 0 400 700 200 700 -200 0 -400 100 0 0 1000 500 500 -100 100 -500 -500 0 -600 -700 200zm0 2900l-100 -600 -500 -100 500 -100 100 -500 100 500 500 100 -500 100 -100 600zm0 -2000l-400 100 -400 200 800 -100 800 100 -400 -200 -400 -100z"/>
 </g>
</svg>
