<?xml version="1.0" encoding="UTF-8"?>
<!DOCTYPE svg PUBLIC "-//W3C//DTD SVG 1.1//EN" "http://www.w3.org/Graphics/SVG/1.1/DTD/svg11.dtd">
<!-- Creator: CorelDRAW X7 -->
<svg xmlns="http://www.w3.org/2000/svg" xml:space="preserve" width="64px" height="64px" version="1.1" style="shape-rendering:geometricPrecision; text-rendering:geometricPrecision; image-rendering:optimizeQuality; fill-rule:evenodd; clip-rule:evenodd"
viewBox="0 0 6400 6400"
 xmlns:xlink="http://www.w3.org/1999/xlink">
 <defs>
  <style type="text/css">
   <![CDATA[
    .fil0 {fill:black}
   ]]>
  </style>
 </defs>
 <g id="Camada_x0020_1">
  <metadata id="CorelCorpID_0Corel-Layer"/>
  <path class="fil0" d="M3252 2701c111,9 217,35 315,77 38,-479 441,-648 379,-1180l277 0c24,593 -501,735 -378,1357 203,183 331,448 331,743 0,552 -448,1000 -1000,1000 -552,0 -1000,-448 -1000,-1000 0,-227 76,-436 203,-604 -160,-743 429,-862 354,-1496l278 0c22,564 -452,720 -392,1270 112,-75 240,-129 378,-154 78,-506 568,-663 297,-1416 101,0 200,0 300,0 215,747 -296,907 -342,1403zm-76 497c276,0 500,224 500,500 0,276 -224,500 -500,500 -276,0 -500,-224 -500,-500 0,-276 224,-500 500,-500zm0 -200c386,0 700,314 700,700 0,387 -314,700 -700,700 -387,0 -700,-313 -700,-700 0,-386 313,-700 700,-700z"/>
 </g>
</svg>
