<?xml version="1.0" encoding="UTF-8"?>
<!DOCTYPE svg PUBLIC "-//W3C//DTD SVG 1.1//EN" "http://www.w3.org/Graphics/SVG/1.1/DTD/svg11.dtd">
<!-- Creator: CorelDRAW X7 -->
<svg xmlns="http://www.w3.org/2000/svg" xml:space="preserve" width="64px" height="64px" version="1.1" style="shape-rendering:geometricPrecision; text-rendering:geometricPrecision; image-rendering:optimizeQuality; fill-rule:evenodd; clip-rule:evenodd"
viewBox="0 0 6400 6400"
 xmlns:xlink="http://www.w3.org/1999/xlink">
 <defs>
  <style type="text/css">
   <![CDATA[
    .fil0 {fill:black}
   ]]>
  </style>
 </defs>
 <g id="Camada_x0020_1">
  <metadata id="CorelCorpID_0Corel-Layer"/>
  <path class="fil0" d="M4400 2600c-600,0 -1200,600 -1200,1200 0,600 600,1200 1200,1200 600,0 1200,-600 1200,-1200 0,-600 -600,-1200 -1200,-1200zm-600 1000l400 600 800 -900 200 300 -800 800 -200 200 -200 -200 -400 -600 200 -200z"/>
  <path class="fil0" d="M1600 1000l2800 0 0 1400c-200,0 -400,0 -600,200 -200,200 -200,200 -400,200l-1400 0 0 200 1200 0c0,0 0,200 0,200l-1200 0 0 200 1000 0c0,0 0,200 0,200 0,0 0,200 0,200 0,800 600,1400 1400,1400l0 200 -2800 0 0 -4400 0 0 0 0zm400 3600l800 0 0 200 -800 0 0 -200zm0 -600l800 0 0 200 -800 0 0 -200zm0 -2400l2000 0 0 200 -2000 0 0 -200zm0 600l2000 0 0 200 -2000 0 0 -200z"/>
 </g>
</svg>
