<?xml version="1.0" encoding="UTF-8"?>
<!DOCTYPE svg PUBLIC "-//W3C//DTD SVG 1.1//EN" "http://www.w3.org/Graphics/SVG/1.1/DTD/svg11.dtd">
<!-- Creator: CorelDRAW X7 -->
<svg xmlns="http://www.w3.org/2000/svg" xml:space="preserve" width="64px" height="64px" version="1.1" style="shape-rendering:geometricPrecision; text-rendering:geometricPrecision; image-rendering:optimizeQuality; fill-rule:evenodd; clip-rule:evenodd"
viewBox="0 0 6400 6400"
 xmlns:xlink="http://www.w3.org/1999/xlink">
 <defs>
  <style type="text/css">
   <![CDATA[
    .fil0 {fill:black;fill-rule:nonzero}
   ]]>
  </style>
 </defs>
 <g id="Camada_x0020_1">
  <metadata id="CorelCorpID_0Corel-Layer"/>
  <path class="fil0" d="M4048 1801c355,0 264,609 186,868 0,0 155,272 580,188 264,-589 239,-1657 -746,-1657 -1216,0 -1208,1869 -201,2380 -192,383 -436,721 -690,975 -461,-558 -878,-1302 -1050,-2754l-680 0c293,2259 1326,3662 1888,3345 202,-115 806,-719 1141,-1427 140,0 309,-16 477,-54l0 -475c0,-3 1,-1 -1,-1 -1308,301 -1418,-1388 -904,-1388z"/>
 </g>
</svg>
