<?xml version="1.0" encoding="UTF-8"?>
<!DOCTYPE svg PUBLIC "-//W3C//DTD SVG 1.1//EN" "http://www.w3.org/Graphics/SVG/1.1/DTD/svg11.dtd">
<!-- Creator: CorelDRAW X7 -->
<svg xmlns="http://www.w3.org/2000/svg" xml:space="preserve" width="64px" height="64px" version="1.1" style="shape-rendering:geometricPrecision; text-rendering:geometricPrecision; image-rendering:optimizeQuality; fill-rule:evenodd; clip-rule:evenodd"
viewBox="0 0 6400 6400"
 xmlns:xlink="http://www.w3.org/1999/xlink">
 <defs>
  <style type="text/css">
   <![CDATA[
    .fil0 {fill:black}
   ]]>
  </style>
 </defs>
 <g id="Camada_x0020_1">
  <metadata id="CorelCorpID_0Corel-Layer"/>
  <path class="fil0" d="M1883 4706c352,308 813,495 1317,495 504,0 965,-187 1317,-495 313,-319 -719,-1452 -1317,-1903 -597,451 -1630,1584 -1317,1903zm1861 -2402c416,494 1247,1720 1012,2153 278,-343 444,-780 444,-1256 0,-557 -227,-1061 -595,-1423 0,0 -5,-4 -14,-7 -10,-4 -25,-8 -47,-8 -98,0 -330,73 -800,541l0 0zm-1935 -533c-10,3 -14,6 -14,7 -368,362 -595,866 -595,1423 0,475 166,912 443,1255 -233,-434 597,-1658 1014,-2152 -470,-469 -703,-541 -801,-541 -22,0 -37,4 -47,8l0 0zm1391 20l0 0c0,0 -491,-287 -874,-300 -151,-6 -243,49 -254,56 360,-240 738,-348 1127,-348l1 0c389,0 768,108 1128,348 -11,-7 -103,-62 -254,-56 -383,13 -874,300 -874,300l0 1 0 -1z"/>
 </g>
</svg>
