<?xml version="1.0" encoding="UTF-8"?>
<!DOCTYPE svg PUBLIC "-//W3C//DTD SVG 1.1//EN" "http://www.w3.org/Graphics/SVG/1.1/DTD/svg11.dtd">
<!-- Creator: CorelDRAW X7 -->
<svg xmlns="http://www.w3.org/2000/svg" xml:space="preserve" width="64px" height="64px" version="1.1" style="shape-rendering:geometricPrecision; text-rendering:geometricPrecision; image-rendering:optimizeQuality; fill-rule:evenodd; clip-rule:evenodd"
viewBox="0 0 6400 6400"
 xmlns:xlink="http://www.w3.org/1999/xlink">
 <defs>
  <style type="text/css">
   <![CDATA[
    .fil0 {fill:black}
   ]]>
  </style>
 </defs>
 <g id="Camada_x0020_1">
  <metadata id="CorelCorpID_0Corel-Layer"/>
  <path class="fil0" d="M4301 797c719,0 1302,583 1302,1302 0,719 -583,1301 -1302,1301 -719,0 -1301,-582 -1301,-1301 0,-719 582,-1302 1301,-1302zm0 220c598,0 1082,484 1082,1082 0,597 -484,1082 -1082,1082 -597,0 -1082,-485 -1082,-1082 0,-598 485,-1082 1082,-1082z"/>
  <path class="fil0" d="M2824 2350l-404 0 0 -390c0,-400 305,-732 693,-775 -194,253 -310,570 -310,914 0,85 7,169 21,251l0 0z"/>
  <path class="fil0" d="M4455 3590c-140,508 -591,907 -1125,964l0 526 520 0 0 520 -1300 0 0 -520 520 0 0 -526c-645,-69 -1170,-636 -1170,-1294l0 -1040 260 0 0 1109c0,546 494,971 1040,971 454,0 871,-294 1000,-706 33,2 67,3 101,3 52,0 104,-2 154,-7l0 0z"/>
  <path class="fil0" d="M3924 3550c-116,286 -397,490 -724,490 -429,0 -780,-351 -780,-780l0 -780 432 0c137,523 549,934 1072,1070l0 0z"/>
  <polygon class="fil0" points="4300,2800 3700,1500 4900,1500 "/>
 </g>
</svg>
