<?xml version="1.0" encoding="UTF-8"?>
<!DOCTYPE svg PUBLIC "-//W3C//DTD SVG 1.1//EN" "http://www.w3.org/Graphics/SVG/1.1/DTD/svg11.dtd">
<!-- Creator: CorelDRAW X7 -->
<svg xmlns="http://www.w3.org/2000/svg" xml:space="preserve" width="64px" height="64px" version="1.1" style="shape-rendering:geometricPrecision; text-rendering:geometricPrecision; image-rendering:optimizeQuality; fill-rule:evenodd; clip-rule:evenodd"
viewBox="0 0 6400 6400"
 xmlns:xlink="http://www.w3.org/1999/xlink">
 <defs>
  <style type="text/css">
   <![CDATA[
    .fil0 {fill:black}
   ]]>
  </style>
 </defs>
 <g id="Camada_x0020_1">
  <metadata id="CorelCorpID_0Corel-Layer"/>
  <path class="fil0" d="M3901 1771c553,250 894,670 894,1434 0,764 -714,1595 -1595,1595 -881,0 -1595,-831 -1595,-1595 0,-764 342,-1185 895,-1435l0 320c-394,227 -616,507 -616,1115 0,607 589,1316 1316,1316 727,0 1316,-709 1316,-1316 0,-608 -221,-887 -615,-1115l0 -319z"/>
  <path class="fil0" d="M3050 1350l150 -350 150 350 0 1500c11,48 93,78 200,100 -169,222 -262,485 -350,750 -92,-265 -189,-528 -350,-750 105,-27 185,-58 200,-100l0 -1500z"/>
 </g>
</svg>
