<?xml version="1.0" encoding="UTF-8"?>
<!DOCTYPE svg PUBLIC "-//W3C//DTD SVG 1.1//EN" "http://www.w3.org/Graphics/SVG/1.1/DTD/svg11.dtd">
<!-- Creator: CorelDRAW X7 -->
<svg xmlns="http://www.w3.org/2000/svg" xml:space="preserve" width="64px" height="64px" version="1.1" style="shape-rendering:geometricPrecision; text-rendering:geometricPrecision; image-rendering:optimizeQuality; fill-rule:evenodd; clip-rule:evenodd"
viewBox="0 0 6400 6400"
 xmlns:xlink="http://www.w3.org/1999/xlink">
 <defs>
  <style type="text/css">
   <![CDATA[
    .fil0 {fill:black;fill-rule:nonzero}
   ]]>
  </style>
 </defs>
 <g id="Camada_x0020_1">
  <metadata id="CorelCorpID_0Corel-Layer"/>
  <path class="fil0" d="M5200 1960c-148,65 -305,109 -471,129 169,-102 299,-263 360,-454 -158,94 -334,162 -521,199 -563,-602 -1587,-77 -1398,748 -682,-34 -1287,-361 -1692,-857 -218,371 -106,855 254,1096 -134,-5 -261,-42 -372,-103 0,407 278,739 659,815l-371 14c105,326 408,563 767,570 -337,264 -769,392 -1215,340 1581,1012 3671,-148 3590,-2072 161,-116 300,-260 410,-425z"/>
 </g>
</svg>
