<?xml version="1.0" encoding="UTF-8"?>
<!DOCTYPE svg PUBLIC "-//W3C//DTD SVG 1.1//EN" "http://www.w3.org/Graphics/SVG/1.1/DTD/svg11.dtd">
<!-- Creator: CorelDRAW X7 -->
<svg xmlns="http://www.w3.org/2000/svg" xml:space="preserve" width="64px" height="64px" version="1.1" style="shape-rendering:geometricPrecision; text-rendering:geometricPrecision; image-rendering:optimizeQuality; fill-rule:evenodd; clip-rule:evenodd"
viewBox="0 0 6400 6400"
 xmlns:xlink="http://www.w3.org/1999/xlink">
 <defs>
  <style type="text/css">
   <![CDATA[
    .fil0 {fill:black}
   ]]>
  </style>
 </defs>
 <g id="Camada_x0020_1">
  <metadata id="CorelCorpID_0Corel-Layer"/>
  <path class="fil0" d="M5450 3034c0,-1223 -1016,-2239 -2262,-2239 -1223,0 -2238,1016 -2238,2239 0,738 346,1384 877,1800 254,254 580,443 973,513l0 254 800 -1 0 -254c392,-69 696,-258 973,-512 531,-415 877,-1062 877,-1800l0 0zm-2650 2766l800 0 0 400 -800 0 0 -400zm1774 -2738c0,-739 -623,-1362 -1386,-1362 -738,0 -1362,623 -1362,1362 0,763 624,1386 1362,1386 763,0 1386,-623 1386,-1386zm464 -12c0,-1008 -841,-1825 -1850,-1825 -1009,0 -1825,817 -1825,1825 0,1033 816,1850 1825,1850 1009,0 1850,-817 1850,-1850z"/>
 </g>
</svg>
