<?xml version="1.0" encoding="UTF-8"?>
<!DOCTYPE svg PUBLIC "-//W3C//DTD SVG 1.1//EN" "http://www.w3.org/Graphics/SVG/1.1/DTD/svg11.dtd">
<!-- Creator: CorelDRAW X7 -->
<svg xmlns="http://www.w3.org/2000/svg" xml:space="preserve" width="64px" height="64px" version="1.1" style="shape-rendering:geometricPrecision; text-rendering:geometricPrecision; image-rendering:optimizeQuality; fill-rule:evenodd; clip-rule:evenodd"
viewBox="0 0 6400 6400"
 xmlns:xlink="http://www.w3.org/1999/xlink">
 <defs>
  <style type="text/css">
   <![CDATA[
    .fil0 {fill:black}
   ]]>
  </style>
 </defs>
 <g id="Camada_x0020_1">
  <metadata id="CorelCorpID_0Corel-Layer"/>
  <path class="fil0" d="M3200 1200c1104,0 2000,896 2000,2000 0,1104 -896,2000 -2000,2000 -1104,0 -2000,-896 -2000,-2000 0,-1104 896,-2000 2000,-2000zm0 400c939,0 1600,661 1600,1600 0,939 -661,1600 -1600,1600 -939,0 -1600,-661 -1600,-1600 0,-939 661,-1600 1600,-1600z"/>
  <path class="fil0" d="M3371 1898l0 1131 1131 0c199,0 198,351 0,351l-1481 0 0 -1482c0,-198 350,-198 350,0z"/>
 </g>
</svg>
