<?xml version="1.0" encoding="UTF-8"?>
<!DOCTYPE svg PUBLIC "-//W3C//DTD SVG 1.1//EN" "http://www.w3.org/Graphics/SVG/1.1/DTD/svg11.dtd">
<!-- Creator: CorelDRAW X7 -->
<svg xmlns="http://www.w3.org/2000/svg" xml:space="preserve" width="64px" height="64px" version="1.1" style="shape-rendering:geometricPrecision; text-rendering:geometricPrecision; image-rendering:optimizeQuality; fill-rule:evenodd; clip-rule:evenodd"
viewBox="0 0 6400 6400"
 xmlns:xlink="http://www.w3.org/1999/xlink">
 <defs>
  <style type="text/css">
   <![CDATA[
    .fil0 {fill:black}
   ]]>
  </style>
 </defs>
 <g id="Camada_x0020_1">
  <metadata id="CorelCorpID_0Corel-Layer"/>
  <path class="fil0" d="M800 4400l200 -800 800 -200 0 -200 -200 -200 -50 -750 250 -250 400 0 250 250 -50 750 -200 200 0 200 200 100 -500 200 -200 700 -900 0zm4800 0l-200 -800 -800 -200 0 -200 200 -200 50 -750 -250 -250 -400 0 -250 250 50 750 200 200 0 200 -200 100 500 200 200 700 900 0zm-3800 200l200 -800 1000 -400 0 -200 -300 -400 0 -700 300 -300 400 0 300 300 0 700 -300 400 0 200 1000 400 200 800 -2800 0z"/>
 </g>
</svg>
