<?xml version="1.0" encoding="UTF-8"?>
<!DOCTYPE svg PUBLIC "-//W3C//DTD SVG 1.1//EN" "http://www.w3.org/Graphics/SVG/1.1/DTD/svg11.dtd">
<!-- Creator: CorelDRAW X7 -->
<svg xmlns="http://www.w3.org/2000/svg" xml:space="preserve" width="64px" height="64px" version="1.1" style="shape-rendering:geometricPrecision; text-rendering:geometricPrecision; image-rendering:optimizeQuality; fill-rule:evenodd; clip-rule:evenodd"
viewBox="0 0 6400 6400"
 xmlns:xlink="http://www.w3.org/1999/xlink">
 <defs>
  <style type="text/css">
   <![CDATA[
    .fil0 {fill:black}
   ]]>
  </style>
 </defs>
 <g id="Camada_x0020_1">
  <metadata id="CorelCorpID_0Corel-Layer"/>
  <path class="fil0" d="M4500 4200l0 600 -600 0 600 -600zm0 -3400l0 2600 -1400 1400 -1600 0 0 -3996 3000 -4zm400 2796l0 -196 -200 0 -1800 1800 150 50 50 150 1800 -1804zm-700 -1796l-2400 0 0 200 2400 0 0 -200zm0 1200l-2400 0 0 200 2400 0 0 -200zm0 -600l-2400 0 0 200 2400 0 0 -200zm-800 1200l-1600 0 0 200 1600 0 0 -200zm-700 2000l300 -100 -50 -150 -150 -50 -100 300z"/>
 </g>
</svg>
