<?xml version="1.0" encoding="UTF-8"?>
<!DOCTYPE svg PUBLIC "-//W3C//DTD SVG 1.1//EN" "http://www.w3.org/Graphics/SVG/1.1/DTD/svg11.dtd">
<!-- Creator: CorelDRAW X7 -->
<svg xmlns="http://www.w3.org/2000/svg" xml:space="preserve" width="64px" height="64px" version="1.1" style="shape-rendering:geometricPrecision; text-rendering:geometricPrecision; image-rendering:optimizeQuality; fill-rule:evenodd; clip-rule:evenodd"
viewBox="0 0 6400 6400"
 xmlns:xlink="http://www.w3.org/1999/xlink">
 <defs>
  <style type="text/css">
   <![CDATA[
    .fil0 {fill:black;fill-rule:nonzero}
   ]]>
  </style>
 </defs>
 <g id="Camada_x0020_1">
  <metadata id="CorelCorpID_0Corel-Layer"/>
  <path class="fil0" d="M2460 3556c287,0 212,413 749,413 461,0 582,-445 199,-541 -615,-153 -1164,-194 -1164,-775 0,-1005 1826,-794 1826,-165 0,130 -113,206 -243,206 -245,0 -199,-340 -693,-340 -373,0 -639,379 -19,519 511,114 1048,163 1048,756 0,539 -501,727 -965,721 -998,0 -1172,-794 -738,-794zm2599 -22c230,-1151 -698,-2237 -1858,-2237l-356 34c-5,1 -6,-2 -8,-2 -977,-516 -2031,566 -1498,1533 3,4 2,2 1,7 -223,1287 900,2414 2185,2187 4,0 8,0 14,3 984,547 2066,-553 1520,-1525z"/>
 </g>
</svg>
