<?xml version="1.0" encoding="UTF-8"?>
<!DOCTYPE svg PUBLIC "-//W3C//DTD SVG 1.1//EN" "http://www.w3.org/Graphics/SVG/1.1/DTD/svg11.dtd">
<!-- Creator: CorelDRAW X7 -->
<svg xmlns="http://www.w3.org/2000/svg" xml:space="preserve" width="64px" height="64px" version="1.1" style="shape-rendering:geometricPrecision; text-rendering:geometricPrecision; image-rendering:optimizeQuality; fill-rule:evenodd; clip-rule:evenodd"
viewBox="0 0 6400 6400"
 xmlns:xlink="http://www.w3.org/1999/xlink">
 <defs>
  <style type="text/css">
   <![CDATA[
    .fil0 {fill:black}
   ]]>
  </style>
 </defs>
 <g id="Camada_x0020_1">
  <metadata id="CorelCorpID_0Corel-Layer"/>
  <g>
   <path class="fil0" d="M4106 3592c-487,-245 -353,-217 -599,63 -135,153 -932,-511 -763,-678 209,-208 136,-218 -33,-624 -129,-309 -869,158 -311,901 202,269 828,964 1447,872 226,-34 538,-375 287,-521 -3,-1 -25,-12 -28,-13zm-897 1238c-346,0 -614,-92 -904,-265l-627 163 168 -607c-1123,-1755 1172,-3459 2533,-2104 1038,1034 300,2813 -1171,2813l1 0zm1435 -3022c-4,-3 -94,-92 -98,-95 -1637,-1494 -4198,499 -3064,2460l-282 1027 1056 -275c15,1 388,241 953,241 1758,0 2642,-2112 1435,-3358z"/>
  </g>
 </g>
</svg>
