<?xml version="1.0" encoding="UTF-8"?>
<!DOCTYPE svg PUBLIC "-//W3C//DTD SVG 1.1//EN" "http://www.w3.org/Graphics/SVG/1.1/DTD/svg11.dtd">
<!-- Creator: CorelDRAW X7 -->
<svg xmlns="http://www.w3.org/2000/svg" xml:space="preserve" width="64px" height="64px" version="1.1" style="shape-rendering:geometricPrecision; text-rendering:geometricPrecision; image-rendering:optimizeQuality; fill-rule:evenodd; clip-rule:evenodd"
viewBox="0 0 6400 6400"
 xmlns:xlink="http://www.w3.org/1999/xlink">
 <defs>
  <style type="text/css">
   <![CDATA[
    .fil0 {fill:black}
   ]]>
  </style>
 </defs>
 <g id="Camada_x0020_1">
  <metadata id="CorelCorpID_0Corel-Layer"/>
  <path class="fil0" d="M3200 1650l404 102 496 98 503 2 -103 1498 -88 538 -512 762 -700 450 -700 -450 -500 -800 -100 -500 -100 -1500 400 0 600 -100 400 -100zm0 450l299 75 367 73 372 1 -77 1107 -65 399 -378 562 -422 271 -96 -1438 0 1500 -517 -333 -369 -591 -74 -370 -74 -1108 295 0 444 -74 295 -74zm0 -200l345 87 425 84 430 2 -88 1281 -76 460 -437 651 -599 385 -598 -385 -428 -684 -85 -427 -86 -1283 342 0 513 -85 342 -86z"/>
 </g>
</svg>
