<?xml version="1.0" encoding="UTF-8"?>
<!DOCTYPE svg PUBLIC "-//W3C//DTD SVG 1.1//EN" "http://www.w3.org/Graphics/SVG/1.1/DTD/svg11.dtd">
<!-- Creator: CorelDRAW X7 -->
<svg xmlns="http://www.w3.org/2000/svg" xml:space="preserve" width="64px" height="64px" version="1.1" style="shape-rendering:geometricPrecision; text-rendering:geometricPrecision; image-rendering:optimizeQuality; fill-rule:evenodd; clip-rule:evenodd"
viewBox="0 0 6400 6400"
 xmlns:xlink="http://www.w3.org/1999/xlink">
 <defs>
  <style type="text/css">
   <![CDATA[
    .fil0 {fill:black}
   ]]>
  </style>
 </defs>
 <g id="Camada_x0020_1">
  <metadata id="CorelCorpID_0Corel-Layer"/>
  <path class="fil0" d="M4200 2980l0 120c0,506 -404,942 -900,995l0 405 400 0 0 400 -1000 0 0 -400 400 0 0 -405c-496,-53 -900,-489 -900,-995l0 -800 200 0 0 853c0,420 380,747 800,747 420,0 800,-327 800,-747l0 -236c64,27 130,49 200,63zm509 -466l-309 -308 -309 308c90,55 196,86 309,86 113,0 219,-31 309,-86zm-515 -514l-309 -309c-54,90 -85,196 -85,309 0,113 31,219 86,309l308 -309zm-103 -515l309 309 309 -309c-90,-54 -196,-85 -309,-85 -113,0 -219,31 -309,85zm515 515l309 309c54,-90 85,-196 85,-309 0,-113 -31,-219 -85,-309l-309 309zm-206 -800c442,0 800,358 800,800 0,442 -358,800 -800,800 -442,0 -800,-358 -800,-800 0,-442 358,-800 800,-800zm-1200 300c106,0 207,28 294,77 -60,129 -94,272 -94,423 0,142 30,278 83,400l-883 0 0 -300c0,-330 270,-600 600,-600zm600 1300l0 300c0,330 -270,600 -600,600 -330,0 -600,-270 -600,-600l0 -600 934 0c68,117 158,219 266,300z"/>
 </g>
</svg>
