<?xml version="1.0" encoding="UTF-8"?>
<!DOCTYPE svg PUBLIC "-//W3C//DTD SVG 1.1//EN" "http://www.w3.org/Graphics/SVG/1.1/DTD/svg11.dtd">
<!-- Creator: CorelDRAW X7 -->
<svg xmlns="http://www.w3.org/2000/svg" xml:space="preserve" width="64px" height="64px" version="1.1" style="shape-rendering:geometricPrecision; text-rendering:geometricPrecision; image-rendering:optimizeQuality; fill-rule:evenodd; clip-rule:evenodd"
viewBox="0 0 6400 6400"
 xmlns:xlink="http://www.w3.org/1999/xlink">
 <defs>
  <style type="text/css">
   <![CDATA[
    .fil0 {fill:black}
   ]]>
  </style>
 </defs>
 <g id="Camada_x0020_1">
  <metadata id="CorelCorpID_0Corel-Layer"/>
  <path class="fil0" d="M4450 4400l0 -1900 300 0 0 1900 -300 0zm300 500l-3100 0 0 -300 3100 0 0 300zm-1700 -500l0 -2900 300 0 0 2900 -300 0zm-700 0l0 -2400 300 0 0 2400 -300 0zm1400 0l0 -2100 300 0 0 2100 -300 0zm-2100 0l0 -2300 300 0 0 2300 -300 0z"/>
 </g>
</svg>
