<?xml version="1.0" encoding="UTF-8"?>
<!DOCTYPE svg PUBLIC "-//W3C//DTD SVG 1.1//EN" "http://www.w3.org/Graphics/SVG/1.1/DTD/svg11.dtd">
<!-- Creator: CorelDRAW X7 -->
<svg xmlns="http://www.w3.org/2000/svg" xml:space="preserve" width="64px" height="64px" version="1.1" style="shape-rendering:geometricPrecision; text-rendering:geometricPrecision; image-rendering:optimizeQuality; fill-rule:evenodd; clip-rule:evenodd"
viewBox="0 0 6400 6400"
 xmlns:xlink="http://www.w3.org/1999/xlink">
 <defs>
  <style type="text/css">
   <![CDATA[
    .fil0 {fill:black}
   ]]>
  </style>
 </defs>
 <g id="Camada_x0020_1">
  <metadata id="CorelCorpID_0Corel-Layer"/>
  <path class="fil0" d="M4400 1454c79,-59 172,-94 265,-104 130,-15 263,17 363,94 108,83 178,211 171,380 -11,228 -186,548 -678,926l-121 93 -121 -93c-492,-378 -667,-698 -678,-926 -7,-169 63,-297 171,-380 101,-77 234,-109 363,-94 93,10 186,45 265,104zm-3600 1746l495 0 76 0 20 73 138 662 358 -2307 111 -712 87 716 324 2670 416 -1880 124 -561 72 570 223 1770 222 -1028 96 -450 99 449 145 662 264 -587 85 -47 1445 0 0 200 -1390 0 -365 747 -130 205 -52 -237 -99 -451 -248 1150 -124 573 -73 -581 -224 -1780 -418 1889 -126 569 -70 -579 -307 -2533 -318 2047 -71 454 -124 -443 -241 -1030 -420 0 0 -200zm3600 -1412c167,-527 1262,-165 0,803 -1262,-968 -167,-1330 0,-803z"/>
 </g>
</svg>
