<?xml version="1.0" encoding="UTF-8"?>
<!DOCTYPE svg PUBLIC "-//W3C//DTD SVG 1.1//EN" "http://www.w3.org/Graphics/SVG/1.1/DTD/svg11.dtd">
<!-- Creator: CorelDRAW X7 -->
<svg xmlns="http://www.w3.org/2000/svg" xml:space="preserve" width="64px" height="64px" version="1.1" style="shape-rendering:geometricPrecision; text-rendering:geometricPrecision; image-rendering:optimizeQuality; fill-rule:evenodd; clip-rule:evenodd"
viewBox="0 0 6400 6400"
 xmlns:xlink="http://www.w3.org/1999/xlink">
 <defs>
  <style type="text/css">
   <![CDATA[
    .fil0 {fill:black}
   ]]>
  </style>
 </defs>
 <g id="Camada_x0020_1">
  <metadata id="CorelCorpID_0Corel-Layer"/>
  <path class="fil0" d="M3200 2600c33,0 67,3 100,8l0 102c-34,-6 -67,-9 -100,-9l0 -101 0 0zm0 -1800c896,0 1763,533 2200,1300l-306 181c194,327 306,710 306,1119 0,313 -65,610 -183,879 79,42 133,125 133,221 0,138 -112,250 -250,250 -49,0 -95,-14 -133,-39 -401,540 -1043,889 -1767,889 -543,0 -1040,-197 -1424,-523 -45,45 -107,73 -176,73 -138,0 -250,-112 -250,-250 0,-74 33,-141 84,-187 -272,-366 -434,-821 -434,-1313 0,-409 111,-792 305,-1119l-305 -181c133,-237 305,-450 507,-632 -36,-43 -57,-98 -57,-158 0,-138 112,-250 250,-250 86,0 162,43 207,110 388,-235 836,-370 1293,-370zm1810 1530l-525 311c136,224 215,485 215,759 0,810 -690,1500 -1500,1500 -810,0 -1500,-690 -1500,-1500 0,-274 79,-535 215,-759l-525 -311c-184,313 -290,679 -290,1070 0,475 156,912 419,1263 26,-8 53,-13 81,-13 138,0 250,112 250,250 0,34 -7,66 -19,96 367,314 845,504 1369,504 698,0 1314,-336 1695,-857 -28,-40 -45,-90 -45,-143 0,-138 112,-250 250,-250l22 1c114,-260 178,-547 178,-851 0,-391 -106,-757 -290,-1070zm-610 361l-525 310c78,121 125,259 125,399 0,405 -395,800 -800,800 -405,0 -800,-395 -800,-800 0,-139 47,-278 125,-399l-525 -310c-127,209 -200,452 -200,709 0,760 640,1400 1400,1400 760,0 1400,-640 1400,-1400 0,-257 -73,-500 -200,-709zm-609 360l-462 273c13,22 21,48 21,76 0,83 -67,150 -150,150 -83,0 -150,-67 -150,-150 0,-28 8,-54 21,-76l-462 -273c-68,106 -109,227 -109,349 0,354 346,700 700,700 354,0 700,-346 700,-700 0,-122 -41,-243 -109,-349zm1459 -1001c-424,-661 -1206,-1150 -2050,-1150 -450,0 -883,139 -1253,370 2,13 3,26 3,40 0,137 -112,249 -250,249 -39,0 -75,-8 -108,-24 -172,153 -321,327 -442,515l250 152 0 -67c32,-45 65,-89 100,-132l0 160c-17,23 -33,47 -49,70l549 335 0 -53c31,-42 65,-82 100,-120l0 150c-15,19 -29,39 -43,58l543 331 0 -34c30,-35 64,-69 100,-100l0 135c-12,13 -23,26 -34,39l473 289c19,-8 39,-13 61,-13 22,0 42,5 61,13l539 -329 0 -35 19 24 580 -354 0 -55 28 38 572 -349 0 -69 34 48 217 -132zm-2050 -150c33,0 66,1 100,3l0 101c-33,-3 -67,-4 -100,-4l0 0 0 -100 0 0zm200 14c33,5 67,11 100,18l0 102c-33,-8 -67,-14 -100,-19l0 -101zm200 43c33,10 67,21 99,33l0 106c-32,-13 -66,-25 -99,-35l0 -104zm200 74c33,15 67,32 99,50l0 113c-32,-20 -65,-38 -99,-54l0 -109zm199 109c35,22 68,46 100,71l0 125c-32,-27 -65,-53 -100,-77l0 -119zm200 154c35,32 69,65 100,100l0 150c-31,-39 -64,-78 -100,-114l0 -136zm-1999 1c32,-29 65,-57 100,-84l0 126c-35,30 -68,61 -100,94l0 -136zm200 -154c32,-21 66,-41 100,-60l0 113c-35,20 -68,42 -100,65l0 -118zm200 -110c32,-15 66,-28 100,-41l0 106c-34,13 -68,28 -100,44l0 -109zm200 -74c33,-9 66,-18 100,-25l0 102c-34,8 -67,17 -100,27l0 -104zm200 -43c33,-4 66,-8 100,-10l0 100c-34,2 -67,6 -100,11l0 -101zm200 -714c33,0 67,1 100,2l0 100c-34,-1 -67,-2 -100,-2l0 0 0 -100 0 0zm200 9c33,3 66,7 100,11l0 101c-34,-5 -67,-9 -100,-12l0 -100zm200 27c33,6 67,13 99,21l0 102c-32,-8 -66,-15 -99,-21l0 -102zm200 47c33,9 67,20 99,31l0 104c-32,-11 -66,-22 -99,-32l0 -103zm199 67c34,13 67,27 100,42l0 108c-32,-15 -66,-30 -100,-44l0 -106zm200 89c34,18 68,36 100,55l0 114c-32,-20 -66,-39 -100,-58l0 -111zm200 116c34,22 68,45 100,69l0 123c-32,-26 -65,-50 -100,-74l0 -118zm200 147c35,28 68,58 100,88l0 136c-32,-33 -65,-65 -100,-95l0 -129zm200 187c35,37 68,74 100,113l0 160c-31,-44 -65,-86 -100,-127l0 -146zm-3199 1c32,-34 65,-67 100,-99l0 136c-35,35 -68,71 -100,109l0 -146zm200 -187c32,-27 66,-53 100,-78l0 122c-34,27 -68,55 -100,84l0 -128zm200 -147c33,-22 66,-42 100,-62l0 114c-34,21 -68,43 -100,66l0 -118zm200 -116c33,-17 66,-33 100,-48l0 108c-34,16 -67,33 -100,51l0 -111zm200 -90c33,-13 66,-25 100,-36l0 105c-34,11 -67,24 -100,37l0 -106zm200 -67c33,-10 66,-18 100,-26l0 102c-34,8 -67,17 -100,27l0 -103zm200 -47c33,-6 66,-11 100,-15l0 100c-34,5 -67,10 -100,17l0 -102zm200 -27c33,-3 66,-5 100,-7l0 100c-34,2 -67,4 -100,7l0 -100zm400 1422c34,11 67,24 100,39l0 111c-33,-18 -66,-32 -100,-44l0 -106zm200 94c34,22 68,47 99,74l0 136c-30,-33 -64,-63 -99,-90l0 -120zm-800 1c32,-21 65,-40 100,-56l0 111c-35,19 -69,40 -100,64l0 -119zm200 -95c33,-10 66,-18 100,-23l0 102c-34,6 -68,15 -100,27l0 -106z"/>
 </g>
</svg>
