<?xml version="1.0" encoding="UTF-8"?>
<!DOCTYPE svg PUBLIC "-//W3C//DTD SVG 1.1//EN" "http://www.w3.org/Graphics/SVG/1.1/DTD/svg11.dtd">
<!-- Creator: CorelDRAW X7 -->
<svg xmlns="http://www.w3.org/2000/svg" xml:space="preserve" width="64px" height="64px" version="1.1" style="shape-rendering:geometricPrecision; text-rendering:geometricPrecision; image-rendering:optimizeQuality; fill-rule:evenodd; clip-rule:evenodd"
viewBox="0 0 6400 6400"
 xmlns:xlink="http://www.w3.org/1999/xlink">
 <defs>
  <style type="text/css">
   <![CDATA[
    .fil1 {fill:black}
    .fil0 {fill:black;fill-rule:nonzero}
   ]]>
  </style>
 </defs>
 <g id="Camada_x0020_1">
  <metadata id="CorelCorpID_0Corel-Layer"/>
  <path class="fil0" d="M4624 3102l0 -1214 0 -55 -48 -28 -1086 -627 -48 -28 -48 28 -1086 627 -48 28 0 55 0 1146 -390 225 -48 28 0 55 0 1214 0 55 49 28 1086 619 47 27 47 -27 1087 -619 48 -28 0 -55 0 -1150 389 -221 49 -28 0 -55zm-2224 798l100 0 0 400 -100 0 0 -400zm0 500l100 0 0 100 -100 0 0 -100zm1300 -500l0 300 -100 50 0 50 -100 0 0 -100 100 -50 0 -150 -100 0 0 100 -100 0 0 -100 100 -100 200 0zm-200 600l0 -100 100 1 0 99 -100 0zm-496 -1895l-4 -105 -100 0 0 165 -449 259 0 -981 991 -572 990 572 0 1103 -334 190 -560 -323 0 -367 782 -452 7 -115 -103 -51 -782 452 -782 -452 -104 51 8 115 782 452 0 256 -294 -170 -48 -27zm446 -855l200 100 -200 100 -200 -100 200 -100zm750 650l0 300 -100 50 0 50 -100 0 0 -100 100 -50 0 -150 -100 0 0 100 -100 0 0 -100 100 -100 200 0zm-200 600l0 -100 100 1 0 99 -100 0zm-1778 382l-103 52 7 115 782 451 0 903 96 64 96 -64 0 -903 782 -451 8 -115 -104 -52 -782 452 -782 -452zm1773 15l0 1104 -991 564 -990 -564 0 -1104 990 -572 991 572z"/>
  <rect class="fil1" transform="matrix(0.498644 0.249499 -0.498644 0.249499 3000.1 3200.35)" width="400" height="400"/>
 </g>
</svg>
