<?xml version="1.0" encoding="UTF-8"?>
<!DOCTYPE svg PUBLIC "-//W3C//DTD SVG 1.1//EN" "http://www.w3.org/Graphics/SVG/1.1/DTD/svg11.dtd">
<!-- Creator: CorelDRAW X7 -->
<svg xmlns="http://www.w3.org/2000/svg" xml:space="preserve" width="64px" height="64px" version="1.1" style="shape-rendering:geometricPrecision; text-rendering:geometricPrecision; image-rendering:optimizeQuality; fill-rule:evenodd; clip-rule:evenodd"
viewBox="0 0 6400 6400"
 xmlns:xlink="http://www.w3.org/1999/xlink">
 <defs>
  <style type="text/css">
   <![CDATA[
    .fil0 {fill:black}
   ]]>
  </style>
 </defs>
 <g id="Camada_x0020_1">
  <metadata id="CorelCorpID_0Corel-Layer"/>
  <path class="fil0" d="M4300 3100c400,0 700,300 700,700 0,400 -300,800 -700,800 -500,0 -800,-400 -800,-800 0,-400 300,-700 800,-700zm-2900 1800l200 -1000 200 -100 500 -100 400 -300 0 -300 -100 -200 -200 -300 0 -700 500 -500 300 0 500 500 0 700 -200 300 -100 200 0 300 0 400c0,500 400,900 900,900 100,0 200,0 300,-100l100 300 -3300 0zm2400 -900l0 -300c492,0 408,0 900,0l0 300c-492,0 -408,0 -900,0z"/>
 </g>
</svg>
