<?xml version="1.0" encoding="UTF-8"?>
<!DOCTYPE svg PUBLIC "-//W3C//DTD SVG 1.1//EN" "http://www.w3.org/Graphics/SVG/1.1/DTD/svg11.dtd">
<!-- Creator: CorelDRAW X7 -->
<svg xmlns="http://www.w3.org/2000/svg" xml:space="preserve" width="64px" height="64px" version="1.1" style="shape-rendering:geometricPrecision; text-rendering:geometricPrecision; image-rendering:optimizeQuality; fill-rule:evenodd; clip-rule:evenodd"
viewBox="0 0 6400 6400"
 xmlns:xlink="http://www.w3.org/1999/xlink">
 <defs>
  <style type="text/css">
   <![CDATA[
    .fil0 {fill:black}
   ]]>
  </style>
 </defs>
 <g id="Camada_x0020_1">
  <metadata id="CorelCorpID_0Corel-Layer"/>
  <path class="fil0" d="M4015 3121l0 0 8 11c111,162 177,357 177,568 0,552 -448,1000 -1000,1000 -552,0 -1000,-448 -1000,-1000 0,-179 47,-346 129,-491 131,-255 519,-605 271,-1109 233,93 379,273 398,621l2 -1c8,-739 122,-1019 600,-1420 -350,978 187,1486 415,1821l0 0zm-815 -121c387,0 700,314 700,700 0,387 -313,700 -700,700 -387,0 -700,-313 -700,-700 0,-386 313,-700 700,-700z"/>
  <path class="fil0" d="M3200 3200c276,0 500,224 500,500 0,276 -224,500 -500,500 -276,0 -500,-224 -500,-500 0,-276 224,-500 500,-500z"/>
 </g>
</svg>
