<?xml version="1.0" encoding="UTF-8"?>
<!DOCTYPE svg PUBLIC "-//W3C//DTD SVG 1.1//EN" "http://www.w3.org/Graphics/SVG/1.1/DTD/svg11.dtd">
<!-- Creator: CorelDRAW X7 -->
<svg xmlns="http://www.w3.org/2000/svg" xml:space="preserve" width="64px" height="64px" version="1.1" style="shape-rendering:geometricPrecision; text-rendering:geometricPrecision; image-rendering:optimizeQuality; fill-rule:evenodd; clip-rule:evenodd"
viewBox="0 0 6400 6400"
 xmlns:xlink="http://www.w3.org/1999/xlink">
 <defs>
  <style type="text/css">
   <![CDATA[
    .fil0 {fill:black}
   ]]>
  </style>
 </defs>
 <g id="Camada_x0020_1">
  <metadata id="CorelCorpID_0Corel-Layer"/>
  <path class="fil0" d="M3017 1698l0 -552 0 -146 366 0 0 377 0 0 0 460c-60,-8 -121,-12 -183,-12 -62,0 -123,4 -183,12l0 -139zm183 484c281,0 535,114 719,298l1 0 0 1c184,184 298,438 298,719 0,281 -114,535 -298,719l0 1 -1 0c-184,184 -438,298 -719,298 -281,0 -535,-114 -719,-298l-1 0 0 -1c-184,-184 -298,-438 -298,-719 0,-281 114,-535 298,-719l0 -1 1 0c184,-184 438,-298 719,-298zm553 465c-141,-141 -337,-229 -553,-229 -216,0 -412,88 -553,229l0 0c-141,141 -229,337 -229,553 0,216 88,412 229,553l0 0c141,141 337,229 553,229 216,0 412,-88 553,-229l0 0c141,-141 229,-337 229,-553 0,-216 -88,-412 -229,-553l0 0zm-30 -719l235 -407 5 -10 178 -308 318 183 -174 302 -13 22 -232 402c-96,-75 -203,-137 -317,-184zm565 432l371 -214 48 -28 307 -177 183 318 -316 182 0 0 -63 37 -346 199c-47,-114 -109,-221 -184,-317zm275 657l373 0 89 0 375 0 0 366 -374 0 -95 0 -368 0c8,-60 12,-121 12,-183 0,-62 -4,-123 -12,-183zm-91 706l319 184 107 62 299 172 -183 318 -281 -162 -136 -79 -309 -178c75,-96 137,-203 184,-317zm-432 565l161 278 108 188 150 260 -318 183 -145 -252 -126 -217 -147 -256c114,-47 221,-109 317,-184zm-657 275l0 278 0 275 0 284 -366 0 0 -281 0 -278 0 -278c60,8 121,12 183,12 62,0 123,-4 183,-12zm-706 -91l-140 243 -153 265 -125 217 -318 -183 115 -199 170 -294 134 -233c96,75 203,137 317,184zm-565 -432l-201 116 -348 201 -177 102 -183 -318 171 -99 378 -218 176 -101c47,114 109,221 184,317zm-275 -657l-185 0 -460 0 -192 0 0 -366 190 0 460 0 187 0c-8,60 -12,121 -12,183 0,62 4,123 12,183zm91 -706l-174 -100 -412 -238 -139 -80 183 -318 127 73 423 245 176 101c-75,96 -137,203 -184,317zm432 -565l-419 -726 318 -183 70 122 271 468 77 135c-114,47 -221,109 -317,184zm473 -385c-17,4 -35,8 -53,13l-279 -484c109,-38 220,-66 332,-86l0 557zm-711 338c-21,17 -41,36 -61,55l-440 -254c74,-92 156,-174 243,-248l258 447zm-427 689c-6,26 -12,52 -18,79l-468 0c17,-112 41,-218 71,-319l415 240zm-15 813c5,25 11,51 18,77l-395 228c-37,-100 -65,-202 -85,-305l462 0zm336 739c23,29 48,58 74,86l-184 317c-82,-64 -157,-134 -226,-209l336 -194zm694 475c40,12 81,22 123,31l0 286c-95,-14 -185,-34 -272,-59l149 -258zm857 32c41,-8 83,-18 125,-29l133 231c-84,31 -171,55 -258,73l0 -275zm784 -352c42,-33 82,-67 120,-105l155 90c-54,68 -113,131 -175,189l-100 -174zm507 -727c17,-54 32,-109 44,-167l103 0c-12,77 -29,152 -49,224l-98 -57zm55 -901c-11,-59 -23,-118 -39,-177l71 -41c22,72 40,145 54,218l-86 0zm-358 -838c-44,-57 -91,-111 -143,-162l18 -31c60,53 115,110 166,170l-41 23zm-770 -540c-70,-22 -142,-40 -218,-54l0 -2c76,13 150,30 220,51l-2 5z"/>
 </g>
</svg>
