<?xml version="1.0" encoding="UTF-8"?>
<!DOCTYPE svg PUBLIC "-//W3C//DTD SVG 1.1//EN" "http://www.w3.org/Graphics/SVG/1.1/DTD/svg11.dtd">
<!-- Creator: CorelDRAW X7 -->
<svg xmlns="http://www.w3.org/2000/svg" xml:space="preserve" width="64px" height="64px" version="1.1" style="shape-rendering:geometricPrecision; text-rendering:geometricPrecision; image-rendering:optimizeQuality; fill-rule:evenodd; clip-rule:evenodd"
viewBox="0 0 6400 6400"
 xmlns:xlink="http://www.w3.org/1999/xlink">
 <defs>
  <style type="text/css">
   <![CDATA[
    .fil0 {fill:black}
   ]]>
  </style>
 </defs>
 <g id="Camada_x0020_1">
  <metadata id="CorelCorpID_0Corel-Layer"/>
  <path class="fil0" d="M4200 2980l0 120c0,506 -404,942 -900,995l0 405 400 0 0 400 -1000 0 0 -400 400 0 0 -405c-496,-53 -900,-489 -900,-995l0 -800 200 0 0 853c0,420 380,747 800,747 420,0 800,-327 800,-747l0 -236c64,27 130,49 200,63zm200 -580l300 -700 -600 0 300 700zm0 -1200c442,0 800,358 800,800 0,442 -358,800 -800,800 -442,0 -800,-358 -800,-800 0,-442 358,-800 800,-800zm0 200c331,0 600,269 600,600 0,331 -269,600 -600,600 -331,0 -600,-269 -600,-600 0,-331 269,-600 600,-600zm-1200 100c106,0 207,28 294,77 -60,129 -94,272 -94,423 0,142 30,278 83,400l-883 0 0 -300c0,-330 270,-600 600,-600zm600 1300l0 300c0,330 -270,600 -600,600 -330,0 -600,-270 -600,-600l0 -600 934 0c68,117 158,219 266,300z"/>
 </g>
</svg>
