<?xml version="1.0" encoding="UTF-8"?>
<!DOCTYPE svg PUBLIC "-//W3C//DTD SVG 1.1//EN" "http://www.w3.org/Graphics/SVG/1.1/DTD/svg11.dtd">
<!-- Creator: CorelDRAW X7 -->
<svg xmlns="http://www.w3.org/2000/svg" xml:space="preserve" width="64px" height="64px" version="1.1" style="shape-rendering:geometricPrecision; text-rendering:geometricPrecision; image-rendering:optimizeQuality; fill-rule:evenodd; clip-rule:evenodd"
viewBox="0 0 6400 6400"
 xmlns:xlink="http://www.w3.org/1999/xlink">
 <defs>
  <style type="text/css">
   <![CDATA[
    .fil0 {fill:black}
   ]]>
  </style>
 </defs>
 <g id="Camada_x0020_1">
  <metadata id="CorelCorpID_0Corel-Layer"/>
  <path class="fil0" d="M4301 797c719,0 1302,583 1302,1302 0,719 -583,1301 -1302,1301 -719,0 -1301,-582 -1301,-1301 0,-719 582,-1302 1301,-1302zm-3101 1946c0,-114 114,-229 229,-229l344 0 798 -914 229 0 0 1600 0 1600 -229 0 -800 -914c-114,0 -228,0 -342,0 -115,0 -229,-115 -229,-229 0,-305 0,-609 0,-914l0 0zm3150 854c-158,619 -678,1095 -1321,1187l0 -232c520,-87 942,-468 1088,-966 60,8 122,11 184,11l49 0zm-459 -56c-123,393 -453,695 -862,779l0 -234c310,-80 557,-319 648,-625 69,32 140,59 214,80zm-421 -195c-51,233 -220,422 -441,501l0 -250c136,-80 228,-228 228,-397l-1 -27c66,64 138,122 214,173zm830 -496l-600 -1250 1200 0 -600 1250zm1 -1833c598,0 1082,484 1082,1082 0,597 -484,1082 -1082,1082 -597,0 -1082,-485 -1082,-1082 0,-598 485,-1082 1082,-1082z"/>
 </g>
</svg>
