<?xml version="1.0" encoding="UTF-8"?>
<!DOCTYPE svg PUBLIC "-//W3C//DTD SVG 1.1//EN" "http://www.w3.org/Graphics/SVG/1.1/DTD/svg11.dtd">
<!-- Creator: CorelDRAW X7 -->
<svg xmlns="http://www.w3.org/2000/svg" xml:space="preserve" width="64px" height="64px" version="1.1" style="shape-rendering:geometricPrecision; text-rendering:geometricPrecision; image-rendering:optimizeQuality; fill-rule:evenodd; clip-rule:evenodd"
viewBox="0 0 6400 6400"
 xmlns:xlink="http://www.w3.org/1999/xlink">
 <defs>
  <style type="text/css">
   <![CDATA[
    .fil0 {fill:black}
   ]]>
  </style>
 </defs>
 <g id="Camada_x0020_1">
  <metadata id="CorelCorpID_0Corel-Layer"/>
  <path class="fil0" d="M4500 2200l900 400 -1000 200 100 800 -2000 -2000 900 100 300 -900 300 900 1100 -500 -600 1000 0 0zm0 -500l-300 500 700 300 -700 100 0 400 -1100 -1100 400 100 200 -700 200 700 600 -300z"/>
  <polygon class="fil0" points="4800,5500 4100,4800 3700,5200 3400,4900 4600,3700 4900,4000 4500,4400 5200,5100 5200,5200 4900,5500 "/>
  <polygon class="fil0" points="1100,1500 3850,4250 3450,4650 1200,2400 1100,1500 "/>
  <polygon class="fil0" points="1200,1400 2100,1500 4300,3800 3950,4150 1200,1400 "/>
 </g>
</svg>
