<?xml version="1.0" encoding="UTF-8"?>
<!DOCTYPE svg PUBLIC "-//W3C//DTD SVG 1.1//EN" "http://www.w3.org/Graphics/SVG/1.1/DTD/svg11.dtd">
<!-- Creator: CorelDRAW X7 -->
<svg xmlns="http://www.w3.org/2000/svg" xml:space="preserve" width="64px" height="64px" version="1.1" style="shape-rendering:geometricPrecision; text-rendering:geometricPrecision; image-rendering:optimizeQuality; fill-rule:evenodd; clip-rule:evenodd"
viewBox="0 0 6400 6400"
 xmlns:xlink="http://www.w3.org/1999/xlink">
 <defs>
  <style type="text/css">
   <![CDATA[
    .fil0 {fill:black;fill-rule:nonzero}
   ]]>
  </style>
 </defs>
 <g id="Camada_x0020_1">
  <metadata id="CorelCorpID_0Corel-Layer"/>
  <g>
   <path class="fil0" d="M4723 2786c0,-293 -444,-292 -444,0l0 931c0,292 445,293 445,0l0 -931 -1 0zm-2516 -180l1 1442c0,261 264,237 398,237 0,323 -73,715 222,715 295,0 222,-392 222,-715l300 0c0,323 -73,715 223,715 294,0 222,-392 222,-715 133,0 399,24 399,-237l0 -1442 -1987 0 0 0zm1449 -440c-111,0 -110,-167 0,-168 109,0 111,168 0,168l0 0zm-911 0c-111,0 -110,-168 -1,-168 111,0 112,169 0,169l1 -1zm946 -437l-57 -27c-273,-121 -595,-122 -869,0l-55 27c-305,157 -511,457 -511,800l2002 0c0,-344 -206,-642 -511,-800l1 0zm-1793 835c-122,0 -222,100 -222,222l0 931c0,292 445,293 445,0l0 -931c0,-122 -100,-222 -223,-222l0 0zm0 0l0 0z"/>
  </g>
 </g>
</svg>
