<?xml version="1.0" encoding="UTF-8"?>
<!DOCTYPE svg PUBLIC "-//W3C//DTD SVG 1.1//EN" "http://www.w3.org/Graphics/SVG/1.1/DTD/svg11.dtd">
<!-- Creator: CorelDRAW X7 -->
<svg xmlns="http://www.w3.org/2000/svg" xml:space="preserve" width="64px" height="64px" version="1.1" style="shape-rendering:geometricPrecision; text-rendering:geometricPrecision; image-rendering:optimizeQuality; fill-rule:evenodd; clip-rule:evenodd"
viewBox="0 0 6400 6400"
 xmlns:xlink="http://www.w3.org/1999/xlink">
 <defs>
  <style type="text/css">
   <![CDATA[
    .fil0 {fill:black}
   ]]>
  </style>
 </defs>
 <g id="Camada_x0020_1">
  <metadata id="CorelCorpID_0Corel-Layer"/>
  <path class="fil0" d="M3211 3387c-156,321 -369,757 -475,953 -102,178 -187,155 -255,5l-1043 -2254c-130,-110 -238,58 -238,-147l915 0c0,117 19,99 -131,105 -145,6 -135,72 -93,172 180,439 801,1750 801,1750l23 6 401 -800 -427 -862c-264,-522 -293,-93 -293,-371l743 -2c0,263 -318,-69 -112,346l264 541c335,-668 460,-767 143,-785l-35 -101 690 0c0,267 -45,-128 -312,348l-391 733 465 950 28 8 731 -1736c104,-264 -256,-158 -256,-231l0 -73 846 1c0,260 -227,-61 -396,348 0,0 -672,1540 -903,2052 -88,167 -175,152 -251,-5 -95,-197 -293,-630 -439,-951l0 0z"/>
 </g>
</svg>
