<?xml version="1.0" encoding="UTF-8"?>
<!DOCTYPE svg PUBLIC "-//W3C//DTD SVG 1.1//EN" "http://www.w3.org/Graphics/SVG/1.1/DTD/svg11.dtd">
<!-- Creator: CorelDRAW X7 -->
<svg xmlns="http://www.w3.org/2000/svg" xml:space="preserve" width="64px" height="64px" version="1.1" style="shape-rendering:geometricPrecision; text-rendering:geometricPrecision; image-rendering:optimizeQuality; fill-rule:evenodd; clip-rule:evenodd"
viewBox="0 0 6400 6400"
 xmlns:xlink="http://www.w3.org/1999/xlink">
 <defs>
  <style type="text/css">
   <![CDATA[
    .fil0 {fill:black}
   ]]>
  </style>
 </defs>
 <g id="Camada_x0020_1">
  <metadata id="CorelCorpID_0Corel-Layer"/>
  <path class="fil0" d="M4350 1500c276,0 500,224 500,500 0,276 -224,500 -500,500 -152,0 -289,-68 -380,-175l-1436 749c10,40 16,82 16,126 0,44 -6,86 -16,126l1468 766c92,-117 234,-192 394,-192 276,0 500,224 500,500 0,276 -224,500 -500,500 -276,0 -500,-224 -500,-500 0,-51 8,-100 22,-147l-1461 -762c-91,126 -239,209 -407,209 -276,0 -500,-224 -500,-500 0,-276 224,-500 500,-500 168,0 316,83 407,209l1422 -742c-19,-52 -29,-108 -29,-167 0,-276 224,-500 500,-500l0 0z"/>
 </g>
</svg>
