<?xml version="1.0" encoding="UTF-8"?>
<!DOCTYPE svg PUBLIC "-//W3C//DTD SVG 1.1//EN" "http://www.w3.org/Graphics/SVG/1.1/DTD/svg11.dtd">
<!-- Creator: CorelDRAW X7 -->
<svg xmlns="http://www.w3.org/2000/svg" xml:space="preserve" width="64px" height="64px" version="1.1" style="shape-rendering:geometricPrecision; text-rendering:geometricPrecision; image-rendering:optimizeQuality; fill-rule:evenodd; clip-rule:evenodd"
viewBox="0 0 6400 6400"
 xmlns:xlink="http://www.w3.org/1999/xlink">
 <defs>
  <style type="text/css">
   <![CDATA[
    .fil0 {fill:black}
   ]]>
  </style>
 </defs>
 <g id="Camada_x0020_1">
  <metadata id="CorelCorpID_0Corel-Layer"/>
  <path class="fil0" d="M2200 5000l200 -1100 100 -100 712 -210 388 -190 0 -200 -350 -450 -50 -950 400 -400 600 0 400 400 -50 950 -350 450 0 200 400 200 800 200 200 1200 -3400 0zm-1400 0l200 -1200 800 -200 200 -100 0 -300 -300 -400 -50 -750 350 -450 600 0 350 450 -50 750 -300 400 0 300 200 100 -350 50 -150 150 -200 1200 -1300 0z"/>
 </g>
</svg>
