<?xml version="1.0" encoding="UTF-8"?>
<!DOCTYPE svg PUBLIC "-//W3C//DTD SVG 1.1//EN" "http://www.w3.org/Graphics/SVG/1.1/DTD/svg11.dtd">
<!-- Creator: CorelDRAW X7 -->
<svg xmlns="http://www.w3.org/2000/svg" xml:space="preserve" width="64px" height="64px" version="1.1" style="shape-rendering:geometricPrecision; text-rendering:geometricPrecision; image-rendering:optimizeQuality; fill-rule:evenodd; clip-rule:evenodd"
viewBox="0 0 6400 6400"
 xmlns:xlink="http://www.w3.org/1999/xlink">
 <defs>
  <style type="text/css">
   <![CDATA[
    .fil0 {fill:black}
   ]]>
  </style>
 </defs>
 <g id="Camada_x0020_1">
  <metadata id="CorelCorpID_0Corel-Layer"/>
  <path class="fil0" d="M2223 2094c192,-111 231,-134 384,-222 384,-220 935,295 1292,917 352,615 514,1336 135,1556 -153,88 -191,110 -384,221 -301,174 -804,-347 -1160,-959 -362,-621 -573,-1337 -267,-1513zm227 37c-189,205 1,797 304,1319 299,514 709,961 978,901 127,-261 -43,-798 -317,-1278 -280,-490 -670,-921 -965,-942z"/>
 </g>
</svg>
