<?xml version="1.0" encoding="UTF-8"?>
<!DOCTYPE svg PUBLIC "-//W3C//DTD SVG 1.1//EN" "http://www.w3.org/Graphics/SVG/1.1/DTD/svg11.dtd">
<!-- Creator: CorelDRAW X7 -->
<svg xmlns="http://www.w3.org/2000/svg" xml:space="preserve" width="64px" height="64px" version="1.1" style="shape-rendering:geometricPrecision; text-rendering:geometricPrecision; image-rendering:optimizeQuality; fill-rule:evenodd; clip-rule:evenodd"
viewBox="0 0 6400 6400"
 xmlns:xlink="http://www.w3.org/1999/xlink">
 <defs>
  <style type="text/css">
   <![CDATA[
    .fil0 {fill:black}
   ]]>
  </style>
 </defs>
 <g id="Camada_x0020_1">
  <metadata id="CorelCorpID_0Corel-Layer"/>
  <path class="fil0" d="M4700 2675l-3001 0c-73,0 -140,-26 -192,-70l1693 -1005 1692 1005c-52,44 -119,70 -192,70zm-300 300l-2300 0 1100 700 1200 -700zm600 -100l0 1600c0,165 -135,325 -300,325l-3001 0c-165,0 -299,-160 -299,-325l0 -1600c0,-54 14,-105 39,-149l1761 1149 1760 -1149c25,44 40,95 40,149z"/>
 </g>
</svg>
