<?xml version="1.0" encoding="UTF-8"?>
<!DOCTYPE svg PUBLIC "-//W3C//DTD SVG 1.1//EN" "http://www.w3.org/Graphics/SVG/1.1/DTD/svg11.dtd">
<!-- Creator: CorelDRAW X7 -->
<svg xmlns="http://www.w3.org/2000/svg" xml:space="preserve" width="64px" height="64px" version="1.1" style="shape-rendering:geometricPrecision; text-rendering:geometricPrecision; image-rendering:optimizeQuality; fill-rule:evenodd; clip-rule:evenodd"
viewBox="0 0 6400 6400"
 xmlns:xlink="http://www.w3.org/1999/xlink">
 <defs>
  <style type="text/css">
   <![CDATA[
    .fil0 {fill:black}
   ]]>
  </style>
 </defs>
 <g id="Camada_x0020_1">
  <metadata id="CorelCorpID_0Corel-Layer"/>
  <path class="fil0" d="M4393 2598c-661,0 -1181,543 -1181,1204 0,661 519,1205 1181,1205 661,0 1204,-544 1204,-1205 0,-661 -543,-1204 -1204,-1204zm0 -1606l0 1393c-237,0 -473,71 -661,189 -237,118 -237,118 -331,236l-1394 0 0 189 1252 0c-47,71 -94,119 -118,189l-1134 0 0 213 1063 0c-24,71 -47,165 -47,213 -24,70 -24,118 -24,189 0,779 638,1393 1394,1393l0 213 -2787 0 0 -4417 2787 0zm-2386 614l1984 0 0 189 -1984 0 0 -189zm0 2999l803 0 0 189 -803 0 0 -189zm0 -614l803 0 0 213 -803 0 0 -213zm0 -1795l1984 0 0 213 -1984 0 0 -213zm2393 2404l-810 -1199 1606 0 -796 1199z"/>
 </g>
</svg>
