<?xml version="1.0" encoding="UTF-8"?>
<!DOCTYPE svg PUBLIC "-//W3C//DTD SVG 1.1//EN" "http://www.w3.org/Graphics/SVG/1.1/DTD/svg11.dtd">
<!-- Creator: CorelDRAW X7 -->
<svg xmlns="http://www.w3.org/2000/svg" xml:space="preserve" width="64px" height="64px" version="1.1" style="shape-rendering:geometricPrecision; text-rendering:geometricPrecision; image-rendering:optimizeQuality; fill-rule:evenodd; clip-rule:evenodd"
viewBox="0 0 6400 6400"
 xmlns:xlink="http://www.w3.org/1999/xlink">
 <defs>
  <style type="text/css">
   <![CDATA[
    .fil0 {fill:black}
   ]]>
  </style>
 </defs>
 <g id="Camada_x0020_1">
  <metadata id="CorelCorpID_0Corel-Layer"/>
  <path class="fil0" d="M5400 800l-600 200 0 400 -1400 1400 -600 0 -203 199 -1597 1601 -200 400 200 400 400 200 400 -200 1800 -1800 0 -600 1400 -1400 400 0 200 -600 -200 -200zm-4600 1206l0 -615 402 426 591 -24 24 -591 -426 -402 615 0 402 402 0 591 -8 207 700 700 -400 0 -200 200 -500 -500 -207 8 -591 0 -402 -402 0 0zm2700 1894l200 -200 0 -400 800 800c550,-250 1100,52 1100,696 0,615 -402,804 -804,804 -529,0 -946,-550 -696,-1100l-600 -600zm1296 494c-189,0 -402,213 -402,402 0,213 213,402 402,402 213,0 402,-189 402,-402 0,-189 -189,-402 -402,-402z"/>
 </g>
</svg>
