<?xml version="1.0" encoding="UTF-8"?>
<!DOCTYPE svg PUBLIC "-//W3C//DTD SVG 1.1//EN" "http://www.w3.org/Graphics/SVG/1.1/DTD/svg11.dtd">
<!-- Creator: CorelDRAW X7 -->
<svg xmlns="http://www.w3.org/2000/svg" xml:space="preserve" width="64px" height="64px" version="1.1" style="shape-rendering:geometricPrecision; text-rendering:geometricPrecision; image-rendering:optimizeQuality; fill-rule:evenodd; clip-rule:evenodd"
viewBox="0 0 6400 6400"
 xmlns:xlink="http://www.w3.org/1999/xlink">
 <defs>
  <style type="text/css">
   <![CDATA[
    .fil0 {fill:black}
   ]]>
  </style>
 </defs>
 <g id="Camada_x0020_1">
  <metadata id="CorelCorpID_0Corel-Layer"/>
  <path class="fil0" d="M3800 3800l0 1000 -600 800 -600 -800 0 -1000 300 -500 0 200 600 0 0 -200 300 500zm1600 -3000l-1900 1800 0 500 2100 -2100 0 -200 -200 0zm-4400 0l1900 1900 0 400 -2100 -2100 0 -200 200 0zm2100 1800l200 0 100 100 0 600 -100 100 -200 0 -100 -100 0 -600 100 -100z"/>
 </g>
</svg>
