<?xml version="1.0" encoding="UTF-8"?>
<!DOCTYPE svg PUBLIC "-//W3C//DTD SVG 1.1//EN" "http://www.w3.org/Graphics/SVG/1.1/DTD/svg11.dtd">
<!-- Creator: CorelDRAW X7 -->
<svg xmlns="http://www.w3.org/2000/svg" xml:space="preserve" width="64px" height="64px" version="1.1" style="shape-rendering:geometricPrecision; text-rendering:geometricPrecision; image-rendering:optimizeQuality; fill-rule:evenodd; clip-rule:evenodd"
viewBox="0 0 6400 6400"
 xmlns:xlink="http://www.w3.org/1999/xlink">
 <defs>
  <style type="text/css">
   <![CDATA[
    .fil0 {fill:black}
   ]]>
  </style>
 </defs>
 <g id="Camada_x0020_1">
  <metadata id="CorelCorpID_0Corel-Layer"/>
  <path class="fil0" d="M2696 1634l0 2922 652 210 0 -2450c0,-255 258,-228 258,85l0 978c407,199 727,0 727,-525 0,-539 -188,-778 -739,-970l-898 -250zm775 2704l1048 -379c277,-100 -55,-222 -350,-115l-698 249 0 -397c1055,-370 2323,176 1424,507l-1424 519 0 -384zm-1836 -601l935 -336 0 384c-205,74 -989,288 -713,380 221,74 500,-61 712,-139l0 344c-359,62 -693,54 -1069,-71 -589,-169 -212,-441 135,-562z"/>
 </g>
</svg>
