<?xml version="1.0" encoding="UTF-8"?>
<!DOCTYPE svg PUBLIC "-//W3C//DTD SVG 1.1//EN" "http://www.w3.org/Graphics/SVG/1.1/DTD/svg11.dtd">
<!-- Creator: CorelDRAW X7 -->
<svg xmlns="http://www.w3.org/2000/svg" xml:space="preserve" width="64px" height="64px" version="1.1" style="shape-rendering:geometricPrecision; text-rendering:geometricPrecision; image-rendering:optimizeQuality; fill-rule:evenodd; clip-rule:evenodd"
viewBox="0 0 6400 6400"
 xmlns:xlink="http://www.w3.org/1999/xlink">
 <defs>
  <style type="text/css">
   <![CDATA[
    .fil0 {fill:black}
   ]]>
  </style>
 </defs>
 <g id="Camada_x0020_1">
  <metadata id="CorelCorpID_0Corel-Layer"/>
  <path class="fil0" d="M3194 5200c0,0 438,0 438,-1299 0,-578 -877,-578 -877,0 0,1299 439,1299 439,1299zm593 -728c1586,-656 1123,-2979 -547,-3021 -1717,-43 -2246,2343 -640,3016l55 286c-1605,-494 -1718,-2753 -164,-3410 1550,-655 3084,980 2338,2483 -222,447 -621,785 -1097,931l55 -285zm14 -725c977,-807 -290,-2288 -1237,-1428 -423,385 -412,1048 24,1420l-21 295c-1223,-763 -273,-2657 1070,-2128 914,359 1032,1619 181,2136l-17 -295zm-607 -416c-582,0 -584,-886 3,-886 575,0 581,886 -3,886z"/>
 </g>
</svg>
