<?xml version="1.0" encoding="UTF-8"?>
<!DOCTYPE svg PUBLIC "-//W3C//DTD SVG 1.1//EN" "http://www.w3.org/Graphics/SVG/1.1/DTD/svg11.dtd">
<!-- Creator: CorelDRAW X7 -->
<svg xmlns="http://www.w3.org/2000/svg" xml:space="preserve" width="64px" height="64px" version="1.1" style="shape-rendering:geometricPrecision; text-rendering:geometricPrecision; image-rendering:optimizeQuality; fill-rule:evenodd; clip-rule:evenodd"
viewBox="0 0 6400 6400"
 xmlns:xlink="http://www.w3.org/1999/xlink">
 <defs>
  <style type="text/css">
   <![CDATA[
    .fil0 {fill:black}
   ]]>
  </style>
 </defs>
 <g id="Camada_x0020_1">
  <metadata id="CorelCorpID_0Corel-Layer"/>
  <polygon class="fil0" points="4900,4200 3000,4200 3000,4500 4500,4500 4900,4200 "/>
  <polygon class="fil0" points="2900,4700 2900,3500 2500,3500 2500,3900 1700,3900 1700,4300 2500,4300 2500,4700 2900,4700 "/>
  <polygon class="fil0" points="800,4300 1500,4300 1500,3900 800,3900 "/>
  <polygon class="fil0" points="5600,2400 3700,2400 3700,2700 5200,2700 5600,2400 "/>
  <polygon class="fil0" points="3600,2900 3600,1700 3200,1700 3200,2100 2400,2100 2400,2500 3200,2500 3200,2900 3600,2900 "/>
  <polygon class="fil0" points="1600,2100 800,2100 800,2500 1600,2500 "/>
  <polygon class="fil0" points="1800,2500 2200,2500 2200,2100 1800,2100 "/>
  <polygon class="fil0" points="5200,1900 3700,1900 3700,2200 5600,2200 "/>
  <polygon class="fil0" points="4500,3700 3000,3700 3000,4000 4900,4000 "/>
 </g>
</svg>
