<?xml version="1.0" encoding="UTF-8"?>
<!DOCTYPE svg PUBLIC "-//W3C//DTD SVG 1.1//EN" "http://www.w3.org/Graphics/SVG/1.1/DTD/svg11.dtd">
<!-- Creator: CorelDRAW X7 -->
<svg xmlns="http://www.w3.org/2000/svg" xml:space="preserve" width="64px" height="64px" version="1.1" style="shape-rendering:geometricPrecision; text-rendering:geometricPrecision; image-rendering:optimizeQuality; fill-rule:evenodd; clip-rule:evenodd"
viewBox="0 0 6400 6400"
 xmlns:xlink="http://www.w3.org/1999/xlink">
 <defs>
  <style type="text/css">
   <![CDATA[
    .fil0 {fill:black}
   ]]>
  </style>
 </defs>
 <g id="Camada_x0020_1">
  <metadata id="CorelCorpID_0Corel-Layer"/>
  <path class="fil0" d="M4770 1393c520,449 827,1087 827,1795 0,827 -401,1535 -1016,1960l-47 -212c520,-402 874,-1016 874,-1748 0,-685 -354,-1322 -850,-1724l212 -71zm-2361 4062c-945,-330 -1606,-1204 -1606,-2267 0,-331 71,-685 213,-968l141 142c-94,259 -165,543 -165,826 0,779 401,1441 968,1842 -212,-283 -354,-637 -354,-1039 0,-142 24,-307 71,-448l142 283c-24,47 -24,118 -24,165 0,473 236,898 614,1158l0 94 0 142 0 71 0 -1zm1391 -255l100 -400 300 800 193 -3 0 -401 -189 -992 -804 -204 0 -200 200 -200 0 -600 -200 -200 -400 0 -200 200 0 600 199 202 1 198 -400 0 -400 -600 -216 -1203 213 -189 2598 -803 212 -402 -401 0 -2810 992 -196 205 -350 250 100 100 250 -150 196 -3 4 1203 610 1205 189 402 0 590 1204 0 -3 -397zm-612 -2791c898,0 1606,708 1606,1582 0,331 -94,661 -260,898l-71 -260c95,-189 142,-402 142,-638 0,-756 -638,-1393 -1417,-1393 -331,0 -637,118 -874,307l-23 -213c260,-189 566,-283 897,-283zm0 -1606c213,0 425,24 638,71l-378 142c-95,0 -166,-24 -260,-24 -708,0 -1322,354 -1724,874l-449 307c402,-803 1228,-1370 2173,-1370l0 0z"/>
 </g>
</svg>
