<?xml version="1.0" encoding="UTF-8"?>
<!DOCTYPE svg PUBLIC "-//W3C//DTD SVG 1.1//EN" "http://www.w3.org/Graphics/SVG/1.1/DTD/svg11.dtd">
<!-- Creator: CorelDRAW X7 -->
<svg xmlns="http://www.w3.org/2000/svg" xml:space="preserve" width="64px" height="64px" version="1.1" style="shape-rendering:geometricPrecision; text-rendering:geometricPrecision; image-rendering:optimizeQuality; fill-rule:evenodd; clip-rule:evenodd"
viewBox="0 0 6400 6400"
 xmlns:xlink="http://www.w3.org/1999/xlink">
 <defs>
  <style type="text/css">
   <![CDATA[
    .fil0 {fill:black;fill-rule:nonzero}
   ]]>
  </style>
 </defs>
 <g id="Camada_x0020_1">
  <metadata id="CorelCorpID_0Corel-Layer"/>
  <path class="fil0" d="M4979 1200l-3558 0c-122,0 -221,99 -221,221l0 3558c0,122 99,221 221,221l1916 0 0 -1549 -522 0 0 -603 522 0 0 -446c0,-517 315,-798 776,-798 221,0 411,16 466,24l0 540 -320 0c-250,0 -299,119 -299,294l0 385 597 0 -77 604 -520 0 0 1549 1019 0c122,0 221,-99 221,-221l0 -3558c0,-122 -99,-221 -221,-221z"/>
 </g>
</svg>
