<?xml version="1.0" encoding="UTF-8"?>
<!DOCTYPE svg PUBLIC "-//W3C//DTD SVG 1.1//EN" "http://www.w3.org/Graphics/SVG/1.1/DTD/svg11.dtd">
<!-- Creator: CorelDRAW X7 -->
<svg xmlns="http://www.w3.org/2000/svg" xml:space="preserve" width="64px" height="64px" version="1.1" style="shape-rendering:geometricPrecision; text-rendering:geometricPrecision; image-rendering:optimizeQuality; fill-rule:evenodd; clip-rule:evenodd"
viewBox="0 0 6400 6400"
 xmlns:xlink="http://www.w3.org/1999/xlink">
 <defs>
  <style type="text/css">
   <![CDATA[
    .fil0 {fill:black}
   ]]>
  </style>
 </defs>
 <g id="Camada_x0020_1">
  <metadata id="CorelCorpID_0Corel-Layer"/>
  <g id="_986347344">
   <path class="fil0" d="M3200 559c1459,0 2641,1182 2641,2641 0,1459 -1182,2641 -2641,2641 -1459,0 -2641,-1182 -2641,-2641 0,-1459 1182,-2641 2641,-2641zm0 1016c898,0 1625,727 1625,1625 0,898 -727,1625 -1625,1625 -898,0 -1625,-727 -1625,-1625 0,-898 727,-1625 1625,-1625z"/>
   <path class="fil0" d="M3200 0c1768,0 3200,1432 3200,3200 0,1768 -1432,3200 -3200,3200 -1768,0 -3200,-1432 -3200,-3200 0,-1768 1432,-3200 3200,-3200zm0 152c1682,0 3048,1364 3048,3048 0,1682 -1366,3048 -3048,3048 -1682,0 -3048,-1366 -3048,-3048 0,-1684 1366,-3048 3048,-3048z"/>
   <circle class="fil0" cx="3200" cy="3200" r="1219"/>
  </g>
 </g>
</svg>
