<?xml version="1.0" encoding="UTF-8"?>
<!DOCTYPE svg PUBLIC "-//W3C//DTD SVG 1.1//EN" "http://www.w3.org/Graphics/SVG/1.1/DTD/svg11.dtd">
<!-- Creator: CorelDRAW X7 -->
<svg xmlns="http://www.w3.org/2000/svg" xml:space="preserve" width="64px" height="64px" version="1.1" style="shape-rendering:geometricPrecision; text-rendering:geometricPrecision; image-rendering:optimizeQuality; fill-rule:evenodd; clip-rule:evenodd"
viewBox="0 0 6400 6400"
 xmlns:xlink="http://www.w3.org/1999/xlink">
 <defs>
  <style type="text/css">
   <![CDATA[
    .fil0 {fill:black}
   ]]>
  </style>
 </defs>
 <g id="Camada_x0020_1">
  <metadata id="CorelCorpID_0Corel-Layer"/>
  <g id="_986402896">
   <path class="fil0" d="M3200 0c1768,0 3200,1432 3200,3200 0,1768 -1432,3200 -3200,3200 -1768,0 -3200,-1432 -3200,-3200 0,-1768 1432,-3200 3200,-3200zm0 200c1656,0 3000,1344 3000,3000 0,1656 -1344,3000 -3000,3000 -1656,0 -3000,-1344 -3000,-3000 0,-1656 1344,-3000 3000,-3000z"/>
   <path class="fil0" d="M3180 580c1424,0 2620,1172 2620,2620 0,1448 -1196,2620 -2620,2620 -1426,0 -2580,-1172 -2580,-2620 0,-1448 1154,-2620 2580,-2620zm40 1448c52,0 106,2 156,10l190 -390 516 214 -146 410c82,62 154,136 216,216l414 -142 210 518 -392 186c6,48 10,100 10,150 0,52 -4,104 -10,156l390 192 -216 516 -408 -148c-64,82 -136,154 -218,216l142 412 -518 212 -184 -392c-50,6 -100,8 -152,8 -52,0 -104,-2 -156,-8l-190 390 -516 -216 146 -410c-80,-62 -154,-136 -216,-216l-412 142 -212 -518 394 -186c-8,-48 -10,-100 -10,-150 0,-52 2,-104 10,-156l-392 -190 216 -516 410 146c62,-82 136,-154 216,-216l-140 -412 516 -212 186 394c48,-8 100,-10 150,-10l0 0 0 0zm0 754c234,0 420,186 420,418 0,232 -186,418 -420,418 -230,0 -418,-186 -418,-418 0,-232 188,-418 418,-418z"/>
  </g>
 </g>
</svg>
