<?xml version="1.0" encoding="UTF-8"?>
<!DOCTYPE svg PUBLIC "-//W3C//DTD SVG 1.1//EN" "http://www.w3.org/Graphics/SVG/1.1/DTD/svg11.dtd">
<!-- Creator: CorelDRAW X7 -->
<svg xmlns="http://www.w3.org/2000/svg" xml:space="preserve" width="64px" height="64px" version="1.1" style="shape-rendering:geometricPrecision; text-rendering:geometricPrecision; image-rendering:optimizeQuality; fill-rule:evenodd; clip-rule:evenodd"
viewBox="0 0 6400 6400"
 xmlns:xlink="http://www.w3.org/1999/xlink">
 <defs>
  <style type="text/css">
   <![CDATA[
    .fil0 {fill:black}
   ]]>
  </style>
 </defs>
 <g id="Camada_x0020_1">
  <metadata id="CorelCorpID_0Corel-Layer"/>
  <g id="_933001440">
   <path class="fil0" d="M3200 0c1768,0 3200,1432 3200,3200 0,1768 -1432,3200 -3200,3200 -1768,0 -3200,-1432 -3200,-3200 0,-1768 1432,-3200 3200,-3200zm0 200c1656,0 3000,1344 3000,3000 0,1656 -1344,3000 -3000,3000 -1656,0 -3000,-1344 -3000,-3000 0,-1656 1344,-3000 3000,-3000z"/>
   <path class="fil0" d="M3190 600c1440,0 2610,1170 2610,2590 0,1440 -1170,2610 -2610,2610 -1420,0 -2590,-1170 -2590,-2610 0,-1420 1170,-2590 2590,-2590zm-1452 2926l0 648 406 -648 1382 0c162,0 324,-164 324,-326l0 -1138c0,-162 -162,-324 -324,-324l-1788 0c-164,0 -326,162 -326,324l0 1138c0,162 162,326 326,326l0 0zm2924 648l0 488 -406 -488 -1382 0c-162,0 -324,-162 -324,-324l0 -244 1056 0c154,0 326,-170 326,-324l0 -894 730 0c164,0 326,162 326,324l0 1138c0,162 -162,324 -326,324l0 0 0 0z"/>
  </g>
 </g>
</svg>
