<?xml version="1.0" encoding="UTF-8"?>
<!DOCTYPE svg PUBLIC "-//W3C//DTD SVG 1.1//EN" "http://www.w3.org/Graphics/SVG/1.1/DTD/svg11.dtd">
<!-- Creator: CorelDRAW X7 -->
<svg xmlns="http://www.w3.org/2000/svg" xml:space="preserve" width="64px" height="64px" version="1.1" style="shape-rendering:geometricPrecision; text-rendering:geometricPrecision; image-rendering:optimizeQuality; fill-rule:evenodd; clip-rule:evenodd"
viewBox="0 0 6400 6400"
 xmlns:xlink="http://www.w3.org/1999/xlink">
 <defs>
  <style type="text/css">
   <![CDATA[
    .fil0 {fill:black}
   ]]>
  </style>
 </defs>
 <g id="Camada_x0020_1">
  <metadata id="CorelCorpID_0Corel-Layer"/>
  <g id="_986072752">
   <path class="fil0" d="M3200 0c1768,0 3200,1432 3200,3200 0,1768 -1432,3200 -3200,3200 -1768,0 -3200,-1432 -3200,-3200 0,-1768 1432,-3200 3200,-3200zm0 200c1656,0 3000,1344 3000,3000 0,1656 -1344,3000 -3000,3000 -1656,0 -3000,-1344 -3000,-3000 0,-1656 1344,-3000 3000,-3000z"/>
   <path class="fil0" d="M3200 600c1436,0 2600,1164 2600,2600 0,1436 -1164,2600 -2600,2600 -1436,0 -2600,-1164 -2600,-2600 0,-1436 1164,-2600 2600,-2600zm-812 3738l162 -488 162 -162 498 -172 316 -154 0 -162 -286 -366 -40 -772 326 -324 486 0 326 324 -40 772 -286 366 0 162 326 164 650 162 162 650 -2762 0 0 0 0 0zm-976 -650l650 -162 162 -82 0 -244 -242 -326 -42 -608 284 -366 488 0 284 366 -40 608 -244 326 0 244 -162 82 -162 162 -156 650 -982 0 162 -650z"/>
  </g>
 </g>
</svg>
