<?xml version="1.0" encoding="UTF-8"?>
<!DOCTYPE svg PUBLIC "-//W3C//DTD SVG 1.1//EN" "http://www.w3.org/Graphics/SVG/1.1/DTD/svg11.dtd">
<!-- Creator: CorelDRAW X7 -->
<svg xmlns="http://www.w3.org/2000/svg" xml:space="preserve" width="64px" height="64px" version="1.1" style="shape-rendering:geometricPrecision; text-rendering:geometricPrecision; image-rendering:optimizeQuality; fill-rule:evenodd; clip-rule:evenodd"
viewBox="0 0 6400 6400"
 xmlns:xlink="http://www.w3.org/1999/xlink">
 <defs>
  <style type="text/css">
   <![CDATA[
    .fil0 {fill:black}
   ]]>
  </style>
 </defs>
 <g id="Camada_x0020_1">
  <metadata id="CorelCorpID_0Corel-Layer"/>
  <g id="_986386448">
   <path class="fil0" d="M3200 0c1768,0 3200,1432 3200,3200 0,1768 -1432,3200 -3200,3200 -1768,0 -3200,-1432 -3200,-3200 0,-1768 1432,-3200 3200,-3200zm0 200c1656,0 3000,1344 3000,3000 0,1656 -1344,3000 -3000,3000 -1656,0 -3000,-1344 -3000,-3000 0,-1656 1344,-3000 3000,-3000z"/>
   <path class="fil0" d="M3190 600c1440,0 2610,1170 2610,2590 0,1440 -1170,2610 -2610,2610 -1420,0 -2590,-1170 -2590,-2610 0,-1420 1170,-2590 2590,-2590zm336 650c162,0 324,162 324,324l0 164 -324 0 0 -164 -652 0 0 164 -324 0 0 -164c0,-162 162,-324 324,-324l652 0zm162 1950l692 -700 282 2000c0,162 -162,326 -324,326l-2276 0c-162,0 -324,-164 -324,-326l282 -2000 692 700 976 0 0 0 0 0 0 0zm-732 326l-162 162 162 162 488 0 162 -162 -162 -162 -488 0zm-568 -1626c-162,0 -326,162 -326,324l732 732 812 0 732 -732c0,-162 -164,-324 -326,-324l-1624 0 0 0 0 0z"/>
  </g>
 </g>
</svg>
