<?xml version="1.0" encoding="UTF-8"?>
<!DOCTYPE svg PUBLIC "-//W3C//DTD SVG 1.1//EN" "http://www.w3.org/Graphics/SVG/1.1/DTD/svg11.dtd">
<!-- Creator: CorelDRAW X7 -->
<svg xmlns="http://www.w3.org/2000/svg" xml:space="preserve" width="64px" height="64px" version="1.1" style="shape-rendering:geometricPrecision; text-rendering:geometricPrecision; image-rendering:optimizeQuality; fill-rule:evenodd; clip-rule:evenodd"
viewBox="0 0 6400 6400"
 xmlns:xlink="http://www.w3.org/1999/xlink">
 <defs>
  <style type="text/css">
   <![CDATA[
    .fil0 {fill:black}
   ]]>
  </style>
 </defs>
 <g id="Camada_x0020_1">
  <metadata id="CorelCorpID_0Corel-Layer"/>
  <g id="_986095440">
   <path class="fil0" d="M3200 0c1768,0 3200,1432 3200,3200 0,1768 -1432,3200 -3200,3200 -1768,0 -3200,-1432 -3200,-3200 0,-1768 1432,-3200 3200,-3200zm0 200c1656,0 3000,1344 3000,3000 0,1656 -1344,3000 -3000,3000 -1656,0 -3000,-1344 -3000,-3000 0,-1656 1344,-3000 3000,-3000z"/>
   <path class="fil0" d="M3190 600c1440,0 2610,1170 2610,2590 0,1440 -1170,2610 -2610,2610 -1420,0 -2590,-1170 -2590,-2610 0,-1420 1170,-2590 2590,-2590zm40 1636c376,0 676,326 650,700 -26,414 -328,988 -598,1514l842 0 570 386 -2926 0 570 -386 840 0c-292,-570 -590,-1160 -598,-1564 0,-358 292,-650 650,-650l0 0 0 0zm0 428c136,0 244,108 244,242 0,134 -108,244 -244,244 -134,0 -242,-110 -242,-244 0,-134 108,-242 242,-242z"/>
  </g>
 </g>
</svg>
