<?xml version="1.0" encoding="UTF-8"?>
<!DOCTYPE svg PUBLIC "-//W3C//DTD SVG 1.1//EN" "http://www.w3.org/Graphics/SVG/1.1/DTD/svg11.dtd">
<!-- Creator: CorelDRAW X7 -->
<svg xmlns="http://www.w3.org/2000/svg" xml:space="preserve" width="64px" height="64px" version="1.1" style="shape-rendering:geometricPrecision; text-rendering:geometricPrecision; image-rendering:optimizeQuality; fill-rule:evenodd; clip-rule:evenodd"
viewBox="0 0 6400 6400"
 xmlns:xlink="http://www.w3.org/1999/xlink">
 <defs>
  <style type="text/css">
   <![CDATA[
    .fil0 {fill:black}
   ]]>
  </style>
 </defs>
 <g id="Camada_x0020_1">
  <metadata id="CorelCorpID_0Corel-Layer"/>
  <g id="_986394480">
   <path class="fil0" d="M3200 0c1768,0 3200,1432 3200,3200 0,1768 -1432,3200 -3200,3200 -1768,0 -3200,-1432 -3200,-3200 0,-1768 1432,-3200 3200,-3200zm0 152c1682,0 3048,1364 3048,3048 0,1682 -1366,3048 -3048,3048 -1682,0 -3048,-1366 -3048,-3048 0,-1684 1366,-3048 3048,-3048z"/>
   <path class="fil0" d="M3210 559c1443,0 2631,1188 2631,2631 0,1463 -1188,2651 -2631,2651 -1463,0 -2651,-1188 -2651,-2651 0,-1443 1188,-2631 2651,-2631zm-1826 3962l164 -661 167 -164 741 -165 413 -166 0 -330 -329 -495 0 -825 329 -496 662 0 329 496 0 825 -329 495 0 330 413 166 741 165 167 164 164 661 -3632 0 0 0 0 0z"/>
  </g>
 </g>
</svg>
