<?xml version="1.0" encoding="UTF-8"?>
<!DOCTYPE svg PUBLIC "-//W3C//DTD SVG 1.1//EN" "http://www.w3.org/Graphics/SVG/1.1/DTD/svg11.dtd">
<!-- Creator: CorelDRAW X7 -->
<svg xmlns="http://www.w3.org/2000/svg" xml:space="preserve" width="2.7092mm" height="2.7092mm" version="1.1" style="shape-rendering:geometricPrecision; text-rendering:geometricPrecision; image-rendering:optimizeQuality; fill-rule:evenodd; clip-rule:evenodd"
viewBox="0 0 271 271"
 xmlns:xlink="http://www.w3.org/1999/xlink">
 <defs>
  <style type="text/css">
   <![CDATA[
    .fil0 {fill:black}
   ]]>
  </style>
 </defs>
 <g id="Camada_x0020_1">
  <metadata id="CorelCorpID_0Corel-Layer"/>
  <path class="fil0" d="M135 -135c150,0 271,121 271,270 0,150 -121,271 -271,271 -149,0 -270,-121 -270,-271 0,-149 121,-270 270,-270zm-42 135l-25 34 0 51 17 50 17 17 0 34 -51 17 -51 0 -17 17 -17 68 339 0 -17 -68 -17 -17 -51 0 -51 -17 0 -34 17 -17 17 -50 0 -51 -25 -34 -43 -17 -42 17z"/>
 </g>
</svg>
