<?xml version="1.0" encoding="UTF-8"?>
<!DOCTYPE svg PUBLIC "-//W3C//DTD SVG 1.1//EN" "http://www.w3.org/Graphics/SVG/1.1/DTD/svg11.dtd">
<!-- Creator: CorelDRAW X7 -->
<svg xmlns="http://www.w3.org/2000/svg" xml:space="preserve" width="2.7092mm" height="2.7092mm" version="1.1" style="shape-rendering:geometricPrecision; text-rendering:geometricPrecision; image-rendering:optimizeQuality; fill-rule:evenodd; clip-rule:evenodd"
viewBox="0 0 271 271"
 xmlns:xlink="http://www.w3.org/1999/xlink">
 <defs>
  <style type="text/css">
   <![CDATA[
    .fil0 {fill:black}
   ]]>
  </style>
 </defs>
 <g id="Camada_x0020_1">
  <metadata id="CorelCorpID_0Corel-Layer"/>
  <path class="fil0" d="M136 -136c149,0 271,122 271,271 0,150 -122,272 -271,272 -150,0 -271,-122 -271,-272 0,-149 121,-271 271,-271zm-77 280l-8 8 25 26 8 -9 -25 -25zm229 -93l0 -51 -102 102 26 25 76 -76zm-305 -51l186 186 -25 26 -161 -161 0 -51zm305 254l-34 34 -51 -51 -25 26 -26 -26 85 -85 25 26 -25 25 51 51zm-288 -271l51 0 161 161 -26 25 -186 -186zm93 212l25 25 9 -8 -26 -26 -8 9zm-110 59l34 34 51 -51 25 26 25 -26 -84 -85 -26 26 26 25 -51 51zm237 -271l-76 76 25 26 102 -102 -51 0z"/>
 </g>
</svg>
