<?xml version="1.0" encoding="UTF-8"?>
<!DOCTYPE svg PUBLIC "-//W3C//DTD SVG 1.1//EN" "http://www.w3.org/Graphics/SVG/1.1/DTD/svg11.dtd">
<!-- Creator: CorelDRAW X7 -->
<svg xmlns="http://www.w3.org/2000/svg" xml:space="preserve" width="2.7092mm" height="2.7092mm" version="1.1" style="shape-rendering:geometricPrecision; text-rendering:geometricPrecision; image-rendering:optimizeQuality; fill-rule:evenodd; clip-rule:evenodd"
viewBox="0 0 271 271"
 xmlns:xlink="http://www.w3.org/1999/xlink">
 <defs>
  <style type="text/css">
   <![CDATA[
    .fil0 {fill:black}
   ]]>
  </style>
 </defs>
 <g id="Camada_x0020_1">
  <metadata id="CorelCorpID_0Corel-Layer"/>
  <path class="fil0" d="M-51 279l43 43 63 -64 34 34 30 -30 -111 -110 -29 30 34 34 -64 63zm290 -330l-95 93 34 34 127 -127 -66 0zm-192 191l-13 12 34 34 12 -12 -33 -34zm275 -108l0 -66 -127 127 34 34 93 -95zm-373 -66l241 241 -29 30 -212 -212 0 -59zm373 322l-34 34 -68 -68 -38 38 -30 -30 110 -110 30 30 -38 38 68 68zm-356 -339l59 0 212 212 -30 29 -241 -241zm119 254l34 34 12 -13 -34 -34 -12 13z"/>
 </g>
</svg>
