<?xml version="1.0" encoding="UTF-8"?>
<!DOCTYPE svg PUBLIC "-//W3C//DTD SVG 1.1//EN" "http://www.w3.org/Graphics/SVG/1.1/DTD/svg11.dtd">
<!-- Creator: CorelDRAW X7 -->
<svg xmlns="http://www.w3.org/2000/svg" xml:space="preserve" width="2.7092mm" height="2.7092mm" version="1.1" style="shape-rendering:geometricPrecision; text-rendering:geometricPrecision; image-rendering:optimizeQuality; fill-rule:evenodd; clip-rule:evenodd"
viewBox="0 0 271 271"
 xmlns:xlink="http://www.w3.org/1999/xlink">
 <defs>
  <style type="text/css">
   <![CDATA[
    .fil0 {fill:black}
   ]]>
  </style>
 </defs>
 <g id="Camada_x0020_1">
  <metadata id="CorelCorpID_0Corel-Layer"/>
  <path class="fil0" d="M135 -17l-42 -17 -8 -17 -17 0 0 17 -34 0 -51 17 -34 34 -17 51 51 51 34 0 34 101 -17 102 101 -17 102 17 -17 -102 34 -101 34 0 51 -51 -17 -51 -34 -33 -51 -18 -34 0 0 -17 -17 0 -8 17 -43 17zm-50 34l101 0 0 -34 9 -8 8 8 0 51 0 25 43 43 -17 17 -43 -51 0 -34 -101 0 0 34 -43 51 -17 -17 43 -43 0 -25 0 -51 8 -9 9 9 0 34zm50 76l-42 17 -25 25 25 -8 42 -8 43 8 25 8 -25 -25 -43 -17zm0 178l-12 -51 -38 -8 38 -9 12 -51 13 51 38 9 -38 8 -13 51z"/>
 </g>
</svg>
