<?xml version="1.0" encoding="UTF-8"?>
<!DOCTYPE svg PUBLIC "-//W3C//DTD SVG 1.1//EN" "http://www.w3.org/Graphics/SVG/1.1/DTD/svg11.dtd">
<!-- Creator: CorelDRAW X7 -->
<svg xmlns="http://www.w3.org/2000/svg" xml:space="preserve" width="2.7092mm" height="2.7092mm" version="1.1" style="shape-rendering:geometricPrecision; text-rendering:geometricPrecision; image-rendering:optimizeQuality; fill-rule:evenodd; clip-rule:evenodd"
viewBox="0 0 271 271"
 xmlns:xlink="http://www.w3.org/1999/xlink">
 <defs>
  <style type="text/css">
   <![CDATA[
    .fil0 {fill:black}
   ]]>
  </style>
 </defs>
 <g id="Camada_x0020_1">
  <metadata id="CorelCorpID_0Corel-Layer"/>
  <path class="fil0" d="M136 -136c149,0 271,122 271,271 0,150 -122,272 -271,272 -150,0 -271,-122 -271,-272 0,-149 121,-271 271,-271zm0 34c131,0 237,106 237,237 0,131 -106,238 -237,238 -131,0 -237,-107 -237,-238 0,-131 106,-237 237,-237zm-8 51l-35 43 0 220 34 0 1 -263zm50 42l-35 -42 1 263 34 0 0 -221zm-68 331l51 0 0 -76 34 0 0 -17 -119 0 0 17 34 0 0 76zm26 -441c140,0 254,114 254,254 0,141 -114,255 -254,255 -141,0 -254,-114 -254,-255 0,-140 113,-254 254,-254z"/>
 </g>
</svg>
