<?xml version="1.0" encoding="UTF-8"?>
<!DOCTYPE svg PUBLIC "-//W3C//DTD SVG 1.1//EN" "http://www.w3.org/Graphics/SVG/1.1/DTD/svg11.dtd">
<!-- Creator: CorelDRAW X7 -->
<svg xmlns="http://www.w3.org/2000/svg" xml:space="preserve" width="2.7092mm" height="2.7092mm" version="1.1" style="shape-rendering:geometricPrecision; text-rendering:geometricPrecision; image-rendering:optimizeQuality; fill-rule:evenodd; clip-rule:evenodd"
viewBox="0 0 271 271"
 xmlns:xlink="http://www.w3.org/1999/xlink">
 <defs>
  <style type="text/css">
   <![CDATA[
    .fil0 {fill:black}
   ]]>
  </style>
 </defs>
 <g id="Camada_x0020_1">
  <metadata id="CorelCorpID_0Corel-Layer"/>
  <path class="fil0" d="M135 -135c150,0 271,121 271,270 0,150 -121,271 -271,271 -149,0 -270,-121 -270,-271 0,-149 121,-270 270,-270zm0 16c141,0 254,114 254,254 0,141 -113,254 -254,254 -140,0 -254,-113 -254,-254 0,-140 114,-254 254,-254z"/>
  <path class="fil0" d="M135 -85c122,0 222,97 221,220 -2,124 -100,223 -221,221 -120,-2 -220,-99 -220,-221 0,-121 99,-220 220,-220zm-34 106l-25 30 0 42 17 42 17 17 0 26 -42 17 -43 0 -17 17 -8 50 271 0 -9 -50 -16 -17 -43 0 -42 -17 0 -26 17 -17 17 -42 0 -42 -25 -30 -35 -13 -34 13z"/>
 </g>
</svg>
