<?xml version="1.0" encoding="UTF-8"?>
<!DOCTYPE svg PUBLIC "-//W3C//DTD SVG 1.1//EN" "http://www.w3.org/Graphics/SVG/1.1/DTD/svg11.dtd">
<!-- Creator: CorelDRAW X7 -->
<svg xmlns="http://www.w3.org/2000/svg" xml:space="preserve" width="2.7092mm" height="2.7092mm" version="1.1" style="shape-rendering:geometricPrecision; text-rendering:geometricPrecision; image-rendering:optimizeQuality; fill-rule:evenodd; clip-rule:evenodd"
viewBox="0 0 271 271"
 xmlns:xlink="http://www.w3.org/1999/xlink">
 <defs>
  <style type="text/css">
   <![CDATA[
    .fil0 {fill:black}
   ]]>
  </style>
 </defs>
 <g id="Camada_x0020_1">
  <metadata id="CorelCorpID_0Corel-Layer"/>
  <path class="fil0" d="M136 -136c149,0 271,122 271,271 0,150 -122,272 -271,272 -150,0 -271,-122 -271,-272 0,-149 121,-271 271,-271zm0 34c130,0 236,107 236,237 0,131 -106,238 -236,238 -131,0 -237,-107 -237,-238 0,-130 106,-237 237,-237zm84 85l-76 76 25 26 102 -102 -51 0zm-161 161l-8 8 25 26 9 -9 -26 -25zm229 -93l0 -51 -102 102 26 25 76 -76zm-305 -51l186 186 -25 26 -161 -161 0 -51zm305 254l-34 34 -51 -51 -25 25 -26 -25 85 -85 25 26 -25 25 51 51zm-288 -271l51 0 161 161 -26 25 -186 -186zm93 212l25 25 9 -8 -26 -26 -8 9zm-110 59l34 34 51 -51 25 25 25 -25 -84 -85 -26 26 26 25 -51 51zm153 -373c140,0 253,114 253,254 0,141 -113,254 -253,254 -141,0 -254,-113 -254,-254 0,-140 113,-254 254,-254z"/>
 </g>
</svg>
