<?xml version="1.0" encoding="UTF-8"?>
<!DOCTYPE svg PUBLIC "-//W3C//DTD SVG 1.1//EN" "http://www.w3.org/Graphics/SVG/1.1/DTD/svg11.dtd">
<!-- Creator: CorelDRAW X7 -->
<svg xmlns="http://www.w3.org/2000/svg" xml:space="preserve" width="2.7092mm" height="2.7092mm" version="1.1" style="shape-rendering:geometricPrecision; text-rendering:geometricPrecision; image-rendering:optimizeQuality; fill-rule:evenodd; clip-rule:evenodd"
viewBox="0 0 271 271"
 xmlns:xlink="http://www.w3.org/1999/xlink">
 <defs>
  <style type="text/css">
   <![CDATA[
    .fil0 {fill:black}
   ]]>
  </style>
 </defs>
 <g id="Camada_x0020_1">
  <metadata id="CorelCorpID_0Corel-Layer"/>
  <path class="fil0" d="M136 -85c121,0 220,99 220,220 0,122 -99,221 -220,221 -122,0 -221,-99 -221,-221 0,-121 99,-220 221,-220zm0 -51c149,0 271,122 271,271 0,150 -122,272 -271,272 -150,0 -271,-122 -271,-272 0,-149 121,-271 271,-271zm0 17c140,0 254,114 254,254 0,141 -114,255 -254,255 -141,0 -254,-114 -254,-255 0,-140 113,-254 254,-254zm-1 136l-34 -17 -10 -17 -7 0 0 17 -33 0 -51 17 -17 24 -17 44 35 33 33 1 17 33 17 51 -17 85 84 -17 85 17 -17 -85 17 -51 17 -33 33 -1 35 -33 -18 -44 -16 -24 -51 -17 -34 0 0 -17 -7 0 -10 17 -34 17zm-34 25l68 0 0 -25 9 -9 8 9 0 34 17 34 25 34 -8 8 -34 -42 -17 -34 -68 0 -17 34 -33 42 -9 -8 26 -34 16 -34 0 -34 9 -9 8 9 0 25zm34 59l-34 18 -17 16 17 -8 34 -9 34 9 17 8 -17 -17 -34 -17zm0 136l-8 -42 -26 -9 26 -8 8 -43 9 43 25 8 -25 9 -9 42z"/>
 </g>
</svg>
