<?xml version="1.0" encoding="UTF-8"?>
<!DOCTYPE svg PUBLIC "-//W3C//DTD SVG 1.1//EN" "http://www.w3.org/Graphics/SVG/1.1/DTD/svg11.dtd">
<!-- Creator: CorelDRAW X7 -->
<svg xmlns="http://www.w3.org/2000/svg" xml:space="preserve" width="64px" height="64px" version="1.1" style="shape-rendering:geometricPrecision; text-rendering:geometricPrecision; image-rendering:optimizeQuality; fill-rule:evenodd; clip-rule:evenodd"
viewBox="0 0 64 64"
 xmlns:xlink="http://www.w3.org/1999/xlink">
 <defs>
  <style type="text/css">
   <![CDATA[
    .fil0 {fill:black}
   ]]>
  </style>
 </defs>
 <g id="Camada_x0020_1">
  <metadata id="CorelCorpID_0Corel-Layer"/>
  <path class="fil0" d="M27 10l-1 -2 -2 0 0 2 -4 0 -7 4 -3 3 -2 6 6 6 4 -1 3 7 1 7 -2 10 0 4 6 -3 6 -1 6 1 6 3 0 -4 -2 -10 1 -7 3 -7 4 1 6 -6 -2 -6 -3 -3 -7 -4 -4 0 0 -2 -2 0 -1 2 -5 2 -5 -2 0 0 0 0zm5 38l0 -7 -6 0 6 0 0 -6 0 6 6 0 -6 0 0 7zm-5 -18l-3 1 4 -3 4 -1 4 1 4 3 -3 -1 -5 -1 -5 1zm5 -11l-7 -2 0 6 -5 5 -1 -1 5 -5 0 -10 1 -1 0 5 7 2 7 -2 0 -5 1 1 0 10 5 5 -1 1 -5 -5 0 -6 -7 2z"/>
 </g>
</svg>
