<?xml version="1.0" encoding="utf-8"?>
<!-- Generated by IcoMoon.io -->
<!DOCTYPE svg PUBLIC "-//W3C//DTD SVG 1.1//EN" "http://www.w3.org/Graphics/SVG/1.1/DTD/svg11.dtd">
<svg version="1.1" xmlns="http://www.w3.org/2000/svg" xmlns:xlink="http://www.w3.org/1999/xlink" width="64" height="64" viewBox="0 0 64 64">
<path fill="#000" d="M32 0c-17.67 0-32 14.33-32 32s14.33 32 32 32c17.67 0 32-14.33 32-32s-14.33-32-32-32zM43.5 15c2.76 0 5 2.24 5 5s-2.24 5-5 5c-1.52 0-2.89-0.68-3.8-1.75l-14.36 7.49c0.1 0.4 0.16 0.82 0.16 1.26s-0.060 0.86-0.16 1.26l14.68 7.66c0.92-1.17 2.34-1.92 3.94-1.92 2.76 0 5 2.24 5 5s-2.24 5-5 5c-2.76 0-5-2.24-5-5 0-0.51 0.080-1 0.22-1.47l-14.61-7.62c-0.91 1.26-2.39 2.090-4.070 2.090-2.76 0-5-2.24-5-5s2.24-5 5-5c1.68 0 3.16 0.83 4.070 2.090l14.22-7.42c-0.19-0.52-0.29-1.080-0.29-1.67 0-2.76 2.24-5 5-5z"></path>
</svg>
