<?xml version="1.0" encoding="utf-8"?>
<!-- Generated by IcoMoon.io -->
<!DOCTYPE svg PUBLIC "-//W3C//DTD SVG 1.1//EN" "http://www.w3.org/Graphics/SVG/1.1/DTD/svg11.dtd">
<svg version="1.1" xmlns="http://www.w3.org/2000/svg" xmlns:xlink="http://www.w3.org/1999/xlink" width="64" height="64" viewBox="0 0 64 64">
<path fill="#000" d="M32 0c17.67 0 32 14.33 32 32s-14.33 32-32 32c-17.67 0-32-14.33-32-32s14.33-32 32-32zM26.96 16.34v29.22l6.52 2.1v-24.5c0-2.55 2.58-2.28 2.58 0.85v9.78c4.070 1.99 7.27 0 7.27-5.25 0-5.39-1.88-7.78-7.39-9.7l-8.98-2.5zM34.71 43.38v3.84l14.24-5.19c8.99-3.31-3.69-8.77-14.24-5.070v3.97l6.98-2.49c2.95-1.070 6.27 0.15 3.5 1.15l-10.48 3.79zM16.35 37.37c-3.47 1.21-7.24 3.93-1.35 5.62 3.76 1.25 7.1 1.33 10.69 0.71v-3.44c-2.12 0.78-4.91 2.13-7.12 1.39-2.76-0.92 5.080-3.060 7.13-3.8v-3.84l-9.35 3.36z"></path>
</svg>
