<?xml version="1.0" encoding="utf-8"?>
<!-- Generated by IcoMoon.io -->
<!DOCTYPE svg PUBLIC "-//W3C//DTD SVG 1.1//EN" "http://www.w3.org/Graphics/SVG/1.1/DTD/svg11.dtd">
<svg version="1.1" xmlns="http://www.w3.org/2000/svg" xmlns:xlink="http://www.w3.org/1999/xlink" width="64" height="64" viewBox="0 0 64 64">
<path fill="#000" d="M32 0c17.67 0 32 14.33 32 32s-14.33 32-32 32c-17.67 0-32-14.33-32-32s14.33-32 32-32zM32.4 29.14v6.86h11.34c-0.46 2.94-3.42 8.63-11.34 8.63-6.82 0-12.4-5.65-12.4-12.63 0-6.97 5.57-12.62 12.4-12.62 3.89 0 6.48 1.65 7.98 3.080l5.42-5.23c-3.49-3.26-8-5.23-13.4-5.23-11.060 0-20 8.94-20 20s8.94 20 20 20c11.54 0 19.2-8.11 19.2-19.54 0-1.32-0.14-2.32-0.31-3.32h-18.89z"></path>
</svg>
