<?xml version="1.0" encoding="utf-8"?>
<!-- Generated by IcoMoon.io -->
<!DOCTYPE svg PUBLIC "-//W3C//DTD SVG 1.1//EN" "http://www.w3.org/Graphics/SVG/1.1/DTD/svg11.dtd">
<svg version="1.1" xmlns="http://www.w3.org/2000/svg" xmlns:xlink="http://www.w3.org/1999/xlink" width="64" height="64" viewBox="0 0 64 64">
<path fill="#000" d="M32 0c-17.67 0-32 14.33-32 32s14.33 32 32 32c17.67 0 32-14.33 32-32s-14.33-32-32-32zM29.89 35.4c-1.13-0.71-1.89-1.96-1.89-3.4 0-2.21 1.79-4 4-4s4 1.79 4 4c0 1.44-0.76 2.69-1.89 3.4l11.86 19.1h-7.14l-2.8-4.5h-8.060l-2.8 4.5h-7.14l11.86-19.1zM40.38 23.41c2.23 2.18 3.62 5.22 3.62 8.59 0 2.74-0.92 5.27-2.47 7.29l-1.15-1.84c1.030-1.57 1.62-3.44 1.62-5.45 0-2.64-1.030-5.050-2.7-6.84l1.080-1.75zM22.47 39.29c-1.55-2.020-2.47-4.55-2.47-7.29 0-3.37 1.39-6.41 3.62-8.59l1.080 1.75c-1.67 1.79-2.7 4.2-2.7 6.84 0 2.010 0.59 3.88 1.62 5.45l-1.15 1.84zM43.6 18.24c3.91 3.3 6.4 8.24 6.4 13.76 0 4.92-1.97 9.37-5.17 12.62l-1.14-1.84c2.62-2.83 4.22-6.62 4.22-10.78 0-4.77-2.1-9.050-5.43-11.97l1.12-1.79zM19.17 44.62c-3.2-3.25-5.17-7.7-5.17-12.62 0-5.52 2.49-10.46 6.4-13.76l1.12 1.79c-3.33 2.92-5.43 7.2-5.43 11.97 0 4.16 1.6 7.95 4.22 10.78l-1.14 1.84zM46.79 13.1c5.61 4.39 9.21 11.22 9.21 18.9 0 7.070-3.060 13.44-7.94 17.83l-0.8-1.3c4.45-4.11 7.24-9.99 7.24-16.53 0-7.14-3.33-13.5-8.51-17.62l0.8-1.28zM15.94 49.83c-4.88-4.39-7.94-10.76-7.94-17.83 0-7.68 3.6-14.51 9.21-18.9l0.8 1.28c-5.18 4.12-8.51 10.48-8.51 17.62 0 6.54 2.79 12.42 7.24 16.53l-0.8 1.3z"></path>
</svg>
