<?xml version="1.0" encoding="utf-8"?>
<!-- Generated by IcoMoon.io -->
<!DOCTYPE svg PUBLIC "-//W3C//DTD SVG 1.1//EN" "http://www.w3.org/Graphics/SVG/1.1/DTD/svg11.dtd">
<svg version="1.1" xmlns="http://www.w3.org/2000/svg" xmlns:xlink="http://www.w3.org/1999/xlink" width="64" height="64" viewBox="0 0 64 64">
<path fill="#000" d="M31.69-0.070c-17.48 0-31.88 14.4-31.88 31.88 0 17.72 14.4 32.12 31.88 32.12 17.72 0 32.12-14.4 32.12-32.12 0-17.48-14.4-31.88-32.12-31.88zM32.19 20.070c4.62 0 8.32 4.010 7.97 8.62-0.29 5.090-4.010 12.16-7.33 18.63h10.36l7 4.75h-36l7-4.75h10.36c-3.6-7.040-7.26-14.27-7.36-19.25 0-4.42 3.58-8 8-8zM32.19 25.33c1.65 0 2.99 1.34 2.99 2.99s-1.34 2.99-2.99 2.99c-1.66 0-3-1.34-3-2.99s1.34-2.99 3-2.99z"></path>
</svg>
