<?xml version="1.0" encoding="utf-8"?>
<!-- Generated by IcoMoon.io -->
<!DOCTYPE svg PUBLIC "-//W3C//DTD SVG 1.1//EN" "http://www.w3.org/Graphics/SVG/1.1/DTD/svg11.dtd">
<svg version="1.1" xmlns="http://www.w3.org/2000/svg" xmlns:xlink="http://www.w3.org/1999/xlink" width="64" height="64" viewBox="0 0 64 64">
<path fill="#000" d="M32 0c-18 0-32 14-32 32s14 32 32 32c18 0 32-14 32-32s-14-32-32-32zM14 49l2-10 2-1 5-1 4-3v-3l-1-2-2-3v-7l5-5h3l5 5v7l-2 3-1 2v3c0 1 0 3 0 4 0 5 4 9 9 9 1 0 2 0 3-1l1 3h-33zM43 31c4 0 7 3 7 7s-3 8-7 8c-5 0-8-4-8-8s3-7 8-7zM38 40v-3h3v-3h3v3h3v3h-3v3h-3v-3h-3z"></path>
</svg>
