<?xml version="1.0" encoding="utf-8"?>
<!-- Generated by IcoMoon.io -->
<!DOCTYPE svg PUBLIC "-//W3C//DTD SVG 1.1//EN" "http://www.w3.org/Graphics/SVG/1.1/DTD/svg11.dtd">
<svg version="1.1" xmlns="http://www.w3.org/2000/svg" xmlns:xlink="http://www.w3.org/1999/xlink" width="64" height="64" viewBox="0 0 64 64">
<path fill="#000" d="M32 0c-17.67 0-32 14.33-32 32s14.33 32 32 32c17.67 0 32-14.33 32-32s-14.33-32-32-32zM32 16.5l-4 1-6 1h-4l1 15 1 5 5 8 7 4.5 7-4.5 5.12-7.62 0.88-5.38 1.030-14.98-5.030-0.020-4.96-0.98-4.040-1.020zM32 21l2.99 0.75 3.67 0.73 3.72 0.010-0.77 11.070-0.65 3.99-3.78 5.62-4.22 2.71-0.96-14.38v15l-5.17-3.33-3.69-5.91-0.74-3.7-0.74-11.080h2.95l4.44-0.74 2.95-0.74zM32 19l3.45 0.87 4.25 0.84 4.3 0.020-0.88 12.81-0.76 4.6-4.37 6.51-5.99 3.85-5.98-3.85-4.28-6.84-0.85-4.27-0.86-12.83h3.42l5.13-0.85 3.42-0.86z"></path>
</svg>
