<?xml version="1.0" encoding="utf-8"?>
<!-- Generated by IcoMoon.io -->
<!DOCTYPE svg PUBLIC "-//W3C//DTD SVG 1.1//EN" "http://www.w3.org/Graphics/SVG/1.1/DTD/svg11.dtd">
<svg version="1.1" xmlns="http://www.w3.org/2000/svg" xmlns:xlink="http://www.w3.org/1999/xlink" width="64" height="64" viewBox="0 0 64 64">
<path fill="#000" d="M32 0c17.67 0 32 14.33 32 32s-14.33 32-32 32c-17.67 0-32-14.33-32-32s14.33-32 32-32zM49.79 12h-35.58c-1.22 0-2.21 0.99-2.21 2.21v35.58c0 1.22 0.99 2.21 2.21 2.21h19.16v-15.49h-5.22v-6.030h5.22v-4.46c0-5.17 3.15-7.98 7.76-7.98 2.21 0 4.11 0.16 4.66 0.24v5.4h-3.2c-2.5 0-2.99 1.19-2.99 2.94v3.85h5.97l-0.77 6.040h-5.2v15.49h10.19c1.22 0 2.21-0.99 2.21-2.21v-35.58c0-1.22-0.99-2.21-2.21-2.21z"></path>
</svg>
