<?xml version="1.0" encoding="utf-8"?>
<!-- Generated by IcoMoon.io -->
<!DOCTYPE svg PUBLIC "-//W3C//DTD SVG 1.1//EN" "http://www.w3.org/Graphics/SVG/1.1/DTD/svg11.dtd">
<svg version="1.1" xmlns="http://www.w3.org/2000/svg" xmlns:xlink="http://www.w3.org/1999/xlink" width="64" height="64" viewBox="0 0 64 64">
<path fill="#000" d="M32.12 0c-17.72 0-32.12 14.4-32.12 31.88 0 17.72 14.4 32.12 32.12 32.12 17.48 0 31.88-14.4 31.88-32.12 0-17.48-14.4-31.88-31.88-31.88zM10 48l2-8 2-2 9-2 5-2v-4l-4-6v-10l4-6h8l4 6v10l-4 6v4l5 2 9 2 2 2 2 8h-44z"></path>
</svg>
