<?xml version="1.0" encoding="utf-8"?>
<!-- Generated by IcoMoon.io -->
<!DOCTYPE svg PUBLIC "-//W3C//DTD SVG 1.1//EN" "http://www.w3.org/Graphics/SVG/1.1/DTD/svg11.dtd">
<svg version="1.1" xmlns="http://www.w3.org/2000/svg" xmlns:xlink="http://www.w3.org/1999/xlink" width="64" height="64" viewBox="0 0 64 64">
<path fill="#000" d="M32 0c-17.67 0-32 14.33-32 32s14.33 32 32 32c17.67 0 32-14.33 32-32s-14.33-32-32-32zM12 30.43c0-13.68 2.36-12.49 20-12.56 0 0 8.4 0.010 14 0.42 6.73 0.65 6 7.87 6 15.28 0 6.4-0.17 11.58-6 12.14l-27.6 0.020c-5.97-0.85-6.4-4.28-6.4-12.15v-3.15zM27.87 37.25v-11.24l10.81 5.64-10.81 5.6z"></path>
</svg>
