<?xml version="1.0" encoding="utf-8"?>
<!-- Generated by IcoMoon.io -->
<!DOCTYPE svg PUBLIC "-//W3C//DTD SVG 1.1//EN" "http://www.w3.org/Graphics/SVG/1.1/DTD/svg11.dtd">
<svg version="1.1" xmlns="http://www.w3.org/2000/svg" xmlns:xlink="http://www.w3.org/1999/xlink" width="64" height="64" viewBox="0 0 64 64">
<path fill="#000" d="M32 0c-17.67 0-32 14.33-32 32s14.33 32 32 32c17.67 0 32-14.33 32-32s-14.33-32-32-32zM32 12c11.040 0 20 8.96 20 20s-8.96 20-20 20c-11.040 0-20-8.96-20-20s8.96-20 20-20zM32 16c-9.39 0-16 6.61-16 16s6.61 16 16 16c9.39 0 16-6.61 16-16s-6.61-16-16-16zM33.71 18.98v11.31h11.31c1.99 0 1.98 3.51 0 3.51h-14.81v-14.82c0-1.98 3.5-1.98 3.5 0v0z"></path>
</svg>
