<?xml version="1.0" encoding="utf-8"?>
<!-- Generated by IcoMoon.io -->
<!DOCTYPE svg PUBLIC "-//W3C//DTD SVG 1.1//EN" "http://www.w3.org/Graphics/SVG/1.1/DTD/svg11.dtd">
<svg version="1.1" xmlns="http://www.w3.org/2000/svg" xmlns:xlink="http://www.w3.org/1999/xlink" width="64" height="64" viewBox="0 0 64 64">
<path fill="#000" d="M32 0c17.67 0 32 14.33 32 32s-14.33 32-32 32c-17.67 0-32-14.33-32-32s14.33-32 32-32zM32 12c-9.67 0-17.5 7.83-17.5 17.5 0 9.17 8.33 16.67 17.5 16.67v5.83c10.58-5.17 17.5-13.67 17.5-22.5 0-9.67-7.83-17.5-17.5-17.5zM23.67 32h4.16v4.17c1.84 0 3.34-1.84 3.34-4.17v-7.5h-7.5v7.5zM33.67 24.5v7.5h4.16v4.17c1.84 0 3.34-1.84 3.34-4.17v-7.5h-7.5z"></path>
</svg>
