<?xml version="1.0" encoding="utf-8"?>
<!-- Generated by IcoMoon.io -->
<!DOCTYPE svg PUBLIC "-//W3C//DTD SVG 1.1//EN" "http://www.w3.org/Graphics/SVG/1.1/DTD/svg11.dtd">
<svg version="1.1" xmlns="http://www.w3.org/2000/svg" xmlns:xlink="http://www.w3.org/1999/xlink" width="64" height="64" viewBox="0 0 64 64">
<path fill="#000" d="M32 0c-17.67 0-32 14.33-32 32s14.33 32 32 32c17.67 0 32-14.33 32-32s-14.33-32-32-32zM38.47 25.75c3.64 0.86 7.68 2.64 10.58 6.2-2.87 3.53-6.86 5.31-10.47 6.18 1.5-1.6 2.42-3.76 2.42-6.13 0-2.43-0.96-4.63-2.53-6.25zM33.010 40.94c-0.33 0.040-0.67 0.060-1.010 0.060-0.31 0-0.62-0.010-0.92-0.050l-5.51 14.83 2.55-15.050c-0.9-0.090-1.82-0.22-2.76-0.39l-10.93 9.040 8.12-9.77c-1.92-0.62-3.86-1.54-5.7-2.83l-8.85 1.5 7.31-2.7c-1.18-1.010-2.32-2.21-3.38-3.63 1.060-1.41 2.2-2.61 3.38-3.62l-7.31-2.7 8.85 1.5c1.84-1.29 3.78-2.21 5.7-2.83l-8.12-9.77 10.93 9.040c0.94-0.17 1.86-0.3 2.76-0.39l-2.55-15.060 5.53 14.89 0.99-0.010 0.9 0.010 5.53-14.89-2.56 15.060c0.91 0.090 1.82 0.22 2.77 0.39l10.93-9.040-8.12 9.77c1.92 0.62 3.85 1.54 5.7 2.83l8.85-1.5-7.31 2.7c1.18 1.010 2.31 2.21 3.38 3.62-1.070 1.42-2.2 2.62-3.38 3.63l7.31 2.7-8.85-1.5c-1.85 1.29-3.78 2.21-5.7 2.83l8.12 9.77-10.93-9.040c-0.95 0.17-1.86 0.3-2.77 0.39l2.56 15.050-5.51-14.84zM25.39 38.11c-3.58-0.88-7.51-2.67-10.35-6.16 2.87-3.52 6.85-5.31 10.46-6.18-1.55 1.62-2.5 3.81-2.5 6.23 0 2.36 0.91 4.5 2.39 6.11zM33.29 38.88c3.25-0.6 5.71-3.46 5.71-6.88 0-3.84-3.090-6.95-6.91-7h-0.090c-3.87 0-7 3.13-7 7 0 3.41 2.44 6.26 5.68 6.88 0.47 0.020 0.92 0.030 1.32 0.030h0.090c0.37 0 0.77-0.010 1.2-0.030zM32 27c2.76 0 5 2.24 5 5s-2.24 5-5 5c-2.76 0-5-2.24-5-5s2.24-5 5-5z"></path>
</svg>
