<?xml version="1.0" encoding="utf-8"?>
<!-- Generated by IcoMoon.io -->
<!DOCTYPE svg PUBLIC "-//W3C//DTD SVG 1.1//EN" "http://www.w3.org/Graphics/SVG/1.1/DTD/svg11.dtd">
<svg version="1.1" xmlns="http://www.w3.org/2000/svg" xmlns:xlink="http://www.w3.org/1999/xlink" width="64" height="64" viewBox="0 0 64 64">
<path fill="#000" d="M32 0c17.67 0 32 14.33 32 32s-14.33 32-32 32c-17.67 0-32-14.33-32-32s14.33-32 32-32zM15.070 27.42v10.34c0 1.37 1.11 2.47 2.47 2.47s2.47-1.1 2.47-2.47v-10.34c0-3.24-4.94-3.24-4.94 0zM48.93 27.42c0-1.36-1.1-2.47-2.47-2.47-1.36 0-2.47 1.11-2.47 2.47v10.34c0 1.36 1.11 2.47 2.48 2.47 1.36 0 2.46-1.11 2.46-2.47v-10.34zM20.97 25.72v15.72c0 1.46 1.18 2.64 2.64 2.64h1.79v5.47c0 1.36 1.11 2.47 2.47 2.47s2.47-1.11 2.47-2.47v-5.47h3.33v5.47c0 1.36 1.11 2.47 2.47 2.47s2.47-1.11 2.47-2.48v-5.46h1.8c1.45 0 2.63-1.18 2.63-2.64v-15.73l-22.070 0.010zM37.79 15.85l1.57-3.22c0.1-0.17 0.010-0.52-0.16-0.62-0.17-0.080-0.54 0.020-0.63 0.19l-1.74 3.18c-1.47-0.66-3.1-1.020-4.84-1.020-1.73 0-3.37 0.36-4.83 1.010l-1.73-3.17c-0.090-0.17-0.53-0.28-0.69-0.19-0.17 0.090-0.35 0.42-0.26 0.59l1.74 3.25c-3.39 1.75-5.26 5.11-5.26 8.93h22c0-3.82-1.79-7.18-5.17-8.93zM36.96 20.78c-0.55 0-1-0.45-1-1s0.45-1 1-1c0.55 0 1 0.45 1 1s-0.45 1-1 1zM26.96 20.78c-0.55 0-1-0.45-1-1s0.45-1 1-1c0.55 0 1 0.45 1 1s-0.45 1-1 1z"></path>
</svg>
