<?xml version="1.0" encoding="utf-8"?>
<!-- Generated by IcoMoon.io -->
<!DOCTYPE svg PUBLIC "-//W3C//DTD SVG 1.1//EN" "http://www.w3.org/Graphics/SVG/1.1/DTD/svg11.dtd">
<svg version="1.1" xmlns="http://www.w3.org/2000/svg" xmlns:xlink="http://www.w3.org/1999/xlink" width="64" height="64" viewBox="0 0 64 64">
<path fill="#000" d="M31.88 0c17.72 0 32.12 14.4 32.12 31.88 0 17.72-14.4 32.12-32.12 32.12-17.48 0-31.88-14.4-31.88-32.12 0-17.48 14.4-31.88 31.88-31.88zM24.090 54.55v-3.060c-3.78-2.6-6.14-6.85-6.14-11.58 0-0.47 0-1.18 0.24-1.65l-1.42-2.83c-0.47 1.41-0.71 3.060-0.71 4.48 0 4.020 1.42 7.56 3.54 10.39-5.67-4.010-9.68-10.63-9.68-18.42 0-2.83 0.71-5.67 1.65-8.26l-1.41-1.42c-1.42 2.83-2.13 6.37-2.13 9.68 0 10.63 6.61 19.37 16.060 22.67zM38 52l1-4 3 8 1.93-0.030v-4.010l-1.89-9.92-8.040-2.040v-2l2-2v-6l-2-2h-4l-2 2v6l1.99 2.020 0.010 1.98h-4l-4-6-2.16-12.030 2.13-1.89 25.98-8.030 2.12-4.020h-4.010l-28.1 9.92-1.96 2.050-3.5 2.5 1 1 2.5-1.5 1.96-0.030 0.040 12.030 6.1 12.050 1.89 4.020v5.9h12.040l-0.030-3.97zM31.88 24.090c-3.31 0-6.37 0.94-8.97 2.83l0.23 2.13c2.37-1.89 5.43-3.070 8.74-3.070 7.79 0 14.17 6.37 14.17 13.93 0 2.36-0.47 4.49-1.42 6.38l0.71 2.6c1.66-2.37 2.6-5.67 2.6-8.98 0-8.74-7.080-15.82-16.060-15.82zM31.88 8.030v0c-9.45 0-17.71 5.67-21.73 13.7l4.49-3.070c4.020-5.2 10.16-8.74 17.24-8.74 0.94 0 1.65 0.24 2.6 0.24l3.78-1.42c-2.13-0.47-4.25-0.71-6.38-0.71zM47.7 13.93l-2.12 0.71c4.96 4.020 8.5 10.39 8.5 17.24 0 7.32-3.54 13.46-8.74 17.48l0.47 2.12c6.15-4.25 10.16-11.33 10.16-19.6 0-7.080-3.070-13.46-8.27-17.95z"></path>
</svg>
