<?xml version="1.0" encoding="utf-8"?>
<!-- Generated by IcoMoon.io -->
<!DOCTYPE svg PUBLIC "-//W3C//DTD SVG 1.1//EN" "http://www.w3.org/Graphics/SVG/1.1/DTD/svg11.dtd">
<svg version="1.1" xmlns="http://www.w3.org/2000/svg" xmlns:xlink="http://www.w3.org/1999/xlink" width="64" height="64" viewBox="0 0 64 64">
<path fill="#000" d="M31.5 0c-17.4 0-31.5 14.1-31.5 31.5s14.1 31.5 31.5 31.5c17.4 0 31.5-14.1 31.5-31.5s-14.1-31.5-31.5-31.5zM32 12c-11.050 0-20 8.95-20 20s8.95 20 20 20c11.050 0 20-8.95 20-20s-8.95-20-20-20zM32 16c8.84 0 16 7.16 16 16s-7.16 16-16 16c-8.84 0-16-7.16-16-16s7.16-16 16-16zM42 22l-20 20c2.56 2.56 6.090 4.14 10 4.14 7.81 0 14.14-6.33 14.14-14.14 0-3.9-1.58-7.44-4.14-10zM32 14c9.94 0 18 8.060 18 18s-8.060 18-18 18c-9.94 0-18-8.060-18-18s8.060-18 18-18z"></path>
</svg>
