<?xml version="1.0" encoding="utf-8"?>
<!-- Generated by IcoMoon.io -->
<!DOCTYPE svg PUBLIC "-//W3C//DTD SVG 1.1//EN" "http://www.w3.org/Graphics/SVG/1.1/DTD/svg11.dtd">
<svg version="1.1" xmlns="http://www.w3.org/2000/svg" xmlns:xlink="http://www.w3.org/1999/xlink" width="64" height="64" viewBox="0 0 64 64">
<path fill="#000" d="M32 0c-17.67 0-32 14.33-32 32s14.33 32 32 32c17.67 0 32-14.33 32-32s-14.33-32-32-32zM45 22l9 4-10 2 1 8-20-20 9 1 3-9 3 9 11-5-6 10zM12 14l9 1 22 23-3.5 3.5-27.5-27.5zM11 15l27.5 27.5-4 4-22.5-22.5-1-9zM48 55l-7-7-4 4-3-3 12-12 3 3-4 4 7 7v1l-3 3h-1zM45 17l-3 5 7 3-7 1v4l-11-11 4 1 2-7 2 7 6-3z"></path>
</svg>
