<?xml version="1.0" encoding="utf-8"?>
<!-- Generated by IcoMoon.io -->
<!DOCTYPE svg PUBLIC "-//W3C//DTD SVG 1.1//EN" "http://www.w3.org/Graphics/SVG/1.1/DTD/svg11.dtd">
<svg version="1.1" xmlns="http://www.w3.org/2000/svg" xmlns:xlink="http://www.w3.org/1999/xlink" width="64" height="64" viewBox="0 0 64 64">
<path fill="#000" d="M32 0c17.67 0 32 14.33 32 32s-14.33 32-32 32c-17.67 0-32-14.33-32-32s14.33-32 32-32zM26 8h-2v2h-4l-9 6-3 7 6 6 3-1 4 6 1 7-2 11v4l12-1 12 1v-4l-2-11 1-7 4-6 3 1 6-6-3-7-9-6h-4v-2h-2l-1 2-5 2-5-2-1-2zM32 19l-7-2v6l-5 5-1-1 5-5v-10h1v4l7 2 7-2v-4h1v10l5 5-1 1-5-5v-6l-7 2zM32 48l-1-6-5-1 5-1 1-5 1 5 5 1-5 1-1 6zM32 28l-4 1-4 2 8-1 8 1-4-2-4-1z"></path>
</svg>
