<?xml version="1.0" encoding="utf-8"?>
<!-- Generated by IcoMoon.io -->
<!DOCTYPE svg PUBLIC "-//W3C//DTD SVG 1.1//EN" "http://www.w3.org/Graphics/SVG/1.1/DTD/svg11.dtd">
<svg version="1.1" xmlns="http://www.w3.org/2000/svg" xmlns:xlink="http://www.w3.org/1999/xlink" width="64" height="64" viewBox="0 0 64 64">
<path fill="#000" d="M32 0c-17.67 0-32 14.33-32 32s14.33 32 32 32c17.67 0 32-14.33 32-32s-14.33-32-32-32zM32.52 27.010c1.11 0.090 2.17 0.35 3.15 0.77 0.38-4.79 4.41-6.48 3.79-11.8h2.77c0.24 5.93-5.010 7.35-3.78 13.57 2.030 1.83 3.31 4.48 3.31 7.43 0 5.52-4.48 10-10 10s-10-4.48-10-10c0-2.27 0.76-4.36 2.030-6.040-1.6-7.43 4.29-8.62 3.54-14.96h2.78c0.22 5.64-4.52 7.2-3.92 12.7 1.12-0.75 2.4-1.29 3.78-1.54 0.78-5.060 5.68-6.63 2.97-14.16 1.010 0 2 0 3 0 2.15 7.47-2.96 9.070-3.42 14.030zM31.76 31.98c-2.76 0-5 2.24-5 5s2.24 5 5 5c2.76 0 5-2.24 5-5s-2.24-5-5-5zM31.76 29.98c3.86 0 7 3.14 7 7 0 3.87-3.14 7-7 7-3.87 0-7-3.13-7-7 0-3.86 3.13-7 7-7z"></path>
</svg>
