<?xml version="1.0" encoding="utf-8"?>
<!-- Generated by IcoMoon.io -->
<!DOCTYPE svg PUBLIC "-//W3C//DTD SVG 1.1//EN" "http://www.w3.org/Graphics/SVG/1.1/DTD/svg11.dtd">
<svg version="1.1" xmlns="http://www.w3.org/2000/svg" xmlns:xlink="http://www.w3.org/1999/xlink" width="64" height="64" viewBox="0 0 64 64">
<path fill="#000" d="M32 0c17.67 0 32 14.21 32 31.75 0 16.19-12.22 29.55-28 31.5v-5.25h-8v5.25c-15.78-1.95-28-15.31-28-31.5 0-17.54 14.33-31.75 32-31.75zM54.5 30.34c0-12.23-10.16-22.39-22.62-22.39-12.23 0-22.38 10.16-22.38 22.39 0 7.38 3.46 13.84 8.77 18 2.54 2.54 5.8 4.43 9.73 5.13v2.54l8-0.010v-2.54c3.92-0.69 6.96-2.58 9.73-5.12 5.31-4.15 8.77-10.62 8.77-18v0zM45.74 30.62c0 7.63-6.23 13.86-13.86 13.86-7.38 0-13.62-6.23-13.62-13.86 0-7.39 6.24-13.62 13.62-13.62 7.63 0 13.86 6.23 13.86 13.62zM50.38 30.5c0-10.080-8.41-18.25-18.5-18.25s-18.25 8.17-18.25 18.25c0 10.33 8.16 18.5 18.25 18.5s18.5-8.17 18.5-18.5z"></path>
</svg>
