<?xml version="1.0" encoding="utf-8"?>
<!-- Generated by IcoMoon.io -->
<!DOCTYPE svg PUBLIC "-//W3C//DTD SVG 1.1//EN" "http://www.w3.org/Graphics/SVG/1.1/DTD/svg11.dtd">
<svg version="1.1" xmlns="http://www.w3.org/2000/svg" xmlns:xlink="http://www.w3.org/1999/xlink" width="64" height="64" viewBox="0 0 64 64">
<path fill="#000" d="M32 0c17.67 0 32 14.33 32 32s-14.33 32-32 32c-17.67 0-32-14.33-32-32s14.33-32 32-32zM41.060 35.92c-4.87-2.45-3.53-2.17-5.99 0.63-1.35 1.53-9.32-5.11-7.63-6.78 2.090-2.080 1.36-2.18-0.33-6.24-1.29-3.090-8.69 1.58-3.11 9.010 2.020 2.69 8.28 9.64 14.47 8.72 2.26-0.34 5.38-3.75 2.87-5.21-0.030-0.010-0.25-0.12-0.28-0.13zM31.84 48.3c-3.34-0.040-5.96-0.97-8.79-2.65l-6.27 1.63 1.68-6.070c-11.23-17.55 11.72-34.59 25.33-21.040 10.18 10.13 3.28 27.43-10.84 28.11-0.16 0.010-0.95 0.020-1.11 0.020zM46.44 18.080c-0.040-0.030-0.94-0.92-0.98-0.95-16.37-14.94-41.98 4.99-30.64 24.6l-2.82 10.27 10.56-2.75c0.15 0.010 3.88 2.41 9.53 2.41 17.58 0 26.42-21.12 14.35-33.58z"></path>
</svg>
