<?xml version="1.0" encoding="utf-8"?>
<!-- Generated by IcoMoon.io -->
<!DOCTYPE svg PUBLIC "-//W3C//DTD SVG 1.1//EN" "http://www.w3.org/Graphics/SVG/1.1/DTD/svg11.dtd">
<svg version="1.1" xmlns="http://www.w3.org/2000/svg" xmlns:xlink="http://www.w3.org/1999/xlink" width="64" height="64" viewBox="0 0 64 64">
<path fill="#000" d="M32 0c-18 0-32 14-32 32s14 32 32 32c18 0 32-14 32-32s-14-32-32-32zM56 44h-9l-2-7-5-2 2-1v-2l-2-2-0.5-7.5 2.5-2.5h4l2.5 2.5-0.5 7.5-2 2v2l8 2 2 8zM18 46l2-8 10-4v-2l-3-4v-7l3-3h4l3 3v7l-3 4v2l10 4 2 8h-28zM8 44l2-8 8-2v-2l-2-2-0.5-7.5 2.5-2.5h4l2.5 2.5-0.5 7.5-2 2v2l2 1-5 2-2 7h-9z"></path>
</svg>
