<?xml version="1.0" encoding="utf-8"?>
<!-- Generated by IcoMoon.io -->
<!DOCTYPE svg PUBLIC "-//W3C//DTD SVG 1.1//EN" "http://www.w3.org/Graphics/SVG/1.1/DTD/svg11.dtd">
<svg version="1.1" xmlns="http://www.w3.org/2000/svg" xmlns:xlink="http://www.w3.org/1999/xlink" width="64" height="64" viewBox="0 0 64 64">
<path fill="#000" d="M32 0c-17.67 0-32 14.33-32 32s14.33 32 32 32c17.67 0 32-14.33 32-32s-14.33-32-32-32zM44.5 44v-19h3v19h-3zM47.5 49h-31v-3h31v3zM30.5 44v-29h3v29h-3zM23.5 44v-24h3v24h-3zM37.5 44v-21h3v21h-3zM16.5 44v-23h3v23h-3z"></path>
</svg>
