<?xml version="1.0" encoding="utf-8"?>
<!-- Generated by IcoMoon.io -->
<!DOCTYPE svg PUBLIC "-//W3C//DTD SVG 1.1//EN" "http://www.w3.org/Graphics/SVG/1.1/DTD/svg11.dtd">
<svg version="1.1" xmlns="http://www.w3.org/2000/svg" xmlns:xlink="http://www.w3.org/1999/xlink" width="64" height="64" viewBox="0 0 64 64">
<path fill="#000" d="M64 32c0-18-14-32-32-32s-32 14-32 32c0 18 14 32 32 32s32-14 32-32zM30 52l1-3 2 2-3 1zM48 36l-14 14-2-2 14-14h2v2zM44 12v21l-15 15h-13v-36h28zM40 30h-20v2h20v-2zM40 24h-20v2h20v-2zM32 36h-12v2h12v-2zM40 18h-20v2h20v-2zM44 43v5h-5l5-5z"></path>
</svg>
