<?xml version="1.0" encoding="utf-8"?>
<!-- Generated by IcoMoon.io -->
<!DOCTYPE svg PUBLIC "-//W3C//DTD SVG 1.1//EN" "http://www.w3.org/Graphics/SVG/1.1/DTD/svg11.dtd">
<svg version="1.1" xmlns="http://www.w3.org/2000/svg" xmlns:xlink="http://www.w3.org/1999/xlink" width="64" height="64" viewBox="0 0 64 64">
<path fill="#000" d="M32 0c-17.67 0-32 14.33-32 32s14.33 32 32 32c17.67 0 32-14.33 32-32s-14.33-32-32-32zM22.82 50c0.48-1.74 1.2-3.42 2.14-5.91-1.83-1.81-2.96-4.32-2.96-7.090 0-2.76 1.12-5.26 2.94-7.070h-0.010c3.75-3.75 13.61-10.72 27.23-6.72-11.18 3.76-6.65 14.12-12.9 20.67l-0.19 0.19c-1.81 1.81-4.31 2.93-7.070 2.93-1.64 0-3.2-0.4-4.57-1.11-0.66 1.75-1.24 2.88-1.66 4.11h-2.95zM32 32c-2.76 0-5 2.24-5 5s2.24 5 5 5c2.76 0 5-2.24 5-5s-2.24-5-5-5zM36.14 27.9c1.1 0.5 2.090 1.19 2.93 2.030 2.58-2.32 1.93-3.93 7.89-6.12-3.9 0.19-7.91 2.080-10.82 4.090v0zM32 30c3.87 0 7 3.14 7 7 0 3.87-3.13 7-7 7-3.86 0-7-3.13-7-7 0-3.86 3.14-7 7-7z"></path>
</svg>
