<?xml version="1.0" encoding="utf-8"?>
<!-- Generated by IcoMoon.io -->
<!DOCTYPE svg PUBLIC "-//W3C//DTD SVG 1.1//EN" "http://www.w3.org/Graphics/SVG/1.1/DTD/svg11.dtd">
<svg version="1.1" xmlns="http://www.w3.org/2000/svg" xmlns:xlink="http://www.w3.org/1999/xlink" width="64" height="64" viewBox="0 0 64 64">
<path fill="#000" d="M32 0c-17.67 0-32 14.33-32 32s14.33 32 32 32c17.67 0 32-14.33 32-32s-14.33-32-32-32zM32 12c5.5 0 10.48 2.22 14.1 5.82l-4.2-4.21 2.83-2.82 8.48 8.48-2.82 2.83-4.21-4.2c3.6 3.62 5.82 8.6 5.82 14.1 0 11.040-8.96 20-20 20s-20-8.96-20-20c0-11.040 8.96-20 20-20zM33.71 18.98c0-1.97-3.5-1.98-3.5 0v15.010h3.5v-15.010zM32 16c9.39 0 16 6.61 16 16s-6.61 16-16 16c-9.39 0-16-6.61-16-16s6.61-16 16-16z"></path>
</svg>
