<?xml version="1.0" encoding="utf-8"?>
<!-- Generated by IcoMoon.io -->
<!DOCTYPE svg PUBLIC "-//W3C//DTD SVG 1.1//EN" "http://www.w3.org/Graphics/SVG/1.1/DTD/svg11.dtd">
<svg version="1.1" xmlns="http://www.w3.org/2000/svg" xmlns:xlink="http://www.w3.org/1999/xlink" width="64" height="64" viewBox="0 0 64 64">
<path fill="#000" d="M31.88 0c-17.48 0-31.88 14.4-31.88 31.88 0 17.72 14.4 32.12 31.88 32.12 17.72 0 32.12-14.4 32.12-32.12 0-17.48-14.4-31.88-32.12-31.88zM43.93 9.92v13.93c-2.37 0-4.73 0.71-6.61 1.89-2.37 1.18-2.37 1.18-3.31 2.36h-13.94v1.89h12.52c-0.47 0.71-0.94 1.19-1.18 1.89h-11.34v2.13h10.63c-0.24 0.71-0.47 1.65-0.47 2.13-0.24 0.7-0.24 1.18-0.24 1.89 0 7.79 6.38 13.93 13.94 13.93v2.13h-27.87v-44.17h27.87zM44 46l7.96-11.99h-16.060l8.1 11.99zM43.93 25.98c6.61 0 12.040 5.43 12.040 12.040s-5.43 12.050-12.040 12.050c-6.62 0-11.81-5.44-11.81-12.050s5.2-12.040 11.81-12.040zM20.070 46.050h8.030v1.89h-8.030v-1.89zM20.070 39.91h8.030v2.13h-8.030v-2.13zM20.070 21.96h19.84v2.13h-19.84v-2.13zM20.070 16.060h19.84v1.89h-19.84v-1.89z"></path>
</svg>
