<?xml version="1.0" encoding="utf-8"?>
<!-- Generated by IcoMoon.io -->
<!DOCTYPE svg PUBLIC "-//W3C//DTD SVG 1.1//EN" "http://www.w3.org/Graphics/SVG/1.1/DTD/svg11.dtd">
<svg version="1.1" xmlns="http://www.w3.org/2000/svg" xmlns:xlink="http://www.w3.org/1999/xlink" width="64" height="64" viewBox="0 0 64 64">
<path fill="#000" d="M64 32c0-18-14-32-32-32s-32 14-32 32c0 18 14 32 32 32s32-14 32-32zM16 10h28v14c-2 0-4 0-6 2s-2 2-4 2h-14v2h12c0 0 0 2 0 2h-12v2h10c0 0 0 2 0 2s0 2 0 2c0 8 6 14 14 14v2h-28v-44zM44 26c6 0 12 6 12 12s-6 12-12 12c-6 0-12-6-12-12s6-12 12-12zM38 36l4 6 8-9 2 3-10 10-2-2-4-6 2-2zM20 46h8v2h-8v-2zM20 40h8v2h-8v-2zM20 22h20v2h-20v-2zM20 16h20v2h-20v-2z"></path>
</svg>
