<?xml version="1.0" encoding="utf-8"?>
<!-- Generated by IcoMoon.io -->
<!DOCTYPE svg PUBLIC "-//W3C//DTD SVG 1.1//EN" "http://www.w3.org/Graphics/SVG/1.1/DTD/svg11.dtd">
<svg version="1.1" xmlns="http://www.w3.org/2000/svg" xmlns:xlink="http://www.w3.org/1999/xlink" width="64" height="64" viewBox="0 0 64 64">
<path fill="#000" d="M32 0v0c-17.67 0-32 14.33-32 32s14.33 32 32 32c7.38 0 14.18-2.5 19.59-6.7l-6.17-6.17 5.66-5.65 6.17 6.17c4.23-5.42 6.75-12.24 6.75-19.65 0-17.67-14.33-32-32-32zM32 17v0c-8.28 0-15 6.72-15 15s6.72 15 15 15c8.28 0 15-6.72 15-15s-6.72-15-15-15zM32 20c6.63 0 12 5.37 12 12 0 15.79-24 15.79-24 0 0-6.63 5.37-12 12-12zM38 30v4c-6.56 0-5.44 0-12 0v-4c6.55 0 5.44 0 12 0zM47.22 41.62l2.44 2.44-5.66 5.66-2.45-2.46c-2.77 1.74-6.040 2.74-9.55 2.74-9.94 0-18-8.060-18-18s8.060-18 18-18c9.94 0 18 8.060 18 18 0 3.54-1.020 6.84-2.78 9.62v0z"></path>
</svg>
