<?xml version="1.0" encoding="utf-8"?>
<!-- Generated by IcoMoon.io -->
<!DOCTYPE svg PUBLIC "-//W3C//DTD SVG 1.1//EN" "http://www.w3.org/Graphics/SVG/1.1/DTD/svg11.dtd">
<svg version="1.1" xmlns="http://www.w3.org/2000/svg" xmlns:xlink="http://www.w3.org/1999/xlink" width="64" height="64" viewBox="0 0 64 64">
<path fill="#000" d="M32 0c-17.67 0-32 14.33-32 32s14.33 32 32 32c17.67 0 32-14.33 32-32s-14.33-32-32-32zM32 27c5.52 0 10 4.48 10 10l-0.010 0.37c2.5-0.2 5.42-0.69 9.010-1.67 0 1 0 2 0 3-3.81 0.91-6.87 1.28-9.48 1.35-0.45 1.42-1.21 2.7-2.21 3.76 3.070 0.020 6.75-0.41 11.69-1.76 0 1.010 0 2 0 3-6.75 1.6-11.15 1.55-14.84 1.040-1.26 0.58-2.67 0.91-4.16 0.91-2.61 0-4.98-1-6.76-2.64-1.49-0.070-3.12-0.030-4.97 0.19-2.27 0.26-4.87 0.78-7.98 1.68 0-1 0-2 0-3 2.61-0.62 4.87-1 6.87-1.2 1.5-0.15 2.85-0.21 4.090-0.19-0.63-1.15-1.050-2.43-1.19-3.8-2.67 0.16-5.81 0.69-9.77 1.83 0-1 0-2 0-3 3.98-0.94 7.14-1.32 9.83-1.38 0.72-4.8 4.87-8.49 9.88-8.49zM51 47.83c0 1 0 2 0 3-19.35 4.58-19.35-4.42-38.71 1.17 0-1 0-2 0-3 19.36-4.59 19.38 4.090 38.71-1.17zM32 32c-2.76 0-5 2.24-5 5s2.24 4.99 5 4.99c2.76 0 5-2.23 5-4.99s-2.24-5-5-5zM32 30c3.87 0 7 3.13 7 7 0 3.86-3.13 7-7 7s-7-3.14-7-7c0-3.87 3.13-7 7-7z"></path>
</svg>
