<?xml version="1.0" encoding="utf-8"?>
<!-- Generated by IcoMoon.io -->
<!DOCTYPE svg PUBLIC "-//W3C//DTD SVG 1.1//EN" "http://www.w3.org/Graphics/SVG/1.1/DTD/svg11.dtd">
<svg version="1.1" xmlns="http://www.w3.org/2000/svg" xmlns:xlink="http://www.w3.org/1999/xlink" width="64" height="64" viewBox="0 0 64 64">
<path fill="#000" d="M32 0c17.67 0 32 14.33 32 32s-14.33 32-32 32c-17.67 0-32-14.33-32-32s14.33-32 32-32zM18.83 47.060c7.63 6.69 19.5 6.45 26.34 0 3.13-3.19-7.19-14.52-13.17-19.030-5.97 4.51-16.3 15.84-13.17 19.030zM37.44 23.040c4.16 4.94 12.47 17.2 10.12 21.53 10.040-12.42 0.25-26.94-2.12-26.94-0.98 0-3.3 0.73-8 5.41v0zM18.090 17.71c-2.36 0.8-11.39 14.8-1.66 26.85-2.33-4.34 5.97-16.58 10.14-21.52-4.65-4.64-7.44-5.76-8.48-5.33v0zM32 17.91v0.010c0.010-0.030 7.82-4.56 11.28-2.45-6.96-4.64-15.6-4.65-22.56 0 3.19-2.1 10.98 2.27 11.28 2.44z"></path>
</svg>
