<?xml version="1.0" encoding="utf-8"?>
<!-- Generated by IcoMoon.io -->
<!DOCTYPE svg PUBLIC "-//W3C//DTD SVG 1.1//EN" "http://www.w3.org/Graphics/SVG/1.1/DTD/svg11.dtd">
<svg version="1.1" xmlns="http://www.w3.org/2000/svg" xmlns:xlink="http://www.w3.org/1999/xlink" width="64" height="64" viewBox="0 0 64 64">
<path fill="#000" d="M32 0c-17.67 0-32 14.33-32 32s14.33 32 32 32c17.67 0 32-14.33 32-32s-14.33-32-32-32zM18 22.050v-3l28-0.1v3l-28 0.1zM40 41.050v3h5v-3h-5zM40 37.050v3h5v-3h-5zM40 33.050v3h5v-3h-5zM40 29.050v3h5v-3h-5zM33 41.050v3h5v-3h-5zM33 37.050v3h5v-3h-5zM33 33.050v3h5v-3h-5zM33 29.050v3h5v-3h-5zM26 41.050v3h5v-3h-5zM26 37.050v3h5v-3h-5zM26 33.050v3h5v-3h-5zM26 29.050v3h5v-3h-5zM19 41.050v3h5v-3h-5zM19 37.050v3h5v-3h-5zM19 33.050v3h5v-3h-5zM19 29.050v3h5v-3h-5zM40 25.050v3h5v-3h-5zM33 25.050v3h5v-3h-5zM26 25.050v3h5v-3h-5zM46 16.95h2v30l-32 0.1v-30l30-0.1zM18 24.050l28-0.1v21l-28 0.1v-21z"></path>
</svg>
