<?xml version="1.0" encoding="utf-8"?>
<!-- Generated by IcoMoon.io -->
<!DOCTYPE svg PUBLIC "-//W3C//DTD SVG 1.1//EN" "http://www.w3.org/Graphics/SVG/1.1/DTD/svg11.dtd">
<svg version="1.1" xmlns="http://www.w3.org/2000/svg" xmlns:xlink="http://www.w3.org/1999/xlink" width="64" height="64" viewBox="0 0 64 64">
<path fill="#000" d="M32.12 0c-17.72 0-32.12 14.4-32.12 31.88 0 17.72 14.4 32.12 32.12 32.12 17.48 0 31.88-14.4 31.88-32.12 0-17.48-14.4-31.88-31.88-31.88zM23 33l3.5 3.5-1 1-3.5-3.5 1-1zM50 15v7l-9 9-3.5-3.5 12.5-12.5zM37 38l-3.5 3.5-19.5-19.5v-7l23 23zM50 46l-4 4-6-6-3 3-3-3 10-10 3 3-3.070 2.91 6.070 6.090zM22 14l19.5 19.5-3.5 3.5-23-23h7zM26.5 38.5l1-1 3.5 3.5-1 1-3.5-3.5zM14 46l6-6-3-3 3-3 10 10-3 3-3-3-6 6-4-4zM33 23l9-9h7l-12.5 12.5-3.5-3.5z"></path>
</svg>
