<?xml version="1.0" encoding="utf-8"?>
<!-- Generated by IcoMoon.io -->
<!DOCTYPE svg PUBLIC "-//W3C//DTD SVG 1.1//EN" "http://www.w3.org/Graphics/SVG/1.1/DTD/svg11.dtd">
<svg version="1.1" xmlns="http://www.w3.org/2000/svg" xmlns:xlink="http://www.w3.org/1999/xlink" width="64" height="64" viewBox="0 0 64 64">
<path fill="#000" d="M32 0c-17.67 0-32 14.33-32 32s14.33 32 32 32c17.67 0 32-14.33 32-32s-14.33-32-32-32zM48 31.93v15.070c0 1.1-0.9 2-2 2v0c-1.1 0-2-0.9-2-2v-11.010l-15.010 10.010c-0.73 0.49-4 3-5 3s-2-0.63-2.010-2.11v-29.77c0-1.54 1.010-2.12 2.010-2.12s4.16 2.45 4.96 2.99l15.050 10.020v-11.010c0-1.1 0.9-2 2-2v0c1.1 0 2 0.9 2 2v14.93z"></path>
</svg>
