<?xml version="1.0" encoding="utf-8"?>
<!-- Generated by IcoMoon.io -->
<!DOCTYPE svg PUBLIC "-//W3C//DTD SVG 1.1//EN" "http://www.w3.org/Graphics/SVG/1.1/DTD/svg11.dtd">
<svg version="1.1" xmlns="http://www.w3.org/2000/svg" xmlns:xlink="http://www.w3.org/1999/xlink" width="64" height="64" viewBox="0 0 64 64">
<path fill="#000" d="M32 0c-17.67 0-32 14.33-32 32s14.33 32 32 32c17.67 0 32-14.33 32-32s-14.33-32-32-32zM32 27c5.52 0 10 4.48 10 10s-4.48 10-10 10c-5.52 0-10-4.48-10-10s4.48-10 10-10zM32 30c3.87 0 7 3.13 7 7 0 3.86-3.13 7-7 7s-7-3.14-7-7c0-3.87 3.13-7 7-7z"></path>
</svg>
