<?xml version="1.0" encoding="utf-8"?>
<!-- Generated by IcoMoon.io -->
<!DOCTYPE svg PUBLIC "-//W3C//DTD SVG 1.1//EN" "http://www.w3.org/Graphics/SVG/1.1/DTD/svg11.dtd">
<svg version="1.1" xmlns="http://www.w3.org/2000/svg" xmlns:xlink="http://www.w3.org/1999/xlink" width="64" height="64" viewBox="0 0 64 64">
<path fill="#000" d="M32 0c-17.67 0-32 14.33-32 32s14.33 32 32 32c17.67 0 32-14.33 32-32s-14.33-32-32-32zM22.55 47l1.45-8 1-1 7.12-2.1 3.88-1.9v-2l-3.5-4.5-0.5-9.5 4-4h6l4 4-0.5 9.5-3.5 4.5v2l4 2 8 2 1.5 9h-32.95zM8.5 47l1.5-9 8-2 2-1v-3l-3-4-0.5-7.5 3.5-4.5h6l3.5 4.5-0.5 7.5-3 4v3l2 1-3.5 0.5-1.5 1.5-1.5 9h-13z"></path>
</svg>
