<?xml version="1.0" encoding="utf-8"?>
<!-- Generated by IcoMoon.io -->
<!DOCTYPE svg PUBLIC "-//W3C//DTD SVG 1.1//EN" "http://www.w3.org/Graphics/SVG/1.1/DTD/svg11.dtd">
<svg version="1.1" xmlns="http://www.w3.org/2000/svg" xmlns:xlink="http://www.w3.org/1999/xlink" width="64" height="64" viewBox="0 0 64 64">
<path fill="#000" d="M32 0c-17.67 0-32 14.33-32 32s14.33 32 32 32c17.67 0 32-14.33 32-32s-14.33-32-32-32zM43 28l6-13h-12l6 13zM43.010 7.97c7.19 0 13.020 5.83 13.020 13.020s-5.83 13.010-13.020 13.010c-7.19 0-13.010-5.82-13.010-13.010s5.82-13.020 13.010-13.020zM39.24 35.5c-1.16 2.86-3.97 4.9-7.24 4.9-4.29 0-7.8-3.51-7.8-7.8v-7.8h4.32c1.37 5.23 5.49 9.34 10.72 10.7zM44.55 35.9c-1.4 5.080-5.91 9.070-11.25 9.64v5.26h5.2v5.2h-13v-5.2h5.2v-5.26c-6.45-0.69-11.7-6.36-11.7-12.94v-10.4h2.6v11.090c0 5.46 4.94 9.71 10.4 9.71 4.54 0 8.71-2.94 10-7.060 0.33 0.020 0.67 0.030 1.010 0.030 0.52 0 1.040-0.020 1.54-0.070zM28.24 23.5h-4.040v-3.9c0-4 3.050-7.32 6.93-7.75-1.94 2.53-3.1 5.7-3.1 9.14 0 0.85 0.070 1.69 0.21 2.51zM43.010 10.17c5.98 0 10.82 4.84 10.82 10.82 0 5.97-4.84 10.82-10.82 10.82-5.97 0-10.82-4.85-10.82-10.82 0-5.98 4.85-10.82 10.82-10.82z"></path>
</svg>
