<?xml version="1.0" encoding="utf-8"?>
<!-- Generated by IcoMoon.io -->
<!DOCTYPE svg PUBLIC "-//W3C//DTD SVG 1.1//EN" "http://www.w3.org/Graphics/SVG/1.1/DTD/svg11.dtd">
<svg version="1.1" xmlns="http://www.w3.org/2000/svg" xmlns:xlink="http://www.w3.org/1999/xlink" width="64" height="64" viewBox="0 0 64 64">
<path fill="#000" d="M32 0c-18 0-32 14-32 32s14 32 32 32c18 0 32-14 32-32s-14-32-32-32zM32 12c12 0 20 8 20 20s-8 20-20 20c-12 0-20-8-20-20s8-20 20-20zM32 18c8 0 14 6 14 14s-6 14-14 14c-8 0-14-6-14-14s6-14 14-14z"></path>
</svg>
