<?xml version="1.0" encoding="utf-8"?>
<!-- Generated by IcoMoon.io -->
<!DOCTYPE svg PUBLIC "-//W3C//DTD SVG 1.1//EN" "http://www.w3.org/Graphics/SVG/1.1/DTD/svg11.dtd">
<svg version="1.1" xmlns="http://www.w3.org/2000/svg" xmlns:xlink="http://www.w3.org/1999/xlink" width="64" height="64" viewBox="0 0 64 64">
<path fill="#000" d="M32 0c18 0 32 14 32 32s-14 32-32 32c-14 0-26-9-30-21h7v-4h-8c-1-2-1-5-1-7s0-5 1-7h4v-4h-3c4-12 16-21 30-21v0zM45 37h-15v3h19l-4-3zM52 19h-15v3h19l-4-3zM18 25h4v-4h-4v4zM16 21h-9v4h9v-4zM36 29v-12h-4v4h-8v4h8v4h4zM56 24h-19v3h15l4-3zM11 43h4v-4h-4v4zM29 47v-12h-4v4h-8v4h8v4h4zM49 42h-19v3h15l4-3z"></path>
</svg>
