<?xml version="1.0" encoding="utf-8"?>
<!-- Generated by IcoMoon.io -->
<!DOCTYPE svg PUBLIC "-//W3C//DTD SVG 1.1//EN" "http://www.w3.org/Graphics/SVG/1.1/DTD/svg11.dtd">
<svg version="1.1" xmlns="http://www.w3.org/2000/svg" xmlns:xlink="http://www.w3.org/1999/xlink" width="64" height="64" viewBox="0 0 64 64">
<path fill="#000" d="M32 0c17.67 0 32 14.33 32 32s-14.33 32-32 32c-17.67 0-32-14.33-32-32s14.33-32 32-32zM48.5 14l-4.5 1.5v3l-10.5 10.5h-4.5l-1.52 1.49-11.98 12.010-1.5 3 1.5 3 3 1.5 3-1.5 13.5-13.5v-4.5l10.5-10.5h3l1.5-4.5-1.5-1.5zM14 23.040v0.010l3.010 3.010h4.44l1.55-0.060 3.5 3.5 1.5-1.5h3l-5-5 0.060-1.55v-4.44l-3.020-3.010h-4.61l3.19 3.010-0.17 4.44-4.44 0.17-3.010-3.19v4.61zM34.5 37.5l4.25 4.25c-1.87 4.12 1.25 8.25 5.22 8.25 3.020 0 6.030-1.42 6.030-6.030 0-4.83-4.13-7.090-8.25-5.22l-5.75-5.75v3l-1.5 1.5zM43.97 40.95c-1.42 0-3.020 1.6-3.020 3.020 0 1.6 1.6 3.010 3.020 3.010 1.6 0 3.010-1.42 3.010-3.010 0-1.42-1.42-3.020-3.010-3.020z"></path>
</svg>
