<?xml version="1.0" encoding="utf-8"?>
<!-- Generated by IcoMoon.io -->
<!DOCTYPE svg PUBLIC "-//W3C//DTD SVG 1.1//EN" "http://www.w3.org/Graphics/SVG/1.1/DTD/svg11.dtd">
<svg version="1.1" xmlns="http://www.w3.org/2000/svg" xmlns:xlink="http://www.w3.org/1999/xlink" width="64" height="64" viewBox="0 0 64 64">
<path fill="#000" d="M64 31.88c0-17.61-14.27-31.88-32.12-31.88-17.61 0-31.88 14.27-31.88 31.88 0 17.85 14.27 32.12 31.88 32.12 17.85 0 32.12-14.27 32.12-32.12zM15.7 13.99h6.66l-0.23 2.66h-4.050l-0.71 4.52-0.48 4.76h-3.090l1.9-11.94zM14.99 41.16h-3.33l1.19-6.18 0.72-5.48h5.94l0.48-3.57h2.85l-0.23 3.57h6.18v5.48l-0.24 6.18h-3.33l0.48-8.090h-9.76l-0.95 8.090zM49.010 41.16l-0.47-4.28h-3.34l-0.47-3.81h3.33l-0.48-3.57h3.1l3.040 20.49h-3.57l-0.66-4.55h-6.9l0.18 4.55h-3.57l-0.18-4.55h-3.57l0.18 4.55h-10.94l0.29-4.55h6.9v-4.28h6.9l-0.48-8.090h3.33l0.48 8.090h6.9zM22.13 36.88l-0.48 6.42-0.53 6.69h-10.95l0.77-4.55h6.9l0.95-8.56h3.34zM29.020 19.51h5.71l0.24 3.090h-5.95v3.34h-3.090l0.24-3.34h-5.95l0.24-3.090h5.71l0.24-2.86h-1.43l0.24-2.66h4.040l-0.24 5.52zM31.88 36.88v-10.95h6.19l-0.24-3.33h3.090l0.24 3.33h2.86l0.47 3.57h-9.28v7.38h-3.33zM40.68 19.51h-2.85l-0.24-2.86h-5.71v-2.66h8.33l0.47 5.52zM47.11 25.93l-0.48-3.33h-2.85l-0.24-3.090h2.85l-0.47-2.86h-2.86l-0.24-2.66h5.48l1.9 11.94h-3.090z"></path>
</svg>
