<?xml version="1.0" encoding="utf-8"?>
<!-- Generated by IcoMoon.io -->
<!DOCTYPE svg PUBLIC "-//W3C//DTD SVG 1.1//EN" "http://www.w3.org/Graphics/SVG/1.1/DTD/svg11.dtd">
<svg version="1.1" xmlns="http://www.w3.org/2000/svg" xmlns:xlink="http://www.w3.org/1999/xlink" width="64" height="64" viewBox="0 0 64 64">
<path fill="#000" d="M32 0c-18 0-32 14-32 32s14 32 32 32c18 0 32-14 32-32s-14-32-32-32zM28 28l-8 2-2-2-2-4-2-6v-4l2-4 2-2 6 4 2 4 2 12zM36 44l2-12 2-4 6-4 2 2 2 4v4l-2 6-2 4-2 2-8-2zM44 48l-2 6-2 2h-2l-4-2v-4l2-4 8 2zM20 32l8-2 2 4v4l-4 2h-2l-2-2-2-6z"></path>
</svg>
