<?xml version="1.0" encoding="utf-8"?>
<!-- Generated by IcoMoon.io -->
<!DOCTYPE svg PUBLIC "-//W3C//DTD SVG 1.1//EN" "http://www.w3.org/Graphics/SVG/1.1/DTD/svg11.dtd">
<svg version="1.1" xmlns="http://www.w3.org/2000/svg" xmlns:xlink="http://www.w3.org/1999/xlink" width="64" height="64" viewBox="0 0 64 64">
<path fill="#000" d="M38 38l-3-5v2h-6v-2l-3 5v10l6 8 6-8v-10zM31.88 0c8.5 0 16.060 3.070 21.73 8.5l-18.61 17.5v5l20.5-20.61c5.19 5.67 8.5 13.22 8.5 21.49 0 17.71-14.41 32.12-32.12 32.12-17.48 0-31.88-14.41-31.88-32.12 0-8.27 3.31-15.82 8.5-21.49l20.5 20.61v-4l-18.61-18.5c5.67-5.43 13.23-8.5 21.49-8.5zM31 26l-1 1v6l1 1h2l1-1v-6l-1-1h-2z"></path>
</svg>
