<?xml version="1.0" encoding="utf-8"?>
<!-- Generated by IcoMoon.io -->
<!DOCTYPE svg PUBLIC "-//W3C//DTD SVG 1.1//EN" "http://www.w3.org/Graphics/SVG/1.1/DTD/svg11.dtd">
<svg version="1.1" xmlns="http://www.w3.org/2000/svg" xmlns:xlink="http://www.w3.org/1999/xlink" width="64" height="64" viewBox="0 0 64 64">
<path fill="#000" d="M31.88 0c17.72 0 32.12 14.4 32.12 31.88 0 17.72-14.4 32.12-32.12 32.12-17.48 0-31.88-14.4-31.88-32.12 0-17.48 14.4-31.88 31.88-31.88zM14 36v8l5-8h17c2 0 4-2 4-4v-14c0-2-2-4-4-4h-22c-2 0-4 2-4 4v14c0 2 2 4 4 4zM50 44c2 0 4-2 4-4v-14c0-2-2-4-4-4h-9v11c0 1.89-2.11 4-4 4h-13v3c0 2 2 4 4 4h17l5 6v-6z"></path>
</svg>
