<?xml version="1.0" encoding="utf-8"?>
<!-- Generated by IcoMoon.io -->
<!DOCTYPE svg PUBLIC "-//W3C//DTD SVG 1.1//EN" "http://www.w3.org/Graphics/SVG/1.1/DTD/svg11.dtd">
<svg version="1.1" xmlns="http://www.w3.org/2000/svg" xmlns:xlink="http://www.w3.org/1999/xlink" width="64" height="64" viewBox="0 0 64 64">
<path fill="#000" d="M32 0c17.67 0 32 14.33 32 32s-14.33 32-32 32c-17.67 0-32-14.33-32-32s14.33-32 32-32zM12 32c0 5.12 4.16 9.27 9.27 9.27 5.13 0 9.29-4.15 9.29-9.27s-4.16-9.28-9.29-9.28c-5.11 0-9.27 4.16-9.27 9.28zM33.44 32c0 5.12 4.16 9.27 9.28 9.27s9.28-4.15 9.28-9.27c0-5.12-4.16-9.28-9.27-9.28-5.13 0-9.29 4.16-9.29 9.28z"></path>
</svg>
