<?xml version="1.0" encoding="utf-8"?>
<!-- Generated by IcoMoon.io -->
<!DOCTYPE svg PUBLIC "-//W3C//DTD SVG 1.1//EN" "http://www.w3.org/Graphics/SVG/1.1/DTD/svg11.dtd">
<svg version="1.1" xmlns="http://www.w3.org/2000/svg" xmlns:xlink="http://www.w3.org/1999/xlink" width="64" height="64" viewBox="0 0 64 64">
<path fill="#000" d="M32 0c-17.67 0-32 14.33-32 32s14.33 32 32 32c17.67 0 32-14.33 32-32s-14.33-32-32-32zM52 29.67c0 2.28 0 2.74 0 4.55-0.010 3.35-5.42 5.46-12.29 6.33-0.060 1.36-1.19 2.45-2.57 2.45h-10.28c-1.39 0-2.53-1.11-2.57-2.49l-0.49-0.070c-2.13 0.8-4.17 1.74-6.15 3.19-1.13 0.82-2.65-0.23-3-1.5v0c-0.35-1.28 0.68-2.22 1.73-3.14l0.3-0.25c-2.86-1.11-4.68-2.61-4.68-4.52 0-1.81 0-2.27 0-4.55 0-3.56 10.080-5.64 20-5.67 10.070-0.030 20 2.050 20 5.67zM36.14 37c0.47 0 0.86 0.39 0.86 0.86v1.28c0 0.47-0.39 0.86-0.86 0.86h-8.28c-0.47 0-0.86-0.39-0.86-0.86v-1.28c0-0.47 0.39-0.86 0.86-0.86h8.28zM39.45 35.44c4.9-0.77 8.94-2.24 10.51-3.94-1.18-2.73-9.51-4.52-17.96-4.5-8.33 0.020-16.8 1.81-17.96 4.5 1.53 1.66 5.64 3.12 10.53 3.9 0.43-0.83 1.29-1.4 2.29-1.4h10.28c1.020 0 1.89 0.59 2.31 1.44zM36.57 36h-9.14c-0.79 0-1.43 0.64-1.43 1.43v2.14c0 0.79 0.64 1.43 1.43 1.43h9.14c0.79 0 1.43-0.64 1.43-1.43v-2.14c0-0.79-0.64-1.43-1.43-1.43z"></path>
</svg>
