<?xml version="1.0" encoding="utf-8"?>
<!-- Generated by IcoMoon.io -->
<!DOCTYPE svg PUBLIC "-//W3C//DTD SVG 1.1//EN" "http://www.w3.org/Graphics/SVG/1.1/DTD/svg11.dtd">
<svg version="1.1" xmlns="http://www.w3.org/2000/svg" xmlns:xlink="http://www.w3.org/1999/xlink" width="64" height="64" viewBox="0 0 64 64">
<path fill="#000" d="M32 0c17.67 0 32 14.33 32 32 0 2.48-0.28 4.89-0.82 7.21l-31.18-31.12-31.18 31.12c-0.54-2.32-0.82-4.73-0.82-7.21 0-17.67 14.33-32 32-32zM62.3 42.31c-1.28 3.78-3.26 7.24-5.76 10.23l-17.54-17.54v4l15.63 15.63c-5.79 5.79-13.79 9.37-22.63 9.37s-16.84-3.58-22.63-9.37l15.63-15.63v-4l-17.54 17.54c-2.5-2.99-4.47-6.45-5.76-10.22l30.3-30.24 30.3 30.23zM45 50l-9-2-2-2v-2l3.5-3.5 0.5-8.5-4-4h-4l-4 4 0.5 8.5 3.5 3.5v2l-2 2-9 2-2 5h30l-2-5z"></path>
</svg>
