<?xml version="1.0" encoding="utf-8"?>
<!-- Generated by IcoMoon.io -->
<!DOCTYPE svg PUBLIC "-//W3C//DTD SVG 1.1//EN" "http://www.w3.org/Graphics/SVG/1.1/DTD/svg11.dtd">
<svg version="1.1" xmlns="http://www.w3.org/2000/svg" xmlns:xlink="http://www.w3.org/1999/xlink" width="64" height="64" viewBox="0 0 64 64">
<path fill="#000" d="M31.5 0c-17.4 0-31.5 14.33-31.5 32s14.1 32 31.5 32c17.4 0 31.5-14.33 31.5-32s-14.1-32-31.5-32zM32 17.68c0.64 0 1.28 0.040 1.9 0.13l2.33-4.78 6.3 2.63-1.79 5c0.99 0.76 1.88 1.66 2.64 2.65l5.030-1.73 2.59 6.32-4.8 2.26c0.080 0.6 0.12 1.22 0.12 1.84 0 0.64-0.040 1.28-0.13 1.9l4.78 2.33-2.63 6.3-5-1.79c-0.76 0.99-1.66 1.88-2.65 2.64l1.73 5.030-6.32 2.59-2.26-4.8c-0.6 0.080-1.22 0.12-1.84 0.12-0.64 0-1.28-0.040-1.9-0.13l-2.33 4.78-6.3-2.63 1.79-5c-0.99-0.76-1.88-1.66-2.64-2.65l-5.030 1.73-2.59-6.32 4.8-2.26c-0.080-0.6-0.12-1.22-0.12-1.84 0-0.64 0.040-1.28 0.13-1.9l-4.78-2.33 2.63-6.3 5 1.79c0.76-0.99 1.66-1.88 2.65-2.64l-1.73-5.030 6.32-2.59 2.26 4.8c0.6-0.080 1.22-0.12 1.84-0.12zM32 26.89c2.83 0 5.11 2.28 5.11 5.11s-2.28 5.11-5.11 5.11c-2.83 0-5.11-2.28-5.11-5.11s2.28-5.11 5.11-5.11z"></path>
</svg>
