<?xml version="1.0" encoding="utf-8"?>
<!-- Generated by IcoMoon.io -->
<!DOCTYPE svg PUBLIC "-//W3C//DTD SVG 1.1//EN" "http://www.w3.org/Graphics/SVG/1.1/DTD/svg11.dtd">
<svg version="1.1" xmlns="http://www.w3.org/2000/svg" xmlns:xlink="http://www.w3.org/1999/xlink" width="64" height="64" viewBox="0 0 64 64">
<path fill="#000" d="M32 0c-17.67 0-32 14.33-32 32s14.33 32 32 32c17.67 0 32-14.33 32-32s-14.33-32-32-32zM32 26c0.33 0 0.67 0.030 1 0.080v1.020c-0.34-0.060-0.67-0.090-1-0.090v-1.010zM32 8c8.96 0 17.63 5.33 22 13l-3.060 1.81c1.94 3.27 3.060 7.1 3.060 11.19 0 3.13-0.65 6.1-1.83 8.79 0.79 0.42 1.33 1.25 1.33 2.21 0 1.38-1.12 2.5-2.5 2.5-0.49 0-0.95-0.14-1.33-0.39-4.010 5.4-10.43 8.89-17.67 8.89-5.43 0-10.4-1.97-14.24-5.23-0.45 0.45-1.070 0.73-1.76 0.73-1.38 0-2.5-1.12-2.5-2.5 0-0.74 0.33-1.41 0.84-1.87-2.72-3.66-4.34-8.21-4.34-13.13 0-4.090 1.11-7.92 3.050-11.19l-3.050-1.81c1.33-2.37 3.050-4.5 5.070-6.32-0.36-0.43-0.57-0.98-0.57-1.58 0-1.38 1.12-2.5 2.5-2.5 0.86 0 1.62 0.43 2.070 1.1 3.88-2.35 8.36-3.7 12.93-3.7zM50.1 23.3l-5.25 3.11c1.36 2.24 2.15 4.85 2.15 7.59 0 8.1-6.9 15-15 15s-15-6.9-15-15c0-2.74 0.79-5.35 2.15-7.59l-5.25-3.11c-1.84 3.13-2.9 6.79-2.9 10.7 0 4.75 1.56 9.12 4.19 12.63 0.26-0.080 0.53-0.13 0.81-0.13 1.38 0 2.5 1.12 2.5 2.5 0 0.34-0.070 0.66-0.19 0.96 3.67 3.14 8.45 5.040 13.69 5.040 6.98 0 13.14-3.36 16.95-8.57-0.28-0.4-0.45-0.9-0.45-1.43 0-1.38 1.12-2.5 2.5-2.5l0.22 0.010c1.14-2.6 1.78-5.47 1.78-8.51 0-3.91-1.060-7.57-2.9-10.7zM44 26.91l-5.25 3.1c0.78 1.21 1.25 2.59 1.25 3.99 0 4.050-3.95 8-8 8s-8-3.95-8-8c0-1.39 0.47-2.78 1.25-3.99l-5.25-3.1c-1.27 2.090-2 4.52-2 7.090 0 7.6 6.4 14 14 14s14-6.4 14-14c0-2.57-0.73-5-2-7.090zM37.91 30.51l-4.62 2.73c0.13 0.22 0.21 0.48 0.21 0.76 0 0.83-0.67 1.5-1.5 1.5s-1.5-0.67-1.5-1.5c0-0.28 0.080-0.54 0.21-0.76l-4.62-2.73c-0.68 1.060-1.090 2.27-1.090 3.49 0 3.54 3.46 7 7 7s7-3.46 7-7c0-1.22-0.41-2.43-1.090-3.49zM52.5 20.5c-4.24-6.61-12.060-11.5-20.5-11.5-4.5 0-8.83 1.39-12.53 3.7 0.020 0.13 0.030 0.26 0.030 0.4 0 1.37-1.12 2.49-2.5 2.49-0.39 0-0.75-0.080-1.080-0.24-1.72 1.53-3.21 3.27-4.42 5.15l2.5 1.52v-0.67c0.32-0.45 0.65-0.89 1-1.32v1.6c-0.17 0.23-0.33 0.47-0.49 0.7l5.49 3.35v-0.53c0.31-0.42 0.65-0.82 1-1.2v1.5c-0.15 0.19-0.29 0.39-0.43 0.58l5.43 3.31v-0.34c0.3-0.35 0.64-0.69 1-1v1.35c-0.12 0.13-0.23 0.26-0.34 0.39l4.73 2.89c0.19-0.080 0.39-0.13 0.61-0.13s0.42 0.050 0.61 0.13l5.39-3.29v-0.35l0.19 0.24 5.8-3.54v-0.55l0.28 0.38 5.72-3.49v-0.69l0.34 0.48 2.17-1.32zM32 19c0.33 0 0.66 0.010 1 0.030v1.010c-0.33-0.030-0.67-0.040-1-0.040v0-1zM34 19.14c0.33 0.050 0.67 0.11 1 0.18v1.020c-0.33-0.080-0.67-0.14-1-0.19v-1.010zM36 19.57c0.33 0.1 0.67 0.21 0.99 0.33v1.060c-0.32-0.13-0.66-0.25-0.99-0.35v-1.040zM38 20.31c0.33 0.15 0.67 0.32 0.99 0.5v1.13c-0.32-0.2-0.65-0.38-0.99-0.54v-1.090zM39.99 21.4c0.35 0.22 0.68 0.46 1 0.71v1.25c-0.32-0.27-0.65-0.53-1-0.77v-1.19zM41.99 22.94c0.35 0.32 0.69 0.65 1 1v1.5c-0.31-0.39-0.64-0.78-1-1.14v-1.36zM22 22.95c0.32-0.29 0.65-0.57 1-0.84v1.26c-0.35 0.3-0.68 0.61-1 0.94v-1.36zM24 21.41c0.32-0.21 0.66-0.41 1-0.6v1.13c-0.35 0.2-0.68 0.42-1 0.65v-1.18zM26 20.31c0.32-0.15 0.66-0.28 1-0.41v1.060c-0.34 0.13-0.68 0.28-1 0.44v-1.090zM28 19.57c0.33-0.090 0.66-0.18 1-0.25v1.020c-0.34 0.080-0.67 0.17-1 0.27v-1.040zM30 19.14c0.33-0.040 0.66-0.080 1-0.1v1c-0.34 0.020-0.67 0.060-1 0.11v-1.010zM32 12c0.33 0 0.67 0.010 1 0.020v1c-0.34-0.010-0.67-0.020-1-0.020v0-1zM34 12.090c0.33 0.030 0.66 0.070 1 0.11v1.010c-0.34-0.050-0.67-0.090-1-0.12v-1zM36 12.36c0.33 0.060 0.67 0.13 0.99 0.21v1.020c-0.32-0.080-0.66-0.15-0.99-0.21v-1.020zM38 12.83c0.33 0.090 0.67 0.2 0.99 0.31v1.040c-0.32-0.11-0.66-0.22-0.99-0.32v-1.030zM39.99 13.5c0.34 0.13 0.67 0.27 1 0.42v1.080c-0.32-0.15-0.66-0.3-1-0.44v-1.060zM41.99 14.39c0.34 0.18 0.68 0.36 1 0.55v1.14c-0.32-0.2-0.66-0.39-1-0.58v-1.11zM43.99 15.55c0.34 0.22 0.68 0.45 1 0.69v1.23c-0.32-0.26-0.65-0.5-1-0.74v-1.18zM45.99 17.020c0.35 0.28 0.68 0.58 1 0.88v1.36c-0.32-0.33-0.65-0.65-1-0.95v-1.29zM47.99 18.89c0.35 0.37 0.68 0.74 1 1.13v1.6c-0.31-0.44-0.65-0.86-1-1.27v-1.46zM16 18.9c0.32-0.34 0.65-0.67 1-0.99v1.36c-0.35 0.35-0.68 0.71-1 1.090v-1.46zM18 17.030c0.32-0.27 0.66-0.53 1-0.78v1.22c-0.34 0.27-0.68 0.55-1 0.84v-1.28zM20 15.56c0.33-0.22 0.66-0.42 1-0.62v1.14c-0.34 0.21-0.68 0.43-1 0.66v-1.18zM22 14.4c0.33-0.17 0.66-0.33 1-0.48v1.080c-0.34 0.16-0.67 0.33-1 0.51v-1.11zM24 13.5c0.33-0.13 0.66-0.25 1-0.36v1.050c-0.34 0.11-0.67 0.24-1 0.37v-1.060zM26 12.83c0.33-0.1 0.66-0.18 1-0.26v1.020c-0.34 0.080-0.67 0.17-1 0.27v-1.030zM28 12.36c0.33-0.060 0.66-0.11 1-0.15v1c-0.34 0.050-0.67 0.1-1 0.17v-1.020zM30 12.090c0.33-0.030 0.66-0.050 1-0.070v1c-0.34 0.020-0.67 0.040-1 0.070v-1zM34 26.31c0.34 0.11 0.67 0.24 1 0.39v1.11c-0.33-0.18-0.66-0.32-1-0.44v-1.060zM36 27.25c0.34 0.22 0.68 0.47 0.99 0.74v1.36c-0.3-0.33-0.64-0.63-0.99-0.9v-1.2zM28 27.26c0.32-0.21 0.65-0.4 1-0.56v1.11c-0.35 0.19-0.69 0.4-1 0.64v-1.19zM30 26.31c0.33-0.1 0.66-0.18 1-0.23v1.020c-0.34 0.060-0.68 0.15-1 0.27v-1.060z"></path>
</svg>
