<?xml version="1.0" encoding="utf-8"?>
<!-- Generated by IcoMoon.io -->
<!DOCTYPE svg PUBLIC "-//W3C//DTD SVG 1.1//EN" "http://www.w3.org/Graphics/SVG/1.1/DTD/svg11.dtd">
<svg version="1.1" xmlns="http://www.w3.org/2000/svg" xmlns:xlink="http://www.w3.org/1999/xlink" width="64" height="64" viewBox="0 0 64 64">
<path fill="#000" d="M32.12 0c-17.72 0-32.12 14.4-32.12 31.88 0 17.72 14.4 32.12 32.12 32.12 17.48 0 31.88-14.4 31.88-32.12 0-17.48-14.4-31.88-31.88-31.88zM31.88 8.030c5.2 0 9.21 4.010 9.21 8.97s-4.010 8.98-9.21 8.98c-4.96 0-8.97-4.010-8.97-8.98 0-4.95 4.010-8.97 8.97-8.97zM46.050 31.88c4.96 0 8.98 4.25 8.98 9.21s-4.020 8.98-8.98 8.98c-4.96 0-8.97-4.020-8.97-8.98s4.010-9.21 8.97-9.21zM17.95 31.88c4.96 0 8.97 4.25 8.97 9.21s-4.010 8.98-8.97 8.98c-4.96 0-8.98-4.020-8.98-8.98s4.020-9.21 8.98-9.21z"></path>
</svg>
