<?xml version="1.0" encoding="utf-8"?>
<!-- Generated by IcoMoon.io -->
<!DOCTYPE svg PUBLIC "-//W3C//DTD SVG 1.1//EN" "http://www.w3.org/Graphics/SVG/1.1/DTD/svg11.dtd">
<svg version="1.1" xmlns="http://www.w3.org/2000/svg" xmlns:xlink="http://www.w3.org/1999/xlink" width="64" height="64" viewBox="0 0 64 64">
<path fill="#000" d="M32.12 0c-17.72 0-32.12 14.4-32.12 31.88 0 17.72 14.4 32.12 32.12 32.12 17.48 0 31.88-14.4 31.88-32.12 0-17.48-14.4-31.88-31.88-31.88zM47.94 38.020h-9.92v9.92c0 8.030-12.040 8.030-12.040 0v-9.92h-9.92c-8.030 0-8.030-12.040 0-12.040h9.92v-9.92c0-8.030 12.040-8.030 12.040 0v9.92h9.92c8.030 0 8.030 12.040 0 12.040z"></path>
</svg>
