<?xml version="1.0" encoding="utf-8"?>
<!-- Generated by IcoMoon.io -->
<!DOCTYPE svg PUBLIC "-//W3C//DTD SVG 1.1//EN" "http://www.w3.org/Graphics/SVG/1.1/DTD/svg11.dtd">
<svg version="1.1" xmlns="http://www.w3.org/2000/svg" xmlns:xlink="http://www.w3.org/1999/xlink" width="64" height="64" viewBox="0 0 64 64">
<path fill="#000" d="M32 0c-17.67 0-32 14.33-32 32s14.33 32 32 32c17.67 0 32-14.33 32-32s-14.33-32-32-32zM40.15 31.21v0l0.080 0.11c1.11 1.62 1.77 3.57 1.77 5.68 0 5.52-4.48 10-10 10s-10-4.48-10-10c0-1.79 0.47-3.46 1.29-4.91 1.31-2.55 5.19-6.050 2.71-11.090 2.33 0.93 3.79 2.73 3.98 6.21l0.020-0.010c0.080-7.39 1.22-10.19 6-14.2-3.5 9.78 1.87 14.86 4.15 18.21v0zM32 32c-2.76 0-5 2.24-5 5s2.24 5 5 5c2.76 0 5-2.24 5-5s-2.24-5-5-5zM32 30c3.87 0 7 3.14 7 7 0 3.87-3.13 7-7 7s-7-3.13-7-7c0-3.86 3.13-7 7-7z"></path>
</svg>
