<?xml version="1.0" encoding="utf-8"?>
<!-- Generated by IcoMoon.io -->
<!DOCTYPE svg PUBLIC "-//W3C//DTD SVG 1.1//EN" "http://www.w3.org/Graphics/SVG/1.1/DTD/svg11.dtd">
<svg version="1.1" xmlns="http://www.w3.org/2000/svg" xmlns:xlink="http://www.w3.org/1999/xlink" width="64" height="64" viewBox="0 0 64 64">
<path fill="#000" d="M32 0c-17.67 0-32 14.33-32 32s14.33 32 32 32c17.67 0 32-14.33 32-32s-14.33-32-32-32zM39.010 17.71c5.53 2.5 8.94 6.7 8.94 14.34s-7.14 15.95-15.95 15.95c-8.81 0-15.95-8.31-15.95-15.95s3.42-11.85 8.95-14.35v3.2c-3.94 2.27-6.16 5.070-6.16 11.15 0 6.070 5.89 13.16 13.16 13.16s13.16-7.090 13.16-13.16c0-6.080-2.21-8.87-6.15-11.15v-3.19zM30.5 13.5l1.5-3.5 1.5 3.5v15c0.11 0.48 0.93 0.78 2 1-1.69 2.22-2.62 4.85-3.5 7.5-0.92-2.65-1.89-5.28-3.5-7.5 1.050-0.27 1.85-0.58 2-1v-15z"></path>
</svg>
