<?xml version="1.0" encoding="utf-8"?>
<!-- Generated by IcoMoon.io -->
<!DOCTYPE svg PUBLIC "-//W3C//DTD SVG 1.1//EN" "http://www.w3.org/Graphics/SVG/1.1/DTD/svg11.dtd">
<svg version="1.1" xmlns="http://www.w3.org/2000/svg" xmlns:xlink="http://www.w3.org/1999/xlink" width="64" height="64" viewBox="0 0 64 64">
<path fill="#000" d="M32 0v0c17.6 0 32 14.4 32 32v0c0 17.6-14.4 32-32 32v0c-17.6 0-32-14.4-32-32v0c0-17.6 14.4-32 32-32zM44 19.99l0.38-0.72v-7.27h-7.27l-0.73 0.73-3.43 6.54-1.080 0.73h-12.25v9.99h6.74l0.6 0.72-7.34 14.020v7.27h7.27l0.73-0.73 3.43-6.54 1.080-0.73h12.25v-9.99h-6.73l-0.6-0.73 6.95-13.29z"></path>
</svg>
