<?xml version="1.0" encoding="utf-8"?>
<!-- Generated by IcoMoon.io -->
<!DOCTYPE svg PUBLIC "-//W3C//DTD SVG 1.1//EN" "http://www.w3.org/Graphics/SVG/1.1/DTD/svg11.dtd">
<svg version="1.1" xmlns="http://www.w3.org/2000/svg" xmlns:xlink="http://www.w3.org/1999/xlink" width="64" height="64" viewBox="0 0 64 64">
<path fill="#000" d="M32 0c-17.67 0-32 14.33-32 32s14.33 32 32 32c17.67 0 32-14.33 32-32s-14.33-32-32-32zM47 26.75h-30.010c-0.73 0-1.4-0.26-1.92-0.7l16.93-10.050 16.92 10.050c-0.52 0.44-1.19 0.7-1.92 0.7zM44 29.75l-12 7-11-7h23zM50 28.75v16c0 1.65-1.35 3.25-3 3.25h-30.010c-1.65 0-2.99-1.6-2.99-3.25v-16c0-0.54 0.14-1.050 0.39-1.49l17.61 11.49 17.6-11.49c0.25 0.44 0.4 0.95 0.4 1.49z"></path>
</svg>
