<?xml version="1.0" encoding="utf-8"?>
<!-- Generated by IcoMoon.io -->
<!DOCTYPE svg PUBLIC "-//W3C//DTD SVG 1.1//EN" "http://www.w3.org/Graphics/SVG/1.1/DTD/svg11.dtd">
<svg version="1.1" xmlns="http://www.w3.org/2000/svg" xmlns:xlink="http://www.w3.org/1999/xlink" width="64" height="64" viewBox="0 0 64 64">
<path fill="#000" d="M24.6 35.56c2.87 0 2.12 4.13 7.49 4.13 4.61 0 5.82-4.45 1.99-5.41-6.15-1.53-11.64-1.94-11.64-7.75 0-10.050 18.26-7.94 18.26-1.65 0 1.3-1.13 2.060-2.43 2.060-2.45 0-1.99-3.4-6.93-3.4-3.73 0-6.39 3.79-0.19 5.19 5.11 1.14 10.48 1.63 10.48 7.56 0 5.39-5.010 7.27-9.65 7.21-9.98 0-11.72-7.94-7.38-7.94zM50.59 35.34c2.3-11.51-6.98-22.37-18.58-22.37l-3.56 0.34c-0.050 0.010-0.060-0.020-0.080-0.020-9.77-5.16-20.31 5.66-14.98 15.33 0.030 0.040 0.020 0.020 0.010 0.070-2.23 12.87 9 24.14 21.85 21.87 0.040 0 0.080 0 0.14 0.030 9.84 5.47 20.66-5.53 15.2-15.25z"></path>
</svg>
