<?xml version="1.0" encoding="utf-8"?>
<!-- Generated by IcoMoon.io -->
<!DOCTYPE svg PUBLIC "-//W3C//DTD SVG 1.1//EN" "http://www.w3.org/Graphics/SVG/1.1/DTD/svg11.dtd">
<svg version="1.1" xmlns="http://www.w3.org/2000/svg" xmlns:xlink="http://www.w3.org/1999/xlink" width="64" height="64" viewBox="0 0 64 64">
<path fill="#000" d="M32 17.68c-0.62 0-1.24 0.040-1.84 0.12l-2.26-4.8-6.32 2.59 1.73 5.030c-0.99 0.76-1.89 1.65-2.65 2.64l-5-1.79-2.63 6.3 4.78 2.33c-0.090 0.62-0.13 1.26-0.13 1.9 0 0.62 0.040 1.24 0.12 1.84l-4.8 2.26 2.59 6.32 5.030-1.73c0.76 0.99 1.65 1.89 2.64 2.65l-1.79 5 6.3 2.63 2.33-4.78c0.62 0.090 1.26 0.13 1.9 0.13 0.62 0 1.24-0.040 1.84-0.12l2.26 4.8 6.32-2.59-1.73-5.030c0.99-0.76 1.89-1.65 2.65-2.64l5 1.79 2.63-6.3-4.78-2.33c0.090-0.62 0.13-1.26 0.13-1.9 0-0.62-0.040-1.24-0.12-1.84l4.8-2.26-2.59-6.32-5.030 1.73c-0.76-0.99-1.65-1.89-2.64-2.65l1.79-5-6.3-2.63-2.33 4.78c-0.62-0.090-1.26-0.13-1.9-0.13zM32 26.89c2.83 0 5.11 2.28 5.11 5.11s-2.28 5.11-5.11 5.11c-2.83 0-5.11-2.28-5.11-5.11s2.28-5.11 5.11-5.11z"></path>
</svg>
