<?xml version="1.0" encoding="utf-8"?>
<!-- Generated by IcoMoon.io -->
<!DOCTYPE svg PUBLIC "-//W3C//DTD SVG 1.1//EN" "http://www.w3.org/Graphics/SVG/1.1/DTD/svg11.dtd">
<svg version="1.1" xmlns="http://www.w3.org/2000/svg" xmlns:xlink="http://www.w3.org/1999/xlink" width="64" height="64" viewBox="0 0 64 64">
<path fill="#000" d="M18.83 47.060c3.52 3.080 8.13 4.95 13.17 4.95s9.65-1.87 13.17-4.95c3.13-3.19-7.19-14.52-13.17-19.030-5.97 4.51-16.3 15.84-13.17 19.030zM37.44 23.040c4.16 4.94 12.47 17.2 10.12 21.53 2.78-3.43 4.44-7.8 4.44-12.56 0-5.57-2.27-10.61-5.95-14.23 0 0-0.050-0.040-0.14-0.070-0.1-0.040-0.25-0.080-0.47-0.080-0.98 0-3.3 0.73-8 5.41v0zM18.090 17.71c-0.1 0.030-0.14 0.060-0.14 0.070-3.68 3.62-5.95 8.66-5.95 14.23 0 4.75 1.66 9.12 4.43 12.55-2.33-4.34 5.97-16.58 10.14-21.52-4.7-4.69-7.030-5.41-8.010-5.41-0.22 0-0.37 0.040-0.47 0.080v0zM32 17.91v0c0 0-4.91-2.87-8.74-3-1.51-0.060-2.43 0.49-2.54 0.56 3.6-2.4 7.38-3.48 11.27-3.48h0.010c3.89 0 7.68 1.080 11.28 3.48-0.11-0.070-1.030-0.62-2.54-0.56-3.83 0.13-8.74 3-8.74 3v0z"></path>
</svg>
