<?xml version="1.0" encoding="utf-8"?>
<!-- Generated by IcoMoon.io -->
<!DOCTYPE svg PUBLIC "-//W3C//DTD SVG 1.1//EN" "http://www.w3.org/Graphics/SVG/1.1/DTD/svg11.dtd">
<svg version="1.1" xmlns="http://www.w3.org/2000/svg" xmlns:xlink="http://www.w3.org/1999/xlink" width="64" height="64" viewBox="0 0 64 64">
<path fill="#000" d="M42 29.8v1.2c0 5.060-4.040 9.42-9 9.95v4.050h4v4h-10v-4h4v-4.050c-4.96-0.53-9-4.89-9-9.95v-8h2v8.53c0 4.2 3.8 7.47 8 7.47s8-3.27 8-7.47v-2.36c0.64 0.27 1.3 0.49 2 0.63zM47.090 25.14l-3.090-3.080-3.090 3.080c0.9 0.55 1.96 0.86 3.090 0.86s2.19-0.31 3.090-0.86zM41.94 20l-3.090-3.090c-0.54 0.9-0.85 1.96-0.85 3.090s0.31 2.19 0.86 3.090l3.080-3.090zM40.91 14.85l3.090 3.090 3.090-3.090c-0.9-0.54-1.96-0.85-3.090-0.85s-2.19 0.31-3.090 0.85zM46.060 20l3.090 3.090c0.54-0.9 0.85-1.96 0.85-3.090s-0.31-2.19-0.85-3.090l-3.090 3.090zM44 12c4.42 0 8 3.58 8 8s-3.58 8-8 8c-4.42 0-8-3.58-8-8s3.58-8 8-8zM32 15c1.060 0 2.070 0.28 2.94 0.77-0.6 1.29-0.94 2.72-0.94 4.23 0 1.42 0.3 2.78 0.83 4h-8.83v-3c0-3.3 2.7-6 6-6zM38 28v3c0 3.3-2.7 6-6 6s-6-2.7-6-6v-6h9.34c0.68 1.17 1.58 2.19 2.66 3z"></path>
</svg>
