<?xml version="1.0" encoding="utf-8"?>
<!-- Generated by IcoMoon.io -->
<!DOCTYPE svg PUBLIC "-//W3C//DTD SVG 1.1//EN" "http://www.w3.org/Graphics/SVG/1.1/DTD/svg11.dtd">
<svg version="1.1" xmlns="http://www.w3.org/2000/svg" xmlns:xlink="http://www.w3.org/1999/xlink" width="64" height="64" viewBox="0 0 64 64">
<path fill="#000" d="M34.61 14.8c7.52 1.13 13.46 7.070 14.59 14.59h2.8v5.22h-2.8c-1.13 7.52-7.070 13.46-14.59 14.59v2.8h-5.22v-2.8c-7.52-1.13-13.46-7.070-14.59-14.59h-2.8v-5.22h2.8c1.13-7.52 7.070-13.46 14.59-14.59v-2.8h5.22v2.8zM19.98 29.39h4.19v5.22h-4.19c1.010 4.7 4.71 8.4 9.41 9.41v-4.19h5.22v4.19c4.7-1.010 8.4-4.71 9.41-9.41h-4.19v-5.22h4.19c-1.010-4.7-4.71-8.4-9.41-9.41v4.19h-5.22v-4.19c-4.7 1.010-8.4 4.71-9.41 9.41z"></path>
</svg>
