<?xml version="1.0" encoding="utf-8"?>
<!-- Generated by IcoMoon.io -->
<!DOCTYPE svg PUBLIC "-//W3C//DTD SVG 1.1//EN" "http://www.w3.org/Graphics/SVG/1.1/DTD/svg11.dtd">
<svg version="1.1" xmlns="http://www.w3.org/2000/svg" xmlns:xlink="http://www.w3.org/1999/xlink" width="64" height="64" viewBox="0 0 64 64">
<path fill="#000" d="M46.24 31.020v-12.69l-0.48-0.28-11.34-6.55-0.48 0.28-11.34 6.55v12.010l-4.38 2.53v13.24l0.49 0.28 11.33 6.46 0.47-0.27 11.35-6.47v-12.050l4.38-2.49v-0.55zM24 39h1v4h-1v-4zM24 44h1v1h-1v-1zM37 39v3l-1 0.5v0.5h-1v-1l1-0.5v-1.5h-1v1h-1v-1l1-1h2zM35 45v-1l1 0.010v0.99h-1zM30.040 26.050l-0.040-1.050h-1v1.65l-4.49 2.59v-9.81l9.91-5.72 9.9 5.72v11.030l-3.34 1.9-5.6-3.23v-3.67l7.82-4.52 0.070-1.15-1.030-0.51-7.82 4.52-7.82-4.52-1.040 0.51 0.080 1.15 7.82 4.52v2.56l-2.94-1.7-0.48-0.27zM34.5 17.5l2 1-2 1-2-1 2-1zM42 24v3l-1 0.5v0.5h-1v-1l1-0.5v-1.5h-1v1h-1v-1l1-1h2zM40 30v-1l1 0.010v0.99h-1zM22.22 33.82l-1.030 0.52 0.070 1.15 7.82 4.51v9.030l0.96 0.64 0.96-0.64v-9.030l7.82-4.51 0.080-1.15-1.040-0.52-7.82 4.52-7.82-4.52zM39.95 33.97v11.040l-9.91 5.64-9.9-5.64v-11.040l9.9-5.72 9.91 5.72z"></path>
<path fill="#000" d="M30.001 32.004l1.995 0.998-1.995 0.998-1.995-0.998 1.995-0.998z"></path>
</svg>
