<?xml version="1.0" encoding="utf-8"?>
<!-- Generated by IcoMoon.io -->
<!DOCTYPE svg PUBLIC "-//W3C//DTD SVG 1.1//EN" "http://www.w3.org/Graphics/SVG/1.1/DTD/svg11.dtd">
<svg version="1.1" xmlns="http://www.w3.org/2000/svg" xmlns:xlink="http://www.w3.org/1999/xlink" width="64" height="64" viewBox="0 0 64 64">
<path fill="#000" d="M43 31c-5 0-8 3-8 7s3 8 8 8c4 0 7-4 7-8s-3-7-7-7zM14 49l2-10 2-1 5-1 4-3v-3l-1-2-2-3v-7l5-5h3l5 5v7l-2 3-1 2v7c0 5 4 9 9 9 1 0 2 0 3-1l1 3h-33zM38 40v-3c4.92 0 4.080 0 9 0v3c-4.92 0-4.080 0-9 0z"></path>
</svg>
