<?xml version="1.0" encoding="utf-8"?>
<!-- Generated by IcoMoon.io -->
<!DOCTYPE svg PUBLIC "-//W3C//DTD SVG 1.1//EN" "http://www.w3.org/Graphics/SVG/1.1/DTD/svg11.dtd">
<svg version="1.1" xmlns="http://www.w3.org/2000/svg" xmlns:xlink="http://www.w3.org/1999/xlink" width="64" height="64" viewBox="0 0 64 64">
<path fill="#000" d="M50 44v6l-5-6h-17c-2 0-4-2-4-4v-3h13c1.89 0 4-2.11 4-4v-11h9c2 0 4 2 4 4v14c0 2-2 4-4 4zM14 36v8l5-8h17c2 0 4-2 4-4v-14c0-2-2-4-4-4h-22c-2 0-4 2-4 4v14c0 2 2 4 4 4z"></path>
</svg>
