<?xml version="1.0" encoding="utf-8"?>
<!-- Generated by IcoMoon.io -->
<!DOCTYPE svg PUBLIC "-//W3C//DTD SVG 1.1//EN" "http://www.w3.org/Graphics/SVG/1.1/DTD/svg11.dtd">
<svg version="1.1" xmlns="http://www.w3.org/2000/svg" xmlns:xlink="http://www.w3.org/1999/xlink" width="64" height="64" viewBox="0 0 64 64">
<path fill="#000" d="M40.48 18.010c3.55 0 2.64 6.090 1.86 8.68 0 0 1.55 2.72 5.8 1.88 2.64-5.89 2.39-16.57-7.46-16.57-12.16 0-12.080 18.69-2.010 23.8-1.92 3.83-4.36 7.21-6.9 9.75-4.61-5.58-8.78-13.020-10.5-27.54h-6.8c2.93 22.59 13.26 36.62 18.88 33.45 2.020-1.15 8.060-7.19 11.41-14.27 1.4 0 3.090-0.16 4.77-0.54v-4.75c0-0.030 0.010-0.010-0.010-0.010-13.080 3.010-14.18-13.88-9.040-13.88z"></path>
</svg>
