<?xml version="1.0" encoding="utf-8"?>
<!-- Generated by IcoMoon.io -->
<!DOCTYPE svg PUBLIC "-//W3C//DTD SVG 1.1//EN" "http://www.w3.org/Graphics/SVG/1.1/DTD/svg11.dtd">
<svg version="1.1" xmlns="http://www.w3.org/2000/svg" xmlns:xlink="http://www.w3.org/1999/xlink" width="64" height="64" viewBox="0 0 64 64">
<path fill="#000" d="M30.17 16.98v-6.98h3.66v8.37c-0.6-0.080-1.21-0.12-1.83-0.12s-1.23 0.040-1.83 0.12v-1.39zM32 21.82c2.81 0 5.35 1.14 7.19 2.98h0.010v0.010c1.84 1.84 2.98 4.38 2.98 7.19s-1.14 5.35-2.98 7.19v0.010h-0.010c-1.84 1.84-4.38 2.98-7.19 2.98s-5.35-1.14-7.19-2.98h-0.010v-0.010c-1.84-1.84-2.98-4.38-2.98-7.19s1.14-5.35 2.98-7.19v-0.010h0.010c1.84-1.84 4.38-2.98 7.19-2.98zM37.53 26.47c-1.41-1.41-3.37-2.29-5.53-2.29s-4.12 0.88-5.53 2.29v0c-1.41 1.41-2.29 3.37-2.29 5.53s0.88 4.12 2.29 5.53v0c1.41 1.41 3.37 2.29 5.53 2.29s4.12-0.88 5.53-2.29v0c1.41-1.41 2.29-3.37 2.29-5.53s-0.88-4.12-2.29-5.53v0zM37.23 19.28l2.35-4.070 0.050-0.1 1.78-3.080 3.18 1.83-1.74 3.020-0.13 0.22-2.32 4.020c-0.96-0.75-2.030-1.37-3.17-1.84zM42.88 23.6l7.26-4.19 1.83 3.18-3.16 1.82-0.63 0.37-3.46 1.99c-0.47-1.14-1.090-2.21-1.84-3.17zM45.63 30.17h8.37v3.66h-8.37c0.080-0.6 0.12-1.21 0.12-1.83s-0.040-1.23-0.12-1.83zM44.72 37.23l7.25 4.18-1.83 3.18-2.81-1.62-1.36-0.79-3.090-1.78c0.75-0.96 1.37-2.030 1.84-3.17zM40.4 42.88l1.61 2.78 1.080 1.88 1.5 2.6-3.18 1.83-1.45-2.52-1.26-2.17-1.47-2.56c1.14-0.47 2.21-1.090 3.17-1.84zM33.83 45.63v8.37h-3.66v-8.37c0.6 0.080 1.21 0.12 1.83 0.12s1.23-0.040 1.83-0.12zM26.77 44.72l-1.4 2.43-1.53 2.65-1.25 2.17-3.18-1.83 2.85-4.93 1.34-2.33c0.96 0.75 2.030 1.37 3.17 1.84zM21.12 40.4l-7.26 4.19-1.83-3.18 1.71-0.99 5.54-3.19c0.47 1.14 1.090 2.21 1.84 3.17zM18.37 33.83h-8.37v-3.66h8.37c-0.080 0.6-0.12 1.21-0.12 1.83s0.040 1.23 0.12 1.83zM19.28 26.77l-1.74-1-5.51-3.18 1.83-3.18 1.27 0.73 4.23 2.45 1.76 1.010c-0.75 0.96-1.37 2.030-1.84 3.17zM23.6 21.12l-4.19-7.26 3.18-1.83 0.7 1.22 2.71 4.68 0.77 1.35c-1.14 0.47-2.21 1.090-3.17 1.84zM28.33 17.27c-0.17 0.040-0.35 0.080-0.53 0.13l-2.79-4.84c1.090-0.38 2.2-0.66 3.32-0.86v5.57zM21.22 20.65c-0.21 0.17-0.41 0.36-0.61 0.55l-4.4-2.54c0.74-0.92 1.56-1.74 2.43-2.48l2.58 4.47zM16.95 27.54c-0.060 0.26-0.12 0.52-0.18 0.79h-4.68c0.17-1.12 0.41-2.18 0.71-3.19l4.15 2.4zM16.8 35.67c0.050 0.25 0.11 0.51 0.18 0.77l-3.95 2.28c-0.37-1-0.65-2.020-0.85-3.050h4.62zM20.16 43.060c0.23 0.29 0.48 0.58 0.74 0.86l-1.84 3.17c-0.82-0.64-1.57-1.34-2.26-2.090l3.36-1.94zM27.1 47.81c0.4 0.12 0.81 0.22 1.23 0.31v2.86c-0.95-0.14-1.85-0.34-2.72-0.59l1.49-2.58zM35.67 48.13c0.41-0.080 0.83-0.18 1.25-0.29l1.33 2.31c-0.84 0.31-1.71 0.55-2.58 0.73v-2.75zM43.51 44.61c0.42-0.33 0.82-0.67 1.2-1.050l1.55 0.9c-0.54 0.68-1.13 1.31-1.75 1.89l-1-1.74zM48.58 37.34c0.17-0.54 0.32-1.090 0.44-1.67h1.030c-0.12 0.77-0.29 1.52-0.49 2.24l-0.98-0.57zM49.13 28.33c-0.11-0.59-0.23-1.18-0.39-1.77l0.71-0.41c0.22 0.72 0.4 1.45 0.54 2.18h-0.86zM45.55 19.95c-0.44-0.57-0.91-1.11-1.43-1.62l0.18-0.31c0.6 0.53 1.15 1.1 1.66 1.7l-0.41 0.23zM37.85 14.55c-0.7-0.22-1.42-0.4-2.18-0.54v-0.020c0.76 0.13 1.5 0.3 2.2 0.51l-0.020 0.050z"></path>
</svg>
