<?xml version="1.0" encoding="utf-8"?>
<!-- Generated by IcoMoon.io -->
<!DOCTYPE svg PUBLIC "-//W3C//DTD SVG 1.1//EN" "http://www.w3.org/Graphics/SVG/1.1/DTD/svg11.dtd">
<svg version="1.1" xmlns="http://www.w3.org/2000/svg" xmlns:xlink="http://www.w3.org/1999/xlink" width="64" height="64" viewBox="0 0 64 64">
<path fill="#000" d="M33 16c0-2-2-4-4-4-1 0-3 2-5 4l-9 10c-2.29 2.55-4 5-4 6s1.59 3.33 4 6l9 10c2 2 4 4 5 4 2 0 4-2 4-4s0-4 0-7l7 7c2 2 4 4 6 4 1 0 3-2 3-4v-32c0-2-2-4-4-4s-3 2-5 4l-7 7c0-2.33 0-4.67 0-7z"></path>
</svg>
