<?xml version="1.0" encoding="utf-8"?>
<!-- Generated by IcoMoon.io -->
<!DOCTYPE svg PUBLIC "-//W3C//DTD SVG 1.1//EN" "http://www.w3.org/Graphics/SVG/1.1/DTD/svg11.dtd">
<svg version="1.1" xmlns="http://www.w3.org/2000/svg" xmlns:xlink="http://www.w3.org/1999/xlink" width="64" height="64" viewBox="0 0 64 64">
<path fill="#000" d="M42 29.8c-0.7-0.14-1.36-0.36-2-0.63v2.36c0 4.2-3.8 7.47-8 7.47s-8-3.27-8-7.47v-8.53h-2v8c0 5.060 4.040 9.42 9 9.95v4.050h-4v4h10v-4h-4v-4.050c4.96-0.53 9-4.89 9-9.95v-1.2zM44 24l-3-7h6l-3 7zM44 12c-4.42 0-8 3.58-8 8s3.58 8 8 8c4.42 0 8-3.58 8-8s-3.58-8-8-8zM44 14c3.31 0 6 2.69 6 6s-2.69 6-6 6c-3.31 0-6-2.69-6-6s2.69-6 6-6zM32 15c1.060 0 2.070 0.28 2.94 0.77-0.6 1.29-0.94 2.72-0.94 4.23 0 1.42 0.3 2.78 0.83 4h-8.83v-3c0-3.3 2.7-6 6-6zM38 28v3c0 3.3-2.7 6-6 6s-6-2.7-6-6v-6h9.34c0.68 1.17 1.58 2.19 2.66 3z"></path>
</svg>
