<?xml version="1.0" encoding="utf-8"?>
<!-- Generated by IcoMoon.io -->
<!DOCTYPE svg PUBLIC "-//W3C//DTD SVG 1.1//EN" "http://www.w3.org/Graphics/SVG/1.1/DTD/svg11.dtd">
<svg version="1.1" xmlns="http://www.w3.org/2000/svg" xmlns:xlink="http://www.w3.org/1999/xlink" width="64" height="64" viewBox="0 0 64 64">
<path fill="#000" d="M22.23 20.94c1.92-1.11 2.31-1.34 3.84-2.22 3.84-2.2 9.35 2.95 12.92 9.17 3.52 6.15 5.14 13.36 1.35 15.56-1.53 0.88-1.91 1.1-3.84 2.21-3.010 1.74-8.040-3.47-11.6-9.59-3.62-6.21-5.73-13.37-2.67-15.13zM24.5 21.31c-1.89 2.050 0.010 7.97 3.040 13.19 2.99 5.14 7.090 9.61 9.78 9.010 1.27-2.61-0.43-7.98-3.17-12.78-2.8-4.9-6.7-9.21-9.65-9.42z"></path>
</svg>
