<?xml version="1.0" encoding="utf-8"?>
<!-- Generated by IcoMoon.io -->
<!DOCTYPE svg PUBLIC "-//W3C//DTD SVG 1.1//EN" "http://www.w3.org/Graphics/SVG/1.1/DTD/svg11.dtd">
<svg version="1.1" xmlns="http://www.w3.org/2000/svg" xmlns:xlink="http://www.w3.org/1999/xlink" width="64" height="64" viewBox="0 0 64 64">
<path fill="#000" d="M49 42h-19v3h15l4-3z"></path>
<path fill="#000" d="M29 47v-12h-4v4h-8v4h8v4h4z"></path>
<path fill="#000" d="M8 43h7v-4h-7z"></path>
<path fill="#000" d="M56 24h-19v3h15l4-3z"></path>
<path fill="#000" d="M36 29v-12h-4v4h-8v4h8v4h4z"></path>
<path fill="#000" d="M16 21h-8v4h8z"></path>
<path fill="#000" d="M18 25h4v-4h-4z"></path>
<path fill="#000" d="M52 19h-15v3h19z"></path>
<path fill="#000" d="M45 37h-15v3h19z"></path>
</svg>
