<?xml version="1.0" encoding="utf-8"?>
<!-- Generated by IcoMoon.io -->
<!DOCTYPE svg PUBLIC "-//W3C//DTD SVG 1.1//EN" "http://www.w3.org/Graphics/SVG/1.1/DTD/svg11.dtd">
<svg version="1.1" xmlns="http://www.w3.org/2000/svg" xmlns:xlink="http://www.w3.org/1999/xlink" width="64" height="64" viewBox="0 0 64 64">
<path fill="#000" d="M8 44l2-8 8-2v-2l-2-2-0.5-7.5 2.5-2.5h4l2.5 2.5-0.5 7.5-2 2v2l2 1-5 2-2 7h-9zM56 44l-2-8-8-2v-2l2-2 0.5-7.5-2.5-2.5h-4l-2.5 2.5 0.5 7.5 2 2v2l-2 1 5 2 2 7h9zM18 46l2-8 10-4v-2l-3-4v-7l3-3h4l3 3v7l-3 4v2l10 4 2 8h-28z"></path>
</svg>
