<?xml version="1.0" encoding="utf-8"?>
<!-- Generated by IcoMoon.io -->
<!DOCTYPE svg PUBLIC "-//W3C//DTD SVG 1.1//EN" "http://www.w3.org/Graphics/SVG/1.1/DTD/svg11.dtd">
<svg version="1.1" xmlns="http://www.w3.org/2000/svg" xmlns:xlink="http://www.w3.org/1999/xlink" width="64" height="64" viewBox="0 0 64 64">
<path fill="#000" d="M44 26c-6 0-12 6-12 12s6 12 12 12c6 0 12-6 12-12s-6-12-12-12zM38 36l4 6 8-9 2 3-10 10-2-2-4-6 2-2z"></path>
<path fill="#000" d="M16 10v44h28v-2c-8 0-14-6-14-14 0 0 0-2 0-2s0-2 0-2h-10v-2h12c0 0 0-2 0-2h-12v-2h14c2 0 2 0 4-2s4-2 6-2v-14h-28zM20 46h8v2h-8v-2zM20 40h8v2h-8v-2zM20 16h20v2h-20v-2zM20 22h20v2h-20v-2z"></path>
</svg>
