<?xml version="1.0" encoding="utf-8"?>
<!-- Generated by IcoMoon.io -->
<!DOCTYPE svg PUBLIC "-//W3C//DTD SVG 1.1//EN" "http://www.w3.org/Graphics/SVG/1.1/DTD/svg11.dtd">
<svg version="1.1" xmlns="http://www.w3.org/2000/svg" xmlns:xlink="http://www.w3.org/1999/xlink" width="64" height="64" viewBox="0 0 64 64">
<path fill="#000" d="M44 14.54c-0.79-0.59-1.72-0.94-2.65-1.040-1.29-0.15-2.62 0.17-3.63 0.94-1.080 0.83-1.78 2.11-1.71 3.8 0.11 2.28 1.86 5.48 6.78 9.26l1.21 0.93 1.21-0.93c4.92-3.78 6.67-6.98 6.78-9.26 0.070-1.69-0.63-2.97-1.71-3.8-1-0.77-2.33-1.090-3.63-0.94-0.93 0.1-1.86 0.45-2.65 1.040zM8 32h5.71l0.2 0.73 1.38 6.62 3.58-23.070 1.11-7.12 0.87 7.16 3.24 26.7 4.16-18.8 1.24-5.61 0.72 5.7 2.23 17.7 2.22-10.28 0.96-4.5 0.99 4.49 1.45 6.62 2.64-5.87 0.85-0.47h14.45v2h-13.9l-3.65 7.47-1.3 2.050-0.52-2.37-0.99-4.51-2.48 11.5-1.24 5.73-0.73-5.81-2.24-17.8-5.44 24.58-0.7-5.79-3.070-25.33-3.18 20.47-0.71 4.54-1.24-4.43-2.41-10.3h-4.2v-2zM44 17.88c1.67-5.27 12.62-1.65 0 8.030-12.62-9.68-1.67-13.3 0-8.030z"></path>
</svg>
