<?xml version="1.0" encoding="utf-8"?>
<!-- Generated by IcoMoon.io -->
<!DOCTYPE svg PUBLIC "-//W3C//DTD SVG 1.1//EN" "http://www.w3.org/Graphics/SVG/1.1/DTD/svg11.dtd">
<svg version="1.1" xmlns="http://www.w3.org/2000/svg" xmlns:xlink="http://www.w3.org/1999/xlink" width="64" height="64" viewBox="0 0 64 64">
<path fill="#000" d="M32 12c-11.040 0-20 8.96-20 20s8.96 20 20 20c11.040 0 20-8.96 20-20 0-5.5-2.22-10.48-5.82-14.1l4.21 4.2 2.82-2.83-8.48-8.48-2.83 2.82 4.2 4.21c-3.62-3.6-8.6-5.82-14.1-5.82zM33.71 18.98v15.010h-3.5v-15.010c0-1.98 3.5-1.97 3.5 0zM32 16c9.39 0 16 6.61 16 16s-6.61 16-16 16c-9.39 0-16-6.61-16-16s6.61-16 16-16z"></path>
</svg>
