<?xml version="1.0" encoding="utf-8"?>
<!-- Generated by IcoMoon.io -->
<!DOCTYPE svg PUBLIC "-//W3C//DTD SVG 1.1//EN" "http://www.w3.org/Graphics/SVG/1.1/DTD/svg11.dtd">
<svg version="1.1" xmlns="http://www.w3.org/2000/svg" xmlns:xlink="http://www.w3.org/1999/xlink" width="64" height="64" viewBox="0 0 64 64">
<path fill="#000" d="M32 27c-5.010 0-9.16 3.69-9.88 8.49-2.69 0.060-5.85 0.44-9.83 1.38 0 1 0 2 0 3 3.96-1.14 7.1-1.67 9.77-1.83 0.14 1.37 0.56 2.65 1.19 3.8-1.24-0.020-2.59 0.040-4.090 0.19-2 0.2-4.26 0.58-6.87 1.2 0 1 0 2 0 3 3.11-0.9 5.71-1.42 7.98-1.68 1.85-0.22 3.48-0.26 4.97-0.19 1.78 1.64 4.15 2.64 6.76 2.64 1.49 0 2.9-0.33 4.16-0.91 3.69 0.51 8.090 0.56 14.84-1.040 0-1 0-1.99 0-3-4.94 1.35-8.62 1.78-11.69 1.76 1-1.060 1.76-2.34 2.21-3.76 2.61-0.070 5.67-0.44 9.48-1.35 0-1 0-2 0-3-3.59 0.98-6.51 1.47-9.010 1.67l0.010-0.37c0-5.52-4.48-10-10-10zM51 47.83c0 1 0 2 0 3-19.35 4.58-19.35-4.42-38.71 1.17 0-1 0-2 0-3 19.36-4.59 19.38 4.090 38.71-1.17zM32 32c2.76 0 5 2.24 5 5s-2.24 4.99-5 4.99c-2.76 0-5-2.23-5-4.99s2.24-5 5-5zM32 30c3.87 0 7 3.13 7 7 0 3.86-3.13 7-7 7s-7-3.14-7-7c0-3.87 3.13-7 7-7z"></path>
</svg>
