<?xml version="1.0" encoding="utf-8"?>
<!-- Generated by IcoMoon.io -->
<!DOCTYPE svg PUBLIC "-//W3C//DTD SVG 1.1//EN" "http://www.w3.org/Graphics/SVG/1.1/DTD/svg11.dtd">
<svg version="1.1" xmlns="http://www.w3.org/2000/svg" xmlns:xlink="http://www.w3.org/1999/xlink" width="64" height="64" viewBox="0 0 64 64">
<path fill="#000" d="M50.88 28.48c-10.24-6.080-27.36-6.72-37.12-3.68-3.71 1.13-5.39-4.46-1.76-5.6 15.98-5.030 47.73 1.070 43.040 8.48-0.8 1.12-2.72 1.6-4.16 0.8v0zM46.72 46.24c-2.84 4.26-8.34-8.19-30.88-2.4-2.45 0.63-3.52-3.13-0.96-3.84 13.35-3.71 34.48 0.96 31.84 6.24v0zM50.56 37.44c-0.8 1.12-2.24 1.6-3.36 0.8-8.64-5.28-21.76-6.88-31.84-3.68-3.23 0.91-4.35-3.84-1.44-4.64 11.68-3.52 26.080-1.76 36 4.32 1.85 1.030 0.64 3.18 0.64 3.2z"></path>
</svg>
