<?xml version="1.0" encoding="utf-8"?>
<!-- Generated by IcoMoon.io -->
<!DOCTYPE svg PUBLIC "-//W3C//DTD SVG 1.1//EN" "http://www.w3.org/Graphics/SVG/1.1/DTD/svg11.dtd">
<svg version="1.1" xmlns="http://www.w3.org/2000/svg" xmlns:xlink="http://www.w3.org/1999/xlink" width="64" height="64" viewBox="0 0 64 64">
<path fill="#000" d="M47.7 13.93c5.2 4.49 8.27 10.87 8.27 17.95 0 8.27-4.010 15.35-10.16 19.6l-0.47-2.12c5.2-4.020 8.74-10.16 8.74-17.48 0-6.85-3.54-13.22-8.5-17.24l2.12-0.71zM24.090 54.55c-9.45-3.3-16.060-12.040-16.060-22.67 0-3.31 0.71-6.85 2.13-9.68l1.41 1.42c-0.94 2.59-1.65 5.43-1.65 8.26 0 7.79 4.010 14.41 9.68 18.42-2.12-2.83-3.54-6.37-3.54-10.39 0-1.42 0.24-3.070 0.71-4.48l1.42 2.83c-0.24 0.47-0.24 1.18-0.24 1.65 0 4.73 2.36 8.98 6.14 11.58v3.060zM38 52l1-4 3 8 1.93-0.030v-4.010l-1.89-9.92-8.040-2.040v-2l2-2v-6l-2-2h-4l-2 2v6l1.99 2.020 0.010 1.98h-4l-4-6-2.16-12.030 2.13-1.89 25.98-8.030 2.12-4.020h-4.010l-28.1 9.92-1.96 2.050-3.5 2.5 1 1 2.5-1.5 1.96-0.030 0.040 12.030 6.1 12.050 1.89 4.020v5.9h12.040l-0.030-3.97zM31.88 24.090c8.98 0 16.060 7.080 16.060 15.82 0 3.31-0.94 6.61-2.6 8.98l-0.71-2.6c0.95-1.89 1.42-4.020 1.42-6.38 0-7.56-6.38-13.93-14.17-13.93-3.31 0-6.37 1.18-8.74 3.070l-0.23-2.13c2.6-1.89 5.66-2.83 8.97-2.83zM31.88 8.030c2.13 0 4.25 0.24 6.38 0.71l-3.78 1.42c-0.95 0-1.66-0.24-2.6-0.24-7.080 0-13.22 3.54-17.24 8.74l-4.49 3.070c4.020-8.030 12.28-13.7 21.73-13.7v0z"></path>
</svg>
