<?xml version="1.0" encoding="utf-8"?>
<!-- Generated by IcoMoon.io -->
<!DOCTYPE svg PUBLIC "-//W3C//DTD SVG 1.1//EN" "http://www.w3.org/Graphics/SVG/1.1/DTD/svg11.dtd">
<svg version="1.1" xmlns="http://www.w3.org/2000/svg" xmlns:xlink="http://www.w3.org/1999/xlink" width="64" height="64" viewBox="0 0 64 64">
<path fill="#000" d="M54 8l-6 2v4l-14 14h-6l-2.030 1.99-15.97 16.010-2 4 2 4 4 2 4-2 18-18v-6l14-14h4l2-6-2-2zM8 20.060v-6.15l4.020 4.26 5.91-0.24 0.24-5.91-4.26-4.020h6.15l4.020 4.020v5.91l-0.080 2.070 7 7h-4l-2 2-5-5-2.070 0.080h-5.91l-4.020-4.020zM35 39l2-2v-4l8 8c5.5-2.5 11 0.52 11 6.96 0 6.15-4.020 8.040-8.040 8.040-5.29 0-9.46-5.5-6.96-11l-6-6zM47.96 43.94c-1.89 0-4.020 2.13-4.020 4.020 0 2.13 2.13 4.020 4.020 4.020 2.13 0 4.020-1.89 4.020-4.020 0-1.89-1.89-4.020-4.020-4.020z"></path>
</svg>
