<?xml version="1.0" encoding="utf-8"?>
<!-- Generated by IcoMoon.io -->
<!DOCTYPE svg PUBLIC "-//W3C//DTD SVG 1.1//EN" "http://www.w3.org/Graphics/SVG/1.1/DTD/svg11.dtd">
<svg version="1.1" xmlns="http://www.w3.org/2000/svg" xmlns:xlink="http://www.w3.org/1999/xlink" width="64" height="64" viewBox="0 0 64 64">
<path fill="#000" d="M47.2 45.080l-7.86-7.86c-0.59 0.82-1.31 1.53-2.13 2.12l7.87 7.86 2.12-2.12zM32 25c-3.87 0-7 3.13-7 7s3.13 7 7 7c3.87 0 7-3.13 7-7s-3.13-7-7-7zM32 37c-2.76 0-5-2.24-5-5s2.24-5 5-5v10zM33.5 40.87v11.13h-3v-11.13c0.49 0.090 0.99 0.13 1.5 0.13s1.010-0.040 1.5-0.13zM26.79 39.34l-7.87 7.86-2.12-2.12 7.86-7.86c0.59 0.82 1.31 1.53 2.13 2.12zM23.13 33.5h-11.13v-3h11.13c-0.090 0.49-0.13 0.99-0.13 1.5s0.040 1.010 0.13 1.5zM24.66 26.79l-7.86-7.87 2.12-2.12 7.86 7.86c-0.82 0.59-1.53 1.31-2.12 2.13zM30.5 23.13v-11.13h3v11.13c-0.49-0.090-0.99-0.13-1.5-0.13s-1.010 0.040-1.5 0.13zM37.22 24.66l7.86-7.86 2.12 2.12-7.86 7.87c-0.59-0.82-1.3-1.54-2.12-2.13zM40.87 30.5h11.13v3h-11.13c0.090-0.49 0.13-0.99 0.13-1.5s-0.040-1.010-0.13-1.5z"></path>
</svg>
