<?xml version="1.0" encoding="utf-8"?>
<!-- Generated by IcoMoon.io -->
<!DOCTYPE svg PUBLIC "-//W3C//DTD SVG 1.1//EN" "http://www.w3.org/Graphics/SVG/1.1/DTD/svg11.dtd">
<svg version="1.1" xmlns="http://www.w3.org/2000/svg" xmlns:xlink="http://www.w3.org/1999/xlink" width="64" height="64" viewBox="0 0 64 64">
<path fill="#000" d="M22.82 50h2.95c0.42-1.23 1-2.36 1.66-4.11 1.37 0.71 2.93 1.11 4.57 1.11 2.76 0 5.26-1.12 7.070-2.93l0.19-0.19c6.25-6.55 1.72-16.91 12.9-20.67-13.62-4-23.48 2.97-27.23 6.72h0.010c-1.82 1.81-2.94 4.31-2.94 7.070 0 2.77 1.13 5.28 2.96 7.090-0.94 2.49-1.66 4.17-2.14 5.91zM32 32c-2.76 0-5 2.24-5 5s2.24 5 5 5c2.76 0 5-2.24 5-5s-2.24-5-5-5zM36.14 27.9v0c2.91-2.010 6.92-3.9 10.82-4.090-5.96 2.19-5.31 3.8-7.89 6.12-0.84-0.84-1.83-1.53-2.93-2.030zM32 30c3.87 0 7 3.14 7 7 0 3.87-3.13 7-7 7-3.86 0-7-3.13-7-7 0-3.86 3.14-7 7-7z"></path>
</svg>
