<?xml version="1.0" encoding="utf-8"?>
<!-- Generated by IcoMoon.io -->
<!DOCTYPE svg PUBLIC "-//W3C//DTD SVG 1.1//EN" "http://www.w3.org/Graphics/SVG/1.1/DTD/svg11.dtd">
<svg version="1.1" xmlns="http://www.w3.org/2000/svg" xmlns:xlink="http://www.w3.org/1999/xlink" width="64" height="64" viewBox="0 0 64 64">
<path fill="#000" d="M47.22 41.62c1.76-2.78 2.78-6.080 2.78-9.62 0-9.94-8.060-18-18-18s-18 8.060-18 18c0 9.94 8.060 18 18 18 3.51 0 6.78-1 9.55-2.74l2.45 2.46 5.66-5.66-2.44-2.44zM32 20c-6.63 0-12 5.37-12 12s5.37 12 12 12c6.63 0 12-5.37 12-12s-5.37-12-12-12zM38 30v4c-6.56 0-5.44 0-12 0v-4c6.56 0 5.44 0 12 0zM32 17c8.28 0 15 6.72 15 15s-6.72 15-15 15c-8.28 0-15-6.72-15-15s6.72-15 15-15zM45.42 51.13l5.66-5.65 4.93 4.93-0.010 5.59-5.72-0.010-4.86-4.86z"></path>
</svg>
