<?xml version="1.0" encoding="utf-8"?>
<!-- Generated by IcoMoon.io -->
<!DOCTYPE svg PUBLIC "-//W3C//DTD SVG 1.1//EN" "http://www.w3.org/Graphics/SVG/1.1/DTD/svg11.dtd">
<svg version="1.1" xmlns="http://www.w3.org/2000/svg" xmlns:xlink="http://www.w3.org/1999/xlink" width="64" height="64" viewBox="0 0 64 64">
<path fill="#000" d="M32 23c-4.97 0-9 4.030-9 9s4.030 9 9 9c4.97 0 9-4.030 9-9s-4.030-9-9-9zM32 25c3.87 0 7 3.13 7 7s-3.13 7-7 7c-3.87 0-7-3.13-7-7s3.13-7 7-7z"></path>
<path fill="#000" d="M37 32c0 2.761-2.239 5-5 5s-5-2.239-5-5c0-2.761 2.239-5 5-5s5 2.239 5 5z"></path>
<path fill="#000" d="M25.57 55.78l5.53-14.88 0.99 0.010 0.9-0.010 5.53 14.88-2.56-15.050c0.91-0.090 1.82-0.22 2.77-0.39l10.93 9.040-8.12-9.77c1.92-0.62 3.85-1.54 5.7-2.83l8.85 1.5-7.31-2.7c1.18-1.010 2.31-2.21 3.38-3.63-1.070-1.41-2.2-2.61-3.38-3.62l7.31-2.7-8.85 1.5c-1.85-1.29-3.78-2.21-5.7-2.83l8.12-9.77-10.93 9.040c-0.95-0.17-1.86-0.3-2.77-0.39l2.56-15.060-5.53 14.89-0.99-0.010-0.9 0.010-5.53-14.89 2.55 15.060c-0.9 0.090-1.82 0.22-2.76 0.39l-10.93-9.040 8.12 9.77c-1.92 0.62-3.86 1.54-5.7 2.83l-8.85-1.5 7.31 2.7c-1.18 1.010-2.32 2.21-3.38 3.62 1.060 1.42 2.2 2.62 3.38 3.63l-7.31 2.7 8.85-1.5c1.84 1.29 3.78 2.21 5.7 2.83l-8.12 9.77 10.93-9.040c0.94 0.17 1.86 0.3 2.76 0.39l-2.55 15.050zM49.050 31.95c-4.87 5.99-12.97 6.96-16.96 6.96h-0.090c-3.99 0-12.090-0.97-16.96-6.96 4.87-5.98 12.97-6.95 16.96-6.95h0.090c3.99 0 12.090 0.97 16.96 6.95z"></path>
</svg>
