<?xml version="1.0" encoding="utf-8"?>
<!-- Generated by IcoMoon.io -->
<!DOCTYPE svg PUBLIC "-//W3C//DTD SVG 1.1//EN" "http://www.w3.org/Graphics/SVG/1.1/DTD/svg11.dtd">
<svg version="1.1" xmlns="http://www.w3.org/2000/svg" xmlns:xlink="http://www.w3.org/1999/xlink" width="64" height="64" viewBox="0 0 64 64">
<path fill="#000" d="M14.030 12c-0.050 0.15-0.1 0.31-0.1 0.51v38.72c0 0.36 0.1 0.56 0.31 0.77l19.020-20.16-19.23-19.84zM34.55 33.18l4.92 5.070-7.030 4c0 0-8.92 5.080-13.84 7.9l15.95-16.97zM35.88 31.79l5.28 5.49c0.83-0.46 7.28-4.15 8.21-4.67 0.97-0.56 0.87-1.33 0.050-1.74-0.77-0.41-7.23-4.1-8.2-4.72l-5.34 5.64zM34.55 30.46l4.97-5.28-7.080-4.050c0 0-11.59-6.62-15.43-8.83l17.54 18.16z"></path>
</svg>
