<?xml version="1.0" encoding="utf-8"?>
<!-- Generated by IcoMoon.io -->
<!DOCTYPE svg PUBLIC "-//W3C//DTD SVG 1.1//EN" "http://www.w3.org/Graphics/SVG/1.1/DTD/svg11.dtd">
<svg version="1.1" xmlns="http://www.w3.org/2000/svg" xmlns:xlink="http://www.w3.org/1999/xlink" width="64" height="64" viewBox="0 0 64 64">
<path fill="#000" d="M32.11 33.87c-1.56 3.21-3.69 7.57-4.75 9.53-1.020 1.78-1.87 1.55-2.55 0.050l-10.43-22.54c-1.3-1.1-2.38 0.58-2.38-1.47h9.15c0 1.17 0.19 0.99-1.31 1.050-1.45 0.060-1.35 0.72-0.93 1.72 1.8 4.39 8.010 17.5 8.010 17.5l0.23 0.060 4.010-8-4.27-8.62c-2.64-5.22-2.93-0.93-2.93-3.71l7.43-0.020c0 2.63-3.18-0.69-1.12 3.46l2.64 5.41c3.35-6.68 4.6-7.67 1.43-7.85l-0.35-1.010h6.9c0 2.67-0.45-1.28-3.12 3.48l-3.91 7.33 4.65 9.5 0.28 0.080 7.31-17.36c1.040-2.64-2.56-1.58-2.56-2.31v-0.73l8.46 0.010c0 2.6-2.27-0.61-3.96 3.48 0 0-6.72 15.4-9.030 20.52-0.88 1.67-1.75 1.52-2.51-0.050-0.95-1.97-2.93-6.3-4.39-9.51v0z"></path>
</svg>
