<?xml version="1.0" encoding="utf-8"?>
<!-- Generated by IcoMoon.io -->
<!DOCTYPE svg PUBLIC "-//W3C//DTD SVG 1.1//EN" "http://www.w3.org/Graphics/SVG/1.1/DTD/svg11.dtd">
<svg version="1.1" xmlns="http://www.w3.org/2000/svg" xmlns:xlink="http://www.w3.org/1999/xlink" width="64" height="64" viewBox="0 0 64 64">
<path fill="#000" d="M35.9 21.96l10.15 8.030h-14.17v4.020h14.17l-10.15 8.020v4.020h4.010l14.17-14.17-14.17-13.93h-4.010v4.010z"></path>
<path fill="#000" d="M47.94 50.070c0 1.89-1.89 4.010-4.010 4.010h-23.86c-2.12 0-4.010-2.13-4.010-4.010v-36.14c0-1.88 1.89-4.010 4.010-4.010h23.86c2.12 0 4.010 2.13 4.010 4.010v5.91l-4.010-3.78v-2.13h-23.86v36.14h23.86v-1.89l4.010-4.25v6.14z"></path>
<path fill="#000" d="M24.090 34.010h5.9v-4.020h-5.9z"></path>
</svg>
