<?xml version="1.0" encoding="utf-8"?>
<!-- Generated by IcoMoon.io -->
<!DOCTYPE svg PUBLIC "-//W3C//DTD SVG 1.1//EN" "http://www.w3.org/Graphics/SVG/1.1/DTD/svg11.dtd">
<svg version="1.1" xmlns="http://www.w3.org/2000/svg" xmlns:xlink="http://www.w3.org/1999/xlink" width="64" height="64" viewBox="0 0 64 64">
<path fill="#000" d="M8 56l17-17v-4l-17 17v4zM46 50l-10-2-2-2v-2l3.5-3.5 0.5-8.5-4-4h-4l-4 4 0.5 8.5 3.5 3.5v2l-2 2-10 2-2 6h32l-2-6zM56 32l-24-23.91-24 23.91v4l24-23.92 24 23.92v-4zM56 52l-17-17v4l17 17v-4z"></path>
</svg>
