<?xml version="1.0" encoding="utf-8"?>
<!-- Generated by IcoMoon.io -->
<!DOCTYPE svg PUBLIC "-//W3C//DTD SVG 1.1//EN" "http://www.w3.org/Graphics/SVG/1.1/DTD/svg11.dtd">
<svg version="1.1" xmlns="http://www.w3.org/2000/svg" xmlns:xlink="http://www.w3.org/1999/xlink" width="64" height="64" viewBox="0 0 64 64">
<path fill="#000" d="M43.93 25.98c-6.61 0-11.81 5.43-11.81 12.040s5.19 12.050 11.81 12.050c6.61 0 12.040-5.44 12.040-12.050s-5.43-12.040-12.040-12.040zM43.93 9.92h-27.87v44.17h27.87v-2.13c-7.56 0-13.94-6.14-13.94-13.93 0-0.71 0-1.19 0.24-1.89 0-0.48 0.23-1.42 0.47-2.13h-10.63v-2.13h11.34c0.24-0.7 0.71-1.18 1.18-1.89h-12.52v-1.89h13.94c0.94-1.18 0.94-1.18 3.31-2.36 1.88-1.18 4.24-1.89 6.61-1.89v-13.93zM20.070 16.060h19.84v1.89h-19.84v-1.89zM20.070 46.050h8.030v1.89h-8.030v-1.89zM20.070 39.91h8.030v2.13h-8.030v-2.13zM20.070 21.96h19.84v2.13h-19.84v-2.13zM44 46l-8.1-11.99h16.060l-7.96 11.99z"></path>
</svg>
