<?xml version="1.0" encoding="utf-8"?>
<!-- Generated by IcoMoon.io -->
<!DOCTYPE svg PUBLIC "-//W3C//DTD SVG 1.1//EN" "http://www.w3.org/Graphics/SVG/1.1/DTD/svg11.dtd">
<svg version="1.1" xmlns="http://www.w3.org/2000/svg" xmlns:xlink="http://www.w3.org/1999/xlink" width="64" height="64" viewBox="0 0 64 64">
<path fill="#000" d="M31.94 52c0 0 4.38 0 4.38-12.99 0-5.78-8.77-5.78-8.77 0 0 12.99 4.39 12.99 4.39 12.99zM37.87 44.72c15.86-6.56 11.23-29.79-5.47-30.21-17.17-0.43-22.46 23.43-6.4 30.16l0.55 2.86c-16.050-4.94-17.18-27.53-1.64-34.1 15.5-6.55 30.84 9.8 23.38 24.83-2.22 4.47-6.21 7.85-10.97 9.31l0.55-2.85zM38.010 37.47c9.77-8.070-2.9-22.88-12.37-14.28-4.23 3.85-4.12 10.48 0.24 14.2l-0.21 2.95c-12.23-7.63-2.73-26.57 10.7-21.28 9.14 3.59 10.32 16.19 1.81 21.36l-0.17-2.95zM31.94 33.31c-5.82 0-5.84-8.86 0.030-8.86 5.75 0 5.81 8.86-0.030 8.86z"></path>
</svg>
