<?xml version="1.0" encoding="utf-8"?>
<!-- Generated by IcoMoon.io -->
<!DOCTYPE svg PUBLIC "-//W3C//DTD SVG 1.1//EN" "http://www.w3.org/Graphics/SVG/1.1/DTD/svg11.dtd">
<svg version="1.1" xmlns="http://www.w3.org/2000/svg" xmlns:xlink="http://www.w3.org/1999/xlink" width="64" height="64" viewBox="0 0 64 64">
<path fill="#000" d="M22 16c-2 0-4 2-4 4l9 9h10l9-9c0-2-2-4-4-4h-20zM36 8c2 0 4 2 4 4v2h-4v-2h-8v2h-4v-2c0-2 2-4 4-4h8zM38 32l8.52-8.62 3.48 24.62c0 2-2 4-4 4h-28c-2 0-4-2-4-4l3.48-24.62 8.52 8.62h12zM29.010 36l-2 2 2 2h5.99l2-2-2-2h-5.99z"></path>
</svg>
