<?xml version="1.0" encoding="utf-8"?>
<!-- Generated by IcoMoon.io -->
<!DOCTYPE svg PUBLIC "-//W3C//DTD SVG 1.1//EN" "http://www.w3.org/Graphics/SVG/1.1/DTD/svg11.dtd">
<svg version="1.1" xmlns="http://www.w3.org/2000/svg" xmlns:xlink="http://www.w3.org/1999/xlink" width="64" height="64" viewBox="0 0 64 64">
<path fill="#000" d="M47.23 27.86c0-2.93-4.44-2.92-4.44 0v9.31c0 2.92 4.45 2.93 4.45 0v-9.31h-0.010zM22.070 26.060l0.010 14.42c0 2.61 2.64 2.37 3.98 2.37 0 3.23-0.73 7.15 2.22 7.15s2.22-3.92 2.22-7.15h3c0 3.23-0.73 7.15 2.23 7.15 2.94 0 2.22-3.92 2.22-7.15 1.33 0 3.99 0.24 3.99-2.37v-14.42h-19.87zM36.56 21.66c-1.11 0-1.1-1.67 0-1.68 1.090 0 1.11 1.68 0 1.68v0zM27.45 21.66c-1.11 0-1.1-1.68-0.010-1.68 1.11 0 1.12 1.69 0 1.69l0.010-0.010zM36.91 17.29l-0.57-0.27c-2.73-1.21-5.95-1.22-8.69 0l-0.55 0.27c-3.050 1.57-5.11 4.57-5.11 8h20.020c0-3.44-2.060-6.42-5.11-8h0.010zM18.98 25.64c-1.22 0-2.22 1-2.22 2.22v9.31c0 2.92 4.45 2.93 4.45 0v-9.31c0-1.22-1-2.22-2.23-2.22v0zM18.98 25.64v0z"></path>
</svg>
