<?xml version="1.0" encoding="utf-8"?>
<!-- Generated by IcoMoon.io -->
<!DOCTYPE svg PUBLIC "-//W3C//DTD SVG 1.1//EN" "http://www.w3.org/Graphics/SVG/1.1/DTD/svg11.dtd">
<svg version="1.1" xmlns="http://www.w3.org/2000/svg" xmlns:xlink="http://www.w3.org/1999/xlink" width="64" height="64" viewBox="0 0 64 64">
<path fill="#000" d="M42 37v0c0-5.3-2.040-17.21-14.5-24 5.24 10.53-5.23 14.66-5.49 23.66l-0.010 0.34c0 5.52 4.48 10 10 10s10-4.48 10-10zM32 32c2.76 0 5 2.24 5 5s-2.24 5-5 5c-2.76 0-5-2.24-5-5s2.24-5 5-5zM32 30c3.87 0 7 3.14 7 7 0 3.87-3.13 7-7 7s-7-3.13-7-7c0-3.86 3.13-7 7-7z"></path>
</svg>
