<?xml version="1.0" encoding="utf-8"?>
<!-- Generated by IcoMoon.io -->
<!DOCTYPE svg PUBLIC "-//W3C//DTD SVG 1.1//EN" "http://www.w3.org/Graphics/SVG/1.1/DTD/svg11.dtd">
<svg version="1.1" xmlns="http://www.w3.org/2000/svg" xmlns:xlink="http://www.w3.org/1999/xlink" width="64" height="64" viewBox="0 0 64 64">
<path fill="#000" d="M48.5 20c0 2.761-2.239 5-5 5s-5-2.239-5-5c0-2.761 2.239-5 5-5s5 2.239 5 5z"></path>
<path fill="#000" d="M25.5 32c0 2.761-2.239 5-5 5s-5-2.239-5-5c0-2.761 2.239-5 5-5s5 2.239 5 5z"></path>
<path fill="#000" d="M48.96 44c0 2.761-2.239 5-5 5s-5-2.239-5-5c0-2.761 2.239-5 5-5s5 2.239 5 5z"></path>
<path fill="#000" d="M42 44l-23-12 2-1 23 12z"></path>
<path fill="#000" d="M42 20l-23 12 2 1 23-12z"></path>
</svg>
