<?xml version="1.0" encoding="utf-8"?>
<!-- Generated by IcoMoon.io -->
<!DOCTYPE svg PUBLIC "-//W3C//DTD SVG 1.1//EN" "http://www.w3.org/Graphics/SVG/1.1/DTD/svg11.dtd">
<svg version="1.1" xmlns="http://www.w3.org/2000/svg" xmlns:xlink="http://www.w3.org/1999/xlink" width="64" height="64" viewBox="0 0 64 64">
<path fill="#000" d="M52 19.6c-1.48 0.65-3.050 1.090-4.71 1.29 1.69-1.020 2.99-2.63 3.6-4.54-1.58 0.94-3.34 1.62-5.21 1.99-5.63-6.020-15.87-0.77-13.98 7.48-6.82-0.34-12.87-3.61-16.92-8.57-2.18 3.71-1.060 8.55 2.54 10.96-1.34-0.050-2.61-0.42-3.72-1.030 0 4.070 2.78 7.39 6.59 8.15l-3.71 0.14c1.050 3.26 4.080 5.63 7.67 5.7-3.37 2.64-7.69 3.92-12.15 3.4 15.81 10.12 36.71-1.48 35.9-20.72 1.61-1.16 3-2.6 4.1-4.25z"></path>
</svg>
