<?xml version="1.0" encoding="utf-8"?>
<!-- Generated by IcoMoon.io -->
<!DOCTYPE svg PUBLIC "-//W3C//DTD SVG 1.1//EN" "http://www.w3.org/Graphics/SVG/1.1/DTD/svg11.dtd">
<svg version="1.1" xmlns="http://www.w3.org/2000/svg" xmlns:xlink="http://www.w3.org/1999/xlink" width="64" height="64" viewBox="0 0 64 64">
<path fill="#000" d="M45 42v6h-6l6-6zM45 8v26l-14 14h-16v-39.96l30-0.040zM49 35.96v-1.96h-2l-18 18 1.5 0.5 0.5 1.5 18-18.040zM42 18h-24v2h24v-2zM42 30h-24v2h24v-2zM42 24h-24v2h24v-2zM34 36h-16v2h16v-2zM27 56l3-1-0.5-1.5-1.5-0.5-1 3z"></path>
</svg>
