<?xml version="1.0" encoding="utf-8"?>
<!-- Generated by IcoMoon.io -->
<!DOCTYPE svg PUBLIC "-//W3C//DTD SVG 1.1//EN" "http://www.w3.org/Graphics/SVG/1.1/DTD/svg11.dtd">
<svg version="1.1" xmlns="http://www.w3.org/2000/svg" xmlns:xlink="http://www.w3.org/1999/xlink" width="64" height="64" viewBox="0 0 64 64">
<path fill="#000" d="M46.99 30c0.56 0.38 1.010 1.22 1.010 2 0 0.74-0.45 1.62-1.010 2l-18 12c-0.73 0.49-4 3-5 3s-2-0.63-2.010-2.11v-29.77c0-1.54 1.010-2.12 2.010-2.12s4.16 2.45 4.96 2.99l18.040 12.010z"></path>
<path fill="#000" d="M46 15c1.105 0 2 0.895 2 2v30c0 1.105-0.895 2-2 2s-2-0.895-2-2v-30c0-1.105 0.895-2 2-2z"></path>
</svg>
