<?xml version="1.0" encoding="utf-8"?>
<!-- Generated by IcoMoon.io -->
<!DOCTYPE svg PUBLIC "-//W3C//DTD SVG 1.1//EN" "http://www.w3.org/Graphics/SVG/1.1/DTD/svg11.dtd">
<svg version="1.1" xmlns="http://www.w3.org/2000/svg" xmlns:xlink="http://www.w3.org/1999/xlink" width="64" height="64" viewBox="0 0 64 64">
<path fill="#000" d="M54.5 30.34v0c0 7.38-3.46 13.85-8.77 18-2.77 2.54-5.81 4.43-9.73 5.12v2.54l-8 0.010v-2.54c-3.93-0.7-7.19-2.59-9.73-5.13-5.31-4.16-8.77-10.62-8.77-18 0-12.23 10.15-22.39 22.38-22.39 12.46 0 22.62 10.16 22.62 22.39zM28 58h8v4h-8v-4zM45.74 30.62c0-7.39-6.23-13.62-13.86-13.62-7.38 0-13.62 6.23-13.62 13.62 0 7.63 6.24 13.86 13.62 13.86 7.63 0 13.86-6.23 13.86-13.86zM50.38 30.5c0-10.080-8.41-18.25-18.5-18.25s-18.25 8.17-18.25 18.25c0 10.33 8.16 18.5 18.25 18.5s18.5-8.17 18.5-18.5z"></path>
</svg>
