<?xml version="1.0" encoding="utf-8"?>
<!-- Generated by IcoMoon.io -->
<!DOCTYPE svg PUBLIC "-//W3C//DTD SVG 1.1//EN" "http://www.w3.org/Graphics/SVG/1.1/DTD/svg11.dtd">
<svg version="1.1" xmlns="http://www.w3.org/2000/svg" xmlns:xlink="http://www.w3.org/1999/xlink" width="64" height="64" viewBox="0 0 64 64">
<path fill="#000" d="M12 30.43v3.15c0 3.23 0.4 6.47 0.4 6.47s0.39 2.75 1.59 3.97c1.52 1.59 3.52 1.54 4.41 1.71 3.2 0.31 13.6 0.4 13.6 0.4s8.4-0.010 14-0.42c0.79-0.090 2.49-0.1 4.010-1.69 1.2-1.22 1.59-3.97 1.59-3.97s0.4-3.24 0.4-6.48v-3.14c0-3.24-0.4-6.48-0.4-6.48s-0.39-2.75-1.59-3.97c-1.52-1.59-3.22-1.6-4.010-1.69-5.6-0.41-14-0.42-14-0.42s-10.4 0.090-13.6 0.4c-0.89 0.17-2.89 0.12-4.41 1.71-1.2 1.22-1.59 3.97-1.59 3.97s-0.4 3.24-0.4 6.48zM27.87 37.25v-11.24l10.81 5.64-10.81 5.6z"></path>
</svg>
