<?xml version="1.0" encoding="utf-8"?>
<!-- Generated by IcoMoon.io -->
<!DOCTYPE svg PUBLIC "-//W3C//DTD SVG 1.1//EN" "http://www.w3.org/Graphics/SVG/1.1/DTD/svg11.dtd">
<svg version="1.1" xmlns="http://www.w3.org/2000/svg" xmlns:xlink="http://www.w3.org/1999/xlink" width="64" height="64" viewBox="0 0 64 64">
<path fill="#000" d="M32.52 27.010c0.46-4.96 5.57-6.56 3.42-14.030-1 0-1.99 0-3 0 2.71 7.53-2.19 9.1-2.97 14.16-1.38 0.25-2.66 0.79-3.78 1.54-0.6-5.5 4.14-7.060 3.92-12.7h-2.78c0.75 6.34-5.14 7.53-3.54 14.96-1.27 1.68-2.030 3.77-2.030 6.040 0 5.52 4.48 10 10 10s10-4.48 10-10c0-2.95-1.28-5.6-3.31-7.43-1.23-6.22 4.020-7.64 3.78-13.57h-2.77c0.62 5.32-3.41 7.010-3.79 11.8-0.98-0.42-2.040-0.68-3.15-0.77zM31.76 31.98c2.76 0 5 2.24 5 5s-2.24 5-5 5c-2.76 0-5-2.24-5-5s2.24-5 5-5zM31.76 29.98c3.86 0 7 3.14 7 7 0 3.87-3.14 7-7 7-3.87 0-7-3.13-7-7 0-3.86 3.13-7 7-7z"></path>
</svg>
