<?xml version="1.0" encoding="utf-8"?>
<!-- Generated by IcoMoon.io -->
<!DOCTYPE svg PUBLIC "-//W3C//DTD SVG 1.1//EN" "http://www.w3.org/Graphics/SVG/1.1/DTD/svg11.dtd">
<svg version="1.1" xmlns="http://www.w3.org/2000/svg" xmlns:xlink="http://www.w3.org/1999/xlink" width="64" height="64" viewBox="0 0 64 64">
<path fill="#000" d="M20 32l2 6 2 2h2l4-2v-4l-2-4-8 2z"></path>
<path fill="#000" d="M44 48l-2 6-2 2h-2l-4-2v-4l2-4 8 2z"></path>
<path fill="#000" d="M36 44l2-12 2-4 6-4 2 2 2 4v4l-2 6-2 4-2 2-8-2z"></path>
<path fill="#000" d="M28 28l-2-12-2-4-6-4-2 2-2 4v4l2 6 2 4 2 2 8-2z"></path>
</svg>
