<?xml version="1.0" encoding="utf-8"?>
<!-- Generated by IcoMoon.io -->
<!DOCTYPE svg PUBLIC "-//W3C//DTD SVG 1.1//EN" "http://www.w3.org/Graphics/SVG/1.1/DTD/svg11.dtd">
<svg version="1.1" xmlns="http://www.w3.org/2000/svg" xmlns:xlink="http://www.w3.org/1999/xlink" width="64" height="64" viewBox="0 0 64 64">
<path fill="#000" d="M44.28 28.43c1.38 0 1.38 2.1 0 2.1h-2.93v1.87c1.89 0 3.97-0.39 3.97 1.050 0 1.54-2.55 1.050-5.020 1.050-1.79 0-1.040-4.99-1.040-9 0-1.53 2.55-1.050 5.020-1.050 1.37 0 1.38 2.1 0 2.1h-2.93v1.88h2.93zM35.96 34.080l-4.080-5.54c0 2.95 0.56 5.96-1.050 5.96-1.79 0-1.040-4.99-1.040-9 0-1 1.29-1.43 1.89-0.62l4.070 5.54c0-2.94-0.55-5.97 1.050-5.97 1.79 0 1.050 4.96 1.050 8.99 0 1.030-1.3 1.44-1.89 0.64zM28.28 33.45c0 1.38-2.090 1.39-2.090 0 0-4.030-0.75-9 1.050-9 1.79 0 1.040 4.99 1.040 9zM24.17 34.5c-6.27 0-5.030 1.5-5.030-9 0-1.37 2.1-1.38 2.1 0v6.9c1.9 0 3.98-0.4 3.98 1.050 0 0.58-0.47 1.050-1.050 1.050zM52 29.18c0-8.95-8.97-16.24-20-16.24-23.2 0-28.51 27.87-3.28 32.25 4.61 0.8-1.17 7.46 3.28 5.58 2.14-0.9 11.52-6.78 15.72-11.61 2.89-3.17 4.28-6.4 4.28-9.98z"></path>
</svg>
