<?xml version="1.0" encoding="utf-8"?>
<!-- Generated by IcoMoon.io -->
<!DOCTYPE svg PUBLIC "-//W3C//DTD SVG 1.1//EN" "http://www.w3.org/Graphics/SVG/1.1/DTD/svg11.dtd">
<svg version="1.1" xmlns="http://www.w3.org/2000/svg" xmlns:xlink="http://www.w3.org/1999/xlink" width="64" height="64" viewBox="0 0 64 64">
<path fill="#000" d="M42 23v8c0 5.060-4.040 9.42-9 9.95v4.050h4v4h-10v-4h4v-4.050c-4.96-0.53-9-4.89-9-9.95v-8h2v8.53c0 4.2 3.8 7.47 8 7.47s8-3.27 8-7.47v-8.53h2zM32 15c3.3 0 6 2.7 6 6v3h-12v-3c0-3.3 2.7-6 6-6zM38 25v6c0 3.3-2.7 6-6 6s-6-2.7-6-6v-6h12z"></path>
</svg>
