<?xml version="1.0" encoding="utf-8"?>
<!-- Generated by IcoMoon.io -->
<!DOCTYPE svg PUBLIC "-//W3C//DTD SVG 1.1//EN" "http://www.w3.org/Graphics/SVG/1.1/DTD/svg11.dtd">
<svg version="1.1" xmlns="http://www.w3.org/2000/svg" xmlns:xlink="http://www.w3.org/1999/xlink" width="64" height="64" viewBox="0 0 64 64">
<path fill="#000" d="M26.96 16.34v29.22l6.52 2.1v-24.5c0-2.55 2.58-2.28 2.58 0.85v9.78c4.070 1.99 7.27 0 7.27-5.25 0-5.39-1.88-7.78-7.39-9.7l-8.98-2.5zM34.71 43.38l10.48-3.79c2.77-1-0.55-2.22-3.5-1.15l-6.98 2.49v-3.97c10.55-3.7 23.23 1.76 14.24 5.070l-14.24 5.19v-3.84zM16.35 37.37l9.35-3.36v3.84c-2.050 0.74-9.89 2.88-7.13 3.8 2.21 0.74 5-0.61 7.12-1.39v3.44c-3.59 0.62-6.93 0.54-10.69-0.71-5.89-1.69-2.12-4.41 1.35-5.62z"></path>
</svg>
