<?xml version="1.0" encoding="utf-8"?>
<!-- Generated by IcoMoon.io -->
<!DOCTYPE svg PUBLIC "-//W3C//DTD SVG 1.1//EN" "http://www.w3.org/Graphics/SVG/1.1/DTD/svg11.dtd">
<svg version="1.1" xmlns="http://www.w3.org/2000/svg" xmlns:xlink="http://www.w3.org/1999/xlink" width="64" height="64" viewBox="0 0 64 64">
<path fill="#000" d="M43.93 25.98c6.61 0 12.040 5.43 12.040 12.040s-5.43 12.050-12.040 12.050c-6.62 0-11.81-5.44-11.81-12.050s5.2-12.040 11.81-12.040zM16.060 9.92v44.17h27.87v-2.13c-7.56 0-13.94-6.14-13.94-13.93 0-0.71 0-1.19 0.24-1.89 0-0.48 0.23-1.42 0.47-2.13h-10.63v-2.13h11.34c0.24-0.7 0.71-1.18 1.18-1.89h-12.52v-1.89h13.94c0.94-1.18 0.94-1.18 3.31-2.36 1.88-1.18 4.24-1.89 6.61-1.89v-13.93h-27.87zM20.070 16.060h19.84v1.89h-19.84v-1.89zM20.070 46.050h8.030v1.89h-8.030v-1.89zM20.070 39.91h8.030v2.13h-8.030v-2.13zM20.070 21.96h19.84v2.13h-19.84v-2.13zM43.93 29.99l-8.030 13.94h16.060l-8.030-13.94z"></path>
</svg>
