<?xml version="1.0" encoding="utf-8"?>
<!-- Generated by IcoMoon.io -->
<!DOCTYPE svg PUBLIC "-//W3C//DTD SVG 1.1//EN" "http://www.w3.org/Graphics/SVG/1.1/DTD/svg11.dtd">
<svg version="1.1" xmlns="http://www.w3.org/2000/svg" xmlns:xlink="http://www.w3.org/1999/xlink" width="64" height="64" viewBox="0 0 64 64">
<path fill="#000" d="M43.010 7.97c-7.19 0-13.010 5.83-13.010 13.020s5.82 13.010 13.010 13.010c7.19 0 13.020-5.82 13.020-13.010s-5.83-13.020-13.020-13.020zM12 27.43c0-1.14 1.14-2.29 2.29-2.29h3.44l7.98-9.14h2.29v32h-2.29l-8-9.14c-1.14 0-2.28 0-3.42 0-1.15 0-2.29-1.15-2.29-2.29 0-3.050 0-6.090 0-9.14v0zM43.5 35.97c-1.58 6.19-6.78 10.95-13.21 11.87v-2.32c5.2-0.87 9.42-4.68 10.88-9.66 0.6 0.080 1.22 0.11 1.84 0.11h0.49zM38.91 35.41c-1.23 3.93-4.53 6.95-8.62 7.79v-2.34c3.1-0.8 5.57-3.19 6.48-6.25 0.69 0.32 1.4 0.59 2.14 0.8zM34.7 33.46c-0.51 2.33-2.2 4.22-4.41 5.010v-2.5c1.36-0.8 2.28-2.28 2.28-3.97l-0.010-0.27c0.66 0.64 1.38 1.22 2.14 1.73zM43 14l-6 13h12l-6-13zM43.010 10.17c5.98 0 10.82 4.84 10.82 10.82 0 5.97-4.84 10.82-10.82 10.82-5.97 0-10.82-4.85-10.82-10.82 0-5.98 4.85-10.82 10.82-10.82z"></path>
</svg>
