<?xml version="1.0" encoding="utf-8"?>
<!-- Generated by IcoMoon.io -->
<!DOCTYPE svg PUBLIC "-//W3C//DTD SVG 1.1//EN" "http://www.w3.org/Graphics/SVG/1.1/DTD/svg11.dtd">
<svg version="1.1" xmlns="http://www.w3.org/2000/svg" xmlns:xlink="http://www.w3.org/1999/xlink" width="64" height="64" viewBox="0 0 64 64">
<path fill="#000" d="M32 0c-17.68 0-32 14.32-32 32s14.32 32 32 32c17.68 0 32-14.32 32-32s-14.32-32-32-32zM32 2c16.56 0 30 13.44 30 30s-13.44 30-30 30c-16.56 0-30-13.44-30-30s13.44-30 30-30z"></path>
<path fill="#000" d="M31.9 6c-14.2 0-25.9 11.7-25.9 25.9 0 14.4 11.7 26.1 25.9 26.1 14.4 0 26.1-11.7 26.1-26.1 0-14.2-11.7-25.9-26.1-25.9zM32.3 22.36c3.76 0 6.76 3.26 6.5 7-0.26 4.14-3.28 9.88-5.98 15.14h8.42l5.7 3.86h-29.26l5.7-3.86h8.4c-2.92-5.7-5.9-11.6-5.98-15.64 0-3.58 2.92-6.5 6.5-6.5v0 0zM32.3 26.64c1.36 0 2.44 1.080 2.44 2.42s-1.080 2.44-2.44 2.44c-1.34 0-2.42-1.1-2.42-2.44s1.080-2.42 2.42-2.42z"></path>
</svg>
