<?xml version="1.0" encoding="utf-8"?>
<!-- Generated by IcoMoon.io -->
<!DOCTYPE svg PUBLIC "-//W3C//DTD SVG 1.1//EN" "http://www.w3.org/Graphics/SVG/1.1/DTD/svg11.dtd">
<svg version="1.1" xmlns="http://www.w3.org/2000/svg" xmlns:xlink="http://www.w3.org/1999/xlink" width="64" height="64" viewBox="0 0 64 64">
<path fill="#000" d="M32 0c-17.68 0-32 14.32-32 32s14.32 32 32 32c17.68 0 32-14.32 32-32s-14.32-32-32-32zM32 1.52c16.82 0 30.48 13.64 30.48 30.48 0 16.82-13.66 30.48-30.48 30.48s-30.48-13.66-30.48-30.48c0-16.84 13.66-30.48 30.48-30.48z"></path>
<path fill="#000" d="M32 5.59c-14.85 0-26.41 11.56-26.41 26.41s11.56 26.41 26.41 26.41c14.85 0 26.41-11.56 26.41-26.41s-11.56-26.41-26.41-26.41zM42.73 48.52l-10.73-10.75-10.73 10.75-5.79-5.79 10.75-10.73-10.75-10.73 5.79-5.79 10.73 10.75 10.73-10.75 5.79 5.79-10.75 10.73 10.75 10.73-5.79 5.79z"></path>
</svg>
