<?xml version="1.0" encoding="utf-8"?>
<!-- Generated by IcoMoon.io -->
<!DOCTYPE svg PUBLIC "-//W3C//DTD SVG 1.1//EN" "http://www.w3.org/Graphics/SVG/1.1/DTD/svg11.dtd">
<svg version="1.1" xmlns="http://www.w3.org/2000/svg" xmlns:xlink="http://www.w3.org/1999/xlink" width="64" height="64" viewBox="0 0 64 64">
<path fill="#000" d="M32 0c-17.68 0-32 14.32-32 32s14.32 32 32 32c17.68 0 32-14.32 32-32s-14.32-32-32-32zM32 2c16.56 0 30 13.44 30 30s-13.44 30-30 30c-16.56 0-30-13.44-30-30s13.44-30 30-30z"></path>
<path fill="#000" d="M31.9 6c14.4 0 26.1 11.7 26.1 25.9 0 14.4-11.7 26.1-26.1 26.1-14.2 0-25.9-11.7-25.9-26.1 0-14.2 11.7-25.9 25.9-25.9zM17.38 35.26v6.48l4.060-6.48h13.82c1.62 0 3.24-1.64 3.24-3.26v-11.38c0-1.62-1.62-3.24-3.24-3.24h-17.88c-1.64 0-3.26 1.62-3.26 3.24v11.38c0 1.62 1.62 3.26 3.26 3.26v0zM46.62 41.74v0 0c1.64 0 3.26-1.62 3.26-3.24v-11.38c0-1.62-1.62-3.24-3.26-3.24h-7.3v8.94c0 1.54-1.72 3.24-3.26 3.24h-10.56v2.44c0 1.62 1.62 3.24 3.24 3.24h13.82l4.060 4.88v-4.88z"></path>
</svg>
