<?xml version="1.0" encoding="utf-8"?>
<!-- Generated by IcoMoon.io -->
<!DOCTYPE svg PUBLIC "-//W3C//DTD SVG 1.1//EN" "http://www.w3.org/Graphics/SVG/1.1/DTD/svg11.dtd">
<svg version="1.1" xmlns="http://www.w3.org/2000/svg" xmlns:xlink="http://www.w3.org/1999/xlink" width="64" height="64" viewBox="0 0 64 64">
<path fill="#000" d="M32 0c-17.68 0-32 14.32-32 32s14.32 32 32 32c17.68 0 32-14.32 32-32s-14.32-32-32-32zM32 1.52c16.82 0 30.48 13.64 30.48 30.48 0 16.82-13.66 30.48-30.48 30.48s-30.48-13.66-30.48-30.48c0-16.84 13.66-30.48 30.48-30.48z"></path>
<path fill="#000" d="M32.1 5.59c-14.63 0-26.51 11.88-26.51 26.31 0 14.63 11.88 26.51 26.51 26.51 14.43 0 26.31-11.88 26.31-26.51 0-14.43-11.88-26.31-26.31-26.31zM13.84 45.21l1.64-6.61 1.67-1.64 7.41-1.65 4.13-1.66v-3.3l-3.29-4.95v-8.25l3.29-4.96h6.62l3.29 4.96v8.25l-3.29 4.95v3.3l4.13 1.66 7.41 1.65 1.67 1.64 1.64 6.61h-36.32z"></path>
</svg>
