<?xml version="1.0" encoding="utf-8"?>
<!-- Generated by IcoMoon.io -->
<!DOCTYPE svg PUBLIC "-//W3C//DTD SVG 1.1//EN" "http://www.w3.org/Graphics/SVG/1.1/DTD/svg11.dtd">
<svg version="1.1" xmlns="http://www.w3.org/2000/svg" xmlns:xlink="http://www.w3.org/1999/xlink" width="64" height="64" viewBox="0 0 64 64">
<path fill="#000" d="M32 0c-17.68 0-32 14.32-32 32s14.32 32 32 32c17.68 0 32-14.32 32-32s-14.32-32-32-32zM32 2c16.56 0 30 13.44 30 30s-13.44 30-30 30c-16.56 0-30-13.44-30-30s13.44-30 30-30z"></path>
<path fill="#000" d="M31.8 5.8c-14.26 0-25.8 11.72-25.8 26.2s11.54 26.2 25.8 26.2c14.24 0 26.2-11.72 26.2-26.2s-11.96-26.2-26.2-26.2zM32.2 20.28c0.52 0 1.060 0.020 1.56 0.1l1.9-3.9 5.16 2.14-1.46 4.1c0.82 0.62 1.54 1.36 2.16 2.16l4.14-1.42 2.1 5.18-3.92 1.86c0.060 0.48 0.1 1 0.1 1.5 0 0.52-0.040 1.040-0.1 1.56l3.9 1.92-2.16 5.16-4.080-1.48c-0.64 0.82-1.36 1.54-2.18 2.16l1.42 4.12-5.18 2.12-1.84-3.92c-0.5 0.060-1 0.080-1.52 0.080s-1.040-0.020-1.56-0.080l-1.9 3.9-5.16-2.16 1.46-4.1c-0.8-0.62-1.54-1.36-2.16-2.16l-4.12 1.42-2.12-5.18 3.94-1.86c-0.080-0.48-0.1-1-0.1-1.5 0-0.52 0.020-1.040 0.1-1.56l-3.92-1.9 2.16-5.16 4.1 1.46c0.62-0.82 1.36-1.54 2.16-2.16l-1.4-4.12 5.16-2.12 1.86 3.94c0.48-0.080 1-0.1 1.5-0.1v0 0zM32.2 27.82c2.34 0 4.2 1.86 4.2 4.18s-1.86 4.18-4.2 4.18c-2.3 0-4.18-1.86-4.18-4.18s1.88-4.18 4.18-4.18z"></path>
</svg>
