<?xml version="1.0" encoding="utf-8"?>
<!-- Generated by IcoMoon.io -->
<!DOCTYPE svg PUBLIC "-//W3C//DTD SVG 1.1//EN" "http://www.w3.org/Graphics/SVG/1.1/DTD/svg11.dtd">
<svg version="1.1" xmlns="http://www.w3.org/2000/svg" xmlns:xlink="http://www.w3.org/1999/xlink" width="64" height="64" viewBox="0 0 64 64">
<path fill="#000" d="M32 0c-17.68 0-32 14.32-32 32s14.32 32 32 32c17.68 0 32-14.32 32-32s-14.32-32-32-32zM32 2c16.56 0 30 13.44 30 30s-13.44 30-30 30c-16.56 0-30-13.44-30-30s13.44-30 30-30z"></path>
<path fill="#000" d="M32 6c-14.36 0-26 11.64-26 26s11.64 26 26 26c14.36 0 26-11.64 26-26s-11.64-26-26-26zM23.88 43.38l1.62-4.88 1.62-1.62 4.98-1.72 3.16-1.54v-1.62l-2.86-3.66-0.4-7.72 3.26-3.24h4.86l3.26 3.24-0.4 7.72-2.86 3.66v1.62l3.26 1.64 6.5 1.62 1.62 6.5h-27.62zM14.12 36.88l6.5-1.62 1.62-0.82v-2.44l-2.42-3.26-0.42-6.080 2.84-3.66h4.88l2.84 3.66-0.4 6.080-2.44 3.26v2.44l-1.62 0.82-1.62 1.62-1.56 6.5h-9.82l1.62-6.5z"></path>
</svg>
