<?xml version="1.0" encoding="utf-8"?>
<!-- Generated by IcoMoon.io -->
<!DOCTYPE svg PUBLIC "-//W3C//DTD SVG 1.1//EN" "http://www.w3.org/Graphics/SVG/1.1/DTD/svg11.dtd">
<svg version="1.1" xmlns="http://www.w3.org/2000/svg" xmlns:xlink="http://www.w3.org/1999/xlink" width="64" height="64" viewBox="0 0 64 64">
<path fill="#000" d="M32 0c-17.68 0-32 14.32-32 32s14.32 32 32 32c17.68 0 32-14.32 32-32s-14.32-32-32-32zM32 2c16.56 0 30 13.44 30 30s-13.44 30-30 30c-16.56 0-30-13.44-30-30s13.44-30 30-30z"></path>
<path fill="#000" d="M31.9 6c-14.2 0-25.9 11.7-25.9 25.9 0 14.4 11.7 26.1 25.9 26.1 14.4 0 26.1-11.7 26.1-26.1 0-14.2-11.7-25.9-26.1-25.9zM35.26 12.5c1.62 0 3.24 1.62 3.24 3.24v1.64h-3.24v-1.64h-6.52v1.64h-3.24v-1.64c0-1.62 1.62-3.24 3.24-3.24h6.52zM36.88 32l6.92-7 2.82 20c0 1.62-1.62 3.26-3.24 3.26h-22.76c-1.62 0-3.24-1.64-3.24-3.26l2.82-20 6.92 7h9.76zM29.56 35.26h4.88l1.62 1.62-1.62 1.62h-4.88l-1.62-1.62 1.62-1.62zM23.88 19h16.24c1.62 0 3.26 1.62 3.26 3.24l-7.32 7.32h-8.12l-7.32-7.32c0-1.62 1.64-3.24 3.26-3.24z"></path>
</svg>
