<?xml version="1.0" encoding="UTF-8"?>
<!DOCTYPE svg PUBLIC "-//W3C//DTD SVG 1.1//EN" "http://www.w3.org/Graphics/SVG/1.1/DTD/svg11.dtd">
<!-- Creator: CorelDRAW X7 -->
<svg xmlns="http://www.w3.org/2000/svg" xml:space="preserve" width="27.0932mm" height="27.0932mm" version="1.1" style="shape-rendering:geometricPrecision; text-rendering:geometricPrecision; image-rendering:optimizeQuality; fill-rule:evenodd; clip-rule:evenodd"
viewBox="0 0 2709 2709"
 xmlns:xlink="http://www.w3.org/1999/xlink">
 <defs>
  <style type="text/css">
   <![CDATA[
    .fil0 {fill:black}
   ]]>
  </style>
 </defs>
 <g id="Camada_x0020_1">
  <metadata id="CorelCorpID_0Corel-Layer"/>
  <path class="fil0" d="M2540 1355c0,-655 -531,-1186 -1185,-1186 -655,0 -1186,531 -1186,1186 0,654 531,1185 1186,1185 654,0 1185,-531 1185,-1185zm-1073 102l-8 -7 0 -67 8 -15 37 -36 31 -43 17 -63 8 -150 -10 -69 -46 -73 -60 -52 -16 -11 -21 -4 -52 -7 -53 7 -20 4 -17 11 -60 52 -44 73 -12 69 8 150 18 63 30 43 38 36 7 15 0 67 -7 7 -22 6 -173 47 -15 7 -135 21 -22 9 -7 15 -38 199 1047 0 -37 -199 -7 -15 -15 -7 -142 -23 -15 -7 -195 -53 0 0zm-496 11l0 -63 8 -15 35 -34 28 -40 17 -60 7 -141 -10 -64 -42 -70 -57 -49 -15 -10 -20 -4 -49 -7 -50 7 -19 4 -16 10 -57 49 -41 70 -11 64 7 141 17 60 28 40 36 34 7 15 0 63 -7 7 -183 50 -14 6 -128 19 -21 10 -6 14 -36 187 380 0 55 -226 18 -28 119 -36 20 -3zm767 0l0 -63 -8 -15 -35 -34 -28 -40 -16 -60 -8 -141 10 -64 42 -70 57 -49 15 -10 20 -4 49 -7 50 7 19 4 16 10 57 49 42 70 10 64 -7 141 -17 60 -28 40 -36 34 -7 15 0 63 7 7 183 50 15 6 127 19 21 10 7 14 35 187 -380 0 -55 -226 -18 -28 -119 -36 -20 -3z"/>
 </g>
</svg>
