<?xml version="1.0" encoding="UTF-8"?>
<!DOCTYPE svg PUBLIC "-//W3C//DTD SVG 1.1//EN" "http://www.w3.org/Graphics/SVG/1.1/DTD/svg11.dtd">
<!-- Creator: CorelDRAW X7 -->
<svg xmlns="http://www.w3.org/2000/svg" xml:space="preserve" width="27.0932mm" height="27.0932mm" version="1.1" style="shape-rendering:geometricPrecision; text-rendering:geometricPrecision; image-rendering:optimizeQuality; fill-rule:evenodd; clip-rule:evenodd"
viewBox="0 0 2709 2709"
 xmlns:xlink="http://www.w3.org/1999/xlink">
 <defs>
  <style type="text/css">
   <![CDATA[
    .fil0 {fill:black}
   ]]>
  </style>
 </defs>
 <g id="Camada_x0020_1">
  <metadata id="CorelCorpID_0Corel-Layer"/>
  <path class="fil0" d="M2540 1355c0,-655 -531,-1186 -1185,-1186 -655,0 -1186,531 -1186,1186 0,654 531,1185 1186,1185 654,0 1185,-531 1185,-1185zm-681 546l31 165 -1307 0 111 -606 409 -95 14 -62 -89 -82 -27 -365 136 -153 198 0 137 153 -28 365 -88 82 13 62 144 33c-29,50 -46,108 -46,170 0,187 152,338 338,338 19,0 37,-2 54,-5l0 0zm248 -333c0,167 -135,302 -302,302 -167,0 -302,-135 -302,-302 0,-167 135,-302 302,-302 167,0 302,135 302,302zm-94 -53l-155 0 0 -154 -106 0 0 154 -154 0 0 106 154 0 0 154 106 0 0 -154 155 0 0 -106 0 0z"/>
 </g>
</svg>
