<?xml version="1.0" encoding="UTF-8"?>
<!DOCTYPE svg PUBLIC "-//W3C//DTD SVG 1.1//EN" "http://www.w3.org/Graphics/SVG/1.1/DTD/svg11.dtd">
<!-- Creator: CorelDRAW X7 -->
<svg xmlns="http://www.w3.org/2000/svg" xml:space="preserve" width="27.0932mm" height="27.0932mm" version="1.1" style="shape-rendering:geometricPrecision; text-rendering:geometricPrecision; image-rendering:optimizeQuality; fill-rule:evenodd; clip-rule:evenodd"
viewBox="0 0 2709 2709"
 xmlns:xlink="http://www.w3.org/1999/xlink">
 <defs>
  <style type="text/css">
   <![CDATA[
    .fil0 {fill:black}
   ]]>
  </style>
 </defs>
 <g id="Camada_x0020_1">
  <metadata id="CorelCorpID_0Corel-Layer"/>
  <path class="fil0" d="M2709 1355c0,748 -606,1354 -1354,1354 -748,0 -1355,-606 -1355,-1354 0,-748 607,-1355 1355,-1355 748,0 1354,607 1354,1355zm-1354 -1299c-717,0 -1299,582 -1299,1299 0,717 582,1298 1299,1298 717,0 1298,-581 1298,-1298 0,-717 -581,-1299 -1298,-1299z"/>
  <path class="fil0" d="M2484 1355c0,-624 -506,-1129 -1129,-1129 -624,0 -1129,505 -1129,1129 0,623 505,1129 1129,1129 623,0 1129,-506 1129,-1129zm-655 0c0,-29 -3,-57 -8,-84l111 -70 -60 -146 -128 29c-33,-46 -73,-86 -119,-118l29 -129 -146 -60 -70 111c-27,-5 -55,-7 -83,-7 -29,0 -57,2 -84,7l-70 -111 -146 60 29 129c-46,32 -86,72 -118,118l-129 -29 -60 146 111 70c-5,27 -7,55 -7,84 0,28 2,56 7,83l-111 70 60 146 129 -29c32,46 72,86 118,119l-29 128 146 60 70 -111c27,5 55,8 84,8 28,0 56,-3 83,-8l70 111 146 -60 -29 -128c46,-32 86,-73 119,-119l128 29 60 -146 -111 -70c5,-27 8,-55 8,-83zm-474 197c-109,0 -198,-88 -198,-197 0,-109 89,-198 198,-198 109,0 197,89 197,198 0,109 -88,197 -197,197z"/>
 </g>
</svg>
