<?xml version="1.0" encoding="UTF-8"?>
<!DOCTYPE svg PUBLIC "-//W3C//DTD SVG 1.1//EN" "http://www.w3.org/Graphics/SVG/1.1/DTD/svg11.dtd">
<!-- Creator: CorelDRAW X7 -->
<svg xmlns="http://www.w3.org/2000/svg" xml:space="preserve" width="27.0932mm" height="27.0932mm" version="1.1" style="shape-rendering:geometricPrecision; text-rendering:geometricPrecision; image-rendering:optimizeQuality; fill-rule:evenodd; clip-rule:evenodd"
viewBox="0 0 2709 2709"
 xmlns:xlink="http://www.w3.org/1999/xlink">
 <defs>
  <style type="text/css">
   <![CDATA[
    .fil0 {fill:black}
   ]]>
  </style>
 </defs>
 <g id="Camada_x0020_1">
  <metadata id="CorelCorpID_0Corel-Layer"/>
  <path class="fil0" d="M2540 1355c0,-655 -531,-1186 -1185,-1186 -655,0 -1186,531 -1186,1186 0,654 531,1185 1186,1185 654,0 1185,-531 1185,-1185zm-711 259l0 274c0,66 -53,119 -119,119l-711 0c-65,0 -118,-53 -118,-119l0 -1067c0,-65 53,-118 118,-118l711 0c66,0 119,53 119,118l0 274 -148 -148 0 -96 -652 0 0 1007 652 0 0 -95 148 -149 0 0zm-161 -596c-29,-29 -76,-29 -105,0 -29,29 -29,76 0,105l158 158 -378 0 0 148 378 0 -158 158c-29,29 -29,76 0,105 14,14 33,21 52,21 19,0 38,-7 53,-21l337 -337 -337 -337 0 0zm-467 411l71 0 0 -148 -71 0 0 148z"/>
 </g>
</svg>
