<?xml version="1.0" encoding="UTF-8"?>
<!DOCTYPE svg PUBLIC "-//W3C//DTD SVG 1.1//EN" "http://www.w3.org/Graphics/SVG/1.1/DTD/svg11.dtd">
<!-- Creator: CorelDRAW X7 -->
<svg xmlns="http://www.w3.org/2000/svg" xml:space="preserve" width="27.0932mm" height="27.0932mm" version="1.1" style="shape-rendering:geometricPrecision; text-rendering:geometricPrecision; image-rendering:optimizeQuality; fill-rule:evenodd; clip-rule:evenodd"
viewBox="0 0 2709 2709"
 xmlns:xlink="http://www.w3.org/1999/xlink">
 <defs>
  <style type="text/css">
   <![CDATA[
    .fil0 {fill:black}
   ]]>
  </style>
 </defs>
 <g id="Camada_x0020_1">
  <metadata id="CorelCorpID_0Corel-Layer"/>
  <path class="fil0" d="M2540 1355c0,-655 -531,-1186 -1185,-1186 -655,0 -1186,531 -1186,1186 0,654 531,1185 1186,1185 654,0 1185,-531 1185,-1185zm-1508 -241l-11 -48 70 -64 21 -286 -107 -120 -154 0 -107 120 21 286 69 64 -10 48 -321 75 -86 474 407 0 14 -77 5 -26 26 -6 335 -79 1 -6 -61 -56 -11 -11 -2 -16 -19 -253 -80 -19zm854 0l-11 -48 69 -64 22 -286 -107 -120 -155 0 -107 120 22 286 69 64 -11 48 -80 19 -19 253 -1 16 -12 11 -61 56 1 6 335 79 26 6 5 26 14 77 408 0 -87 -474 -320 -75zm-414 393l-12 -54 77 -72 24 -321 -119 -134 -174 0 -120 134 24 321 78 72 -12 54 -360 84 -97 532 1148 0 -98 -532 -359 -84z"/>
 </g>
</svg>
