<?xml version="1.0" encoding="UTF-8"?>
<!DOCTYPE svg PUBLIC "-//W3C//DTD SVG 1.1//EN" "http://www.w3.org/Graphics/SVG/1.1/DTD/svg11.dtd">
<!-- Creator: CorelDRAW X7 -->
<svg xmlns="http://www.w3.org/2000/svg" xml:space="preserve" width="27.0932mm" height="27.0932mm" version="1.1" style="shape-rendering:geometricPrecision; text-rendering:geometricPrecision; image-rendering:optimizeQuality; fill-rule:evenodd; clip-rule:evenodd"
viewBox="0 0 2709 2709"
 xmlns:xlink="http://www.w3.org/1999/xlink">
 <defs>
  <style type="text/css">
   <![CDATA[
    .fil1 {fill:black}
    .fil0 {fill:black}
   ]]>
  </style>
 </defs>
 <g id="Camada_x0020_1">
  <metadata id="CorelCorpID_0Corel-Layer"/>
  <path class="fil0" d="M2342 1355c0,-546 -442,-988 -987,-988 -439,0 -811,286 -939,682l465 0 0 98 -492 0c-14,67 -22,137 -22,208 0,71 8,140 22,207l176 0 0 99 -149 0c128,395 500,681 939,681 545,0 987,-442 987,-987zm-1032 -74l89 0 0 -366 -89 0 0 99 -212 0 0 168 212 0 0 99zm578 -48l135 -127 -609 0 0 127 474 0zm136 -144l-136 -127 -474 0 0 127 610 0zm-1104 58l79 0 0 -98 -79 0 0 98zm74 647l89 0 0 -365 -89 0 0 98 -212 0 0 168 212 0 0 99zm578 -47l135 -127 -609 0 0 127 474 0zm135 -144l-135 -127 -474 0 0 127 609 0zm-1103 58l79 0 0 -99 -79 0 0 99z"/>
  <path class="fil1" d="M2540 1355c0,654 -531,1185 -1185,1185 -655,0 -1186,-531 -1186,-1185 0,-655 531,-1186 1186,-1186 654,0 1185,531 1185,1186zm-1185 -1085c-599,0 -1085,486 -1085,1085 0,599 486,1084 1085,1084 599,0 1084,-485 1084,-1084 0,-599 -485,-1085 -1084,-1085z"/>
 </g>
</svg>
