<?xml version="1.0" encoding="UTF-8"?>
<!DOCTYPE svg PUBLIC "-//W3C//DTD SVG 1.1//EN" "http://www.w3.org/Graphics/SVG/1.1/DTD/svg11.dtd">
<!-- Creator: CorelDRAW X7 -->
<svg xmlns="http://www.w3.org/2000/svg" xml:space="preserve" width="27.0932mm" height="27.0932mm" version="1.1" style="shape-rendering:geometricPrecision; text-rendering:geometricPrecision; image-rendering:optimizeQuality; fill-rule:evenodd; clip-rule:evenodd"
viewBox="0 0 2709 2709"
 xmlns:xlink="http://www.w3.org/1999/xlink">
 <defs>
  <style type="text/css">
   <![CDATA[
    .fil0 {fill:black}
   ]]>
  </style>
 </defs>
 <g id="Camada_x0020_1">
  <metadata id="CorelCorpID_0Corel-Layer"/>
  <path class="fil0" d="M2342 1355c0,-233 -80,-447 -215,-616l-688 397 0 -57 656 -378c-181,-205 -445,-334 -740,-334 -295,0 -559,129 -740,334l655 378 0 57 -688 -397c-134,169 -215,383 -215,616 0,545 442,987 988,987 545,0 987,-442 987,-987zm-1030 -296l85 0 0 253 -85 0 0 -253zm127 236l85 60 0 338 -169 170 -170 -170 0 -338 85 -60 0 17 0 42 42 0 85 0 42 0 0 -42 0 -17z"/>
  <path class="fil0" d="M1355 169c654,0 1185,531 1185,1186 0,654 -531,1185 -1185,1185 -655,0 -1186,-531 -1186,-1185 0,-655 531,-1186 1186,-1186zm0 50c628,0 1136,509 1136,1136 0,628 -508,1136 -1136,1136 -627,0 -1136,-508 -1136,-1136 0,-627 509,-1136 1136,-1136z"/>
 </g>
</svg>
