<?xml version="1.0" encoding="UTF-8"?>
<!DOCTYPE svg PUBLIC "-//W3C//DTD SVG 1.1//EN" "http://www.w3.org/Graphics/SVG/1.1/DTD/svg11.dtd">
<!-- Creator: CorelDRAW X7 -->
<svg xmlns="http://www.w3.org/2000/svg" xml:space="preserve" width="27.0932mm" height="27.0932mm" version="1.1" style="shape-rendering:geometricPrecision; text-rendering:geometricPrecision; image-rendering:optimizeQuality; fill-rule:evenodd; clip-rule:evenodd"
viewBox="0 0 2709 2709"
 xmlns:xlink="http://www.w3.org/1999/xlink">
 <defs>
  <style type="text/css">
   <![CDATA[
    .fil0 {fill:black}
   ]]>
  </style>
 </defs>
 <g id="Camada_x0020_1">
  <metadata id="CorelCorpID_0Corel-Layer"/>
  <g id="_842628912">
   <path class="fil0" d="M1811 924c-245,-245 -642,-245 -887,0 -244,245 -244,642 0,887 214,213 543,240 786,82l72 73 184 -184 -73 -72c159,-243 132,-573 -82,-786l0 0zm-63 63c-210,-210 -550,-210 -760,0 -210,210 -210,551 0,761 210,210 550,210 760,0 210,-210 210,-551 0,-761z"/>
   <path class="fil0" d="M1628 1445l-174 0 0 175c0,44 -36,81 -80,81 -45,0 -82,-37 -82,-81l0 -175 -174 0c-45,0 -81,-35 -81,-80 0,-44 36,-81 81,-81l174 0 0 -174c0,-44 37,-81 82,-81 44,0 80,37 80,81l0 174 174 0c45,0 81,37 81,81 0,45 -36,80 -81,80z"/>
   <polygon class="fil0" points="1988,2115 1852,1978 1978,1851 2117,1990 "/>
  </g>
 </g>
</svg>
