<?xml version="1.0" encoding="UTF-8"?>
<!DOCTYPE svg PUBLIC "-//W3C//DTD SVG 1.1//EN" "http://www.w3.org/Graphics/SVG/1.1/DTD/svg11.dtd">
<!-- Creator: CorelDRAW X7 -->
<svg xmlns="http://www.w3.org/2000/svg" xml:space="preserve" width="27.0932mm" height="27.0932mm" version="1.1" style="shape-rendering:geometricPrecision; text-rendering:geometricPrecision; image-rendering:optimizeQuality; fill-rule:evenodd; clip-rule:evenodd"
viewBox="0 0 2709 2709"
 xmlns:xlink="http://www.w3.org/1999/xlink">
 <defs>
  <style type="text/css">
   <![CDATA[
    .fil0 {fill:black}
   ]]>
  </style>
 </defs>
 <g id="Camada_x0020_1">
  <metadata id="CorelCorpID_0Corel-Layer"/>
  <path class="fil0" d="M1102 730c0,-31 13,-61 36,-76 21,-16 49,-16 71,0l873 623c21,16 35,45 35,77 0,32 -14,61 -35,77l-873 625c-22,15 -50,15 -71,0 -23,-17 -36,-45 -36,-79l0 -208 -400 287c-23,15 -50,15 -73,0 -21,-17 -36,-45 -36,-79l0 -1247 0 0c0,-31 15,-61 36,-76 23,-16 50,-16 73,0l400 286 0 -210 0 0z"/>
 </g>
</svg>
