<?xml version="1.0" encoding="UTF-8"?>
<!DOCTYPE svg PUBLIC "-//W3C//DTD SVG 1.1//EN" "http://www.w3.org/Graphics/SVG/1.1/DTD/svg11.dtd">
<!-- Creator: CorelDRAW X7 -->
<svg xmlns="http://www.w3.org/2000/svg" xml:space="preserve" width="27.0932mm" height="27.0932mm" version="1.1" style="shape-rendering:geometricPrecision; text-rendering:geometricPrecision; image-rendering:optimizeQuality; fill-rule:evenodd; clip-rule:evenodd"
viewBox="0 0 2709 2709"
 xmlns:xlink="http://www.w3.org/1999/xlink">
 <defs>
  <style type="text/css">
   <![CDATA[
    .fil0 {fill:black}
   ]]>
  </style>
 </defs>
 <g id="Camada_x0020_1">
  <metadata id="CorelCorpID_0Corel-Layer"/>
  <path class="fil0" d="M2117 1148l-79 -215 -114 -141 -180 -65 -156 -2 -10 -41 -30 0 -41 61 -152 54 -153 -54 -40 -61 -31 0 -10 41 -156 2 -180 65 -114 141 -78 215 206 181 119 -76 20 20 47 142 33 228 -44 376 44 11 337 -66 337 66 44 -11 -44 -376 33 -228 46 -142 21 -20 118 76 207 -181zm-969 -233l207 12 206 -12 -8 -84 0 -50 5 -6 10 11 0 50 10 133 61 152 132 122 0 10 -10 0 -132 -122 -61 -152 -6 -56 -38 9 -153 8 -33 0 -153 -8 -38 -9 -6 56 -61 152 -132 122 -10 0 0 -10 132 -122 61 -152 10 -133 0 -50 10 -21 6 15 0 51 -9 84zm207 287l141 66 65 76 -76 -66 -130 -32 0 0 -1 0 -130 32 -76 66 65 -76 142 -66zm0 153l9 193 133 10 -133 9 -9 194 -10 -194 -133 -9 133 -10 10 -193z"/>
 </g>
</svg>
