<?xml version="1.0" encoding="UTF-8"?>
<!DOCTYPE svg PUBLIC "-//W3C//DTD SVG 1.1//EN" "http://www.w3.org/Graphics/SVG/1.1/DTD/svg11.dtd">
<!-- Creator: CorelDRAW X7 -->
<svg xmlns="http://www.w3.org/2000/svg" xml:space="preserve" width="27.0932mm" height="27.0932mm" version="1.1" style="shape-rendering:geometricPrecision; text-rendering:geometricPrecision; image-rendering:optimizeQuality; fill-rule:evenodd; clip-rule:evenodd"
viewBox="0 0 2709 2709"
 xmlns:xlink="http://www.w3.org/1999/xlink">
 <defs>
  <style type="text/css">
   <![CDATA[
    .fil0 {fill:black}
   ]]>
  </style>
 </defs>
 <g id="Camada_x0020_1">
  <metadata id="CorelCorpID_0Corel-Layer"/>
  <path class="fil0" d="M867 738c-1,-1 -2,-3 -2,-3 -18,-32 -7,-72 24,-89 9,-6 20,-9 32,-9 24,0 45,12 57,33l1 2c105,-50 224,-79 349,-79l0 0c351,0 651,222 764,534l-733 268c1,4 2,7 2,11 0,18 -15,33 -33,33 -19,0 -33,-15 -33,-33 0,-6 2,-11 4,-16l-673 -390c61,-104 143,-194 241,-262l0 0 0 0zm461 1147c-264,0 -479,-215 -479,-479 0,-73 16,-142 46,-204l25 13c-28,58 -43,123 -43,191 0,249 203,451 451,451 249,0 451,-202 451,-451 0,-40 -6,-79 -16,-116l27 -10c11,40 16,82 16,126 0,264 -215,479 -478,479zm708 -543c30,6 54,32 54,64 0,33 -24,59 -54,64 -33,362 -338,647 -708,647 -195,0 -372,-79 -501,-207 -10,6 -21,9 -33,9l0 0c-19,0 -37,-9 -50,-23 -11,-14 -16,-30 -15,-47 1,-15 6,-27 16,-37 -81,-116 -128,-255 -128,-406 0,-116 27,-225 77,-321l24 13c-47,93 -74,198 -74,308 0,145 46,279 123,389 8,-4 18,-6 27,-6 19,0 37,9 50,23 11,14 16,30 14,48 0,11 -4,22 -11,31 124,122 294,198 481,198 355,0 648,-273 680,-620 -28,-8 -48,-33 -48,-63 0,-30 20,-55 48,-62 -4,-47 -13,-91 -26,-134l26 -10c14,46 23,94 28,142l0 0 0 0zm-708 311c-136,0 -246,-111 -246,-247 0,-31 5,-60 16,-87l24 14c-8,22 -13,48 -13,73 0,120 98,218 219,218 120,0 218,-98 218,-218 0,-12 -1,-25 -3,-36l26 -10c4,15 5,31 5,46 0,136 -110,247 -246,247l0 0 0 0zm-407 -886c-16,0 -31,-6 -43,-16 -89,63 -164,145 -219,241l654 385c5,-3 10,-4 15,-4 6,0 13,2 17,5l716 -266c-109,-298 -398,-502 -733,-502l0 -1c-124,0 -240,28 -343,79 6,27 -6,56 -31,70 -10,6 -21,9 -33,9l0 0 0 0zm-119 204l0 -43c17,-19 36,-37 56,-55l0 38c-20,19 -39,38 -56,60zm-16 -25l0 0 0 45c-5,6 -11,13 -15,20l-25 -14c13,-17 26,-34 40,-51l0 0 0 0zm0 0l0 0zm162 170c15,-22 34,-41 53,-59l0 39c-10,11 -20,22 -29,34l-24 -14 0 0zm0 0l0 0zm69 -73c18,-15 36,-29 55,-42l0 34c-19,13 -38,29 -55,45l0 -37zm72 -51c18,-10 36,-20 56,-28l0 30c-20,9 -39,19 -56,30l0 -32zm71 -34c18,-7 37,-13 56,-17l0 29c-19,4 -38,11 -56,18l0 -30zm72 -21c18,-3 37,-6 56,-8l0 28c-19,2 -38,5 -56,9l0 -29zm72 -9c8,-1 15,-1 24,-1 10,0 21,1 31,2l0 27c-10,0 -21,0 -31,0 -9,0 -16,0 -24,0l0 -28zm72 2c19,2 37,4 55,9l0 28c-18,-4 -36,-7 -55,-9l0 -28zm71 13c19,5 38,11 56,18l0 30c-18,-8 -37,-14 -56,-20l0 -28zm72 24c19,9 38,18 56,29l0 33c-18,-11 -37,-22 -56,-31l0 -31zm72 40c19,12 38,27 55,43l0 38c-17,-17 -36,-34 -55,-48l0 -33zm71 58c21,19 39,41 56,65l0 51c-16,-27 -35,-53 -56,-76l0 -40zm72 88c6,10 12,21 17,32l-17 6 0 -38 0 0 0 0zm0 0l0 0zm-861 -293c18,-15 37,-29 57,-42l0 33c-20,14 -39,29 -57,45l0 -36zm72 -53c18,-11 37,-22 56,-32l0 32c-19,10 -38,22 -56,33l0 -33 0 0zm0 0l0 0zm72 -40c19,-9 37,-17 55,-25l0 30c-18,8 -37,17 -55,26l0 -31zm72 -30c18,-7 37,-13 56,-18l0 29c-19,5 -38,12 -56,19l0 -30zm71 -22c19,-4 37,-8 56,-11l0 28c-19,3 -37,7 -56,12l0 -29zm72 -13c18,-3 37,-4 56,-6l0 28c-19,1 -38,4 -56,6l0 -28zm72 -7c8,0 15,0 24,0 10,0 21,0 31,1l0 28c-10,0 -21,-1 -31,-1 -9,0 -16,1 -24,1l0 -29zm72 2c19,2 37,3 55,6l0 28c-18,-3 -36,-5 -55,-6l0 -28zm71 9c19,3 38,7 56,11l0 29c-18,-5 -37,-9 -56,-12l0 -28zm72 15c19,6 37,12 56,18l0 30c-19,-7 -37,-13 -56,-19l0 -29zm72 25c18,7 37,16 55,25l0 31c-18,-9 -37,-18 -55,-26l0 -30zm71 33c20,10 38,21 56,33l0 34c-18,-13 -36,-24 -56,-35l0 -32zm72 44c20,13 38,28 56,43l0 38c-18,-17 -36,-32 -56,-46l0 -35zm71 57c20,18 39,37 56,57l0 44c-17,-22 -35,-43 -56,-62l0 -39zm73 76c20,25 38,51 55,78l0 56c-16,-31 -35,-61 -55,-89l0 -45zm71 105c8,14 15,28 22,42l-22 8 0 -50zm-789 164c17,-15 36,-28 56,-38l0 31c-14,9 -28,20 -40,32l-16 -9 0 -16 0 0 0 0zm0 0l0 0zm72 -46c18,-7 36,-12 56,-16l0 29c-20,3 -38,9 -56,18l0 -31zm72 -18c8,-1 15,-1 24,-1 10,0 21,0 31,2l0 28c-10,-2 -21,-2 -31,-2 -9,0 -16,0 -24,1l0 -28zm72 4c19,3 37,9 55,18l0 31c-17,-9 -36,-17 -55,-21l0 -28zm71 26c21,12 39,26 56,42l0 43c-15,-21 -34,-38 -56,-52l0 -33 0 0zm0 0l0 0zm72 60c4,5 8,10 12,16l-12 5 0 -21z"/>
 </g>
</svg>
