<?xml version="1.0" encoding="UTF-8"?>
<!DOCTYPE svg PUBLIC "-//W3C//DTD SVG 1.1//EN" "http://www.w3.org/Graphics/SVG/1.1/DTD/svg11.dtd">
<!-- Creator: CorelDRAW X7 -->
<svg xmlns="http://www.w3.org/2000/svg" xml:space="preserve" width="27.0932mm" height="27.0932mm" version="1.1" style="shape-rendering:geometricPrecision; text-rendering:geometricPrecision; image-rendering:optimizeQuality; fill-rule:evenodd; clip-rule:evenodd"
viewBox="0 0 2709 2709"
 xmlns:xlink="http://www.w3.org/1999/xlink">
 <defs>
  <style type="text/css">
   <![CDATA[
    .fil0 {fill:black}
   ]]>
  </style>
 </defs>
 <g id="Camada_x0020_1">
  <metadata id="CorelCorpID_0Corel-Layer"/>
  <path class="fil0" d="M1986 1433l-57 -56 -637 637 57 56 637 -637zm-256 303l0 181 -182 0 182 -181 0 0zm0 -1143l0 935 -390 389 -617 0 0 -1324 1007 0zm-503 669l-371 0 0 50 371 0 0 -50zm371 -146l-742 0 0 48 742 0 0 -48zm0 -146l-742 0 0 39 742 0 0 -39zm0 -146l-742 0 0 56 742 0 0 -56zm-275 1257l-78 36 36 -77 42 41 0 0z"/>
 </g>
</svg>
