<?xml version="1.0" encoding="UTF-8"?>
<!DOCTYPE svg PUBLIC "-//W3C//DTD SVG 1.1//EN" "http://www.w3.org/Graphics/SVG/1.1/DTD/svg11.dtd">
<!-- Creator: CorelDRAW X7 -->
<svg xmlns="http://www.w3.org/2000/svg" xml:space="preserve" width="27.0932mm" height="27.0932mm" version="1.1" style="shape-rendering:geometricPrecision; text-rendering:geometricPrecision; image-rendering:optimizeQuality; fill-rule:evenodd; clip-rule:evenodd"
viewBox="0 0 2709 2709"
 xmlns:xlink="http://www.w3.org/1999/xlink">
 <defs>
  <style type="text/css">
   <![CDATA[
    .fil0 {fill:black}
   ]]>
  </style>
 </defs>
 <g id="Camada_x0020_1">
  <metadata id="CorelCorpID_0Corel-Layer"/>
  <path class="fil0" d="M1764 1815l-278 -74c0,0 18,-231 65,-371 46,-139 111,-287 231,-259 121,28 149,232 130,343 -19,113 -148,361 -148,361l0 0zm-278 -36l269 74c0,0 -47,305 -213,259 -168,-46 -56,-333 -56,-333l0 0zm-263 -516l-268 75c0,0 46,305 212,259 168,-46 56,-334 56,-334l0 0zm-278 37l278 -74c0,0 -18,-232 -65,-371 -45,-139 -110,-287 -231,-259 -120,28 -149,232 -130,342 19,114 148,362 148,362l0 0z"/>
 </g>
</svg>
