<?xml version="1.0" encoding="UTF-8"?>
<!DOCTYPE svg PUBLIC "-//W3C//DTD SVG 1.1//EN" "http://www.w3.org/Graphics/SVG/1.1/DTD/svg11.dtd">
<!-- Creator: CorelDRAW X7 -->
<svg xmlns="http://www.w3.org/2000/svg" xml:space="preserve" width="27.0932mm" height="27.0932mm" version="1.1" style="shape-rendering:geometricPrecision; text-rendering:geometricPrecision; image-rendering:optimizeQuality; fill-rule:evenodd; clip-rule:evenodd"
viewBox="0 0 2709 2709"
 xmlns:xlink="http://www.w3.org/1999/xlink">
 <defs>
  <style type="text/css">
   <![CDATA[
    .fil0 {fill:black}
   ]]>
  </style>
 </defs>
 <g id="Camada_x0020_1">
  <metadata id="CorelCorpID_0Corel-Layer"/>
  <path class="fil0" d="M1567 703l-892 0c-45,0 -82,37 -82,82l0 638c0,45 37,82 82,82l54 0 0 213 179 -213 659 0c46,0 83,-37 83,-82l0 -638c0,-45 -37,-82 -83,-82l0 0 0 0zm550 370l0 638c0,46 -37,83 -84,83l-54 0 0 213 -177 -213 -660 0c-46,0 -83,-37 -83,-83l0 -164 508 0c68,0 123,-56 123,-124l0 -432 343 0c47,0 84,37 84,82l0 0 0 0z"/>
 </g>
</svg>
