<?xml version="1.0" encoding="UTF-8"?>
<!DOCTYPE svg PUBLIC "-//W3C//DTD SVG 1.1//EN" "http://www.w3.org/Graphics/SVG/1.1/DTD/svg11.dtd">
<!-- Creator: CorelDRAW X7 -->
<svg xmlns="http://www.w3.org/2000/svg" xml:space="preserve" width="27.0932mm" height="27.0932mm" version="1.1" style="shape-rendering:geometricPrecision; text-rendering:geometricPrecision; image-rendering:optimizeQuality; fill-rule:evenodd; clip-rule:evenodd"
viewBox="0 0 2709 2709"
 xmlns:xlink="http://www.w3.org/1999/xlink">
 <defs>
  <style type="text/css">
   <![CDATA[
    .fil0 {fill:black}
   ]]>
  </style>
 </defs>
 <g id="Camada_x0020_1">
  <metadata id="CorelCorpID_0Corel-Layer"/>
  <path class="fil0" d="M1641 943c0,-158 -128,-286 -286,-286 -159,0 -287,128 -287,286 0,159 128,287 287,287 158,0 286,-128 286,-287zm476 823c0,-158 -129,-287 -287,-287 -158,0 -287,129 -287,287 0,158 129,287 287,287 158,0 287,-129 287,-287zm-950 0c0,-158 -128,-287 -287,-287 -159,0 -287,129 -287,287 0,158 128,287 287,287 159,0 287,-129 287,-287z"/>
 </g>
</svg>
