<?xml version="1.0" encoding="UTF-8"?>
<!DOCTYPE svg PUBLIC "-//W3C//DTD SVG 1.1//EN" "http://www.w3.org/Graphics/SVG/1.1/DTD/svg11.dtd">
<!-- Creator: CorelDRAW X7 -->
<svg xmlns="http://www.w3.org/2000/svg" xml:space="preserve" width="27.0932mm" height="27.0932mm" version="1.1" style="shape-rendering:geometricPrecision; text-rendering:geometricPrecision; image-rendering:optimizeQuality; fill-rule:evenodd; clip-rule:evenodd"
viewBox="0 0 2709 2709"
 xmlns:xlink="http://www.w3.org/1999/xlink">
 <defs>
  <style type="text/css">
   <![CDATA[
    .fil0 {fill:black}
   ]]>
  </style>
 </defs>
 <g id="Camada_x0020_1">
  <metadata id="CorelCorpID_0Corel-Layer"/>
  <path class="fil0" d="M819 2117l1077 0 -40 -224 -376 -88 -13 -56 82 -75 12 -156 4 -61 9 -118 -126 -142 -181 0 -125 142 8 118 5 61 12 156 81 75 -12 56 -376 88 -41 224zm1298 -765l-759 -759 -765 765 0 65 765 -765 759 759 0 -65zm0 657l-518 -519 -5 61 523 523 0 -65zm-1524 67l528 -525 -4 -61 -524 521 0 65z"/>
 </g>
</svg>
