<?xml version="1.0" encoding="UTF-8"?>
<!DOCTYPE svg PUBLIC "-//W3C//DTD SVG 1.1//EN" "http://www.w3.org/Graphics/SVG/1.1/DTD/svg11.dtd">
<!-- Creator: CorelDRAW X7 -->
<svg xmlns="http://www.w3.org/2000/svg" xml:space="preserve" width="27.0932mm" height="27.0932mm" version="1.1" style="shape-rendering:geometricPrecision; text-rendering:geometricPrecision; image-rendering:optimizeQuality; fill-rule:evenodd; clip-rule:evenodd"
viewBox="0 0 2709 2709"
 xmlns:xlink="http://www.w3.org/1999/xlink">
 <defs>
  <style type="text/css">
   <![CDATA[
    .fil0 {fill:black}
   ]]>
  </style>
 </defs>
 <g id="Camada_x0020_1">
  <metadata id="CorelCorpID_0Corel-Layer"/>
  <path class="fil0" d="M1682 1034c0,180 -327,726 -327,726 0,0 -326,-546 -326,-726 0,-181 145,-327 326,-327 180,0 327,146 327,327zm435 968l-1524 0 314 -315 349 0c29,49 49,85 57,97l42 70 41 -70c8,-12 29,-48 57,-97l349 0 315 315zm-677 -968c0,-47 -39,-85 -85,-85 -47,0 -85,38 -85,85 0,46 38,85 85,85 46,0 85,-39 85,-85z"/>
 </g>
</svg>
