<?xml version="1.0" encoding="UTF-8"?>
<!DOCTYPE svg PUBLIC "-//W3C//DTD SVG 1.1//EN" "http://www.w3.org/Graphics/SVG/1.1/DTD/svg11.dtd">
<!-- Creator: CorelDRAW X7 -->
<svg xmlns="http://www.w3.org/2000/svg" xml:space="preserve" width="32px" height="32px" version="1.1" style="shape-rendering:geometricPrecision; text-rendering:geometricPrecision; image-rendering:optimizeQuality; fill-rule:evenodd; clip-rule:evenodd"
viewBox="0 0 32 32"
 xmlns:xlink="http://www.w3.org/1999/xlink">
 <defs>
  <style type="text/css">
   <![CDATA[
    .fil0 {fill:black}
   ]]>
  </style>
 </defs>
 <g id="Camada_x0020_1">
  <metadata id="CorelCorpID_0Corel-Layer"/>
  <path class="fil0" d="M32 16c0,-9 -7,-16 -16,-16 -9,0 -16,7 -16,16 0,9 7,16 16,16 9,0 16,-7 16,-16zm-24 -11l14 0 0 7c-1,0 -2,0 -3,1 -1,1 -1,1 -2,1l-7 0 0 1 6 0c0,0 0,1 0,1l-6 0 0 1 5 0c0,0 0,1 0,1 0,0 0,1 0,1 0,4 3,7 7,7l0 1 -14 0 0 -22 0 0zm14 8c-3,0 -6,3 -6,6 0,3 3,6 6,6 3,0 6,-3 6,-6 0,-3 -3,-6 -6,-6zm-4 6l1 -1 2 3 4 -5 1 2 -4 4 -1 1 -1 -1 -2 -3 0 0zm-8 4l4 0 0 1 -4 0 0 -1zm0 -3l4 0 0 1 -4 0 0 -1zm0 -9l10 0 0 1 -10 0 0 -1zm0 -3l10 0 0 1 -10 0 0 -1z"/>
 </g>
</svg>
