<?xml version="1.0" encoding="UTF-8"?>
<!DOCTYPE svg PUBLIC "-//W3C//DTD SVG 1.1//EN" "http://www.w3.org/Graphics/SVG/1.1/DTD/svg11.dtd">
<!-- Creator: CorelDRAW X7 -->
<svg xmlns="http://www.w3.org/2000/svg" xml:space="preserve" width="2.7092mm" height="2.7092mm" version="1.1" style="shape-rendering:geometricPrecision; text-rendering:geometricPrecision; image-rendering:optimizeQuality; fill-rule:evenodd; clip-rule:evenodd"
viewBox="0 0 271 271"
 xmlns:xlink="http://www.w3.org/1999/xlink">
 <defs>
  <style type="text/css">
   <![CDATA[
    .fil0 {fill:black}
   ]]>
  </style>
 </defs>
 <g id="Camada_x0020_1">
  <metadata id="CorelCorpID_0Corel-Layer"/>
  <path class="fil0" d="M136 0c74,0 135,61 135,135 0,75 -61,136 -135,136 -75,0 -136,-61 -136,-136 0,-74 61,-135 136,-135zm-43 203l9 -34 34 -8 16 -9 0 -8 -17 -17 0 -42 17 -17 26 0 17 17 0 42 -17 17 0 8 17 9 34 8 8 34 -144 0zm-59 0l9 -34 33 -8 9 -9 0 -8 -17 -17 0 -34 17 -17 25 0 17 18 0 33 -17 17 0 8 5 5 -13 4 -6 3 -3 5 -8 34 -51 0z"/>
 </g>
</svg>
