<?xml version="1.0" encoding="UTF-8"?>
<!DOCTYPE svg PUBLIC "-//W3C//DTD SVG 1.1//EN" "http://www.w3.org/Graphics/SVG/1.1/DTD/svg11.dtd">
<!-- Creator: CorelDRAW X7 -->
<svg xmlns="http://www.w3.org/2000/svg" xml:space="preserve" width="2.7092mm" height="2.7092mm" version="1.1" style="shape-rendering:geometricPrecision; text-rendering:geometricPrecision; image-rendering:optimizeQuality; fill-rule:evenodd; clip-rule:evenodd"
viewBox="0 0 271 271"
 xmlns:xlink="http://www.w3.org/1999/xlink">
 <defs>
  <style type="text/css">
   <![CDATA[
    .fil0 {fill:black}
   ]]>
  </style>
 </defs>
 <g id="Camada_x0020_1">
  <metadata id="CorelCorpID_0Corel-Layer"/>
  <path class="fil0" d="M136 0c74,0 135,61 135,135 0,75 -61,136 -135,136 -75,0 -136,-61 -136,-136 0,-74 61,-135 136,-135zm-1 59c0,-8 -10,-17 -16,-17 -7,0 -20,10 -26,17l-42 51c-6,8 -17,18 -17,25 0,8 11,18 17,26l42 51c6,7 19,17 26,17 6,0 16,-9 16,-17 0,-12 1,-22 0,-34l34 34c7,6 19,17 26,17 6,0 17,-9 17,-17l0 -153c0,-8 -11,-17 -17,-17 -7,0 -19,11 -26,17l-34 34c1,-12 0,-22 0,-34z"/>
 </g>
</svg>
