<?xml version="1.0" encoding="UTF-8"?>
<!DOCTYPE svg PUBLIC "-//W3C//DTD SVG 1.1//EN" "http://www.w3.org/Graphics/SVG/1.1/DTD/svg11.dtd">
<!-- Creator: CorelDRAW X7 -->
<svg xmlns="http://www.w3.org/2000/svg" xml:space="preserve" width="2.7092mm" height="2.7092mm" version="1.1" style="shape-rendering:geometricPrecision; text-rendering:geometricPrecision; image-rendering:optimizeQuality; fill-rule:evenodd; clip-rule:evenodd"
viewBox="0 0 271 271"
 xmlns:xlink="http://www.w3.org/1999/xlink">
 <defs>
  <style type="text/css">
   <![CDATA[
    .fil0 {fill:black}
   ]]>
  </style>
 </defs>
 <g id="Camada_x0020_1">
  <metadata id="CorelCorpID_0Corel-Layer"/>
  <path class="fil0" d="M135 0c75,0 136,61 136,135 0,70 -52,127 -119,135l0 -16 -33 0 0 16c-67,-8 -119,-65 -119,-135 0,-74 61,-135 135,-135zm98 135c0,-53 -44,-97 -98,-97 -53,0 -97,44 -97,97 0,32 15,60 38,78 11,11 26,19 43,22l0 11 33 0 0 -11c17,-3 31,-11 43,-22 23,-18 38,-46 38,-78zm-38 0c0,-32 -27,-59 -60,-59 -32,0 -59,27 -59,59 0,33 27,60 59,60 33,0 60,-27 60,-60zm17 0c0,-42 -35,-76 -77,-76 -42,0 -76,34 -76,76 0,43 34,77 76,77 42,0 77,-34 77,-77z"/>
 </g>
</svg>
