<?xml version="1.0" encoding="UTF-8"?>
<!DOCTYPE svg PUBLIC "-//W3C//DTD SVG 1.1//EN" "http://www.w3.org/Graphics/SVG/1.1/DTD/svg11.dtd">
<!-- Creator: CorelDRAW X7 -->
<svg xmlns="http://www.w3.org/2000/svg" xml:space="preserve" width="32px" height="32px" version="1.1" style="shape-rendering:geometricPrecision; text-rendering:geometricPrecision; image-rendering:optimizeQuality; fill-rule:evenodd; clip-rule:evenodd"
viewBox="0 0 32 32"
 xmlns:xlink="http://www.w3.org/1999/xlink">
 <defs>
  <style type="text/css">
   <![CDATA[
    .fil0 {fill:black}
   ]]>
  </style>
 </defs>
 <g id="Camada_x0020_1">
  <metadata id="CorelCorpID_0Corel-Layer"/>
  <path class="fil0" d="M32 16c0,-9 -7,-16 -16,-16 -9,0 -16,7 -16,16 0,9 7,16 16,16 9,0 16,-7 16,-16zm-17 10l1 -1 0 0 0 1 -1 0zm9 -8l0 -1 -1 0 -7 7 1 1 7 -7zm-2 -12l0 10 -8 8 -6 0 0 -18 14 0zm-2 9l-10 0 0 1 10 0 0 -1zm0 -3l-10 0 0 1 10 0 0 -1zm-4 6l-6 0 0 1 6 0 0 -1zm4 -9l-10 0 0 1 10 0 0 -1zm2 13l0 2 -2 0 2 -2z"/>
 </g>
</svg>
