<?xml version="1.0" encoding="UTF-8"?>
<!DOCTYPE svg PUBLIC "-//W3C//DTD SVG 1.1//EN" "http://www.w3.org/Graphics/SVG/1.1/DTD/svg11.dtd">
<!-- Creator: CorelDRAW X7 -->
<svg xmlns="http://www.w3.org/2000/svg" xml:space="preserve" width="2.7092mm" height="2.7092mm" version="1.1" style="shape-rendering:geometricPrecision; text-rendering:geometricPrecision; image-rendering:optimizeQuality; fill-rule:evenodd; clip-rule:evenodd"
viewBox="0 0 271 271"
 xmlns:xlink="http://www.w3.org/1999/xlink">
 <defs>
  <style type="text/css">
   <![CDATA[
    .fil0 {fill:black}
   ]]>
  </style>
 </defs>
 <g id="Camada_x0020_1">
  <metadata id="CorelCorpID_0Corel-Layer"/>
  <path class="fil0" d="M136 0c74,0 135,61 135,135 0,75 -61,136 -135,136 -75,0 -136,-61 -136,-136 0,-74 61,-135 136,-135zm-1 59l-21 -8 -4 -9 -8 0 0 9 -17 0 -26 8 -17 17 -8 26 25 25 17 0 17 51 -8 50 50 -8 51 8 -8 -50 17 -51 17 0 25 -25 -8 -26 -17 -16 -26 -9 -17 0 0 -9 -8 0 -4 9 -22 8zm-25 17l51 0 0 -17 4 -4 4 4 0 26 0 12 26 22 -13 8 -21 -25 0 -17 -51 0 0 17 -21 25 -13 -8 26 -22 0 -12 0 -26 4 -4 4 4 0 17zm25 34l-21 13 -12 12 12 -4 21 -4 22 4 12 4 -12 -12 -22 -13zm0 93l-8 -25 -17 -5 17 -4 8 -25 9 25 17 4 -17 5 -9 25z"/>
 </g>
</svg>
