<?xml version="1.0" encoding="UTF-8"?>
<!DOCTYPE svg PUBLIC "-//W3C//DTD SVG 1.1//EN" "http://www.w3.org/Graphics/SVG/1.1/DTD/svg11.dtd">
<!-- Creator: CorelDRAW X7 -->
<svg xmlns="http://www.w3.org/2000/svg" xml:space="preserve" width="2.7092mm" height="2.7092mm" version="1.1" style="shape-rendering:geometricPrecision; text-rendering:geometricPrecision; image-rendering:optimizeQuality; fill-rule:evenodd; clip-rule:evenodd"
viewBox="0 0 271 271"
 xmlns:xlink="http://www.w3.org/1999/xlink">
 <defs>
  <style type="text/css">
   <![CDATA[
    .fil0 {fill:black}
   ]]>
  </style>
 </defs>
 <g id="Camada_x0020_1">
  <metadata id="CorelCorpID_0Corel-Layer"/>
  <path class="fil0" d="M68 106l25 0 0 -17 -25 0 0 17zm67 -106c75,0 136,61 136,135 0,75 -61,136 -136,136 -58,0 -108,-37 -127,-89l43 0 0 -17 -48 0c-2,-9 -3,-19 -3,-30 0,-10 1,-20 3,-29l56 0 0 -17 -51 0c19,-52 69,-89 127,-89zm0 203l0 -59 -16 0 0 17 -34 0 0 25 34 0 0 17 16 0zm68 -8l17 -17 -76 0 0 17 59 0zm17 -26l-17 -17 -59 0 0 17 76 0zm-161 13l17 0 0 -17 -17 0 0 17zm93 -55l0 -59 -17 0 0 17 -33 0 0 25 33 0 0 17 17 0zm68 -8l17 -17 -76 0 0 17 59 0zm17 -26l-17 -17 -59 0 0 17 76 0z"/>
 </g>
</svg>
