<?xml version="1.0" encoding="UTF-8"?>
<!DOCTYPE svg PUBLIC "-//W3C//DTD SVG 1.1//EN" "http://www.w3.org/Graphics/SVG/1.1/DTD/svg11.dtd">
<!-- Creator: CorelDRAW X7 -->
<svg xmlns="http://www.w3.org/2000/svg" xml:space="preserve" width="2.7092mm" height="2.7092mm" version="1.1" style="shape-rendering:geometricPrecision; text-rendering:geometricPrecision; image-rendering:optimizeQuality; fill-rule:evenodd; clip-rule:evenodd"
viewBox="0 0 271 271"
 xmlns:xlink="http://www.w3.org/1999/xlink">
 <defs>
  <style type="text/css">
   <![CDATA[
    .fil0 {fill:black}
   ]]>
  </style>
 </defs>
 <g id="Camada_x0020_1">
  <metadata id="CorelCorpID_0Corel-Layer"/>
  <path class="fil0" d="M135 0c75,0 136,61 136,135 0,75 -61,136 -136,136 -74,0 -135,-61 -135,-136 0,-74 61,-135 135,-135zm-76 152l0 34 23 -34 70 0c10,0 17,-7 17,-17l0 -59c0,-9 -8,-17 -17,-17l-93 0c-9,0 -17,8 -17,17l0 59c0,10 8,17 17,17zm153 35l0 25 -23 -25 -70 0c-10,0 -18,-8 -18,-18l0 -8 60 0c8,0 17,-9 17,-17l0 -51 34 0c9,0 17,8 17,17l-1 59c0,10 -7,17 -16,18z"/>
 </g>
</svg>
