<?xml version="1.0" encoding="UTF-8"?>
<!DOCTYPE svg PUBLIC "-//W3C//DTD SVG 1.1//EN" "http://www.w3.org/Graphics/SVG/1.1/DTD/svg11.dtd">
<!-- Creator: CorelDRAW X7 -->
<svg xmlns="http://www.w3.org/2000/svg" xml:space="preserve" width="32px" height="32px" version="1.1" style="shape-rendering:geometricPrecision; text-rendering:geometricPrecision; image-rendering:optimizeQuality; fill-rule:evenodd; clip-rule:evenodd"
viewBox="0 0 32 32"
 xmlns:xlink="http://www.w3.org/1999/xlink">
 <defs>
  <style type="text/css">
   <![CDATA[
    .fil0 {fill:black}
   ]]>
  </style>
 </defs>
 <g id="Camada_x0020_1">
  <metadata id="CorelCorpID_0Corel-Layer"/>
  <path class="fil0" d="M16 0c9,0 16,7 16,16 0,1 0,2 0,4l-16 -16 -16 16c0,-2 0,-3 0,-4 0,-9 7,-16 16,-16zm15 21c0,2 -1,4 -3,5l-8 -8 0 2 7 7c-3,3 -7,5 -11,5 -4,0 -8,-2 -11,-5l7 -7 0 -2 -8 8c-2,-1 -3,-3 -3,-5l15 -15 15 15zm-7 7l-1 -3 -5 -1 -1 -1 0 -1 2 -2 0 -4 -2 -2 -2 0 -2 2 0 4 2 2 0 1 -1 1 -5 1 -1 3 16 0z"/>
 </g>
</svg>
