<?xml version="1.0" encoding="UTF-8"?>
<!DOCTYPE svg PUBLIC "-//W3C//DTD SVG 1.1//EN" "http://www.w3.org/Graphics/SVG/1.1/DTD/svg11.dtd">
<!-- Creator: CorelDRAW X7 -->
<svg xmlns="http://www.w3.org/2000/svg" xml:space="preserve" width="2.7092mm" height="2.7092mm" version="1.1" style="shape-rendering:geometricPrecision; text-rendering:geometricPrecision; image-rendering:optimizeQuality; fill-rule:evenodd; clip-rule:evenodd"
viewBox="0 0 271 271"
 xmlns:xlink="http://www.w3.org/1999/xlink">
 <defs>
  <style type="text/css">
   <![CDATA[
    .fil0 {fill:black}
   ]]>
  </style>
 </defs>
 <g id="Camada_x0020_1">
  <metadata id="CorelCorpID_0Corel-Layer"/>
  <path class="fil0" d="M136 0c74,0 135,61 135,135 0,75 -61,136 -135,136 -75,0 -136,-61 -136,-136 0,-74 61,-135 136,-135zm-39 140l-4 4 13 13 4 -5 -13 -12zm115 -47l0 -25 -51 51 13 12 38 -38zm-153 -25l93 93 -12 13 -81 -81 0 -25zm153 127l-17 17 -26 -26 -12 13 -13 -13 42 -42 13 13 -13 12 26 26zm-144 -136l25 0 81 81 -13 12 -93 -93zm46 106l13 13 4 -4 -12 -13 -5 4zm-55 30l17 17 26 -26 12 13 13 -13 -42 -42 -13 13 13 12 -26 26zm119 -136l-38 38 12 13 51 -51 -25 0z"/>
 </g>
</svg>
