<?xml version="1.0" encoding="UTF-8"?>
<!DOCTYPE svg PUBLIC "-//W3C//DTD SVG 1.1//EN" "http://www.w3.org/Graphics/SVG/1.1/DTD/svg11.dtd">
<!-- Creator: CorelDRAW X7 -->
<svg xmlns="http://www.w3.org/2000/svg" xml:space="preserve" width="32px" height="32px" version="1.1" style="shape-rendering:geometricPrecision; text-rendering:geometricPrecision; image-rendering:optimizeQuality; fill-rule:evenodd; clip-rule:evenodd"
viewBox="0 0 32 32"
 xmlns:xlink="http://www.w3.org/1999/xlink">
 <defs>
  <style type="text/css">
   <![CDATA[
    .fil0 {fill:black}
   ]]>
  </style>
 </defs>
 <g id="Camada_x0020_1">
  <metadata id="CorelCorpID_0Corel-Layer"/>
  <path class="fil0" d="M16 0c9,0 16,7 16,16 0,9 -7,16 -16,16 -9,0 -16,-7 -16,-16 0,-9 7,-16 16,-16zm0 10c3,0 6,3 6,6 0,3 -3,6 -6,6 -3,0 -6,-3 -6,-6 0,-3 3,-6 6,-6zm8 17l3 -3 -1 -1 -3 3 1 1zm-14 -17c3,-4 9,-4 12,0 3,3 4,7 2,11l1 1 -3 3 -1 -1c-4,2 -8,1 -11,-2 -4,-3 -4,-9 0,-12zm1 1c3,-3 7,-3 10,0 3,3 3,7 0,10 -3,3 -7,3 -10,0 -3,-3 -3,-7 0,-10zm8 4l0 2c-3,0 -3,0 -6,0l0 -2c3,0 3,0 6,0z"/>
 </g>
</svg>
