<?xml version="1.0" encoding="UTF-8"?>
<!DOCTYPE svg PUBLIC "-//W3C//DTD SVG 1.1//EN" "http://www.w3.org/Graphics/SVG/1.1/DTD/svg11.dtd">
<!-- Creator: CorelDRAW X7 -->
<svg xmlns="http://www.w3.org/2000/svg" xml:space="preserve" width="2.7092mm" height="2.7092mm" version="1.1" style="shape-rendering:geometricPrecision; text-rendering:geometricPrecision; image-rendering:optimizeQuality; fill-rule:evenodd; clip-rule:evenodd"
viewBox="0 0 271 271"
 xmlns:xlink="http://www.w3.org/1999/xlink">
 <defs>
  <style type="text/css">
   <![CDATA[
    .fil0 {fill:black}
   ]]>
  </style>
 </defs>
 <g id="Camada_x0020_1">
  <metadata id="CorelCorpID_0Corel-Layer"/>
  <path class="fil0" d="M270 135c0,-74 -60,-134 -135,-134 -74,0 -134,60 -134,134 0,75 60,135 134,135 75,0 135,-60 135,-135zm-203 -76c9,0 19,0 28,0 0,4 0,8 -1,12 -5,0 -11,0 -17,0 -1,6 -2,12 -3,19 0,6 -1,13 -2,20 -4,0 -9,0 -13,0 2,-9 3,-18 4,-27 2,-8 3,-16 4,-24zm-17 115c4,0 9,0 14,0 1,-12 3,-23 4,-34 14,0 27,0 41,0 -1,11 -2,22 -2,34 5,0 9,0 14,0 0,-9 1,-18 1,-26 0,-8 0,-16 0,-23 -8,0 -17,0 -26,0 1,-5 1,-10 1,-15 -4,0 -8,0 -12,0 -1,5 -1,10 -2,15 -9,0 -16,0 -25,0 -1,7 -2,15 -3,23 -2,8 -3,17 -4,26l-1 0zm128 0c10,0 19,0 29,0 -1,-6 -2,-12 -2,-18 -5,0 -10,0 -14,0 -1,-5 -1,-11 -2,-16 5,0 9,0 14,0 -1,-5 -2,-10 -2,-15 4,0 8,0 13,0 2,12 4,26 6,40 2,15 4,30 7,47 -5,0 -10,0 -15,0 -1,-7 -2,-14 -3,-20 -10,0 -19,0 -29,0 0,6 1,13 1,20 -5,0 -10,0 -15,0 0,-7 -1,-14 -1,-20 -5,0 -10,0 -15,0 0,6 1,13 1,20 -16,0 -31,0 -46,0 0,-7 1,-14 1,-20 10,0 20,0 29,0 0,-6 0,-12 0,-18 10,0 19,0 29,0 -1,-12 -1,-23 -2,-34 5,0 9,0 14,0 1,11 1,22 2,34l0 0zm-84 -18c-5,0 -9,0 -14,0 -1,12 -2,24 -4,36 -9,0 -19,0 -29,0 -1,6 -2,13 -3,20 15,0 30,0 46,0 0,-10 1,-20 2,-29 1,-9 1,-18 2,-27zm29 -73c8,0 16,0 24,0 1,5 1,9 1,13 -8,0 -17,0 -25,0 0,5 0,9 0,14 -4,0 -9,0 -13,0 0,-5 0,-9 1,-14 -9,0 -17,0 -25,0 0,-4 1,-8 1,-13 8,0 16,0 24,0 1,-4 1,-8 1,-12 -2,0 -4,0 -6,0 0,-4 1,-8 1,-12 6,0 11,0 17,0 0,8 0,16 -1,24l0 0zm12 73c5,0 10,0 14,0 0,-11 0,-21 0,-31 13,0 26,0 39,0 -1,-5 -1,-10 -2,-15 -4,0 -8,0 -12,0 -1,-5 -1,-9 -1,-14 -5,0 -9,0 -13,0 0,5 1,9 1,14 -9,0 -17,0 -26,0 0,7 0,15 0,22 0,8 0,16 0,24l0 0zm37 -73c-4,0 -8,0 -12,0 -1,-4 -1,-8 -1,-12 -8,0 -16,0 -24,0 0,-4 0,-8 0,-12 12,0 23,0 35,0 0,8 1,16 2,24l0 0zm40 27c-5,0 -9,0 -13,0 -1,-5 -1,-9 -2,-14 -4,0 -8,0 -12,0 -1,-4 -1,-8 -1,-13 4,0 8,0 12,0 -1,-4 -1,-8 -2,-12 -4,0 -8,0 -12,0 0,-4 0,-8 -1,-12 8,0 15,0 23,0 1,8 2,16 4,24 1,9 2,18 4,27l0 0z"/>
 </g>
</svg>
