<?xml version="1.0" encoding="UTF-8"?>
<!DOCTYPE svg PUBLIC "-//W3C//DTD SVG 1.1//EN" "http://www.w3.org/Graphics/SVG/1.1/DTD/svg11.dtd">
<!-- Creator: CorelDRAW X7 -->
<svg xmlns="http://www.w3.org/2000/svg" xml:space="preserve" width="32px" height="32px" version="1.1" style="shape-rendering:geometricPrecision; text-rendering:geometricPrecision; image-rendering:optimizeQuality; fill-rule:evenodd; clip-rule:evenodd"
viewBox="0 0 32 32"
 xmlns:xlink="http://www.w3.org/1999/xlink">
 <defs>
  <style type="text/css">
   <![CDATA[
    .fil0 {fill:black}
   ]]>
  </style>
 </defs>
 <g id="Camada_x0020_1">
  <metadata id="CorelCorpID_0Corel-Layer"/>
  <path class="fil0" d="M16 0c9,0 16,7 16,16 0,9 -7,16 -16,16 -9,0 -16,-7 -16,-16 0,-9 7,-16 16,-16zm-4 28l-3 0 6 -10c-1,-1 -1,-1 -1,-2 0,-1 1,-2 2,-2 1,0 2,1 2,2 0,1 0,1 -1,2l6 10 -3 0 -2 -3 -4 0 -2 3zm12 -21c2,2 4,5 4,9 0,4 -2,7 -4,9l-1 -1c3,-2 4,-5 4,-8 0,-3 -1,-6 -4,-8l1 -1zm-16 18c-2,-2 -4,-5 -4,-9 0,-4 2,-7 4,-9l1 1c-3,2 -4,5 -4,8 0,3 1,6 4,8l-1 1zm12 -13c1,1 2,2 2,4 0,2 -1,3 -2,4l0 -1c1,-1 1,-2 1,-3 0,-1 0,-2 -1,-3l0 -1zm-8 8c-1,-1 -2,-2 -2,-4 0,-2 1,-3 2,-4l0 1c-1,1 -1,2 -1,3 0,1 0,2 1,3l0 1zm10 -11c2,2 3,4 3,7 0,3 -1,5 -3,7l0 -1c1,-2 2,-4 2,-6 0,-2 -1,-4 -2,-6l0 -1zm-12 14c-2,-2 -3,-4 -3,-7 0,-3 1,-5 3,-7l0 1c-1,2 -2,4 -2,6 0,2 1,4 2,6l0 1z"/>
 </g>
</svg>
