<?xml version="1.0" encoding="UTF-8"?>
<!DOCTYPE svg PUBLIC "-//W3C//DTD SVG 1.1//EN" "http://www.w3.org/Graphics/SVG/1.1/DTD/svg11.dtd">
<!-- Creator: CorelDRAW X7 -->
<svg xmlns="http://www.w3.org/2000/svg" xml:space="preserve" width="2.7092mm" height="2.7092mm" version="1.1" style="shape-rendering:geometricPrecision; text-rendering:geometricPrecision; image-rendering:optimizeQuality; fill-rule:evenodd; clip-rule:evenodd"
viewBox="0 0 271 271"
 xmlns:xlink="http://www.w3.org/1999/xlink">
 <defs>
  <style type="text/css">
   <![CDATA[
    .fil0 {fill:black}
   ]]>
  </style>
 </defs>
 <g id="Camada_x0020_1">
  <metadata id="CorelCorpID_0Corel-Layer"/>
  <path class="fil0" d="M135 0c75,0 136,61 136,135 0,75 -61,136 -136,136 -74,0 -135,-61 -135,-136 0,-74 61,-135 135,-135zm-33 144l25 0 0 -17 -25 0 0 17zm101 68c0,8 -8,17 -17,17l-101 0c-9,0 -17,-9 -17,-17l0 -153c0,-8 8,-17 17,-17l101 0c9,0 17,9 17,17l0 25 -17 -16 0 -9 -101 0 0 153 101 0 0 -8 17 -18 0 26zm-51 -119l43 34 -60 0 0 17 60 0 -43 34 0 17 17 0 60 -60 -60 -59 -17 0 0 17z"/>
 </g>
</svg>
