<?xml version="1.0" encoding="UTF-8"?>
<!DOCTYPE svg PUBLIC "-//W3C//DTD SVG 1.1//EN" "http://www.w3.org/Graphics/SVG/1.1/DTD/svg11.dtd">
<!-- Creator: CorelDRAW X7 -->
<svg xmlns="http://www.w3.org/2000/svg" xml:space="preserve" width="2.7092mm" height="2.7092mm" version="1.1" style="shape-rendering:geometricPrecision; text-rendering:geometricPrecision; image-rendering:optimizeQuality; fill-rule:evenodd; clip-rule:evenodd"
viewBox="0 0 271 271"
 xmlns:xlink="http://www.w3.org/1999/xlink">
 <defs>
  <style type="text/css">
   <![CDATA[
    .fil0 {fill:black}
   ]]>
  </style>
 </defs>
 <g id="Camada_x0020_1">
  <metadata id="CorelCorpID_0Corel-Layer"/>
  <path class="fil0" d="M135 0c75,0 136,61 136,135 0,75 -61,136 -136,136 -74,0 -135,-61 -135,-136 0,-74 61,-135 135,-135zm-67 42l118 0 0 59c-10,0 -20,3 -28,8 -10,5 -10,5 -14,10l-59 0 0 8 53 0c-2,3 -4,5 -5,8l-48 0 0 9 45 0c-1,3 -2,7 -2,9 -1,3 -1,5 -1,8 0,33 27,59 59,59l0 9 -118 0 0 -187zm118 85l-34 59 68 0 -34 -59zm0 -17c-28,0 -50,23 -50,51 0,28 22,51 50,51 28,0 51,-23 51,-51 0,-28 -23,-51 -51,-51zm-101 85l34 0 0 8 -34 0 0 -8zm0 -26l34 0 0 9 -34 0 0 -9zm0 -76l84 0 0 9 -84 0 0 -9zm0 -25l84 0 0 8 -84 0 0 -8z"/>
 </g>
</svg>
