<?xml version="1.0" encoding="UTF-8"?>
<!DOCTYPE svg PUBLIC "-//W3C//DTD SVG 1.1//EN" "http://www.w3.org/Graphics/SVG/1.1/DTD/svg11.dtd">
<!-- Creator: CorelDRAW X7 -->
<svg xmlns="http://www.w3.org/2000/svg" xml:space="preserve" width="32px" height="32px" version="1.1" style="shape-rendering:geometricPrecision; text-rendering:geometricPrecision; image-rendering:optimizeQuality; fill-rule:evenodd; clip-rule:evenodd"
viewBox="0 0 32 32"
 xmlns:xlink="http://www.w3.org/1999/xlink">
 <defs>
  <style type="text/css">
   <![CDATA[
    .fil0 {fill:black}
   ]]>
  </style>
 </defs>
 <g id="Camada_x0020_1">
  <metadata id="CorelCorpID_0Corel-Layer"/>
  <path class="fil0" d="M16 0c9,0 16,7 16,16 0,9 -7,16 -16,16 -9,0 -16,-7 -16,-16 0,-9 7,-16 16,-16zm-10 9l1 1 3 1 0 1 3 1 1 1 2 1 2 -1 1 -1 3 -1 0 -1 3 -1 1 -1 1 0c-3,-4 -6,-6 -11,-6 -2,0 -3,0 -4,1l0 0c0,1 -1,1 -2,1 0,0 -1,0 -1,0 -1,1 -3,2 -4,4l1 0zm0 2l0 -1 -1 0 0 0 -1 -1 0 -1 0 0c1,-1 3,-3 5,-4 0,0 0,0 0,0 0,-1 0,-2 1,-2 0,0 1,1 1,1 2,-1 3,-1 5,-1 5,0 9,3 12,6l0 0 0 1 -1 1 0 0 -1 0 0 1 -3 1 -1 1 -3 1 0 1 -3 1 -3 -1 0 -1 -3 -1 -1 -1 -3 -1zm2 12c1,0 2,0 2,1 0,0 -1,1 -1,1 2,1 5,2 7,2 5,0 9,-4 11,-8 -1,-1 -1,-1 -1,-1 0,-1 0,-2 1,-2l0 0c0,-2 0,-3 -1,-5l1 0c1,2 1,3 1,5l0 0c1,0 1,1 1,2 0,0 -1,1 -1,1 -2,5 -6,9 -12,9 -3,0 -5,-1 -7,-2 0,0 -1,0 -1,0 -1,0 -2,-1 -2,-2 0,0 1,0 1,0 -2,-2 -3,-5 -3,-8 0,-2 0,-3 1,-5l0 0 0 0 1 0c-1,2 -1,3 -1,5 0,3 1,5 2,7 1,0 1,0 1,0zm8 -15l0 0 0 1 0 0c0,0 0,0 0,0l0 -1c0,0 0,0 0,0zm1 0c0,0 1,0 1,0l0 1c0,0 -1,0 -1,0l0 -1zm2 0c0,1 0,1 0,1l0 1c0,0 0,0 0,-1l0 -1zm1 1c0,0 1,0 1,1l0 1c0,0 -1,-1 -1,-1l0 -1zm2 1c0,0 0,0 0,0l0 1 0 -1zm-7 -1c0,0 -1,0 -1,0l0 -1c0,0 1,0 1,0l0 1zm-2 1c0,0 0,0 0,0l0 -1c0,0 0,0 0,-1l0 2zm-1 0c0,1 -1,1 -1,1l0 -1c0,-1 1,-1 1,-1l0 1zm-2 1l0 -1 0 0 0 1zm13 2c1,1 1,2 1,3 0,4 -4,8 -8,8 -4,0 -8,-4 -8,-8 0,-1 0,-2 1,-3l0 0c0,1 0,2 0,3 0,4 3,7 7,7 4,0 7,-3 7,-7 0,-1 0,-2 0,-3l0 0zm-7 -1c0,0 0,0 0,0l0 1c0,0 0,0 0,0 0,0 0,0 0,0l0 -1c0,0 0,0 0,0zm1 0c0,0 1,0 1,0l0 1 -1 0 0 -1zm-2 1l-1 0 0 -1c0,0 1,0 1,0l0 1zm5 2c0,0 0,1 0,1 0,2 -2,4 -4,4 -2,0 -4,-2 -4,-4 0,0 0,-1 0,-1l1 0c0,1 0,1 0,1 0,2 1,3 3,3 2,0 3,-1 3,-3 0,0 0,0 0,-1l1 0zm-4 -11l0 0 0 0 0 0 0 0 0 0 0 1 0 0 0 0 0 -1 0 0 0 0 0 0 0 0 0 0 0 0zm1 0l0 0 0 0 0 0 0 0 1 0 0 0 0 0 0 0 0 1c0,0 -1,0 -1,0l0 -1zm2 0c0,0 0,0 0,0l0 2c0,-1 0,-1 0,-1l0 -1zm1 1c0,0 1,0 1,0l0 1c0,0 -1,0 -1,0l0 -1zm2 0c0,0 0,1 0,1l0 1c0,0 0,0 0,-1l0 -1zm1 1c0,0 1,1 1,1l0 1c0,0 -1,0 -1,0l0 -2zm1 2c1,0 1,0 1,0l0 1 -1 0 0 -1zm-9 -3c0,0 -1,0 -1,0l0 -1 0 0 0 0 1 0 0 0 0 0 0 0 0 1zm-2 0c0,0 0,0 0,1l0 -2c0,0 0,0 0,0l0 1zm-1 1c0,0 -1,0 -1,0l0 -1c0,0 1,0 1,0l0 1zm-2 1c0,0 0,0 0,0l0 -1c0,0 0,0 0,-1l0 2zm-1 1c0,0 -1,0 -1,0l0 -1c0,0 1,-1 1,-1l0 2zm-2 1l0 0 0 -1c0,0 0,0 0,0l0 1z"/>
 </g>
</svg>
