<?xml version="1.0" encoding="UTF-8"?>
<!DOCTYPE svg PUBLIC "-//W3C//DTD SVG 1.1//EN" "http://www.w3.org/Graphics/SVG/1.1/DTD/svg11.dtd">
<!-- Creator: CorelDRAW X7 -->
<svg xmlns="http://www.w3.org/2000/svg" xml:space="preserve" width="2.7092mm" height="2.7092mm" version="1.1" style="shape-rendering:geometricPrecision; text-rendering:geometricPrecision; image-rendering:optimizeQuality; fill-rule:evenodd; clip-rule:evenodd"
viewBox="0 0 271 271"
 xmlns:xlink="http://www.w3.org/1999/xlink">
 <defs>
  <style type="text/css">
   <![CDATA[
    .fil0 {fill:black}
   ]]>
  </style>
 </defs>
 <g id="Camada_x0020_1">
  <metadata id="CorelCorpID_0Corel-Layer"/>
  <g id="_925566288">
   <polygon class="fil0" points="237,186 229,152 195,144 195,135 203,127 203,93 195,85 178,85 169,93 169,126 178,135 178,144 185,148 195,152 203,186 "/>
   <polygon class="fil0" points="76,195 85,161 127,144 127,135 110,119 110,85 127,76 144,76 161,85 161,119 144,135 144,144 186,161 195,195 "/>
   <polygon class="fil0" points="34,186 42,152 76,144 76,135 68,127 68,93 76,85 93,85 102,93 102,126 93,135 93,144 86,148 76,152 68,186 "/>
  </g>
 </g>
</svg>
