<?xml version="1.0" encoding="UTF-8"?>
<!DOCTYPE svg PUBLIC "-//W3C//DTD SVG 1.1//EN" "http://www.w3.org/Graphics/SVG/1.1/DTD/svg11.dtd">
<!-- Creator: CorelDRAW X7 -->
<svg xmlns="http://www.w3.org/2000/svg" xml:space="preserve" width="2.7092mm" height="2.7092mm" version="1.1" style="shape-rendering:geometricPrecision; text-rendering:geometricPrecision; image-rendering:optimizeQuality; fill-rule:evenodd; clip-rule:evenodd"
viewBox="0 0 271 271"
 xmlns:xlink="http://www.w3.org/1999/xlink">
 <defs>
  <style type="text/css">
   <![CDATA[
    .fil1 {fill:black}
    .fil0 {fill:black}
   ]]>
  </style>
 </defs>
 <g id="Camada_x0020_1">
  <metadata id="CorelCorpID_0Corel-Layer"/>
  <path class="fil0" d="M102 231c-40,-14 -68,-51 -68,-96 0,-14 3,-29 9,-41l6 6c-4,11 -7,23 -7,35 0,40 25,74 60,87l0 9z"/>
  <path class="fil0" d="M202 59c22,19 35,46 35,76 0,35 -17,65 -43,83l-2 -9c22,-17 37,-43 37,-74 0,-29 -15,-56 -36,-73l9 -3z"/>
  <path class="fil0" d="M135 34c9,0 18,1 27,3l-16 6c-4,0 -7,-1 -11,-1 -30,0 -56,15 -73,37l-19 13c17,-34 52,-58 92,-58z"/>
  <path class="fil0" d="M102 228c-21,-12 -34,-34 -34,-59 0,-6 1,-13 3,-19l6 12c-1,2 -1,5 -1,7 0,20 10,38 26,49l0 10z"/>
  <path class="fil0" d="M135 102c38,0 68,30 68,67 0,14 -4,28 -11,38l-3 -11c4,-8 6,-17 6,-27 0,-32 -27,-59 -60,-59 -14,0 -27,5 -37,13l-1 -9c11,-8 24,-12 38,-12z"/>
  <polygon class="fil1" points="161,237 161,220 167,203 169,203 178,237 186,237 186,220 178,178 144,169 143,161 152,152 152,127 144,119 127,119 119,127 119,152 127,161 127,169 110,169 93,144 84,93 93,85 203,51 212,34 195,34 76,76 51,93 59,102 76,93 76,144 102,195 110,212 110,237 "/>
 </g>
</svg>
