<?xml version="1.0" encoding="UTF-8"?>
<!DOCTYPE svg PUBLIC "-//W3C//DTD SVG 1.1//EN" "http://www.w3.org/Graphics/SVG/1.1/DTD/svg11.dtd">
<!-- Creator: CorelDRAW X7 -->
<svg xmlns="http://www.w3.org/2000/svg" xml:space="preserve" width="2.7092mm" height="2.7092mm" version="1.1" style="shape-rendering:geometricPrecision; text-rendering:geometricPrecision; image-rendering:optimizeQuality; fill-rule:evenodd; clip-rule:evenodd"
viewBox="0 0 271 271"
 xmlns:xlink="http://www.w3.org/1999/xlink">
 <defs>
  <style type="text/css">
   <![CDATA[
    .fil0 {fill:black}
   ]]>
  </style>
 </defs>
 <g id="Camada_x0020_1">
  <metadata id="CorelCorpID_0Corel-Layer"/>
  <path class="fil0" d="M89 140l-9 8 17 17 9 -8 -17 -17zm148 -64l0 -34 -72 72 17 17 55 -55zm-203 -34l131 132 -17 16 -114 -114 0 -34zm203 178l-17 17 -38 -38 -21 21 -17 -17 59 -59 17 17 -21 21 38 38zm-195 -186l34 0 114 114 -16 17 -132 -131zm64 140l17 16 8 -8 -17 -17 -8 9zm-72 46l17 17 38 -38 21 21 17 -17 -59 -59 -17 17 21 21 -38 38zm161 -186l-55 55 17 17 72 -72 -34 0z"/>
 </g>
</svg>
