<?xml version="1.0" encoding="UTF-8"?>
<!DOCTYPE svg PUBLIC "-//W3C//DTD SVG 1.1//EN" "http://www.w3.org/Graphics/SVG/1.1/DTD/svg11.dtd">
<!-- Creator: CorelDRAW X7 -->
<svg xmlns="http://www.w3.org/2000/svg" xml:space="preserve" width="2.7092mm" height="2.7092mm" version="1.1" style="shape-rendering:geometricPrecision; text-rendering:geometricPrecision; image-rendering:optimizeQuality; fill-rule:evenodd; clip-rule:evenodd"
viewBox="0 0 271 271"
 xmlns:xlink="http://www.w3.org/1999/xlink">
 <defs>
  <style type="text/css">
   <![CDATA[
    .fil0 {fill:black}
   ]]>
  </style>
 </defs>
 <g id="Camada_x0020_1">
  <metadata id="CorelCorpID_0Corel-Layer"/>
  <path class="fil0" d="M93 212l9 -51 34 -9 16 -8 0 -9 -17 -16 0 -43 17 -17 26 0 17 17 0 43 -17 16 0 9 17 8 34 9 8 51 -144 0zm-59 0l9 -51 33 -9 9 -8 0 -9 -17 -16 0 -34 17 -17 25 0 17 18 0 33 -17 16 0 9 5 5 -13 3 -6 3 -3 6 -8 51 -51 0z"/>
 </g>
</svg>
