<?xml version="1.0" encoding="UTF-8"?>
<!DOCTYPE svg PUBLIC "-//W3C//DTD SVG 1.1//EN" "http://www.w3.org/Graphics/SVG/1.1/DTD/svg11.dtd">
<!-- Creator: CorelDRAW X7 -->
<svg xmlns="http://www.w3.org/2000/svg" xml:space="preserve" width="2.7092mm" height="2.7092mm" version="1.1" style="shape-rendering:geometricPrecision; text-rendering:geometricPrecision; image-rendering:optimizeQuality; fill-rule:evenodd; clip-rule:evenodd"
viewBox="0 0 271 271"
 xmlns:xlink="http://www.w3.org/1999/xlink">
 <defs>
  <style type="text/css">
   <![CDATA[
    .fil0 {fill:black}
   ]]>
  </style>
 </defs>
 <g id="Camada_x0020_1">
  <metadata id="CorelCorpID_0Corel-Layer"/>
  <path class="fil0" d="M237 42l-8 -8 -26 8 0 17 -59 60 -25 0 -9 8 -68 68 -8 17 8 17 17 8 17 -8 76 -77 0 -25 60 -59 17 0 8 -26zm-203 43l0 -26 17 18 25 -1 1 -25 -18 -17 26 0 17 17 0 25 -5 4 30 30 -17 0 -9 8 -21 -21 -4 5 -25 0 -17 -17zm140 105l-22 -21 9 -8 0 -17 29 30c6,-3 8,-5 13,-5 17,0 34,9 34,34 0,26 -17,34 -34,34 -17,0 -34,-17 -34,-34 0,-5 2,-7 5,-13zm29 -4c-8,0 -17,9 -17,17 0,9 9,17 17,17 9,0 17,-8 17,-17 0,-8 -8,-17 -17,-17z"/>
 </g>
</svg>
