<?xml version="1.0" encoding="UTF-8"?>
<!DOCTYPE svg PUBLIC "-//W3C//DTD SVG 1.1//EN" "http://www.w3.org/Graphics/SVG/1.1/DTD/svg11.dtd">
<!-- Creator: CorelDRAW X7 -->
<svg xmlns="http://www.w3.org/2000/svg" xml:space="preserve" width="2.7092mm" height="2.7092mm" version="1.1" style="shape-rendering:geometricPrecision; text-rendering:geometricPrecision; image-rendering:optimizeQuality; fill-rule:evenodd; clip-rule:evenodd"
viewBox="0 0 271 271"
 xmlns:xlink="http://www.w3.org/1999/xlink">
 <defs>
  <style type="text/css">
   <![CDATA[
    .fil0 {fill:black}
   ]]>
  </style>
 </defs>
 <g id="Camada_x0020_1">
  <metadata id="CorelCorpID_0Corel-Layer"/>
  <path class="fil0" d="M220 237l-186 0 17 -68 9 -8 25 0 25 -17 0 -17 -8 -8 -9 -17 0 -43 26 -26 16 1 26 25 0 43 -8 17 -9 8 0 17 5 3c-3,7 -5,14 -5,22 0,28 23,51 51,51 7,0 15,-2 21,-5l4 22zm-25 -110c23,0 42,19 42,42 0,24 -19,43 -42,43 -24,0 -43,-19 -43,-43 0,-23 19,-42 43,-42zm-26 51l0 -17 17 0 0 -17 17 0 0 17 17 0 0 17 -17 0 0 17 -17 0 0 -17 -17 0z"/>
 </g>
</svg>
