<?xml version="1.0" encoding="UTF-8"?>
<!DOCTYPE svg PUBLIC "-//W3C//DTD SVG 1.1//EN" "http://www.w3.org/Graphics/SVG/1.1/DTD/svg11.dtd">
<!-- Creator: CorelDRAW X7 -->
<svg xmlns="http://www.w3.org/2000/svg" xml:space="preserve" width="2.7092mm" height="2.7092mm" version="1.1" style="shape-rendering:geometricPrecision; text-rendering:geometricPrecision; image-rendering:optimizeQuality; fill-rule:evenodd; clip-rule:evenodd"
viewBox="0 0 271 271"
 xmlns:xlink="http://www.w3.org/1999/xlink">
 <defs>
  <style type="text/css">
   <![CDATA[
    .fil0 {fill:black}
   ]]>
  </style>
 </defs>
 <g id="Camada_x0020_1">
  <metadata id="CorelCorpID_0Corel-Layer"/>
  <path class="fil0" d="M135 50l-21 -8 -4 -9 -8 0 0 9 -17 0 -26 18 -17 9 -8 26 25 25 17 0 17 58 -8 59 50 -17 51 17 -8 -59 17 -58 17 0 25 -25 -8 -26 -17 -18 -26 -9 -17 0 0 -9 -8 0 -4 9 -22 8 0 0zm-25 19l51 0 0 -19 4 -4 4 4 0 28 0 12 26 22 -13 8 -21 -25 0 -17 -51 0 0 17 -21 25 -13 -8 26 -22 0 -12 0 -28 4 -4 4 4 0 19zm25 34l-21 13 -12 12 12 -4 21 -4 22 4 12 4 -12 -12 -22 -13zm0 100l-8 -25 -17 -5 17 -4 8 -25 9 25 17 4 -17 5 -9 25z"/>
 </g>
</svg>
