<?xml version="1.0" encoding="UTF-8"?>
<!DOCTYPE svg PUBLIC "-//W3C//DTD SVG 1.1//EN" "http://www.w3.org/Graphics/SVG/1.1/DTD/svg11.dtd">
<!-- Creator: CorelDRAW X7 -->
<svg xmlns="http://www.w3.org/2000/svg" xml:space="preserve" width="2.7092mm" height="2.7092mm" version="1.1" style="shape-rendering:geometricPrecision; text-rendering:geometricPrecision; image-rendering:optimizeQuality; fill-rule:evenodd; clip-rule:evenodd"
viewBox="0 0 271 271"
 xmlns:xlink="http://www.w3.org/1999/xlink">
 <defs>
  <style type="text/css">
   <![CDATA[
    .fil0 {fill:black}
   ]]>
  </style>
 </defs>
 <g id="Camada_x0020_1">
  <metadata id="CorelCorpID_0Corel-Layer"/>
  <path class="fil0" d="M34 34l152 0 0 67c-11,0 -21,4 -30,9l-105 0 0 17 87 0c-2,3 -4,5 -5,8l-82 0 0 17 77 0c-1,3 -1,6 -1,9 0,33 27,59 59,59l0 17 -152 0 0 -203zm152 76c-28,0 -50,23 -50,51 0,28 22,51 50,51 28,0 51,-23 51,-51 0,-28 -23,-51 -51,-51zm-34 51l9 -9 17 26 34 -43 8 17 -34 34 -8 9 -9 -8 -17 -26zm-101 34l59 0 0 17 -59 0 0 -17zm0 -26l59 0 0 17 -59 0 0 -17zm0 -84l110 0 0 17 -110 0 0 -17zm0 -26l118 0 0 17 -118 0 0 -17z"/>
 </g>
</svg>
