<?xml version="1.0" encoding="UTF-8"?>
<!DOCTYPE svg PUBLIC "-//W3C//DTD SVG 1.1//EN" "http://www.w3.org/Graphics/SVG/1.1/DTD/svg11.dtd">
<!-- Creator: CorelDRAW X7 -->
<svg xmlns="http://www.w3.org/2000/svg" xml:space="preserve" width="2.7092mm" height="2.7092mm" version="1.1" style="shape-rendering:geometricPrecision; text-rendering:geometricPrecision; image-rendering:optimizeQuality; fill-rule:evenodd; clip-rule:evenodd"
viewBox="0 0 271 271"
 xmlns:xlink="http://www.w3.org/1999/xlink">
 <defs>
  <style type="text/css">
   <![CDATA[
    .fil0 {fill:black}
   ]]>
  </style>
 </defs>
 <g id="Camada_x0020_1">
  <metadata id="CorelCorpID_0Corel-Layer"/>
  <path class="fil0" d="M85 152l25 0 0 -33 -25 0 0 33zm110 68c0,9 -9,17 -17,17l-119 0c-8,0 -17,-8 -17,-17l0 -169c0,-9 9,-17 17,-17l119 0c8,0 17,8 17,17l0 41 -26 -24 0 -9 -101 0 0 153 101 0 0 -8 26 -26 0 42zm-60 -127l32 26 -48 0 0 33 48 0 -32 26 0 17 17 0 77 -60 -77 -59 -16 0 -1 17z"/>
 </g>
</svg>
