<?xml version="1.0" encoding="UTF-8"?>
<!DOCTYPE svg PUBLIC "-//W3C//DTD SVG 1.1//EN" "http://www.w3.org/Graphics/SVG/1.1/DTD/svg11.dtd">
<!-- Creator: CorelDRAW X7 -->
<svg xmlns="http://www.w3.org/2000/svg" xml:space="preserve" width="2.7092mm" height="2.7092mm" version="1.1" style="shape-rendering:geometricPrecision; text-rendering:geometricPrecision; image-rendering:optimizeQuality; fill-rule:evenodd; clip-rule:evenodd"
viewBox="0 0 271 271"
 xmlns:xlink="http://www.w3.org/1999/xlink">
 <defs>
  <style type="text/css">
   <![CDATA[
    .fil0 {fill:black}
   ]]>
  </style>
 </defs>
 <g id="Camada_x0020_1">
  <metadata id="CorelCorpID_0Corel-Layer"/>
  <path class="fil0" d="M42 59l34 0 98 98 -17 17 -115 -115zm170 -8l-21 38 29 21 -34 9 0 33 -84 -84 33 0 17 -34 17 34 43 -17zm-34 25l-9 17 17 9 -17 0 5 12 -34 -34 12 5 0 -17 9 17 17 -9zm-144 -8l114 114 -17 17 -97 -97 0 -34zm178 152l-17 17 -34 -34 -17 17 -13 -13 51 -50 13 13 -17 16 34 34z"/>
 </g>
</svg>
