<?xml version="1.0" encoding="UTF-8"?>
<!DOCTYPE svg PUBLIC "-//W3C//DTD SVG 1.1//EN" "http://www.w3.org/Graphics/SVG/1.1/DTD/svg11.dtd">
<!-- Creator: CorelDRAW X7 -->
<svg xmlns="http://www.w3.org/2000/svg" xml:space="preserve" width="2.7092mm" height="2.7092mm" version="1.1" style="shape-rendering:geometricPrecision; text-rendering:geometricPrecision; image-rendering:optimizeQuality; fill-rule:evenodd; clip-rule:evenodd"
viewBox="0 0 271 271"
 xmlns:xlink="http://www.w3.org/1999/xlink">
 <defs>
  <style type="text/css">
   <![CDATA[
    .fil0 {fill:black}
   ]]>
  </style>
 </defs>
 <g id="Camada_x0020_1">
  <metadata id="CorelCorpID_0Corel-Layer"/>
  <path class="fil0" d="M220 118c0,-46 -38,-84 -85,-84 -46,0 -84,38 -84,84 0,41 29,76 68,83l0 11 33 0 0 -11c39,-7 68,-42 68,-83zm-34 0c0,-28 -23,-50 -51,-50 -28,0 -50,22 -50,50 0,29 22,51 50,51 28,0 51,-22 51,-51zm-67 119l33 0 0 -17 -33 0 0 17zm84 -119c0,-37 -30,-67 -68,-67 -37,0 -67,30 -67,67 0,38 30,68 67,68 38,0 68,-30 68,-68z"/>
 </g>
</svg>
