<?xml version="1.0" encoding="UTF-8"?>
<!DOCTYPE svg PUBLIC "-//W3C//DTD SVG 1.1//EN" "http://www.w3.org/Graphics/SVG/1.1/DTD/svg11.dtd">
<!-- Creator: CorelDRAW X7 -->
<svg xmlns="http://www.w3.org/2000/svg" xml:space="preserve" width="2.7092mm" height="2.7092mm" version="1.1" style="shape-rendering:geometricPrecision; text-rendering:geometricPrecision; image-rendering:optimizeQuality; fill-rule:evenodd; clip-rule:evenodd"
viewBox="0 0 271 271"
 xmlns:xlink="http://www.w3.org/1999/xlink">
 <defs>
  <style type="text/css">
   <![CDATA[
    .fil0 {fill:black}
   ]]>
  </style>
 </defs>
 <g id="Camada_x0020_1">
  <metadata id="CorelCorpID_0Corel-Layer"/>
  <path class="fil0" d="M152 34c9,0 17,8 17,17l0 8 -17 0 0 -8 -33 0 0 8 -17 0 0 -8c0,-9 8,-17 17,-17l33 0zm9 101l36 -36 23 120c-1,10 -7,18 -17,18l-135 0c-9,0 -17,-8 -17,-17l23 -121 36 36 51 0zm-34 17l-8 9 8 8 25 0 9 -8 -9 -9 -25 0zm-34 -84c-8,0 -17,8 -17,17l34 34 51 0 34 -35c0,-8 -10,-16 -18,-16l-84 0z"/>
 </g>
</svg>
