<?xml version="1.0" encoding="UTF-8"?>
<!DOCTYPE svg PUBLIC "-//W3C//DTD SVG 1.1//EN" "http://www.w3.org/Graphics/SVG/1.1/DTD/svg11.dtd">
<!-- Creator: CorelDRAW X7 -->
<svg xmlns="http://www.w3.org/2000/svg" xml:space="preserve" width="32px" height="32px" version="1.1" style="shape-rendering:geometricPrecision; text-rendering:geometricPrecision; image-rendering:optimizeQuality; fill-rule:evenodd; clip-rule:evenodd"
viewBox="0 0 32 32"
 xmlns:xlink="http://www.w3.org/1999/xlink">
 <defs>
  <style type="text/css">
   <![CDATA[
    .fil0 {fill:black}
   ]]>
  </style>
 </defs>
 <g id="Camada_x0020_1">
  <metadata id="CorelCorpID_0Corel-Layer"/>
  <path class="fil0" d="M4 28l8 -8 0 -2 -8 8 0 2zm20 0l-1 -3 -5 -1 -1 -1 0 -1 2 -2 0 -4 -2 -2 -2 0 -2 2 0 4 2 2 0 1 -1 1 -5 1 -1 3 16 0zm4 -12l-12 -12 -12 12 0 2 12 -12 12 12 0 -2zm0 10l-8 -8 0 2 8 8 0 -2z"/>
 </g>
</svg>
