<?xml version="1.0" encoding="UTF-8"?>
<!DOCTYPE svg PUBLIC "-//W3C//DTD SVG 1.1//EN" "http://www.w3.org/Graphics/SVG/1.1/DTD/svg11.dtd">
<!-- Creator: CorelDRAW X7 -->
<svg xmlns="http://www.w3.org/2000/svg" xml:space="preserve" width="2.7092mm" height="2.7092mm" version="1.1" style="shape-rendering:geometricPrecision; text-rendering:geometricPrecision; image-rendering:optimizeQuality; fill-rule:evenodd; clip-rule:evenodd"
viewBox="0 0 271 271"
 xmlns:xlink="http://www.w3.org/1999/xlink">
 <defs>
  <style type="text/css">
   <![CDATA[
    .fil0 {fill:black}
   ]]>
  </style>
 </defs>
 <g id="Camada_x0020_1">
  <metadata id="CorelCorpID_0Corel-Layer"/>
  <path class="fil0" d="M59 51c11,0 21,0 32,0 0,4 -1,8 -1,13 -7,0 -13,0 -20,0 -1,7 -1,14 -2,21 -1,7 -2,15 -3,22 -5,0 -10,0 -14,0 1,-10 3,-20 4,-29 2,-10 3,-19 4,-27zm-19 127c5,0 11,0 16,0 2,-13 3,-26 5,-38 15,0 30,0 45,0 -1,12 -2,25 -2,38 5,0 10,0 16,0 0,-10 0,-19 0,-29 0,-8 1,-17 1,-26 -10,0 -19,0 -29,0 0,-5 1,-10 1,-16 -5,0 -9,0 -14,0 -1,6 -1,11 -2,16 -9,0 -19,0 -29,0 -1,9 -2,17 -4,26 -1,10 -2,19 -4,29zm143 0c11,0 21,0 32,0 -1,-7 -2,-13 -3,-19 -5,0 -10,0 -15,0 -1,-7 -1,-13 -2,-19 5,0 10,0 15,0 -1,-5 -1,-11 -2,-17 5,0 10,0 15,0 2,15 4,29 6,45 3,17 5,34 8,52 -6,0 -11,0 -17,0 -1,-7 -2,-15 -3,-22 -11,0 -21,0 -32,0 0,7 1,15 1,22 -5,0 -11,0 -17,0 0,-7 0,-15 -1,-22 -5,0 -11,0 -16,0 0,7 0,15 0,22 -17,0 -33,0 -50,0 0,-7 0,-15 1,-22 11,0 22,0 32,0 0,-7 0,-13 0,-20 11,0 22,0 32,0 0,-13 -1,-26 -2,-38 5,0 10,0 15,0 1,12 2,25 3,38zm-94 -19c-5,0 -10,0 -15,0 -1,12 -3,26 -4,39 -11,0 -22,0 -33,0 -1,7 -2,15 -3,22 17,0 34,0 51,0 0,-11 1,-22 2,-32 1,-10 2,-20 2,-29zm33 -81c9,0 18,0 27,0 0,4 0,9 0,14 -9,0 -18,0 -27,0 0,5 -1,10 -1,15 -4,0 -9,0 -14,0 0,-5 1,-10 1,-15 -9,0 -18,0 -27,0 0,-5 0,-10 1,-14 9,0 18,0 27,0 0,-5 0,-10 0,-14 -2,0 -4,0 -6,0 0,-5 0,-9 1,-13 6,0 12,0 19,0 0,8 -1,17 -1,27zm13 81c6,0 11,0 16,0 0,-13 -1,-24 -1,-36 14,0 29,0 43,0 0,-5 -1,-10 -1,-16 -5,0 -10,0 -14,0 -1,-5 -1,-10 -1,-15 -5,0 -10,0 -14,0 0,5 0,10 1,15 -10,0 -19,0 -29,0 0,8 0,16 0,25 0,8 0,17 0,27zm41 -81c-5,0 -9,0 -14,0 0,-5 0,-10 -1,-14 -8,0 -17,0 -26,0 0,-5 0,-9 0,-13 13,0 26,0 39,0 0,8 1,17 2,27zm44 29c-5,0 -9,0 -14,0 -1,-5 -1,-10 -2,-15 -4,0 -9,0 -14,0 0,-5 -1,-10 -1,-14 4,0 9,0 13,0 0,-5 -1,-10 -1,-14 -5,0 -9,0 -13,0 -1,-5 -1,-9 -2,-13 9,0 17,0 26,0 1,8 2,17 4,27 1,9 3,19 4,29z"/>
 </g>
</svg>
