<?xml version="1.0" encoding="UTF-8"?>
<!DOCTYPE svg PUBLIC "-//W3C//DTD SVG 1.1//EN" "http://www.w3.org/Graphics/SVG/1.1/DTD/svg11.dtd">
<!-- Creator: CorelDRAW X7 -->
<svg xmlns="http://www.w3.org/2000/svg" xml:space="preserve" width="2.7092mm" height="2.7092mm" version="1.1" style="shape-rendering:geometricPrecision; text-rendering:geometricPrecision; image-rendering:optimizeQuality; fill-rule:evenodd; clip-rule:evenodd"
viewBox="0 0 271 271"
 xmlns:xlink="http://www.w3.org/1999/xlink">
 <defs>
  <style type="text/css">
   <![CDATA[
    .fil0 {fill:black}
   ]]>
  </style>
 </defs>
 <g id="Camada_x0020_1">
  <metadata id="CorelCorpID_0Corel-Layer"/>
  <path class="fil0" d="M51 152l0 34 22 -34 79 0c10,0 17,-7 17,-17l0 -76c0,-9 -7,-17 -17,-17l-101 0c-9,0 -17,8 -17,17l0 76c0,10 7,17 17,17zm169 51l0 34 -22 -34 -79 0c-10,0 -17,-7 -17,-17l0 -25 59 0c8,0 17,-9 17,-17l0 -51 42 0c9,0 17,8 17,18l0 75c0,10 -8,17 -17,17z"/>
 </g>
</svg>
