<?xml version="1.0" encoding="UTF-8"?>
<!DOCTYPE svg PUBLIC "-//W3C//DTD SVG 1.1//EN" "http://www.w3.org/Graphics/SVG/1.1/DTD/svg11.dtd">
<!-- Creator: CorelDRAW X7 -->
<svg xmlns="http://www.w3.org/2000/svg" xml:space="preserve" width="2.7092mm" height="2.7092mm" version="1.1" style="shape-rendering:geometricPrecision; text-rendering:geometricPrecision; image-rendering:optimizeQuality; fill-rule:evenodd; clip-rule:evenodd"
viewBox="0 0 271 271"
 xmlns:xlink="http://www.w3.org/1999/xlink">
 <defs>
  <style type="text/css">
   <![CDATA[
    .fil0 {fill:black}
   ]]>
  </style>
 </defs>
 <g id="Camada_x0020_1">
  <metadata id="CorelCorpID_0Corel-Layer"/>
  <path class="fil0" d="M212 76l0 161 -77 -34 -76 34 0 -203 153 0 0 34 -136 0 136 8zm-43 51l-25 0 0 -25 -17 0 0 25 -25 0 0 17 25 0 0 25 17 0 0 -25 25 0 0 -17z"/>
  <polygon class="fil0" points="34,42 34,59 51,59 51,42 "/>
  <polygon class="fil0" points="220,42 220,59 237,59 237,42 "/>
 </g>
</svg>
