<?xml version="1.0" encoding="UTF-8"?>
<!DOCTYPE svg PUBLIC "-//W3C//DTD SVG 1.1//EN" "http://www.w3.org/Graphics/SVG/1.1/DTD/svg11.dtd">
<!-- Creator: CorelDRAW X7 -->
<svg xmlns="http://www.w3.org/2000/svg" xml:space="preserve" width="2.7092mm" height="2.7092mm" version="1.1" style="shape-rendering:geometricPrecision; text-rendering:geometricPrecision; image-rendering:optimizeQuality; fill-rule:evenodd; clip-rule:evenodd"
viewBox="0 0 271 271"
 xmlns:xlink="http://www.w3.org/1999/xlink">
 <defs>
  <style type="text/css">
   <![CDATA[
    .fil0 {fill:black}
   ]]>
  </style>
 </defs>
 <g id="Camada_x0020_1">
  <metadata id="CorelCorpID_0Corel-Layer"/>
  <path class="fil0" d="M110 229l0 -9 4 -4 9 8 -4 5 -9 0zm102 -94l0 -8 -9 0 -84 85 8 0 0 8 85 -85zm-26 -93l0 85 -76 76 -51 0 0 -161 127 0zm-17 77l-93 0 0 8 93 0 0 -8zm0 -26l-93 0 0 9 93 0 0 -9zm-42 51l-51 0 0 8 51 0 0 -8zm42 -76l-93 0 0 8 93 0 0 -8zm17 110l0 25 -25 0 25 -25z"/>
 </g>
</svg>
